<?xml version="1.0" encoding="UTF-8" standalone="no"?>
<!DOCTYPE svg PUBLIC "-//W3C//DTD SVG 1.1//EN"
 "http://www.w3.org/Graphics/SVG/1.1/DTD/svg11.dtd">
<!-- Generated by graphviz version 2.40.1 (20161225.0304)
 -->
<!-- Title: dependencies Pages: 1 -->
<svg width="504pt" height="284pt"
 viewBox="0.00 0.00 504.00 284.00" xmlns="http://www.w3.org/2000/svg" xmlns:xlink="http://www.w3.org/1999/xlink">
<g id="graph0" class="graph" transform="scale(1 1) rotate(0) translate(4 280)">
<title>dependencies</title>
<polygon fill="#ffffff" stroke="transparent" points="-4,4 -4,-280 500,-280 500,4 -4,4"/>
<text text-anchor="start" x="227.0091" y="-42.4" font-family="sans-serif" font-weight="bold" font-size="14.00" fill="#000000">Legend</text>
<polygon fill="#ffffb3" stroke="transparent" points="14,-10 14,-30 34,-30 34,-10 14,-10"/>
<text text-anchor="start" x="37.629" y="-15.4" font-family="sans-serif" font-size="14.00" fill="#000000"> &#160;Declarations</text>
<polygon fill="#8dd3c7" stroke="transparent" points="127,-10 127,-30 147,-30 147,-10 127,-10"/>
<text text-anchor="start" x="150.7251" y="-15.4" font-family="sans-serif" font-size="14.00" fill="#000000"> &#160;Module</text>
<polygon fill="#80b1d3" stroke="transparent" points="213,-10 213,-30 233,-30 233,-10 213,-10"/>
<text text-anchor="start" x="236.7812" y="-15.4" font-family="sans-serif" font-size="14.00" fill="#000000"> &#160;Bootstrap</text>
<polygon fill="#fdb462" stroke="transparent" points="310,-10 310,-30 330,-30 330,-10 310,-10"/>
<text text-anchor="start" x="333.6732" y="-15.4" font-family="sans-serif" font-size="14.00" fill="#000000"> &#160;Providers</text>
<polygon fill="#fb8072" stroke="transparent" points="406,-10 406,-30 426,-30 426,-10 406,-10"/>
<text text-anchor="start" x="429.7258" y="-15.4" font-family="sans-serif" font-size="14.00" fill="#000000"> &#160;Exports</text>
<g id="clust1" class="cluster">
<title>cluster_ContextMenuModule</title>
<polygon fill="none" stroke="#000000" stroke-dasharray="1,5" points="47,-70 47,-268 449,-268 449,-70 47,-70"/>
</g>
<g id="clust2" class="cluster">
<title>cluster_ContextMenuModule_declarations</title>
<polygon fill="none" stroke="#000000" points="58,-78 58,-130 438,-130 438,-78 58,-78"/>
</g>
<g id="clust6" class="cluster">
<title>cluster_ContextMenuModule_exports</title>
<polygon fill="none" stroke="#000000" points="55,-208 55,-260 441,-260 441,-208 55,-208"/>
</g>
<!-- ContextMenuComponent -->
<g id="node1" class="node">
<title>ContextMenuComponent</title>
<polygon fill="#ffffb3" stroke="#000000" points="430.3243,-122 271.6757,-122 271.6757,-86 430.3243,-86 430.3243,-122"/>
<text text-anchor="middle" x="351" y="-99.8" font-family="Times,serif" font-size="14.00" fill="#000000">ContextMenuComponent</text>
</g>
<!-- ContextMenuModule -->
<g id="node3" class="node">
<title>ContextMenuModule</title>
<polygon fill="#8dd3c7" stroke="#000000" points="228.0422,-187 225.0422,-191 204.0422,-191 201.0422,-187 91.9578,-187 91.9578,-151 228.0422,-151 228.0422,-187"/>
<text text-anchor="middle" x="160" y="-164.8" font-family="Times,serif" font-size="14.00" fill="#000000">ContextMenuModule</text>
</g>
<!-- ContextMenuComponent&#45;&gt;ContextMenuModule -->
<g id="edge1" class="edge">
<title>ContextMenuComponent&#45;&gt;ContextMenuModule</title>
<path fill="none" stroke="#000000" d="M377.3873,-122.0225C377.3873,-139.3734 377.3873,-163 377.3873,-163 377.3873,-163 238.1863,-163 238.1863,-163"/>
<polygon fill="#000000" stroke="#000000" points="238.1863,-159.5001 228.1863,-163 238.1862,-166.5001 238.1863,-159.5001"/>
</g>
<!-- ContextMenuTriggerDirective -->
<g id="node2" class="node">
<title>ContextMenuTriggerDirective</title>
<polygon fill="#ffffb3" stroke="#000000" points="253.5534,-122 66.4466,-122 66.4466,-86 253.5534,-86 253.5534,-122"/>
<text text-anchor="middle" x="160" y="-99.8" font-family="Times,serif" font-size="14.00" fill="#000000">ContextMenuTriggerDirective</text>
</g>
<!-- ContextMenuTriggerDirective&#45;&gt;ContextMenuModule -->
<g id="edge2" class="edge">
<title>ContextMenuTriggerDirective&#45;&gt;ContextMenuModule</title>
<path fill="none" stroke="#000000" d="M160,-122.1061C160,-122.1061 160,-140.991 160,-140.991"/>
<polygon fill="#000000" stroke="#000000" points="156.5001,-140.9909 160,-150.991 163.5001,-140.991 156.5001,-140.9909"/>
</g>
<!-- ContextMenuComponent  -->
<g id="node4" class="node">
<title>ContextMenuComponent </title>
<polygon fill="#fb8072" stroke="#000000" points="432.8241,-252 271.1759,-252 271.1759,-216 432.8241,-216 432.8241,-252"/>
<text text-anchor="middle" x="352" y="-229.8" font-family="Times,serif" font-size="14.00" fill="#000000">ContextMenuComponent </text>
</g>
<!-- ContextMenuModule&#45;&gt;ContextMenuComponent  -->
<g id="edge3" class="edge">
<title>ContextMenuModule&#45;&gt;ContextMenuComponent </title>
<path fill="none" stroke="#000000" stroke-dasharray="5,2" d="M228.3805,-175C273.6076,-175 324.6127,-175 324.6127,-175 324.6127,-175 324.6127,-205.9775 324.6127,-205.9775"/>
<polygon fill="#000000" stroke="#000000" points="321.1128,-205.9774 324.6127,-215.9775 328.1128,-205.9775 321.1128,-205.9774"/>
</g>
<!-- ContextMenuTriggerDirective  -->
<g id="node5" class="node">
<title>ContextMenuTriggerDirective </title>
<polygon fill="#fb8072" stroke="#000000" points="253.0539,-252 62.9461,-252 62.9461,-216 253.0539,-216 253.0539,-252"/>
<text text-anchor="middle" x="158" y="-229.8" font-family="Times,serif" font-size="14.00" fill="#000000">ContextMenuTriggerDirective </text>
</g>
<!-- ContextMenuModule&#45;&gt;ContextMenuTriggerDirective  -->
<g id="edge4" class="edge">
<title>ContextMenuModule&#45;&gt;ContextMenuTriggerDirective </title>
<path fill="none" stroke="#000000" stroke-dasharray="5,2" d="M160,-187.1061C160,-187.1061 160,-205.991 160,-205.991"/>
<polygon fill="#000000" stroke="#000000" points="156.5001,-205.9909 160,-215.991 163.5001,-205.991 156.5001,-205.9909"/>
</g>
</g>
</svg>
