<?xml version="1.0" encoding="UTF-8" standalone="no"?>
<!DOCTYPE svg PUBLIC "-//W3C//DTD SVG 1.1//EN"
 "http://www.w3.org/Graphics/SVG/1.1/DTD/svg11.dtd">
<!-- Generated by graphviz version 2.40.1 (20161225.0304)
 -->
<!-- Title: dependencies Pages: 1 -->
<svg width="504pt" height="284pt"
 viewBox="0.00 0.00 504.00 284.00" xmlns="http://www.w3.org/2000/svg" xmlns:xlink="http://www.w3.org/1999/xlink">
<g id="graph0" class="graph" transform="scale(1 1) rotate(0) translate(4 280)">
<title>dependencies</title>
<polygon fill="#ffffff" stroke="transparent" points="-4,4 -4,-280 500,-280 500,4 -4,4"/>
<text text-anchor="start" x="227.0091" y="-42.4" font-family="sans-serif" font-weight="bold" font-size="14.00" fill="#000000">Legend</text>
<polygon fill="#ffffb3" stroke="transparent" points="14,-10 14,-30 34,-30 34,-10 14,-10"/>
<text text-anchor="start" x="37.629" y="-15.4" font-family="sans-serif" font-size="14.00" fill="#000000"> &#160;Declarations</text>
<polygon fill="#8dd3c7" stroke="transparent" points="127,-10 127,-30 147,-30 147,-10 127,-10"/>
<text text-anchor="start" x="150.7251" y="-15.4" font-family="sans-serif" font-size="14.00" fill="#000000"> &#160;Module</text>
<polygon fill="#80b1d3" stroke="transparent" points="213,-10 213,-30 233,-30 233,-10 213,-10"/>
<text text-anchor="start" x="236.7812" y="-15.4" font-family="sans-serif" font-size="14.00" fill="#000000"> &#160;Bootstrap</text>
<polygon fill="#fdb462" stroke="transparent" points="310,-10 310,-30 330,-30 330,-10 310,-10"/>
<text text-anchor="start" x="333.6732" y="-15.4" font-family="sans-serif" font-size="14.00" fill="#000000"> &#160;Providers</text>
<polygon fill="#fb8072" stroke="transparent" points="406,-10 406,-30 426,-30 426,-10 406,-10"/>
<text text-anchor="start" x="429.7258" y="-15.4" font-family="sans-serif" font-size="14.00" fill="#000000"> &#160;Exports</text>
<g id="clust1" class="cluster">
<title>cluster_ContextMenuModule</title>
<polygon fill="none" stroke="#000000" stroke-dasharray="1,5" points="47,-70 47,-268 449,-268 449,-70 47,-70"/>
</g>
<g id="clust2" class="cluster">
<title>cluster_ContextMenuModule_declarations</title>
<polygon fill="none" stroke="#000000" points="58,-78 58,-130 438,-130 438,-78 58,-78"/>
</g>
<g id="clust6" class="cluster">
<title>cluster_ContextMenuModule_exports</title>
<polygon fill="none" stroke="#000000" points="55,-208 55,-260 441,-260 441,-208 55,-208"/>
</g>
<!-- ContextMenuTriggerDirective -->
<g id="node1" class="node">
<title>ContextMenuTriggerDirective</title>
<polygon fill="#ffffb3" stroke="#000000" points="429.5534,-122 242.4466,-122 242.4466,-86 429.5534,-86 429.5534,-122"/>
<text text-anchor="middle" x="336" y="-99.8" font-family="Times,serif" font-size="14.00" fill="#000000">ContextMenuTriggerDirective</text>
</g>
<!-- ContextMenuModule -->
<g id="node3" class="node">
<title>ContextMenuModule</title>
<polygon fill="#8dd3c7" stroke="#000000" points="214.0422,-187 211.0422,-191 190.0422,-191 187.0422,-187 77.9578,-187 77.9578,-151 214.0422,-151 214.0422,-187"/>
<text text-anchor="middle" x="146" y="-164.8" font-family="Times,serif" font-size="14.00" fill="#000000">ContextMenuModule</text>
</g>
<!-- ContextMenuTriggerDirective&#45;&gt;ContextMenuModule -->
<g id="edge1" class="edge">
<title>ContextMenuTriggerDirective&#45;&gt;ContextMenuModule</title>
<path fill="none" stroke="#000000" d="M367.2589,-122.0225C367.2589,-139.3734 367.2589,-163 367.2589,-163 367.2589,-163 224.1904,-163 224.1904,-163"/>
<polygon fill="#000000" stroke="#000000" points="224.1904,-159.5001 214.1904,-163 224.1903,-166.5001 224.1904,-159.5001"/>
</g>
<!-- ContextMenuComponent -->
<g id="node2" class="node">
<title>ContextMenuComponent</title>
<polygon fill="#ffffb3" stroke="#000000" points="224.3243,-122 65.6757,-122 65.6757,-86 224.3243,-86 224.3243,-122"/>
<text text-anchor="middle" x="145" y="-99.8" font-family="Times,serif" font-size="14.00" fill="#000000">ContextMenuComponent</text>
</g>
<!-- ContextMenuComponent&#45;&gt;ContextMenuModule -->
<g id="edge2" class="edge">
<title>ContextMenuComponent&#45;&gt;ContextMenuModule</title>
<path fill="none" stroke="#000000" d="M146,-122.1061C146,-122.1061 146,-140.991 146,-140.991"/>
<polygon fill="#000000" stroke="#000000" points="142.5001,-140.9909 146,-150.991 149.5001,-140.991 142.5001,-140.9909"/>
</g>
<!-- ContextMenuTriggerDirective  -->
<g id="node4" class="node">
<title>ContextMenuTriggerDirective </title>
<polygon fill="#fb8072" stroke="#000000" points="433.0539,-252 242.9461,-252 242.9461,-216 433.0539,-216 433.0539,-252"/>
<text text-anchor="middle" x="338" y="-229.8" font-family="Times,serif" font-size="14.00" fill="#000000">ContextMenuTriggerDirective </text>
</g>
<!-- ContextMenuModule&#45;&gt;ContextMenuTriggerDirective  -->
<g id="edge3" class="edge">
<title>ContextMenuModule&#45;&gt;ContextMenuTriggerDirective </title>
<path fill="none" stroke="#000000" stroke-dasharray="5,2" d="M214.3492,-175C257.4413,-175 304.9911,-175 304.9911,-175 304.9911,-175 304.9911,-205.9775 304.9911,-205.9775"/>
<polygon fill="#000000" stroke="#000000" points="301.4912,-205.9774 304.9911,-215.9775 308.4912,-205.9775 301.4912,-205.9774"/>
</g>
<!-- ContextMenuComponent  -->
<g id="node5" class="node">
<title>ContextMenuComponent </title>
<polygon fill="#fb8072" stroke="#000000" points="224.8241,-252 63.1759,-252 63.1759,-216 224.8241,-216 224.8241,-252"/>
<text text-anchor="middle" x="144" y="-229.8" font-family="Times,serif" font-size="14.00" fill="#000000">ContextMenuComponent </text>
</g>
<!-- ContextMenuModule&#45;&gt;ContextMenuComponent  -->
<g id="edge4" class="edge">
<title>ContextMenuModule&#45;&gt;ContextMenuComponent </title>
<path fill="none" stroke="#000000" stroke-dasharray="5,2" d="M146,-187.1061C146,-187.1061 146,-205.991 146,-205.991"/>
<polygon fill="#000000" stroke="#000000" points="142.5001,-205.9909 146,-215.991 149.5001,-205.991 142.5001,-205.9909"/>
</g>
</g>
</svg>
