<?xml version="1.0" encoding="UTF-8" standalone="no"?>
<!DOCTYPE svg PUBLIC "-//W3C//DTD SVG 1.1//EN"
 "http://www.w3.org/Graphics/SVG/1.1/DTD/svg11.dtd">
<!-- Generated by graphviz version 2.40.1 (20161225.0304)
 -->
<!-- Title: dependencies Pages: 1 -->
<svg width="643pt" height="284pt"
 viewBox="0.00 0.00 643.00 284.00" xmlns="http://www.w3.org/2000/svg" xmlns:xlink="http://www.w3.org/1999/xlink">
<g id="graph0" class="graph" transform="scale(1 1) rotate(0) translate(4 280)">
<title>dependencies</title>
<polygon fill="#ffffff" stroke="transparent" points="-4,4 -4,-280 639,-280 639,4 -4,4"/>
<text text-anchor="start" x="296.5091" y="-42.4" font-family="sans-serif" font-weight="bold" font-size="14.00" fill="#000000">Legend</text>
<polygon fill="#ffffb3" stroke="transparent" points="83.5,-10 83.5,-30 103.5,-30 103.5,-10 83.5,-10"/>
<text text-anchor="start" x="107.129" y="-15.4" font-family="sans-serif" font-size="14.00" fill="#000000"> &#160;Declarations</text>
<polygon fill="#8dd3c7" stroke="transparent" points="196.5,-10 196.5,-30 216.5,-30 216.5,-10 196.5,-10"/>
<text text-anchor="start" x="220.2251" y="-15.4" font-family="sans-serif" font-size="14.00" fill="#000000"> &#160;Module</text>
<polygon fill="#80b1d3" stroke="transparent" points="282.5,-10 282.5,-30 302.5,-30 302.5,-10 282.5,-10"/>
<text text-anchor="start" x="306.2812" y="-15.4" font-family="sans-serif" font-size="14.00" fill="#000000"> &#160;Bootstrap</text>
<polygon fill="#fdb462" stroke="transparent" points="379.5,-10 379.5,-30 399.5,-30 399.5,-10 379.5,-10"/>
<text text-anchor="start" x="403.1732" y="-15.4" font-family="sans-serif" font-size="14.00" fill="#000000"> &#160;Providers</text>
<polygon fill="#fb8072" stroke="transparent" points="475.5,-10 475.5,-30 495.5,-30 495.5,-10 475.5,-10"/>
<text text-anchor="start" x="499.2258" y="-15.4" font-family="sans-serif" font-size="14.00" fill="#000000"> &#160;Exports</text>
<g id="clust1" class="cluster">
<title>cluster_ClapModule</title>
<polygon fill="none" stroke="#000000" stroke-dasharray="1,5" points="8,-70 8,-268 627,-268 627,-70 8,-70"/>
</g>
<g id="clust2" class="cluster">
<title>cluster_ClapModule_declarations</title>
<polygon fill="none" stroke="#000000" points="16,-78 16,-130 619,-130 619,-78 16,-78"/>
</g>
<g id="clust8" class="cluster">
<title>cluster_ClapModule_exports</title>
<polygon fill="none" stroke="#000000" points="261,-208 261,-260 389,-260 389,-208 261,-208"/>
</g>
<!-- ClapComponent -->
<g id="node1" class="node">
<title>ClapComponent</title>
<polygon fill="#ffffb3" stroke="#000000" points="610.7744,-122 503.2256,-122 503.2256,-86 610.7744,-86 610.7744,-122"/>
<text text-anchor="middle" x="557" y="-99.8" font-family="Times,serif" font-size="14.00" fill="#000000">ClapComponent</text>
</g>
<!-- ClapModule -->
<g id="node5" class="node">
<title>ClapModule</title>
<polygon fill="#8dd3c7" stroke="#000000" points="367.9916,-187 364.9916,-191 343.9916,-191 340.9916,-187 282.0084,-187 282.0084,-151 367.9916,-151 367.9916,-187"/>
<text text-anchor="middle" x="325" y="-164.8" font-family="Times,serif" font-size="14.00" fill="#000000">ClapModule</text>
</g>
<!-- ClapComponent&#45;&gt;ClapModule -->
<g id="edge1" class="edge">
<title>ClapComponent&#45;&gt;ClapModule</title>
<path fill="none" stroke="#000000" d="M557,-122.1061C557,-141.3391 557,-169 557,-169 557,-169 378.0937,-169 378.0937,-169"/>
<polygon fill="#000000" stroke="#000000" points="378.0937,-165.5001 368.0937,-169 378.0937,-172.5001 378.0937,-165.5001"/>
</g>
<!-- CounterBubbleComponent -->
<g id="node2" class="node">
<title>CounterBubbleComponent</title>
<polygon fill="#ffffb3" stroke="#000000" points="485.3766,-122 318.6234,-122 318.6234,-86 485.3766,-86 485.3766,-122"/>
<text text-anchor="middle" x="402" y="-99.8" font-family="Times,serif" font-size="14.00" fill="#000000">CounterBubbleComponent</text>
</g>
<!-- CounterBubbleComponent&#45;&gt;ClapModule -->
<g id="edge2" class="edge">
<title>CounterBubbleComponent&#45;&gt;ClapModule</title>
<path fill="none" stroke="#000000" d="M343.2787,-122.1061C343.2787,-122.1061 343.2787,-140.991 343.2787,-140.991"/>
<polygon fill="#000000" stroke="#000000" points="339.7788,-140.9909 343.2787,-150.991 346.7788,-140.991 339.7788,-140.9909"/>
</g>
<!-- FabComponent -->
<g id="node3" class="node">
<title>FabComponent</title>
<polygon fill="#ffffb3" stroke="#000000" points="300.3301,-122 197.6699,-122 197.6699,-86 300.3301,-86 300.3301,-122"/>
<text text-anchor="middle" x="249" y="-99.8" font-family="Times,serif" font-size="14.00" fill="#000000">FabComponent</text>
</g>
<!-- FabComponent&#45;&gt;ClapModule -->
<g id="edge3" class="edge">
<title>FabComponent&#45;&gt;ClapModule</title>
<path fill="none" stroke="#000000" d="M291.0845,-122.1061C291.0845,-122.1061 291.0845,-140.991 291.0845,-140.991"/>
<polygon fill="#000000" stroke="#000000" points="287.5846,-140.9909 291.0845,-150.991 294.5846,-140.991 287.5846,-140.9909"/>
</g>
<!-- TotalCounterComponent -->
<g id="node4" class="node">
<title>TotalCounterComponent</title>
<polygon fill="#ffffb3" stroke="#000000" points="179.9832,-122 24.0168,-122 24.0168,-86 179.9832,-86 179.9832,-122"/>
<text text-anchor="middle" x="102" y="-99.8" font-family="Times,serif" font-size="14.00" fill="#000000">TotalCounterComponent</text>
</g>
<!-- TotalCounterComponent&#45;&gt;ClapModule -->
<g id="edge4" class="edge">
<title>TotalCounterComponent&#45;&gt;ClapModule</title>
<path fill="none" stroke="#000000" d="M102,-122.1061C102,-141.3391 102,-169 102,-169 102,-169 272.0034,-169 272.0034,-169"/>
<polygon fill="#000000" stroke="#000000" points="272.0034,-172.5001 282.0034,-169 272.0033,-165.5001 272.0034,-172.5001"/>
</g>
<!-- ClapComponent  -->
<g id="node6" class="node">
<title>ClapComponent </title>
<polygon fill="#fb8072" stroke="#000000" points="380.7745,-252 269.2255,-252 269.2255,-216 380.7745,-216 380.7745,-252"/>
<text text-anchor="middle" x="325" y="-229.8" font-family="Times,serif" font-size="14.00" fill="#000000">ClapComponent </text>
</g>
<!-- ClapModule&#45;&gt;ClapComponent  -->
<g id="edge5" class="edge">
<title>ClapModule&#45;&gt;ClapComponent </title>
<path fill="none" stroke="#000000" stroke-dasharray="5,2" d="M325,-187.1061C325,-187.1061 325,-205.991 325,-205.991"/>
<polygon fill="#000000" stroke="#000000" points="321.5001,-205.9909 325,-215.991 328.5001,-205.991 321.5001,-205.9909"/>
</g>
</g>
</svg>
