<?xml version="1.0" encoding="UTF-8" standalone="no"?>
<!DOCTYPE svg PUBLIC "-//W3C//DTD SVG 1.1//EN"
 "http://www.w3.org/Graphics/SVG/1.1/DTD/svg11.dtd">
<!-- Generated by graphviz version 2.40.1 (20161225.0304)
 -->
<!-- Title: dependencies Pages: 1 -->
<svg width="810pt" height="211pt"
 viewBox="0.00 0.00 810.00 211.00" xmlns="http://www.w3.org/2000/svg" xmlns:xlink="http://www.w3.org/1999/xlink">
<g id="graph0" class="graph" transform="scale(1 1) rotate(0) translate(4 207)">
<title>dependencies</title>
<polygon fill="#ffffff" stroke="transparent" points="-4,4 -4,-207 806,-207 806,4 -4,4"/>
<text text-anchor="start" x="380.0091" y="-42.4" font-family="sans-serif" font-weight="bold" font-size="14.00" fill="#000000">Legend</text>
<polygon fill="#ffffb3" stroke="transparent" points="167,-10 167,-30 187,-30 187,-10 167,-10"/>
<text text-anchor="start" x="190.629" y="-15.4" font-family="sans-serif" font-size="14.00" fill="#000000"> &#160;Declarations</text>
<polygon fill="#8dd3c7" stroke="transparent" points="280,-10 280,-30 300,-30 300,-10 280,-10"/>
<text text-anchor="start" x="303.7251" y="-15.4" font-family="sans-serif" font-size="14.00" fill="#000000"> &#160;Module</text>
<polygon fill="#80b1d3" stroke="transparent" points="366,-10 366,-30 386,-30 386,-10 366,-10"/>
<text text-anchor="start" x="389.7812" y="-15.4" font-family="sans-serif" font-size="14.00" fill="#000000"> &#160;Bootstrap</text>
<polygon fill="#fdb462" stroke="transparent" points="463,-10 463,-30 483,-30 483,-10 463,-10"/>
<text text-anchor="start" x="486.6732" y="-15.4" font-family="sans-serif" font-size="14.00" fill="#000000"> &#160;Providers</text>
<polygon fill="#fb8072" stroke="transparent" points="559,-10 559,-30 579,-30 579,-10 559,-10"/>
<text text-anchor="start" x="582.7258" y="-15.4" font-family="sans-serif" font-size="14.00" fill="#000000"> &#160;Exports</text>
<g id="clust1" class="cluster">
<title>cluster_CrudModule</title>
<polygon fill="none" stroke="#000000" stroke-dasharray="1,5" points="8,-70 8,-195 794,-195 794,-70 8,-70"/>
</g>
<g id="clust2" class="cluster">
<title>cluster_CrudModule_declarations</title>
<polygon fill="none" stroke="#000000" points="458,-78 458,-130 786,-130 786,-78 458,-78"/>
</g>
<g id="clust5" class="cluster">
<title>cluster_CrudModule_imports</title>
<polygon fill="none" stroke="#000000" points="186,-78 186,-130 450,-130 450,-78 186,-78"/>
</g>
<g id="clust8" class="cluster">
<title>cluster_CrudModule_providers</title>
<polygon fill="none" stroke="#000000" points="16,-78 16,-130 178,-130 178,-78 16,-78"/>
</g>
<!-- AccountFormComponent -->
<g id="node1" class="node">
<title>AccountFormComponent</title>
<polygon fill="#ffffb3" stroke="#000000" points="777.5926,-122 618.4074,-122 618.4074,-86 777.5926,-86 777.5926,-122"/>
<text text-anchor="middle" x="698" y="-99.8" font-family="Times,serif" font-size="14.00" fill="#000000">AccountFormComponent</text>
</g>
<!-- CrudModule -->
<g id="node3" class="node">
<title>CrudModule</title>
<polygon fill="#8dd3c7" stroke="#000000" points="419.5482,-187 416.5482,-191 395.5482,-191 392.5482,-187 332.4518,-187 332.4518,-151 419.5482,-151 419.5482,-187"/>
<text text-anchor="middle" x="376" y="-164.8" font-family="Times,serif" font-size="14.00" fill="#000000">CrudModule</text>
</g>
<!-- AccountFormComponent&#45;&gt;CrudModule -->
<g id="edge1" class="edge">
<title>AccountFormComponent&#45;&gt;CrudModule</title>
<path fill="none" stroke="#000000" d="M698,-122.2843C698,-143.3211 698,-175 698,-175 698,-175 429.7615,-175 429.7615,-175"/>
<polygon fill="#000000" stroke="#000000" points="429.7615,-171.5001 419.7615,-175 429.7614,-178.5001 429.7615,-171.5001"/>
</g>
<!-- AccountsComponent -->
<g id="node2" class="node">
<title>AccountsComponent</title>
<polygon fill="#ffffb3" stroke="#000000" points="600.2036,-122 465.7964,-122 465.7964,-86 600.2036,-86 600.2036,-122"/>
<text text-anchor="middle" x="533" y="-99.8" font-family="Times,serif" font-size="14.00" fill="#000000">AccountsComponent</text>
</g>
<!-- AccountsComponent&#45;&gt;CrudModule -->
<g id="edge2" class="edge">
<title>AccountsComponent&#45;&gt;CrudModule</title>
<path fill="none" stroke="#000000" d="M533,-122.0225C533,-139.3734 533,-163 533,-163 533,-163 429.7333,-163 429.7333,-163"/>
<polygon fill="#000000" stroke="#000000" points="429.7333,-159.5001 419.7333,-163 429.7332,-166.5001 429.7333,-159.5001"/>
</g>
<!-- AppConfirmModule -->
<g id="node4" class="node">
<title>AppConfirmModule</title>
<polygon fill="#8dd3c7" stroke="#000000" points="441.5954,-122 438.5954,-126 417.5954,-126 414.5954,-122 310.4046,-122 310.4046,-86 441.5954,-86 441.5954,-122"/>
<text text-anchor="middle" x="376" y="-99.8" font-family="Times,serif" font-size="14.00" fill="#000000">AppConfirmModule</text>
</g>
<!-- AppConfirmModule&#45;&gt;CrudModule -->
<g id="edge3" class="edge">
<title>AppConfirmModule&#45;&gt;CrudModule</title>
<path fill="none" stroke="#000000" d="M376,-122.1061C376,-122.1061 376,-140.991 376,-140.991"/>
<polygon fill="#000000" stroke="#000000" points="372.5001,-140.9909 376,-150.991 379.5001,-140.991 372.5001,-140.9909"/>
</g>
<!-- SharedModule -->
<g id="node5" class="node">
<title>SharedModule</title>
<polygon fill="#8dd3c7" stroke="#000000" points="292.4231,-122 289.4231,-126 268.4231,-126 265.4231,-122 193.5769,-122 193.5769,-86 292.4231,-86 292.4231,-122"/>
<text text-anchor="middle" x="243" y="-99.8" font-family="Times,serif" font-size="14.00" fill="#000000">SharedModule</text>
</g>
<!-- SharedModule&#45;&gt;CrudModule -->
<g id="edge4" class="edge">
<title>SharedModule&#45;&gt;CrudModule</title>
<path fill="none" stroke="#000000" d="M243,-122.0225C243,-139.3734 243,-163 243,-163 243,-163 322.4508,-163 322.4508,-163"/>
<polygon fill="#000000" stroke="#000000" points="322.4509,-166.5001 332.4508,-163 322.4508,-159.5001 322.4509,-166.5001"/>
</g>
<!-- AccountService -->
<g id="node6" class="node">
<title>AccountService</title>
<ellipse fill="#fdb462" stroke="#000000" cx="97" cy="-104" rx="72.9121" ry="18"/>
<text text-anchor="middle" x="97" y="-99.8" font-family="Times,serif" font-size="14.00" fill="#000000">AccountService</text>
</g>
<!-- AccountService&#45;&gt;CrudModule -->
<g id="edge5" class="edge">
<title>AccountService&#45;&gt;CrudModule</title>
<path fill="none" stroke="#000000" d="M97,-122.2843C97,-143.3211 97,-175 97,-175 97,-175 322.4063,-175 322.4063,-175"/>
<polygon fill="#000000" stroke="#000000" points="322.4063,-178.5001 332.4063,-175 322.4062,-171.5001 322.4063,-178.5001"/>
</g>
</g>
</svg>
