<?xml version="1.0" encoding="UTF-8" standalone="no"?>
<!DOCTYPE svg PUBLIC "-//W3C//DTD SVG 1.1//EN"
 "http://www.w3.org/Graphics/SVG/1.1/DTD/svg11.dtd">
<!-- Generated by graphviz version 2.40.1 (20161225.0304)
 -->
<!-- Title: dependencies Pages: 1 -->
<svg width="810pt" height="211pt"
 viewBox="0.00 0.00 810.00 211.00" xmlns="http://www.w3.org/2000/svg" xmlns:xlink="http://www.w3.org/1999/xlink">
<g id="graph0" class="graph" transform="scale(1 1) rotate(0) translate(4 207)">
<title>dependencies</title>
<polygon fill="#ffffff" stroke="transparent" points="-4,4 -4,-207 806,-207 806,4 -4,4"/>
<text text-anchor="start" x="380.0091" y="-42.4" font-family="sans-serif" font-weight="bold" font-size="14.00" fill="#000000">Legend</text>
<polygon fill="#ffffb3" stroke="transparent" points="167,-10 167,-30 187,-30 187,-10 167,-10"/>
<text text-anchor="start" x="190.629" y="-15.4" font-family="sans-serif" font-size="14.00" fill="#000000"> &#160;Declarations</text>
<polygon fill="#8dd3c7" stroke="transparent" points="280,-10 280,-30 300,-30 300,-10 280,-10"/>
<text text-anchor="start" x="303.7251" y="-15.4" font-family="sans-serif" font-size="14.00" fill="#000000"> &#160;Module</text>
<polygon fill="#80b1d3" stroke="transparent" points="366,-10 366,-30 386,-30 386,-10 366,-10"/>
<text text-anchor="start" x="389.7812" y="-15.4" font-family="sans-serif" font-size="14.00" fill="#000000"> &#160;Bootstrap</text>
<polygon fill="#fdb462" stroke="transparent" points="463,-10 463,-30 483,-30 483,-10 463,-10"/>
<text text-anchor="start" x="486.6732" y="-15.4" font-family="sans-serif" font-size="14.00" fill="#000000"> &#160;Providers</text>
<polygon fill="#fb8072" stroke="transparent" points="559,-10 559,-30 579,-30 579,-10 559,-10"/>
<text text-anchor="start" x="582.7258" y="-15.4" font-family="sans-serif" font-size="14.00" fill="#000000"> &#160;Exports</text>
<g id="clust1" class="cluster">
<title>cluster_CrudModule</title>
<polygon fill="none" stroke="#000000" stroke-dasharray="1,5" points="8,-70 8,-195 794,-195 794,-70 8,-70"/>
</g>
<g id="clust2" class="cluster">
<title>cluster_CrudModule_declarations</title>
<polygon fill="none" stroke="#000000" points="458,-78 458,-130 786,-130 786,-78 458,-78"/>
</g>
<g id="clust5" class="cluster">
<title>cluster_CrudModule_imports</title>
<polygon fill="none" stroke="#000000" points="186,-78 186,-130 450,-130 450,-78 186,-78"/>
</g>
<g id="clust8" class="cluster">
<title>cluster_CrudModule_providers</title>
<polygon fill="none" stroke="#000000" points="16,-78 16,-130 178,-130 178,-78 16,-78"/>
</g>
<!-- AccountsComponent -->
<g id="node1" class="node">
<title>AccountsComponent</title>
<polygon fill="#ffffb3" stroke="#000000" points="778.2036,-122 643.7964,-122 643.7964,-86 778.2036,-86 778.2036,-122"/>
<text text-anchor="middle" x="711" y="-99.8" font-family="Times,serif" font-size="14.00" fill="#000000">AccountsComponent</text>
</g>
<!-- CrudModule -->
<g id="node3" class="node">
<title>CrudModule</title>
<polygon fill="#8dd3c7" stroke="#000000" points="436.5482,-187 433.5482,-191 412.5482,-191 409.5482,-187 349.4518,-187 349.4518,-151 436.5482,-151 436.5482,-187"/>
<text text-anchor="middle" x="393" y="-164.8" font-family="Times,serif" font-size="14.00" fill="#000000">CrudModule</text>
</g>
<!-- AccountsComponent&#45;&gt;CrudModule -->
<g id="edge1" class="edge">
<title>AccountsComponent&#45;&gt;CrudModule</title>
<path fill="none" stroke="#000000" d="M711,-122.2843C711,-143.3211 711,-175 711,-175 711,-175 446.5498,-175 446.5498,-175"/>
<polygon fill="#000000" stroke="#000000" points="446.5498,-171.5001 436.5498,-175 446.5497,-178.5001 446.5498,-171.5001"/>
</g>
<!-- AccountFormComponent -->
<g id="node2" class="node">
<title>AccountFormComponent</title>
<polygon fill="#ffffb3" stroke="#000000" points="625.5926,-122 466.4074,-122 466.4074,-86 625.5926,-86 625.5926,-122"/>
<text text-anchor="middle" x="546" y="-99.8" font-family="Times,serif" font-size="14.00" fill="#000000">AccountFormComponent</text>
</g>
<!-- AccountFormComponent&#45;&gt;CrudModule -->
<g id="edge2" class="edge">
<title>AccountFormComponent&#45;&gt;CrudModule</title>
<path fill="none" stroke="#000000" d="M546,-122.0225C546,-139.3734 546,-163 546,-163 546,-163 446.8437,-163 446.8437,-163"/>
<polygon fill="#000000" stroke="#000000" points="446.8437,-159.5001 436.8437,-163 446.8436,-166.5001 446.8437,-159.5001"/>
</g>
<!-- SharedModule -->
<g id="node4" class="node">
<title>SharedModule</title>
<polygon fill="#8dd3c7" stroke="#000000" points="442.4231,-122 439.4231,-126 418.4231,-126 415.4231,-122 343.5769,-122 343.5769,-86 442.4231,-86 442.4231,-122"/>
<text text-anchor="middle" x="393" y="-99.8" font-family="Times,serif" font-size="14.00" fill="#000000">SharedModule</text>
</g>
<!-- SharedModule&#45;&gt;CrudModule -->
<g id="edge3" class="edge">
<title>SharedModule&#45;&gt;CrudModule</title>
<path fill="none" stroke="#000000" d="M393,-122.1061C393,-122.1061 393,-140.991 393,-140.991"/>
<polygon fill="#000000" stroke="#000000" points="389.5001,-140.9909 393,-150.991 396.5001,-140.991 389.5001,-140.9909"/>
</g>
<!-- AppConfirmModule -->
<g id="node5" class="node">
<title>AppConfirmModule</title>
<polygon fill="#8dd3c7" stroke="#000000" points="325.5954,-122 322.5954,-126 301.5954,-126 298.5954,-122 194.4046,-122 194.4046,-86 325.5954,-86 325.5954,-122"/>
<text text-anchor="middle" x="260" y="-99.8" font-family="Times,serif" font-size="14.00" fill="#000000">AppConfirmModule</text>
</g>
<!-- AppConfirmModule&#45;&gt;CrudModule -->
<g id="edge4" class="edge">
<title>AppConfirmModule&#45;&gt;CrudModule</title>
<path fill="none" stroke="#000000" d="M260,-122.0225C260,-139.3734 260,-163 260,-163 260,-163 339.4508,-163 339.4508,-163"/>
<polygon fill="#000000" stroke="#000000" points="339.4509,-166.5001 349.4508,-163 339.4508,-159.5001 339.4509,-166.5001"/>
</g>
<!-- AccountService -->
<g id="node6" class="node">
<title>AccountService</title>
<ellipse fill="#fdb462" stroke="#000000" cx="97" cy="-104" rx="72.9121" ry="18"/>
<text text-anchor="middle" x="97" y="-99.8" font-family="Times,serif" font-size="14.00" fill="#000000">AccountService</text>
</g>
<!-- AccountService&#45;&gt;CrudModule -->
<g id="edge5" class="edge">
<title>AccountService&#45;&gt;CrudModule</title>
<path fill="none" stroke="#000000" d="M97,-122.2843C97,-143.3211 97,-175 97,-175 97,-175 339.3242,-175 339.3242,-175"/>
<polygon fill="#000000" stroke="#000000" points="339.3242,-178.5001 349.3242,-175 339.3241,-171.5001 339.3242,-178.5001"/>
</g>
</g>
</svg>
