<?xml version="1.0" encoding="UTF-8" standalone="no"?>
<!DOCTYPE svg PUBLIC "-//W3C//DTD SVG 1.1//EN"
 "http://www.w3.org/Graphics/SVG/1.1/DTD/svg11.dtd">
<!-- Generated by graphviz version 2.40.1 (20161225.0304)
 -->
<!-- Title: dependencies Pages: 1 -->
<svg width="504pt" height="284pt"
 viewBox="0.00 0.00 504.00 284.00" xmlns="http://www.w3.org/2000/svg" xmlns:xlink="http://www.w3.org/1999/xlink">
<g id="graph0" class="graph" transform="scale(1 1) rotate(0) translate(4 280)">
<title>dependencies</title>
<polygon fill="#ffffff" stroke="transparent" points="-4,4 -4,-280 500,-280 500,4 -4,4"/>
<text text-anchor="start" x="227.0091" y="-42.4" font-family="sans-serif" font-weight="bold" font-size="14.00" fill="#000000">Legend</text>
<polygon fill="#ffffb3" stroke="transparent" points="14,-10 14,-30 34,-30 34,-10 14,-10"/>
<text text-anchor="start" x="37.629" y="-15.4" font-family="sans-serif" font-size="14.00" fill="#000000"> &#160;Declarations</text>
<polygon fill="#8dd3c7" stroke="transparent" points="127,-10 127,-30 147,-30 147,-10 127,-10"/>
<text text-anchor="start" x="150.7251" y="-15.4" font-family="sans-serif" font-size="14.00" fill="#000000"> &#160;Module</text>
<polygon fill="#80b1d3" stroke="transparent" points="213,-10 213,-30 233,-30 233,-10 213,-10"/>
<text text-anchor="start" x="236.7812" y="-15.4" font-family="sans-serif" font-size="14.00" fill="#000000"> &#160;Bootstrap</text>
<polygon fill="#fdb462" stroke="transparent" points="310,-10 310,-30 330,-30 330,-10 310,-10"/>
<text text-anchor="start" x="333.6732" y="-15.4" font-family="sans-serif" font-size="14.00" fill="#000000"> &#160;Providers</text>
<polygon fill="#fb8072" stroke="transparent" points="406,-10 406,-30 426,-30 426,-10 406,-10"/>
<text text-anchor="start" x="429.7258" y="-15.4" font-family="sans-serif" font-size="14.00" fill="#000000"> &#160;Exports</text>
<g id="clust1" class="cluster">
<title>cluster_FullscreenModule</title>
<polygon fill="none" stroke="#000000" stroke-dasharray="1,5" points="97,-70 97,-268 399,-268 399,-70 97,-70"/>
</g>
<g id="clust2" class="cluster">
<title>cluster_FullscreenModule_declarations</title>
<polygon fill="none" stroke="#000000" points="235,-78 235,-130 391,-130 391,-78 235,-78"/>
</g>
<g id="clust4" class="cluster">
<title>cluster_FullscreenModule_imports</title>
<polygon fill="none" stroke="#000000" points="105,-78 105,-130 227,-130 227,-78 105,-78"/>
</g>
<g id="clust5" class="cluster">
<title>cluster_FullscreenModule_exports</title>
<polygon fill="none" stroke="#000000" points="168,-208 168,-260 328,-260 328,-208 168,-208"/>
</g>
<!-- FullscreenComponent -->
<g id="node1" class="node">
<title>FullscreenComponent</title>
<polygon fill="#ffffb3" stroke="#000000" points="382.6456,-122 243.3544,-122 243.3544,-86 382.6456,-86 382.6456,-122"/>
<text text-anchor="middle" x="313" y="-99.8" font-family="Times,serif" font-size="14.00" fill="#000000">FullscreenComponent</text>
</g>
<!-- FullscreenModule -->
<g id="node2" class="node">
<title>FullscreenModule</title>
<polygon fill="#8dd3c7" stroke="#000000" points="306.8627,-187 303.8627,-191 282.8627,-191 279.8627,-187 189.1373,-187 189.1373,-151 306.8627,-151 306.8627,-187"/>
<text text-anchor="middle" x="248" y="-164.8" font-family="Times,serif" font-size="14.00" fill="#000000">FullscreenModule</text>
</g>
<!-- FullscreenComponent&#45;&gt;FullscreenModule -->
<g id="edge1" class="edge">
<title>FullscreenComponent&#45;&gt;FullscreenModule</title>
<path fill="none" stroke="#000000" d="M275.0544,-122.1061C275.0544,-122.1061 275.0544,-140.991 275.0544,-140.991"/>
<polygon fill="#000000" stroke="#000000" points="271.5544,-140.9909 275.0544,-150.991 278.5544,-140.991 271.5544,-140.9909"/>
</g>
<!-- FullscreenComponent  -->
<g id="node4" class="node">
<title>FullscreenComponent </title>
<polygon fill="#fb8072" stroke="#000000" points="319.6453,-252 176.3547,-252 176.3547,-216 319.6453,-216 319.6453,-252"/>
<text text-anchor="middle" x="248" y="-229.8" font-family="Times,serif" font-size="14.00" fill="#000000">FullscreenComponent </text>
</g>
<!-- FullscreenModule&#45;&gt;FullscreenComponent  -->
<g id="edge3" class="edge">
<title>FullscreenModule&#45;&gt;FullscreenComponent </title>
<path fill="none" stroke="#000000" stroke-dasharray="5,2" d="M248,-187.1061C248,-187.1061 248,-205.991 248,-205.991"/>
<polygon fill="#000000" stroke="#000000" points="244.5001,-205.9909 248,-215.991 251.5001,-205.991 244.5001,-205.9909"/>
</g>
<!-- MaterialModule -->
<g id="node3" class="node">
<title>MaterialModule</title>
<polygon fill="#8dd3c7" stroke="#000000" points="219.4706,-122 216.4706,-126 195.4706,-126 192.4706,-122 112.5294,-122 112.5294,-86 219.4706,-86 219.4706,-122"/>
<text text-anchor="middle" x="166" y="-99.8" font-family="Times,serif" font-size="14.00" fill="#000000">MaterialModule</text>
</g>
<!-- MaterialModule&#45;&gt;FullscreenModule -->
<g id="edge2" class="edge">
<title>MaterialModule&#45;&gt;FullscreenModule</title>
<path fill="none" stroke="#000000" d="M204.277,-122.1061C204.277,-122.1061 204.277,-140.991 204.277,-140.991"/>
<polygon fill="#000000" stroke="#000000" points="200.7771,-140.9909 204.277,-150.991 207.7771,-140.991 200.7771,-140.9909"/>
</g>
</g>
</svg>
