<?xml version="1.0" encoding="UTF-8" standalone="no"?>
<!DOCTYPE svg PUBLIC "-//W3C//DTD SVG 1.1//EN"
 "http://www.w3.org/Graphics/SVG/1.1/DTD/svg11.dtd">
<!-- Generated by graphviz version 2.40.1 (20161225.0304)
 -->
<!-- Title: dependencies Pages: 1 -->
<svg width="504pt" height="284pt"
 viewBox="0.00 0.00 504.00 284.00" xmlns="http://www.w3.org/2000/svg" xmlns:xlink="http://www.w3.org/1999/xlink">
<g id="graph0" class="graph" transform="scale(1 1) rotate(0) translate(4 280)">
<title>dependencies</title>
<polygon fill="#ffffff" stroke="transparent" points="-4,4 -4,-280 500,-280 500,4 -4,4"/>
<text text-anchor="start" x="227.0091" y="-42.4" font-family="sans-serif" font-weight="bold" font-size="14.00" fill="#000000">Legend</text>
<polygon fill="#ffffb3" stroke="transparent" points="14,-10 14,-30 34,-30 34,-10 14,-10"/>
<text text-anchor="start" x="37.629" y="-15.4" font-family="sans-serif" font-size="14.00" fill="#000000"> &#160;Declarations</text>
<polygon fill="#8dd3c7" stroke="transparent" points="127,-10 127,-30 147,-30 147,-10 127,-10"/>
<text text-anchor="start" x="150.7251" y="-15.4" font-family="sans-serif" font-size="14.00" fill="#000000"> &#160;Module</text>
<polygon fill="#80b1d3" stroke="transparent" points="213,-10 213,-30 233,-30 233,-10 213,-10"/>
<text text-anchor="start" x="236.7812" y="-15.4" font-family="sans-serif" font-size="14.00" fill="#000000"> &#160;Bootstrap</text>
<polygon fill="#fdb462" stroke="transparent" points="310,-10 310,-30 330,-30 330,-10 310,-10"/>
<text text-anchor="start" x="333.6732" y="-15.4" font-family="sans-serif" font-size="14.00" fill="#000000"> &#160;Providers</text>
<polygon fill="#fb8072" stroke="transparent" points="406,-10 406,-30 426,-30 426,-10 406,-10"/>
<text text-anchor="start" x="429.7258" y="-15.4" font-family="sans-serif" font-size="14.00" fill="#000000"> &#160;Exports</text>
<g id="clust1" class="cluster">
<title>cluster_UploadModule</title>
<polygon fill="none" stroke="#000000" stroke-dasharray="1,5" points="91,-70 91,-268 405,-268 405,-70 91,-70"/>
</g>
<g id="clust2" class="cluster">
<title>cluster_UploadModule_declarations</title>
<polygon fill="none" stroke="#000000" points="259,-78 259,-130 397,-130 397,-78 259,-78"/>
</g>
<g id="clust5" class="cluster">
<title>cluster_UploadModule_exports</title>
<polygon fill="none" stroke="#000000" points="179,-208 179,-260 321,-260 321,-208 179,-208"/>
</g>
<g id="clust7" class="cluster">
<title>cluster_UploadModule_providers</title>
<polygon fill="none" stroke="#000000" points="99,-78 99,-130 251,-130 251,-78 99,-78"/>
</g>
<!-- UploadComponent -->
<g id="node1" class="node">
<title>UploadComponent</title>
<polygon fill="#ffffb3" stroke="#000000" points="389.045,-122 266.955,-122 266.955,-86 389.045,-86 389.045,-122"/>
<text text-anchor="middle" x="328" y="-99.8" font-family="Times,serif" font-size="14.00" fill="#000000">UploadComponent</text>
</g>
<!-- UploadModule -->
<g id="node2" class="node">
<title>UploadModule</title>
<polygon fill="#8dd3c7" stroke="#000000" points="300.2619,-187 297.2619,-191 276.2619,-191 273.2619,-187 199.7381,-187 199.7381,-151 300.2619,-151 300.2619,-187"/>
<text text-anchor="middle" x="250" y="-164.8" font-family="Times,serif" font-size="14.00" fill="#000000">UploadModule</text>
</g>
<!-- UploadComponent&#45;&gt;UploadModule -->
<g id="edge1" class="edge">
<title>UploadComponent&#45;&gt;UploadModule</title>
<path fill="none" stroke="#000000" d="M283.5544,-122.1061C283.5544,-122.1061 283.5544,-140.991 283.5544,-140.991"/>
<polygon fill="#000000" stroke="#000000" points="280.0544,-140.9909 283.5544,-150.991 287.0544,-140.991 280.0544,-140.9909"/>
</g>
<!-- UploadComponent  -->
<g id="node3" class="node">
<title>UploadComponent </title>
<polygon fill="#fb8072" stroke="#000000" points="313.0442,-252 186.9558,-252 186.9558,-216 313.0442,-216 313.0442,-252"/>
<text text-anchor="middle" x="250" y="-229.8" font-family="Times,serif" font-size="14.00" fill="#000000">UploadComponent </text>
</g>
<!-- UploadModule&#45;&gt;UploadComponent  -->
<g id="edge2" class="edge">
<title>UploadModule&#45;&gt;UploadComponent </title>
<path fill="none" stroke="#000000" stroke-dasharray="5,2" d="M250,-187.1061C250,-187.1061 250,-205.991 250,-205.991"/>
<polygon fill="#000000" stroke="#000000" points="246.5001,-205.9909 250,-215.991 253.5001,-205.991 246.5001,-205.9909"/>
</g>
<!-- UploadService -->
<g id="node4" class="node">
<title>UploadService</title>
<ellipse fill="#fdb462" stroke="#000000" cx="175" cy="-104" rx="68.3382" ry="18"/>
<text text-anchor="middle" x="175" y="-99.8" font-family="Times,serif" font-size="14.00" fill="#000000">UploadService</text>
</g>
<!-- UploadService&#45;&gt;UploadModule -->
<g id="edge3" class="edge">
<title>UploadService&#45;&gt;UploadModule</title>
<path fill="none" stroke="#000000" d="M221.5191,-117.468C221.5191,-117.468 221.5191,-140.8642 221.5191,-140.8642"/>
<polygon fill="#000000" stroke="#000000" points="218.0192,-140.8641 221.5191,-150.8642 225.0192,-140.8642 218.0192,-140.8641"/>
</g>
</g>
</svg>
