<?xml version="1.0" encoding="UTF-8" standalone="no"?>
<!DOCTYPE svg PUBLIC "-//W3C//DTD SVG 1.1//EN"
 "http://www.w3.org/Graphics/SVG/1.1/DTD/svg11.dtd">
<!-- Generated by graphviz version 2.40.1 (20161225.0304)
 -->
<!-- Title: dependencies Pages: 1 -->
<svg width="504pt" height="284pt"
 viewBox="0.00 0.00 504.00 284.00" xmlns="http://www.w3.org/2000/svg" xmlns:xlink="http://www.w3.org/1999/xlink">
<g id="graph0" class="graph" transform="scale(1 1) rotate(0) translate(4 280)">
<title>dependencies</title>
<polygon fill="#ffffff" stroke="transparent" points="-4,4 -4,-280 500,-280 500,4 -4,4"/>
<text text-anchor="start" x="227.0091" y="-42.4" font-family="sans-serif" font-weight="bold" font-size="14.00" fill="#000000">Legend</text>
<polygon fill="#ffffb3" stroke="transparent" points="14,-10 14,-30 34,-30 34,-10 14,-10"/>
<text text-anchor="start" x="37.629" y="-15.4" font-family="sans-serif" font-size="14.00" fill="#000000"> &#160;Declarations</text>
<polygon fill="#8dd3c7" stroke="transparent" points="127,-10 127,-30 147,-30 147,-10 127,-10"/>
<text text-anchor="start" x="150.7251" y="-15.4" font-family="sans-serif" font-size="14.00" fill="#000000"> &#160;Module</text>
<polygon fill="#80b1d3" stroke="transparent" points="213,-10 213,-30 233,-30 233,-10 213,-10"/>
<text text-anchor="start" x="236.7812" y="-15.4" font-family="sans-serif" font-size="14.00" fill="#000000"> &#160;Bootstrap</text>
<polygon fill="#fdb462" stroke="transparent" points="310,-10 310,-30 330,-30 330,-10 310,-10"/>
<text text-anchor="start" x="333.6732" y="-15.4" font-family="sans-serif" font-size="14.00" fill="#000000"> &#160;Providers</text>
<polygon fill="#fb8072" stroke="transparent" points="406,-10 406,-30 426,-30 426,-10 406,-10"/>
<text text-anchor="start" x="429.7258" y="-15.4" font-family="sans-serif" font-size="14.00" fill="#000000"> &#160;Exports</text>
<g id="clust1" class="cluster">
<title>cluster_DraggableModule</title>
<polygon fill="none" stroke="#000000" stroke-dasharray="1,5" points="12,-70 12,-268 484,-268 484,-70 12,-70"/>
</g>
<g id="clust2" class="cluster">
<title>cluster_DraggableModule_declarations</title>
<polygon fill="none" stroke="#000000" points="180,-78 180,-130 476,-130 476,-78 180,-78"/>
</g>
<g id="clust6" class="cluster">
<title>cluster_DraggableModule_exports</title>
<polygon fill="none" stroke="#000000" points="99,-208 99,-260 403,-260 403,-208 99,-208"/>
</g>
<g id="clust8" class="cluster">
<title>cluster_DraggableModule_providers</title>
<polygon fill="none" stroke="#000000" points="20,-78 20,-130 172,-130 172,-78 20,-78"/>
</g>
<!-- DraggableDirective -->
<g id="node1" class="node">
<title>DraggableDirective</title>
<polygon fill="#ffffb3" stroke="#000000" points="468.385,-122 341.615,-122 341.615,-86 468.385,-86 468.385,-122"/>
<text text-anchor="middle" x="405" y="-99.8" font-family="Times,serif" font-size="14.00" fill="#000000">DraggableDirective</text>
</g>
<!-- DraggableModule -->
<g id="node3" class="node">
<title>DraggableModule</title>
<polygon fill="#8dd3c7" stroke="#000000" points="314.8515,-187 311.8515,-191 290.8515,-191 287.8515,-187 197.1485,-187 197.1485,-151 314.8515,-151 314.8515,-187"/>
<text text-anchor="middle" x="256" y="-164.8" font-family="Times,serif" font-size="14.00" fill="#000000">DraggableModule</text>
</g>
<!-- DraggableDirective&#45;&gt;DraggableModule -->
<g id="edge1" class="edge">
<title>DraggableDirective&#45;&gt;DraggableModule</title>
<path fill="none" stroke="#000000" d="M368.375,-122.1061C368.375,-141.3391 368.375,-169 368.375,-169 368.375,-169 325.1493,-169 325.1493,-169"/>
<polygon fill="#000000" stroke="#000000" points="325.1493,-165.5001 315.1493,-169 325.1493,-172.5001 325.1493,-165.5001"/>
</g>
<!-- ResizableComponent -->
<g id="node2" class="node">
<title>ResizableComponent</title>
<polygon fill="#ffffb3" stroke="#000000" points="323.7534,-122 188.2466,-122 188.2466,-86 323.7534,-86 323.7534,-122"/>
<text text-anchor="middle" x="256" y="-99.8" font-family="Times,serif" font-size="14.00" fill="#000000">ResizableComponent</text>
</g>
<!-- ResizableComponent&#45;&gt;DraggableModule -->
<g id="edge2" class="edge">
<title>ResizableComponent&#45;&gt;DraggableModule</title>
<path fill="none" stroke="#000000" d="M256,-122.1061C256,-122.1061 256,-140.991 256,-140.991"/>
<polygon fill="#000000" stroke="#000000" points="252.5001,-140.9909 256,-150.991 259.5001,-140.991 252.5001,-140.9909"/>
</g>
<!-- DraggableDirective  -->
<g id="node4" class="node">
<title>DraggableDirective </title>
<polygon fill="#fb8072" stroke="#000000" points="394.8845,-252 265.1155,-252 265.1155,-216 394.8845,-216 394.8845,-252"/>
<text text-anchor="middle" x="330" y="-229.8" font-family="Times,serif" font-size="14.00" fill="#000000">DraggableDirective </text>
</g>
<!-- DraggableModule&#45;&gt;DraggableDirective  -->
<g id="edge3" class="edge">
<title>DraggableModule&#45;&gt;DraggableDirective </title>
<path fill="none" stroke="#000000" stroke-dasharray="5,2" d="M289.9918,-187.1061C289.9918,-187.1061 289.9918,-205.991 289.9918,-205.991"/>
<polygon fill="#000000" stroke="#000000" points="286.4918,-205.9909 289.9918,-215.991 293.4918,-205.991 286.4918,-205.9909"/>
</g>
<!-- ResizableComponent  -->
<g id="node5" class="node">
<title>ResizableComponent </title>
<polygon fill="#fb8072" stroke="#000000" points="246.7534,-252 107.2466,-252 107.2466,-216 246.7534,-216 246.7534,-252"/>
<text text-anchor="middle" x="177" y="-229.8" font-family="Times,serif" font-size="14.00" fill="#000000">ResizableComponent </text>
</g>
<!-- DraggableModule&#45;&gt;ResizableComponent  -->
<g id="edge4" class="edge">
<title>DraggableModule&#45;&gt;ResizableComponent </title>
<path fill="none" stroke="#000000" stroke-dasharray="5,2" d="M221.8505,-187.1061C221.8505,-187.1061 221.8505,-205.991 221.8505,-205.991"/>
<polygon fill="#000000" stroke="#000000" points="218.3505,-205.9909 221.8505,-215.991 225.3505,-205.991 218.3505,-205.9909"/>
</g>
<!-- ResizableState -->
<g id="node6" class="node">
<title>ResizableState</title>
<ellipse fill="#fdb462" stroke="#000000" cx="96" cy="-104" rx="67.7683" ry="18"/>
<text text-anchor="middle" x="96" y="-99.8" font-family="Times,serif" font-size="14.00" fill="#000000">ResizableState</text>
</g>
<!-- ResizableState&#45;&gt;DraggableModule -->
<g id="edge5" class="edge">
<title>ResizableState&#45;&gt;DraggableModule</title>
<path fill="none" stroke="#000000" d="M135.6287,-118.7495C135.6287,-137.9272 135.6287,-169 135.6287,-169 135.6287,-169 186.8723,-169 186.8723,-169"/>
<polygon fill="#000000" stroke="#000000" points="186.8723,-172.5001 196.8723,-169 186.8722,-165.5001 186.8723,-172.5001"/>
</g>
</g>
</svg>
