<?xml version="1.0" encoding="UTF-8" standalone="no"?>
<!DOCTYPE svg PUBLIC "-//W3C//DTD SVG 1.1//EN"
 "http://www.w3.org/Graphics/SVG/1.1/DTD/svg11.dtd">
<!-- Generated by graphviz version 2.40.1 (20161225.0304)
 -->
<!-- Title: dependencies Pages: 1 -->
<svg width="628pt" height="349pt"
 viewBox="0.00 0.00 628.00 349.00" xmlns="http://www.w3.org/2000/svg" xmlns:xlink="http://www.w3.org/1999/xlink">
<g id="graph0" class="graph" transform="scale(1 1) rotate(0) translate(4 345)">
<title>dependencies</title>
<polygon fill="#ffffff" stroke="transparent" points="-4,4 -4,-345 624,-345 624,4 -4,4"/>
<text text-anchor="start" x="289.0091" y="-42.4" font-family="sans-serif" font-weight="bold" font-size="14.00" fill="#000000">Legend</text>
<polygon fill="#ffffb3" stroke="transparent" points="76,-10 76,-30 96,-30 96,-10 76,-10"/>
<text text-anchor="start" x="99.629" y="-15.4" font-family="sans-serif" font-size="14.00" fill="#000000"> &#160;Declarations</text>
<polygon fill="#8dd3c7" stroke="transparent" points="189,-10 189,-30 209,-30 209,-10 189,-10"/>
<text text-anchor="start" x="212.7251" y="-15.4" font-family="sans-serif" font-size="14.00" fill="#000000"> &#160;Module</text>
<polygon fill="#80b1d3" stroke="transparent" points="275,-10 275,-30 295,-30 295,-10 275,-10"/>
<text text-anchor="start" x="298.7812" y="-15.4" font-family="sans-serif" font-size="14.00" fill="#000000"> &#160;Bootstrap</text>
<polygon fill="#fdb462" stroke="transparent" points="372,-10 372,-30 392,-30 392,-10 372,-10"/>
<text text-anchor="start" x="395.6732" y="-15.4" font-family="sans-serif" font-size="14.00" fill="#000000"> &#160;Providers</text>
<polygon fill="#fb8072" stroke="transparent" points="468,-10 468,-30 488,-30 488,-10 468,-10"/>
<text text-anchor="start" x="491.7258" y="-15.4" font-family="sans-serif" font-size="14.00" fill="#000000"> &#160;Exports</text>
<g id="clust1" class="cluster">
<title>cluster_ChatBotModule</title>
<polygon fill="none" stroke="#000000" stroke-dasharray="1,5" points="8,-70 8,-333 612,-333 612,-70 8,-70"/>
</g>
<g id="clust2" class="cluster">
<title>cluster_ChatBotModule_declarations</title>
<polygon fill="none" stroke="#000000" points="258,-143 258,-195 592,-195 592,-143 258,-143"/>
</g>
<g id="clust3" class="cluster">
<title>cluster_ChatBotModule_ChatBotComponent_providers</title>
<polygon fill="none" stroke="#000000" points="442,-78 442,-130 602,-130 602,-78 442,-78"/>
</g>
<g id="clust5" class="cluster">
<title>cluster_ChatBotModule_imports</title>
<polygon fill="none" stroke="#000000" points="16,-143 16,-195 250,-195 250,-143 16,-143"/>
</g>
<g id="clust6" class="cluster">
<title>cluster_ChatBotModule_exports</title>
<polygon fill="none" stroke="#000000" points="278,-273 278,-325 426,-325 426,-273 278,-273"/>
</g>
<!-- ChatBotComponent -->
<g id="node1" class="node">
<title>ChatBotComponent</title>
<polygon fill="#ffffb3" stroke="#000000" points="584.0014,-187 455.9986,-187 455.9986,-151 584.0014,-151 584.0014,-187"/>
<text text-anchor="middle" x="520" y="-164.8" font-family="Times,serif" font-size="14.00" fill="#000000">ChatBotComponent</text>
</g>
<!-- ChatBotModule -->
<g id="node3" class="node">
<title>ChatBotModule</title>
<polygon fill="#8dd3c7" stroke="#000000" points="405.219,-252 402.219,-256 381.219,-256 378.219,-252 298.781,-252 298.781,-216 405.219,-216 405.219,-252"/>
<text text-anchor="middle" x="352" y="-229.8" font-family="Times,serif" font-size="14.00" fill="#000000">ChatBotModule</text>
</g>
<!-- ChatBotComponent&#45;&gt;ChatBotModule -->
<g id="edge1" class="edge">
<title>ChatBotComponent&#45;&gt;ChatBotModule</title>
<path fill="none" stroke="#000000" d="M520,-187.0225C520,-204.3734 520,-228 520,-228 520,-228 415.1563,-228 415.1563,-228"/>
<polygon fill="#000000" stroke="#000000" points="415.1563,-224.5001 405.1563,-228 415.1562,-231.5001 415.1563,-224.5001"/>
</g>
<!-- TypingIndicatorComponent -->
<g id="node2" class="node">
<title>TypingIndicatorComponent</title>
<polygon fill="#ffffb3" stroke="#000000" points="438.3075,-187 265.6925,-187 265.6925,-151 438.3075,-151 438.3075,-187"/>
<text text-anchor="middle" x="352" y="-164.8" font-family="Times,serif" font-size="14.00" fill="#000000">TypingIndicatorComponent</text>
</g>
<!-- TypingIndicatorComponent&#45;&gt;ChatBotModule -->
<g id="edge3" class="edge">
<title>TypingIndicatorComponent&#45;&gt;ChatBotModule</title>
<path fill="none" stroke="#000000" d="M352,-187.1061C352,-187.1061 352,-205.991 352,-205.991"/>
<polygon fill="#000000" stroke="#000000" points="348.5001,-205.9909 352,-215.991 355.5001,-205.991 348.5001,-205.9909"/>
</g>
<!-- ChatBotComponent  -->
<g id="node7" class="node">
<title>ChatBotComponent </title>
<polygon fill="#fb8072" stroke="#000000" points="417.5023,-317 286.4977,-317 286.4977,-281 417.5023,-281 417.5023,-317"/>
<text text-anchor="middle" x="352" y="-294.8" font-family="Times,serif" font-size="14.00" fill="#000000">ChatBotComponent </text>
</g>
<!-- ChatBotModule&#45;&gt;ChatBotComponent  -->
<g id="edge6" class="edge">
<title>ChatBotModule&#45;&gt;ChatBotComponent </title>
<path fill="none" stroke="#000000" stroke-dasharray="5,2" d="M352,-252.1061C352,-252.1061 352,-270.991 352,-270.991"/>
<polygon fill="#000000" stroke="#000000" points="348.5001,-270.9909 352,-280.991 355.5001,-270.991 348.5001,-270.9909"/>
</g>
<!-- ChatBotService -->
<g id="node4" class="node">
<title>ChatBotService</title>
<ellipse fill="#fdb462" stroke="#000000" cx="522" cy="-104" rx="72.3671" ry="18"/>
<text text-anchor="middle" x="522" y="-99.8" font-family="Times,serif" font-size="14.00" fill="#000000">ChatBotService</text>
</g>
<!-- ChatBotService&#45;&gt;ChatBotComponent -->
<g id="edge2" class="edge">
<title>ChatBotService&#45;&gt;ChatBotComponent</title>
<path fill="none" stroke="#000000" d="M520,-122.1061C520,-122.1061 520,-140.991 520,-140.991"/>
<polygon fill="#000000" stroke="#000000" points="516.5001,-140.9909 520,-150.991 523.5001,-140.991 516.5001,-140.9909"/>
</g>
<!-- ChatBotService&#45;&gt;ChatBotModule -->
<g id="edge7" class="edge">
<title>ChatBotService&#45;&gt;ChatBotModule</title>
<path fill="none" stroke="#000000" d="M589.092,-110.9312C589.092,-138.6454 589.092,-240 589.092,-240 589.092,-240 415.2081,-240 415.2081,-240"/>
<polygon fill="#000000" stroke="#000000" points="415.2081,-236.5001 405.2081,-240 415.208,-243.5001 415.2081,-236.5001"/>
</g>
<!-- DraggableModule -->
<g id="node5" class="node">
<title>DraggableModule</title>
<polygon fill="#8dd3c7" stroke="#000000" points="241.8515,-187 238.8515,-191 217.8515,-191 214.8515,-187 124.1485,-187 124.1485,-151 241.8515,-151 241.8515,-187"/>
<text text-anchor="middle" x="183" y="-164.8" font-family="Times,serif" font-size="14.00" fill="#000000">DraggableModule</text>
</g>
<!-- DraggableModule&#45;&gt;ChatBotModule -->
<g id="edge4" class="edge">
<title>DraggableModule&#45;&gt;ChatBotModule</title>
<path fill="none" stroke="#000000" d="M183,-187.0225C183,-204.3734 183,-228 183,-228 183,-228 288.5273,-228 288.5273,-228"/>
<polygon fill="#000000" stroke="#000000" points="288.5274,-231.5001 298.5273,-228 288.5273,-224.5001 288.5274,-231.5001"/>
</g>
<!-- LedModule -->
<g id="node6" class="node">
<title>LedModule</title>
<polygon fill="#8dd3c7" stroke="#000000" points="105.8176,-187 102.8176,-191 81.8176,-191 78.8176,-187 24.1824,-187 24.1824,-151 105.8176,-151 105.8176,-187"/>
<text text-anchor="middle" x="65" y="-164.8" font-family="Times,serif" font-size="14.00" fill="#000000">LedModule</text>
</g>
<!-- LedModule&#45;&gt;ChatBotModule -->
<g id="edge5" class="edge">
<title>LedModule&#45;&gt;ChatBotModule</title>
<path fill="none" stroke="#000000" d="M65,-187.2843C65,-208.3211 65,-240 65,-240 65,-240 288.6901,-240 288.6901,-240"/>
<polygon fill="#000000" stroke="#000000" points="288.6901,-243.5001 298.6901,-240 288.6901,-236.5001 288.6901,-243.5001"/>
</g>
</g>
</svg>
