<?xml version="1.0" encoding="UTF-8" standalone="no"?>
<!DOCTYPE svg PUBLIC "-//W3C//DTD SVG 1.1//EN"
 "http://www.w3.org/Graphics/SVG/1.1/DTD/svg11.dtd">
<!-- Generated by graphviz version 2.40.1 (20161225.0304)
 -->
<!-- Title: dependencies Pages: 1 -->
<svg width="504pt" height="284pt"
 viewBox="0.00 0.00 504.00 284.00" xmlns="http://www.w3.org/2000/svg" xmlns:xlink="http://www.w3.org/1999/xlink">
<g id="graph0" class="graph" transform="scale(1 1) rotate(0) translate(4 280)">
<title>dependencies</title>
<polygon fill="#ffffff" stroke="transparent" points="-4,4 -4,-280 500,-280 500,4 -4,4"/>
<text text-anchor="start" x="227.0091" y="-42.4" font-family="sans-serif" font-weight="bold" font-size="14.00" fill="#000000">Legend</text>
<polygon fill="#ffffb3" stroke="transparent" points="14,-10 14,-30 34,-30 34,-10 14,-10"/>
<text text-anchor="start" x="37.629" y="-15.4" font-family="sans-serif" font-size="14.00" fill="#000000"> &#160;Declarations</text>
<polygon fill="#8dd3c7" stroke="transparent" points="127,-10 127,-30 147,-30 147,-10 127,-10"/>
<text text-anchor="start" x="150.7251" y="-15.4" font-family="sans-serif" font-size="14.00" fill="#000000"> &#160;Module</text>
<polygon fill="#80b1d3" stroke="transparent" points="213,-10 213,-30 233,-30 233,-10 213,-10"/>
<text text-anchor="start" x="236.7812" y="-15.4" font-family="sans-serif" font-size="14.00" fill="#000000"> &#160;Bootstrap</text>
<polygon fill="#fdb462" stroke="transparent" points="310,-10 310,-30 330,-30 330,-10 310,-10"/>
<text text-anchor="start" x="333.6732" y="-15.4" font-family="sans-serif" font-size="14.00" fill="#000000"> &#160;Providers</text>
<polygon fill="#fb8072" stroke="transparent" points="406,-10 406,-30 426,-30 426,-10 406,-10"/>
<text text-anchor="start" x="429.7258" y="-15.4" font-family="sans-serif" font-size="14.00" fill="#000000"> &#160;Exports</text>
<g id="clust1" class="cluster">
<title>cluster_ChatBotModule</title>
<polygon fill="none" stroke="#000000" stroke-dasharray="1,5" points="97,-70 97,-268 399,-268 399,-70 97,-70"/>
</g>
<g id="clust2" class="cluster">
<title>cluster_ChatBotModule_declarations</title>
<polygon fill="none" stroke="#000000" points="247,-78 247,-130 391,-130 391,-78 247,-78"/>
</g>
<g id="clust4" class="cluster">
<title>cluster_ChatBotModule_imports</title>
<polygon fill="none" stroke="#000000" points="105,-78 105,-130 239,-130 239,-78 105,-78"/>
</g>
<g id="clust5" class="cluster">
<title>cluster_ChatBotModule_exports</title>
<polygon fill="none" stroke="#000000" points="174,-208 174,-260 322,-260 322,-208 174,-208"/>
</g>
<!-- ChatBotComponent -->
<g id="node1" class="node">
<title>ChatBotComponent</title>
<polygon fill="#ffffb3" stroke="#000000" points="383.0014,-122 254.9986,-122 254.9986,-86 383.0014,-86 383.0014,-122"/>
<text text-anchor="middle" x="319" y="-99.8" font-family="Times,serif" font-size="14.00" fill="#000000">ChatBotComponent</text>
</g>
<!-- ChatBotModule -->
<g id="node2" class="node">
<title>ChatBotModule</title>
<polygon fill="#8dd3c7" stroke="#000000" points="301.219,-187 298.219,-191 277.219,-191 274.219,-187 194.781,-187 194.781,-151 301.219,-151 301.219,-187"/>
<text text-anchor="middle" x="248" y="-164.8" font-family="Times,serif" font-size="14.00" fill="#000000">ChatBotModule</text>
</g>
<!-- ChatBotComponent&#45;&gt;ChatBotModule -->
<g id="edge1" class="edge">
<title>ChatBotComponent&#45;&gt;ChatBotModule</title>
<path fill="none" stroke="#000000" d="M278.0544,-122.1061C278.0544,-122.1061 278.0544,-140.991 278.0544,-140.991"/>
<polygon fill="#000000" stroke="#000000" points="274.5544,-140.9909 278.0544,-150.991 281.5544,-140.991 274.5544,-140.9909"/>
</g>
<!-- ChatBotComponent  -->
<g id="node4" class="node">
<title>ChatBotComponent </title>
<polygon fill="#fb8072" stroke="#000000" points="313.5023,-252 182.4977,-252 182.4977,-216 313.5023,-216 313.5023,-252"/>
<text text-anchor="middle" x="248" y="-229.8" font-family="Times,serif" font-size="14.00" fill="#000000">ChatBotComponent </text>
</g>
<!-- ChatBotModule&#45;&gt;ChatBotComponent  -->
<g id="edge3" class="edge">
<title>ChatBotModule&#45;&gt;ChatBotComponent </title>
<path fill="none" stroke="#000000" stroke-dasharray="5,2" d="M248,-187.1061C248,-187.1061 248,-205.991 248,-205.991"/>
<polygon fill="#000000" stroke="#000000" points="244.5001,-205.9909 248,-215.991 251.5001,-205.991 244.5001,-205.9909"/>
</g>
<!-- DraggableModule -->
<g id="node3" class="node">
<title>DraggableModule</title>
<polygon fill="#8dd3c7" stroke="#000000" points="230.8515,-122 227.8515,-126 206.8515,-126 203.8515,-122 113.1485,-122 113.1485,-86 230.8515,-86 230.8515,-122"/>
<text text-anchor="middle" x="172" y="-99.8" font-family="Times,serif" font-size="14.00" fill="#000000">DraggableModule</text>
</g>
<!-- DraggableModule&#45;&gt;ChatBotModule -->
<g id="edge2" class="edge">
<title>DraggableModule&#45;&gt;ChatBotModule</title>
<path fill="none" stroke="#000000" d="M212.9082,-122.1061C212.9082,-122.1061 212.9082,-140.991 212.9082,-140.991"/>
<polygon fill="#000000" stroke="#000000" points="209.4082,-140.9909 212.9082,-150.991 216.4082,-140.991 209.4082,-140.9909"/>
</g>
</g>
</svg>
