<?xml version="1.0" encoding="UTF-8" standalone="no"?>
<!DOCTYPE svg PUBLIC "-//W3C//DTD SVG 1.1//EN"
 "http://www.w3.org/Graphics/SVG/1.1/DTD/svg11.dtd">
<!-- Generated by graphviz version 2.40.1 (20161225.0304)
 -->
<!-- Title: dependencies Pages: 1 -->
<svg width="504pt" height="284pt"
 viewBox="0.00 0.00 504.00 284.00" xmlns="http://www.w3.org/2000/svg" xmlns:xlink="http://www.w3.org/1999/xlink">
<g id="graph0" class="graph" transform="scale(1 1) rotate(0) translate(4 280)">
<title>dependencies</title>
<polygon fill="#ffffff" stroke="transparent" points="-4,4 -4,-280 500,-280 500,4 -4,4"/>
<text text-anchor="start" x="227.0091" y="-42.4" font-family="sans-serif" font-weight="bold" font-size="14.00" fill="#000000">Legend</text>
<polygon fill="#ffffb3" stroke="transparent" points="14,-10 14,-30 34,-30 34,-10 14,-10"/>
<text text-anchor="start" x="37.629" y="-15.4" font-family="sans-serif" font-size="14.00" fill="#000000"> &#160;Declarations</text>
<polygon fill="#8dd3c7" stroke="transparent" points="127,-10 127,-30 147,-30 147,-10 127,-10"/>
<text text-anchor="start" x="150.7251" y="-15.4" font-family="sans-serif" font-size="14.00" fill="#000000"> &#160;Module</text>
<polygon fill="#80b1d3" stroke="transparent" points="213,-10 213,-30 233,-30 233,-10 213,-10"/>
<text text-anchor="start" x="236.7812" y="-15.4" font-family="sans-serif" font-size="14.00" fill="#000000"> &#160;Bootstrap</text>
<polygon fill="#fdb462" stroke="transparent" points="310,-10 310,-30 330,-30 330,-10 310,-10"/>
<text text-anchor="start" x="333.6732" y="-15.4" font-family="sans-serif" font-size="14.00" fill="#000000"> &#160;Providers</text>
<polygon fill="#fb8072" stroke="transparent" points="406,-10 406,-30 426,-30 426,-10 406,-10"/>
<text text-anchor="start" x="429.7258" y="-15.4" font-family="sans-serif" font-size="14.00" fill="#000000"> &#160;Exports</text>
<g id="clust1" class="cluster">
<title>cluster_ChatBotModule</title>
<polygon fill="none" stroke="#000000" stroke-dasharray="1,5" points="107,-70 107,-268 389,-268 389,-70 107,-70"/>
</g>
<g id="clust2" class="cluster">
<title>cluster_ChatBotModule_declarations</title>
<polygon fill="none" stroke="#000000" points="237,-78 237,-130 381,-130 381,-78 237,-78"/>
</g>
<g id="clust4" class="cluster">
<title>cluster_ChatBotModule_imports</title>
<polygon fill="none" stroke="#000000" points="115,-78 115,-130 229,-130 229,-78 115,-78"/>
</g>
<g id="clust5" class="cluster">
<title>cluster_ChatBotModule_exports</title>
<polygon fill="none" stroke="#000000" points="174,-208 174,-260 322,-260 322,-208 174,-208"/>
</g>
<!-- ChatBotComponent -->
<g id="node1" class="node">
<title>ChatBotComponent</title>
<polygon fill="#ffffb3" stroke="#000000" points="373.0014,-122 244.9986,-122 244.9986,-86 373.0014,-86 373.0014,-122"/>
<text text-anchor="middle" x="309" y="-99.8" font-family="Times,serif" font-size="14.00" fill="#000000">ChatBotComponent</text>
</g>
<!-- ChatBotModule -->
<g id="node2" class="node">
<title>ChatBotModule</title>
<polygon fill="#8dd3c7" stroke="#000000" points="301.219,-187 298.219,-191 277.219,-191 274.219,-187 194.781,-187 194.781,-151 301.219,-151 301.219,-187"/>
<text text-anchor="middle" x="248" y="-164.8" font-family="Times,serif" font-size="14.00" fill="#000000">ChatBotModule</text>
</g>
<!-- ChatBotComponent&#45;&gt;ChatBotModule -->
<g id="edge1" class="edge">
<title>ChatBotComponent&#45;&gt;ChatBotModule</title>
<path fill="none" stroke="#000000" d="M273.0544,-122.1061C273.0544,-122.1061 273.0544,-140.991 273.0544,-140.991"/>
<polygon fill="#000000" stroke="#000000" points="269.5544,-140.9909 273.0544,-150.991 276.5544,-140.991 269.5544,-140.9909"/>
</g>
<!-- ChatBotComponent  -->
<g id="node4" class="node">
<title>ChatBotComponent </title>
<polygon fill="#fb8072" stroke="#000000" points="313.5023,-252 182.4977,-252 182.4977,-216 313.5023,-216 313.5023,-252"/>
<text text-anchor="middle" x="248" y="-229.8" font-family="Times,serif" font-size="14.00" fill="#000000">ChatBotComponent </text>
</g>
<!-- ChatBotModule&#45;&gt;ChatBotComponent  -->
<g id="edge3" class="edge">
<title>ChatBotModule&#45;&gt;ChatBotComponent </title>
<path fill="none" stroke="#000000" stroke-dasharray="5,2" d="M248,-187.1061C248,-187.1061 248,-205.991 248,-205.991"/>
<polygon fill="#000000" stroke="#000000" points="244.5001,-205.9909 248,-215.991 251.5001,-205.991 244.5001,-205.9909"/>
</g>
<!-- SharedModule -->
<g id="node3" class="node">
<title>SharedModule</title>
<polygon fill="#8dd3c7" stroke="#000000" points="221.4231,-122 218.4231,-126 197.4231,-126 194.4231,-122 122.5769,-122 122.5769,-86 221.4231,-86 221.4231,-122"/>
<text text-anchor="middle" x="172" y="-99.8" font-family="Times,serif" font-size="14.00" fill="#000000">SharedModule</text>
</g>
<!-- SharedModule&#45;&gt;ChatBotModule -->
<g id="edge2" class="edge">
<title>SharedModule&#45;&gt;ChatBotModule</title>
<path fill="none" stroke="#000000" d="M208.0509,-122.1061C208.0509,-122.1061 208.0509,-140.991 208.0509,-140.991"/>
<polygon fill="#000000" stroke="#000000" points="204.5509,-140.9909 208.0509,-150.991 211.5509,-140.991 204.5509,-140.9909"/>
</g>
</g>
</svg>
