<?xml version="1.0" encoding="UTF-8" standalone="no"?>
<!DOCTYPE svg PUBLIC "-//W3C//DTD SVG 1.1//EN"
 "http://www.w3.org/Graphics/SVG/1.1/DTD/svg11.dtd">
<!-- Generated by graphviz version 2.40.1 (20161225.0304)
 -->
<!-- Title: dependencies Pages: 1 -->
<svg width="769pt" height="284pt"
 viewBox="0.00 0.00 769.00 284.00" xmlns="http://www.w3.org/2000/svg" xmlns:xlink="http://www.w3.org/1999/xlink">
<g id="graph0" class="graph" transform="scale(1 1) rotate(0) translate(4 280)">
<title>dependencies</title>
<polygon fill="#ffffff" stroke="transparent" points="-4,4 -4,-280 765,-280 765,4 -4,4"/>
<text text-anchor="start" x="359.5091" y="-42.4" font-family="sans-serif" font-weight="bold" font-size="14.00" fill="#000000">Legend</text>
<polygon fill="#ffffb3" stroke="transparent" points="146.5,-10 146.5,-30 166.5,-30 166.5,-10 146.5,-10"/>
<text text-anchor="start" x="170.129" y="-15.4" font-family="sans-serif" font-size="14.00" fill="#000000"> &#160;Declarations</text>
<polygon fill="#8dd3c7" stroke="transparent" points="259.5,-10 259.5,-30 279.5,-30 279.5,-10 259.5,-10"/>
<text text-anchor="start" x="283.2251" y="-15.4" font-family="sans-serif" font-size="14.00" fill="#000000"> &#160;Module</text>
<polygon fill="#80b1d3" stroke="transparent" points="345.5,-10 345.5,-30 365.5,-30 365.5,-10 345.5,-10"/>
<text text-anchor="start" x="369.2812" y="-15.4" font-family="sans-serif" font-size="14.00" fill="#000000"> &#160;Bootstrap</text>
<polygon fill="#fdb462" stroke="transparent" points="442.5,-10 442.5,-30 462.5,-30 462.5,-10 442.5,-10"/>
<text text-anchor="start" x="466.1732" y="-15.4" font-family="sans-serif" font-size="14.00" fill="#000000"> &#160;Providers</text>
<polygon fill="#fb8072" stroke="transparent" points="538.5,-10 538.5,-30 558.5,-30 558.5,-10 538.5,-10"/>
<text text-anchor="start" x="562.2258" y="-15.4" font-family="sans-serif" font-size="14.00" fill="#000000"> &#160;Exports</text>
<g id="clust1" class="cluster">
<title>cluster_SharedModule</title>
<polygon fill="none" stroke="#000000" stroke-dasharray="1,5" points="8,-70 8,-268 753,-268 753,-70 8,-70"/>
</g>
<g id="clust2" class="cluster">
<title>cluster_SharedModule_declarations</title>
<polygon fill="none" stroke="#000000" points="240,-78 240,-130 522,-130 522,-78 240,-78"/>
</g>
<g id="clust6" class="cluster">
<title>cluster_SharedModule_exports</title>
<polygon fill="none" stroke="#000000" points="16,-208 16,-260 745,-260 745,-208 16,-208"/>
</g>
<!-- MinValidatorDirective -->
<g id="node1" class="node">
<title>MinValidatorDirective</title>
<polygon fill="#ffffb3" stroke="#000000" points="514.2865,-122 369.7135,-122 369.7135,-86 514.2865,-86 514.2865,-122"/>
<text text-anchor="middle" x="442" y="-99.8" font-family="Times,serif" font-size="14.00" fill="#000000">MinValidatorDirective</text>
</g>
<!-- SharedModule -->
<g id="node3" class="node">
<title>SharedModule</title>
<polygon fill="#8dd3c7" stroke="#000000" points="420.4231,-187 417.4231,-191 396.4231,-191 393.4231,-187 321.5769,-187 321.5769,-151 420.4231,-151 420.4231,-187"/>
<text text-anchor="middle" x="371" y="-164.8" font-family="Times,serif" font-size="14.00" fill="#000000">SharedModule</text>
</g>
<!-- MinValidatorDirective&#45;&gt;SharedModule -->
<g id="edge1" class="edge">
<title>MinValidatorDirective&#45;&gt;SharedModule</title>
<path fill="none" stroke="#000000" d="M395.034,-122.1061C395.034,-122.1061 395.034,-140.991 395.034,-140.991"/>
<polygon fill="#000000" stroke="#000000" points="391.5341,-140.9909 395.034,-150.991 398.5341,-140.991 391.5341,-140.9909"/>
</g>
<!-- NgLetDirective -->
<g id="node2" class="node">
<title>NgLetDirective</title>
<polygon fill="#ffffb3" stroke="#000000" points="351.8473,-122 248.1527,-122 248.1527,-86 351.8473,-86 351.8473,-122"/>
<text text-anchor="middle" x="300" y="-99.8" font-family="Times,serif" font-size="14.00" fill="#000000">NgLetDirective</text>
</g>
<!-- NgLetDirective&#45;&gt;SharedModule -->
<g id="edge2" class="edge">
<title>NgLetDirective&#45;&gt;SharedModule</title>
<path fill="none" stroke="#000000" d="M336.8563,-122.1061C336.8563,-122.1061 336.8563,-140.991 336.8563,-140.991"/>
<polygon fill="#000000" stroke="#000000" points="333.3563,-140.9909 336.8563,-150.991 340.3563,-140.991 333.3563,-140.9909"/>
</g>
<!-- BreadcrumbsModule  -->
<g id="node4" class="node">
<title>BreadcrumbsModule </title>
<polygon fill="#fb8072" stroke="#000000" points="736.687,-252 599.313,-252 599.313,-216 736.687,-216 736.687,-252"/>
<text text-anchor="middle" x="668" y="-229.8" font-family="Times,serif" font-size="14.00" fill="#000000">BreadcrumbsModule </text>
</g>
<!-- SharedModule&#45;&gt;BreadcrumbsModule  -->
<g id="edge3" class="edge">
<title>SharedModule&#45;&gt;BreadcrumbsModule </title>
<path fill="none" stroke="#000000" stroke-dasharray="5,2" d="M420.3769,-163C504.8301,-163 668,-163 668,-163 668,-163 668,-205.7157 668,-205.7157"/>
<polygon fill="#000000" stroke="#000000" points="664.5001,-205.7157 668,-215.7157 671.5001,-205.7158 664.5001,-205.7157"/>
</g>
<!-- MaterialDateModule  -->
<g id="node5" class="node">
<title>MaterialDateModule </title>
<polygon fill="#fb8072" stroke="#000000" points="581.397,-252 444.603,-252 444.603,-216 581.397,-216 581.397,-252"/>
<text text-anchor="middle" x="513" y="-229.8" font-family="Times,serif" font-size="14.00" fill="#000000">MaterialDateModule </text>
</g>
<!-- SharedModule&#45;&gt;MaterialDateModule  -->
<g id="edge4" class="edge">
<title>SharedModule&#45;&gt;MaterialDateModule </title>
<path fill="none" stroke="#000000" stroke-dasharray="5,2" d="M420.4177,-175C448.9932,-175 479.3473,-175 479.3473,-175 479.3473,-175 479.3473,-205.9775 479.3473,-205.9775"/>
<polygon fill="#000000" stroke="#000000" points="475.8474,-205.9774 479.3473,-215.9775 482.8474,-205.9775 475.8474,-205.9774"/>
</g>
<!-- MaterialModule  -->
<g id="node6" class="node">
<title>MaterialModule </title>
<polygon fill="#fb8072" stroke="#000000" points="426.4716,-252 315.5284,-252 315.5284,-216 426.4716,-216 426.4716,-252"/>
<text text-anchor="middle" x="371" y="-229.8" font-family="Times,serif" font-size="14.00" fill="#000000">MaterialModule </text>
</g>
<!-- SharedModule&#45;&gt;MaterialModule  -->
<g id="edge5" class="edge">
<title>SharedModule&#45;&gt;MaterialModule </title>
<path fill="none" stroke="#000000" stroke-dasharray="5,2" d="M371,-187.1061C371,-187.1061 371,-205.991 371,-205.991"/>
<polygon fill="#000000" stroke="#000000" points="367.5001,-205.9909 371,-215.991 374.5001,-205.991 367.5001,-205.9909"/>
</g>
<!-- MinValidatorDirective  -->
<g id="node7" class="node">
<title>MinValidatorDirective </title>
<polygon fill="#fb8072" stroke="#000000" points="297.7864,-252 150.2136,-252 150.2136,-216 297.7864,-216 297.7864,-252"/>
<text text-anchor="middle" x="224" y="-229.8" font-family="Times,serif" font-size="14.00" fill="#000000">MinValidatorDirective </text>
</g>
<!-- SharedModule&#45;&gt;MinValidatorDirective  -->
<g id="edge6" class="edge">
<title>SharedModule&#45;&gt;MinValidatorDirective </title>
<path fill="none" stroke="#000000" stroke-dasharray="5,2" d="M321.7052,-175C297.2975,-175 272.9848,-175 272.9848,-175 272.9848,-175 272.9848,-205.9775 272.9848,-205.9775"/>
<polygon fill="#000000" stroke="#000000" points="269.4848,-205.9774 272.9848,-215.9775 276.4848,-205.9775 269.4848,-205.9774"/>
</g>
<!-- NgLetDirective  -->
<g id="node8" class="node">
<title>NgLetDirective </title>
<polygon fill="#fb8072" stroke="#000000" points="131.8478,-252 24.1522,-252 24.1522,-216 131.8478,-216 131.8478,-252"/>
<text text-anchor="middle" x="78" y="-229.8" font-family="Times,serif" font-size="14.00" fill="#000000">NgLetDirective </text>
</g>
<!-- SharedModule&#45;&gt;NgLetDirective  -->
<g id="edge7" class="edge">
<title>SharedModule&#45;&gt;NgLetDirective </title>
<path fill="none" stroke="#000000" stroke-dasharray="5,2" d="M321.6279,-163C238.1251,-163 78,-163 78,-163 78,-163 78,-205.7157 78,-205.7157"/>
<polygon fill="#000000" stroke="#000000" points="74.5001,-205.7157 78,-215.7157 81.5001,-205.7158 74.5001,-205.7157"/>
</g>
</g>
</svg>
