<?xml version="1.0" encoding="UTF-8" standalone="no"?>
<!DOCTYPE svg PUBLIC "-//W3C//DTD SVG 1.1//EN"
 "http://www.w3.org/Graphics/SVG/1.1/DTD/svg11.dtd">
<!-- Generated by graphviz version 2.40.1 (20161225.0304)
 -->
<!-- Title: dependencies Pages: 1 -->
<svg width="1048pt" height="284pt"
 viewBox="0.00 0.00 1048.00 284.00" xmlns="http://www.w3.org/2000/svg" xmlns:xlink="http://www.w3.org/1999/xlink">
<g id="graph0" class="graph" transform="scale(1 1) rotate(0) translate(4 280)">
<title>dependencies</title>
<polygon fill="#ffffff" stroke="transparent" points="-4,4 -4,-280 1044,-280 1044,4 -4,4"/>
<text text-anchor="start" x="499.0091" y="-42.4" font-family="sans-serif" font-weight="bold" font-size="14.00" fill="#000000">Legend</text>
<polygon fill="#ffffb3" stroke="transparent" points="286,-10 286,-30 306,-30 306,-10 286,-10"/>
<text text-anchor="start" x="309.629" y="-15.4" font-family="sans-serif" font-size="14.00" fill="#000000"> &#160;Declarations</text>
<polygon fill="#8dd3c7" stroke="transparent" points="399,-10 399,-30 419,-30 419,-10 399,-10"/>
<text text-anchor="start" x="422.7251" y="-15.4" font-family="sans-serif" font-size="14.00" fill="#000000"> &#160;Module</text>
<polygon fill="#80b1d3" stroke="transparent" points="485,-10 485,-30 505,-30 505,-10 485,-10"/>
<text text-anchor="start" x="508.7812" y="-15.4" font-family="sans-serif" font-size="14.00" fill="#000000"> &#160;Bootstrap</text>
<polygon fill="#fdb462" stroke="transparent" points="582,-10 582,-30 602,-30 602,-10 582,-10"/>
<text text-anchor="start" x="605.6732" y="-15.4" font-family="sans-serif" font-size="14.00" fill="#000000"> &#160;Providers</text>
<polygon fill="#fb8072" stroke="transparent" points="678,-10 678,-30 698,-30 698,-10 678,-10"/>
<text text-anchor="start" x="701.7258" y="-15.4" font-family="sans-serif" font-size="14.00" fill="#000000"> &#160;Exports</text>
<g id="clust1" class="cluster">
<title>cluster_SharedModule</title>
<polygon fill="none" stroke="#000000" stroke-dasharray="1,5" points="8,-70 8,-268 1032,-268 1032,-70 8,-70"/>
</g>
<g id="clust2" class="cluster">
<title>cluster_SharedModule_declarations</title>
<polygon fill="none" stroke="#000000" points="456,-78 456,-130 874,-130 874,-78 456,-78"/>
</g>
<g id="clust6" class="cluster">
<title>cluster_SharedModule_imports</title>
<polygon fill="none" stroke="#000000" points="190,-78 190,-130 448,-130 448,-78 190,-78"/>
</g>
<g id="clust7" class="cluster">
<title>cluster_SharedModule_exports</title>
<polygon fill="none" stroke="#000000" points="16,-208 16,-260 1024,-260 1024,-208 16,-208"/>
</g>
<!-- FooterComponent -->
<g id="node1" class="node">
<title>FooterComponent</title>
<polygon fill="#ffffb3" stroke="#000000" points="865.8809,-122 748.1191,-122 748.1191,-86 865.8809,-86 865.8809,-122"/>
<text text-anchor="middle" x="807" y="-99.8" font-family="Times,serif" font-size="14.00" fill="#000000">FooterComponent</text>
</g>
<!-- SharedModule -->
<g id="node4" class="node">
<title>SharedModule</title>
<polygon fill="#8dd3c7" stroke="#000000" points="565.4231,-187 562.4231,-191 541.4231,-191 538.4231,-187 466.5769,-187 466.5769,-151 565.4231,-151 565.4231,-187"/>
<text text-anchor="middle" x="516" y="-164.8" font-family="Times,serif" font-size="14.00" fill="#000000">SharedModule</text>
</g>
<!-- FooterComponent&#45;&gt;SharedModule -->
<g id="edge1" class="edge">
<title>FooterComponent&#45;&gt;SharedModule</title>
<path fill="none" stroke="#000000" d="M786.5882,-122.0225C786.5882,-139.3734 786.5882,-163 786.5882,-163 786.5882,-163 575.3154,-163 575.3154,-163"/>
<polygon fill="#000000" stroke="#000000" points="575.3155,-159.5001 565.3154,-163 575.3154,-166.5001 575.3155,-159.5001"/>
</g>
<!-- MinValidatorDirective -->
<g id="node2" class="node">
<title>MinValidatorDirective</title>
<polygon fill="#ffffb3" stroke="#000000" points="730.2865,-122 585.7135,-122 585.7135,-86 730.2865,-86 730.2865,-122"/>
<text text-anchor="middle" x="658" y="-99.8" font-family="Times,serif" font-size="14.00" fill="#000000">MinValidatorDirective</text>
</g>
<!-- MinValidatorDirective&#45;&gt;SharedModule -->
<g id="edge2" class="edge">
<title>MinValidatorDirective&#45;&gt;SharedModule</title>
<path fill="none" stroke="#000000" d="M590.2042,-122.2396C590.2042,-137.5706 590.2042,-157 590.2042,-157 590.2042,-157 575.4953,-157 575.4953,-157"/>
<polygon fill="#000000" stroke="#000000" points="575.4953,-153.5001 565.4953,-157 575.4952,-160.5001 575.4953,-153.5001"/>
</g>
<!-- NgLetDirective -->
<g id="node3" class="node">
<title>NgLetDirective</title>
<polygon fill="#ffffb3" stroke="#000000" points="567.8473,-122 464.1527,-122 464.1527,-86 567.8473,-86 567.8473,-122"/>
<text text-anchor="middle" x="516" y="-99.8" font-family="Times,serif" font-size="14.00" fill="#000000">NgLetDirective</text>
</g>
<!-- NgLetDirective&#45;&gt;SharedModule -->
<g id="edge3" class="edge">
<title>NgLetDirective&#45;&gt;SharedModule</title>
<path fill="none" stroke="#000000" d="M516,-122.1061C516,-122.1061 516,-140.991 516,-140.991"/>
<polygon fill="#000000" stroke="#000000" points="512.5001,-140.9909 516,-150.991 519.5001,-140.991 512.5001,-140.9909"/>
</g>
<!-- BreadcrumbsModule  -->
<g id="node7" class="node">
<title>BreadcrumbsModule </title>
<polygon fill="#fb8072" stroke="#000000" points="1015.687,-252 878.313,-252 878.313,-216 1015.687,-216 1015.687,-252"/>
<text text-anchor="middle" x="947" y="-229.8" font-family="Times,serif" font-size="14.00" fill="#000000">BreadcrumbsModule </text>
</g>
<!-- SharedModule&#45;&gt;BreadcrumbsModule  -->
<g id="edge6" class="edge">
<title>SharedModule&#45;&gt;BreadcrumbsModule </title>
<path fill="none" stroke="#000000" stroke-dasharray="5,2" d="M565.4412,-169C678.6509,-169 947,-169 947,-169 947,-169 947,-205.8939 947,-205.8939"/>
<polygon fill="#000000" stroke="#000000" points="943.5001,-205.8938 947,-215.8939 950.5001,-205.8939 943.5001,-205.8938"/>
</g>
<!-- MaterialModule  -->
<g id="node8" class="node">
<title>MaterialModule </title>
<polygon fill="#fb8072" stroke="#000000" points="860.4716,-252 749.5284,-252 749.5284,-216 860.4716,-216 860.4716,-252"/>
<text text-anchor="middle" x="805" y="-229.8" font-family="Times,serif" font-size="14.00" fill="#000000">MaterialModule </text>
</g>
<!-- SharedModule&#45;&gt;MaterialModule  -->
<g id="edge7" class="edge">
<title>SharedModule&#45;&gt;MaterialModule </title>
<path fill="none" stroke="#000000" stroke-dasharray="5,2" d="M565.391,-175C652.2892,-175 823.4118,-175 823.4118,-175 823.4118,-175 823.4118,-205.9775 823.4118,-205.9775"/>
<polygon fill="#000000" stroke="#000000" points="819.9119,-205.9774 823.4118,-215.9775 826.9119,-205.9775 819.9119,-205.9774"/>
</g>
<!-- MaterialDateModule  -->
<g id="node9" class="node">
<title>MaterialDateModule </title>
<polygon fill="#fb8072" stroke="#000000" points="731.397,-252 594.603,-252 594.603,-216 731.397,-216 731.397,-252"/>
<text text-anchor="middle" x="663" y="-229.8" font-family="Times,serif" font-size="14.00" fill="#000000">MaterialDateModule </text>
</g>
<!-- SharedModule&#45;&gt;MaterialDateModule  -->
<g id="edge8" class="edge">
<title>SharedModule&#45;&gt;MaterialDateModule </title>
<path fill="none" stroke="#000000" stroke-dasharray="5,2" d="M565.5465,-181C608.003,-181 662.3473,-181 662.3473,-181 662.3473,-181 662.3473,-205.7604 662.3473,-205.7604"/>
<polygon fill="#000000" stroke="#000000" points="658.8474,-205.7604 662.3473,-215.7604 665.8474,-205.7604 658.8474,-205.7604"/>
</g>
<!-- FullscreenModule  -->
<g id="node10" class="node">
<title>FullscreenModule </title>
<polygon fill="#fb8072" stroke="#000000" points="576.8631,-252 455.1369,-252 455.1369,-216 576.8631,-216 576.8631,-252"/>
<text text-anchor="middle" x="516" y="-229.8" font-family="Times,serif" font-size="14.00" fill="#000000">FullscreenModule </text>
</g>
<!-- SharedModule&#45;&gt;FullscreenModule  -->
<g id="edge9" class="edge">
<title>SharedModule&#45;&gt;FullscreenModule </title>
<path fill="none" stroke="#000000" stroke-dasharray="5,2" d="M516,-187.1061C516,-187.1061 516,-205.991 516,-205.991"/>
<polygon fill="#000000" stroke="#000000" points="512.5001,-205.9909 516,-215.991 519.5001,-205.991 512.5001,-205.9909"/>
</g>
<!-- FooterComponent  -->
<g id="node11" class="node">
<title>FooterComponent </title>
<polygon fill="#fb8072" stroke="#000000" points="437.8814,-252 316.1186,-252 316.1186,-216 437.8814,-216 437.8814,-252"/>
<text text-anchor="middle" x="377" y="-229.8" font-family="Times,serif" font-size="14.00" fill="#000000">FooterComponent </text>
</g>
<!-- SharedModule&#45;&gt;FooterComponent  -->
<g id="edge10" class="edge">
<title>SharedModule&#45;&gt;FooterComponent </title>
<path fill="none" stroke="#000000" stroke-dasharray="5,2" d="M466.4062,-181C420.93,-181 360.6093,-181 360.6093,-181 360.6093,-181 360.6093,-205.7604 360.6093,-205.7604"/>
<polygon fill="#000000" stroke="#000000" points="357.1094,-205.7604 360.6093,-215.7604 364.1094,-205.7604 357.1094,-205.7604"/>
</g>
<!-- MinValidatorDirective  -->
<g id="node12" class="node">
<title>MinValidatorDirective </title>
<polygon fill="#fb8072" stroke="#000000" points="297.7864,-252 150.2136,-252 150.2136,-216 297.7864,-216 297.7864,-252"/>
<text text-anchor="middle" x="224" y="-229.8" font-family="Times,serif" font-size="14.00" fill="#000000">MinValidatorDirective </text>
</g>
<!-- SharedModule&#45;&gt;MinValidatorDirective  -->
<g id="edge11" class="edge">
<title>SharedModule&#45;&gt;MinValidatorDirective </title>
<path fill="none" stroke="#000000" stroke-dasharray="5,2" d="M466.6777,-175C385.0996,-175 230.9742,-175 230.9742,-175 230.9742,-175 230.9742,-205.9775 230.9742,-205.9775"/>
<polygon fill="#000000" stroke="#000000" points="227.4741,-205.9775 230.9742,-215.9775 234.4741,-205.9774 227.4741,-205.9775"/>
</g>
<!-- NgLetDirective  -->
<g id="node13" class="node">
<title>NgLetDirective </title>
<polygon fill="#fb8072" stroke="#000000" points="131.8478,-252 24.1522,-252 24.1522,-216 131.8478,-216 131.8478,-252"/>
<text text-anchor="middle" x="78" y="-229.8" font-family="Times,serif" font-size="14.00" fill="#000000">NgLetDirective </text>
</g>
<!-- SharedModule&#45;&gt;NgLetDirective  -->
<g id="edge12" class="edge">
<title>SharedModule&#45;&gt;NgLetDirective </title>
<path fill="none" stroke="#000000" stroke-dasharray="5,2" d="M466.6072,-169C352.0591,-169 78,-169 78,-169 78,-169 78,-205.8939 78,-205.8939"/>
<polygon fill="#000000" stroke="#000000" points="74.5001,-205.8938 78,-215.8939 81.5001,-205.8939 74.5001,-205.8938"/>
</g>
<!-- FullscreenModule -->
<g id="node5" class="node">
<title>FullscreenModule</title>
<polygon fill="#8dd3c7" stroke="#000000" points="439.8627,-122 436.8627,-126 415.8627,-126 412.8627,-122 322.1373,-122 322.1373,-86 439.8627,-86 439.8627,-122"/>
<text text-anchor="middle" x="381" y="-99.8" font-family="Times,serif" font-size="14.00" fill="#000000">FullscreenModule</text>
</g>
<!-- FullscreenModule&#45;&gt;SharedModule -->
<g id="edge4" class="edge">
<title>FullscreenModule&#45;&gt;SharedModule</title>
<path fill="none" stroke="#000000" d="M399.1498,-122.2396C399.1498,-137.5706 399.1498,-157 399.1498,-157 399.1498,-157 456.7837,-157 456.7837,-157"/>
<polygon fill="#000000" stroke="#000000" points="456.7837,-160.5001 466.7837,-157 456.7836,-153.5001 456.7837,-160.5001"/>
</g>
<!-- MaterialModule -->
<g id="node6" class="node">
<title>MaterialModule</title>
<polygon fill="#8dd3c7" stroke="#000000" points="304.4706,-122 301.4706,-126 280.4706,-126 277.4706,-122 197.5294,-122 197.5294,-86 304.4706,-86 304.4706,-122"/>
<text text-anchor="middle" x="251" y="-99.8" font-family="Times,serif" font-size="14.00" fill="#000000">MaterialModule</text>
</g>
<!-- MaterialModule&#45;&gt;SharedModule -->
<g id="edge5" class="edge">
<title>MaterialModule&#45;&gt;SharedModule</title>
<path fill="none" stroke="#000000" d="M264.4336,-122.0225C264.4336,-139.3734 264.4336,-163 264.4336,-163 264.4336,-163 456.5987,-163 456.5987,-163"/>
<polygon fill="#000000" stroke="#000000" points="456.5988,-166.5001 466.5987,-163 456.5987,-159.5001 456.5988,-166.5001"/>
</g>
</g>
</svg>
