<?xml version="1.0" encoding="UTF-8" standalone="no"?>
<!DOCTYPE svg PUBLIC "-//W3C//DTD SVG 1.1//EN"
 "http://www.w3.org/Graphics/SVG/1.1/DTD/svg11.dtd">
<!-- Generated by graphviz version 2.40.1 (20161225.0304)
 -->
<!-- Title: dependencies Pages: 1 -->
<svg width="892pt" height="284pt"
 viewBox="0.00 0.00 892.00 284.00" xmlns="http://www.w3.org/2000/svg" xmlns:xlink="http://www.w3.org/1999/xlink">
<g id="graph0" class="graph" transform="scale(1 1) rotate(0) translate(4 280)">
<title>dependencies</title>
<polygon fill="#ffffff" stroke="transparent" points="-4,4 -4,-280 888,-280 888,4 -4,4"/>
<text text-anchor="start" x="421.0091" y="-42.4" font-family="sans-serif" font-weight="bold" font-size="14.00" fill="#000000">Legend</text>
<polygon fill="#ffffb3" stroke="transparent" points="208,-10 208,-30 228,-30 228,-10 208,-10"/>
<text text-anchor="start" x="231.629" y="-15.4" font-family="sans-serif" font-size="14.00" fill="#000000"> &#160;Declarations</text>
<polygon fill="#8dd3c7" stroke="transparent" points="321,-10 321,-30 341,-30 341,-10 321,-10"/>
<text text-anchor="start" x="344.7251" y="-15.4" font-family="sans-serif" font-size="14.00" fill="#000000"> &#160;Module</text>
<polygon fill="#80b1d3" stroke="transparent" points="407,-10 407,-30 427,-30 427,-10 407,-10"/>
<text text-anchor="start" x="430.7812" y="-15.4" font-family="sans-serif" font-size="14.00" fill="#000000"> &#160;Bootstrap</text>
<polygon fill="#fdb462" stroke="transparent" points="504,-10 504,-30 524,-30 524,-10 504,-10"/>
<text text-anchor="start" x="527.6732" y="-15.4" font-family="sans-serif" font-size="14.00" fill="#000000"> &#160;Providers</text>
<polygon fill="#fb8072" stroke="transparent" points="600,-10 600,-30 620,-30 620,-10 600,-10"/>
<text text-anchor="start" x="623.7258" y="-15.4" font-family="sans-serif" font-size="14.00" fill="#000000"> &#160;Exports</text>
<g id="clust1" class="cluster">
<title>cluster_SharedModule</title>
<polygon fill="none" stroke="#000000" stroke-dasharray="1,5" points="8,-70 8,-268 876,-268 876,-70 8,-70"/>
</g>
<g id="clust2" class="cluster">
<title>cluster_SharedModule_declarations</title>
<polygon fill="none" stroke="#000000" points="383,-78 383,-130 801,-130 801,-78 383,-78"/>
</g>
<g id="clust6" class="cluster">
<title>cluster_SharedModule_imports</title>
<polygon fill="none" stroke="#000000" points="117,-78 117,-130 375,-130 375,-78 117,-78"/>
</g>
<g id="clust7" class="cluster">
<title>cluster_SharedModule_exports</title>
<polygon fill="none" stroke="#000000" points="16,-208 16,-260 868,-260 868,-208 16,-208"/>
</g>
<!-- FooterComponent -->
<g id="node1" class="node">
<title>FooterComponent</title>
<polygon fill="#ffffb3" stroke="#000000" points="792.8809,-122 675.1191,-122 675.1191,-86 792.8809,-86 792.8809,-122"/>
<text text-anchor="middle" x="734" y="-99.8" font-family="Times,serif" font-size="14.00" fill="#000000">FooterComponent</text>
</g>
<!-- SharedModule -->
<g id="node4" class="node">
<title>SharedModule</title>
<polygon fill="#8dd3c7" stroke="#000000" points="492.4231,-187 489.4231,-191 468.4231,-191 465.4231,-187 393.5769,-187 393.5769,-151 492.4231,-151 492.4231,-187"/>
<text text-anchor="middle" x="443" y="-164.8" font-family="Times,serif" font-size="14.00" fill="#000000">SharedModule</text>
</g>
<!-- FooterComponent&#45;&gt;SharedModule -->
<g id="edge1" class="edge">
<title>FooterComponent&#45;&gt;SharedModule</title>
<path fill="none" stroke="#000000" d="M703.2541,-122.2667C703.2541,-140.5552 703.2541,-166 703.2541,-166 703.2541,-166 502.2578,-166 502.2578,-166"/>
<polygon fill="#000000" stroke="#000000" points="502.2578,-162.5001 492.2578,-166 502.2577,-169.5001 502.2578,-162.5001"/>
</g>
<!-- MinValidatorDirective -->
<g id="node2" class="node">
<title>MinValidatorDirective</title>
<polygon fill="#ffffb3" stroke="#000000" points="657.2865,-122 512.7135,-122 512.7135,-86 657.2865,-86 657.2865,-122"/>
<text text-anchor="middle" x="585" y="-99.8" font-family="Times,serif" font-size="14.00" fill="#000000">MinValidatorDirective</text>
</g>
<!-- MinValidatorDirective&#45;&gt;SharedModule -->
<g id="edge2" class="edge">
<title>MinValidatorDirective&#45;&gt;SharedModule</title>
<path fill="none" stroke="#000000" d="M544.7691,-122.0091C544.7691,-138.0494 544.7691,-159 544.7691,-159 544.7691,-159 502.394,-159 502.394,-159"/>
<polygon fill="#000000" stroke="#000000" points="502.394,-155.5001 492.394,-159 502.3939,-162.5001 502.394,-155.5001"/>
</g>
<!-- NgLetDirective -->
<g id="node3" class="node">
<title>NgLetDirective</title>
<polygon fill="#ffffb3" stroke="#000000" points="494.8473,-122 391.1527,-122 391.1527,-86 494.8473,-86 494.8473,-122"/>
<text text-anchor="middle" x="443" y="-99.8" font-family="Times,serif" font-size="14.00" fill="#000000">NgLetDirective</text>
</g>
<!-- NgLetDirective&#45;&gt;SharedModule -->
<g id="edge3" class="edge">
<title>NgLetDirective&#45;&gt;SharedModule</title>
<path fill="none" stroke="#000000" d="M443,-122.1061C443,-122.1061 443,-140.991 443,-140.991"/>
<polygon fill="#000000" stroke="#000000" points="439.5001,-140.9909 443,-150.991 446.5001,-140.991 439.5001,-140.9909"/>
</g>
<!-- MaterialModule  -->
<g id="node7" class="node">
<title>MaterialModule </title>
<polygon fill="#fb8072" stroke="#000000" points="860.4716,-252 749.5284,-252 749.5284,-216 860.4716,-216 860.4716,-252"/>
<text text-anchor="middle" x="805" y="-229.8" font-family="Times,serif" font-size="14.00" fill="#000000">MaterialModule </text>
</g>
<!-- SharedModule&#45;&gt;MaterialModule  -->
<g id="edge6" class="edge">
<title>SharedModule&#45;&gt;MaterialModule </title>
<path fill="none" stroke="#000000" stroke-dasharray="5,2" d="M492.5132,-173C584.2415,-173 771.3525,-173 771.3525,-173 771.3525,-173 771.3525,-205.698 771.3525,-205.698"/>
<polygon fill="#000000" stroke="#000000" points="767.8526,-205.698 771.3525,-215.698 774.8526,-205.698 767.8526,-205.698"/>
</g>
<!-- MaterialDateModule  -->
<g id="node8" class="node">
<title>MaterialDateModule </title>
<polygon fill="#fb8072" stroke="#000000" points="731.397,-252 594.603,-252 594.603,-216 731.397,-216 731.397,-252"/>
<text text-anchor="middle" x="663" y="-229.8" font-family="Times,serif" font-size="14.00" fill="#000000">MaterialDateModule </text>
</g>
<!-- SharedModule&#45;&gt;MaterialDateModule  -->
<g id="edge7" class="edge">
<title>SharedModule&#45;&gt;MaterialDateModule </title>
<path fill="none" stroke="#000000" stroke-dasharray="5,2" d="M492.4811,-180C546.6321,-180 625.8473,-180 625.8473,-180 625.8473,-180 625.8473,-205.7181 625.8473,-205.7181"/>
<polygon fill="#000000" stroke="#000000" points="622.3474,-205.718 625.8473,-215.7181 629.3474,-205.7181 622.3474,-205.718"/>
</g>
<!-- FullscreenModule  -->
<g id="node9" class="node">
<title>FullscreenModule </title>
<polygon fill="#fb8072" stroke="#000000" points="576.8631,-252 455.1369,-252 455.1369,-216 576.8631,-216 576.8631,-252"/>
<text text-anchor="middle" x="516" y="-229.8" font-family="Times,serif" font-size="14.00" fill="#000000">FullscreenModule </text>
</g>
<!-- SharedModule&#45;&gt;FullscreenModule  -->
<g id="edge8" class="edge">
<title>SharedModule&#45;&gt;FullscreenModule </title>
<path fill="none" stroke="#000000" stroke-dasharray="5,2" d="M473.7649,-187.1061C473.7649,-187.1061 473.7649,-205.991 473.7649,-205.991"/>
<polygon fill="#000000" stroke="#000000" points="470.265,-205.9909 473.7649,-215.991 477.265,-205.991 470.265,-205.9909"/>
</g>
<!-- FooterComponent  -->
<g id="node10" class="node">
<title>FooterComponent </title>
<polygon fill="#fb8072" stroke="#000000" points="437.8814,-252 316.1186,-252 316.1186,-216 437.8814,-216 437.8814,-252"/>
<text text-anchor="middle" x="377" y="-229.8" font-family="Times,serif" font-size="14.00" fill="#000000">FooterComponent </text>
</g>
<!-- SharedModule&#45;&gt;FooterComponent  -->
<g id="edge9" class="edge">
<title>SharedModule&#45;&gt;FooterComponent </title>
<path fill="none" stroke="#000000" stroke-dasharray="5,2" d="M415.7397,-187.1061C415.7397,-187.1061 415.7397,-205.991 415.7397,-205.991"/>
<polygon fill="#000000" stroke="#000000" points="412.2397,-205.9909 415.7397,-215.991 419.2397,-205.991 412.2397,-205.9909"/>
</g>
<!-- MinValidatorDirective  -->
<g id="node11" class="node">
<title>MinValidatorDirective </title>
<polygon fill="#fb8072" stroke="#000000" points="297.7864,-252 150.2136,-252 150.2136,-216 297.7864,-216 297.7864,-252"/>
<text text-anchor="middle" x="224" y="-229.8" font-family="Times,serif" font-size="14.00" fill="#000000">MinValidatorDirective </text>
</g>
<!-- SharedModule&#45;&gt;MinValidatorDirective  -->
<g id="edge10" class="edge">
<title>SharedModule&#45;&gt;MinValidatorDirective </title>
<path fill="none" stroke="#000000" stroke-dasharray="5,2" d="M393.5124,-180C343.4765,-180 273.4809,-180 273.4809,-180 273.4809,-180 273.4809,-205.7181 273.4809,-205.7181"/>
<polygon fill="#000000" stroke="#000000" points="269.981,-205.718 273.4809,-215.7181 276.981,-205.7181 269.981,-205.718"/>
</g>
<!-- NgLetDirective  -->
<g id="node12" class="node">
<title>NgLetDirective </title>
<polygon fill="#fb8072" stroke="#000000" points="131.8478,-252 24.1522,-252 24.1522,-216 131.8478,-216 131.8478,-252"/>
<text text-anchor="middle" x="78" y="-229.8" font-family="Times,serif" font-size="14.00" fill="#000000">NgLetDirective </text>
</g>
<!-- SharedModule&#45;&gt;NgLetDirective  -->
<g id="edge11" class="edge">
<title>SharedModule&#45;&gt;NgLetDirective </title>
<path fill="none" stroke="#000000" stroke-dasharray="5,2" d="M393.4495,-173C304.7677,-173 128.0942,-173 128.0942,-173 128.0942,-173 128.0942,-205.698 128.0942,-205.698"/>
<polygon fill="#000000" stroke="#000000" points="124.5942,-205.698 128.0942,-215.698 131.5942,-205.698 124.5942,-205.698"/>
</g>
<!-- FullscreenModule -->
<g id="node5" class="node">
<title>FullscreenModule</title>
<polygon fill="#8dd3c7" stroke="#000000" points="366.8627,-122 363.8627,-126 342.8627,-126 339.8627,-122 249.1373,-122 249.1373,-86 366.8627,-86 366.8627,-122"/>
<text text-anchor="middle" x="308" y="-99.8" font-family="Times,serif" font-size="14.00" fill="#000000">FullscreenModule</text>
</g>
<!-- FullscreenModule&#45;&gt;SharedModule -->
<g id="edge4" class="edge">
<title>FullscreenModule&#45;&gt;SharedModule</title>
<path fill="none" stroke="#000000" d="M341.6205,-122.0091C341.6205,-138.0494 341.6205,-159 341.6205,-159 341.6205,-159 383.4982,-159 383.4982,-159"/>
<polygon fill="#000000" stroke="#000000" points="383.4982,-162.5001 393.4982,-159 383.4981,-155.5001 383.4982,-162.5001"/>
</g>
<!-- MaterialModule -->
<g id="node6" class="node">
<title>MaterialModule</title>
<polygon fill="#8dd3c7" stroke="#000000" points="231.4706,-122 228.4706,-126 207.4706,-126 204.4706,-122 124.5294,-122 124.5294,-86 231.4706,-86 231.4706,-122"/>
<text text-anchor="middle" x="178" y="-99.8" font-family="Times,serif" font-size="14.00" fill="#000000">MaterialModule</text>
</g>
<!-- MaterialModule&#45;&gt;SharedModule -->
<g id="edge5" class="edge">
<title>MaterialModule&#45;&gt;SharedModule</title>
<path fill="none" stroke="#000000" d="M190.7961,-122.2667C190.7961,-140.5552 190.7961,-166 190.7961,-166 190.7961,-166 383.7738,-166 383.7738,-166"/>
<polygon fill="#000000" stroke="#000000" points="383.7739,-169.5001 393.7738,-166 383.7738,-162.5001 383.7739,-169.5001"/>
</g>
</g>
</svg>
