<?xml version="1.0" encoding="UTF-8" standalone="no"?>
<!DOCTYPE svg PUBLIC "-//W3C//DTD SVG 1.1//EN"
 "http://www.w3.org/Graphics/SVG/1.1/DTD/svg11.dtd">
<!-- Generated by graphviz version 2.40.1 (20161225.0304)
 -->
<!-- Title: dependencies Pages: 1 -->
<svg width="1196pt" height="284pt"
 viewBox="0.00 0.00 1196.00 284.00" xmlns="http://www.w3.org/2000/svg" xmlns:xlink="http://www.w3.org/1999/xlink">
<g id="graph0" class="graph" transform="scale(1 1) rotate(0) translate(4 280)">
<title>dependencies</title>
<polygon fill="#ffffff" stroke="transparent" points="-4,4 -4,-280 1192,-280 1192,4 -4,4"/>
<text text-anchor="start" x="573.0091" y="-42.4" font-family="sans-serif" font-weight="bold" font-size="14.00" fill="#000000">Legend</text>
<polygon fill="#ffffb3" stroke="transparent" points="360,-10 360,-30 380,-30 380,-10 360,-10"/>
<text text-anchor="start" x="383.629" y="-15.4" font-family="sans-serif" font-size="14.00" fill="#000000"> &#160;Declarations</text>
<polygon fill="#8dd3c7" stroke="transparent" points="473,-10 473,-30 493,-30 493,-10 473,-10"/>
<text text-anchor="start" x="496.7251" y="-15.4" font-family="sans-serif" font-size="14.00" fill="#000000"> &#160;Module</text>
<polygon fill="#80b1d3" stroke="transparent" points="559,-10 559,-30 579,-30 579,-10 559,-10"/>
<text text-anchor="start" x="582.7812" y="-15.4" font-family="sans-serif" font-size="14.00" fill="#000000"> &#160;Bootstrap</text>
<polygon fill="#fdb462" stroke="transparent" points="656,-10 656,-30 676,-30 676,-10 656,-10"/>
<text text-anchor="start" x="679.6732" y="-15.4" font-family="sans-serif" font-size="14.00" fill="#000000"> &#160;Providers</text>
<polygon fill="#fb8072" stroke="transparent" points="752,-10 752,-30 772,-30 772,-10 752,-10"/>
<text text-anchor="start" x="775.7258" y="-15.4" font-family="sans-serif" font-size="14.00" fill="#000000"> &#160;Exports</text>
<g id="clust1" class="cluster">
<title>cluster_SharedModule</title>
<polygon fill="none" stroke="#000000" stroke-dasharray="1,5" points="8,-70 8,-268 1180,-268 1180,-70 8,-70"/>
</g>
<g id="clust2" class="cluster">
<title>cluster_SharedModule_declarations</title>
<polygon fill="none" stroke="#000000" points="457,-78 457,-130 1019,-130 1019,-78 457,-78"/>
</g>
<g id="clust7" class="cluster">
<title>cluster_SharedModule_imports</title>
<polygon fill="none" stroke="#000000" points="191,-78 191,-130 449,-130 449,-78 191,-78"/>
</g>
<g id="clust8" class="cluster">
<title>cluster_SharedModule_exports</title>
<polygon fill="none" stroke="#000000" points="16,-208 16,-260 1172,-260 1172,-208 16,-208"/>
</g>
<!-- FooterComponent -->
<g id="node1" class="node">
<title>FooterComponent</title>
<polygon fill="#ffffb3" stroke="#000000" points="1010.8809,-122 893.1191,-122 893.1191,-86 1010.8809,-86 1010.8809,-122"/>
<text text-anchor="middle" x="952" y="-99.8" font-family="Times,serif" font-size="14.00" fill="#000000">FooterComponent</text>
</g>
<!-- SharedModule -->
<g id="node5" class="node">
<title>SharedModule</title>
<polygon fill="#8dd3c7" stroke="#000000" points="643.4231,-187 640.4231,-191 619.4231,-191 616.4231,-187 544.5769,-187 544.5769,-151 643.4231,-151 643.4231,-187"/>
<text text-anchor="middle" x="594" y="-164.8" font-family="Times,serif" font-size="14.00" fill="#000000">SharedModule</text>
</g>
<!-- FooterComponent&#45;&gt;SharedModule -->
<g id="edge1" class="edge">
<title>FooterComponent&#45;&gt;SharedModule</title>
<path fill="none" stroke="#000000" d="M971.4118,-122.0225C971.4118,-139.3734 971.4118,-163 971.4118,-163 971.4118,-163 653.34,-163 653.34,-163"/>
<polygon fill="#000000" stroke="#000000" points="653.34,-159.5001 643.34,-163 653.34,-166.5001 653.34,-159.5001"/>
</g>
<!-- MinValidatorDirective -->
<g id="node2" class="node">
<title>MinValidatorDirective</title>
<polygon fill="#ffffb3" stroke="#000000" points="875.2865,-122 730.7135,-122 730.7135,-86 875.2865,-86 875.2865,-122"/>
<text text-anchor="middle" x="803" y="-99.8" font-family="Times,serif" font-size="14.00" fill="#000000">MinValidatorDirective</text>
</g>
<!-- MinValidatorDirective&#45;&gt;SharedModule -->
<g id="edge2" class="edge">
<title>MinValidatorDirective&#45;&gt;SharedModule</title>
<path fill="none" stroke="#000000" d="M736.7042,-122.2396C736.7042,-137.5706 736.7042,-157 736.7042,-157 736.7042,-157 653.5105,-157 653.5105,-157"/>
<polygon fill="#000000" stroke="#000000" points="653.5105,-153.5001 643.5105,-157 653.5105,-160.5001 653.5105,-153.5001"/>
</g>
<!-- NgLetDirective -->
<g id="node3" class="node">
<title>NgLetDirective</title>
<polygon fill="#ffffb3" stroke="#000000" points="712.8473,-122 609.1527,-122 609.1527,-86 712.8473,-86 712.8473,-122"/>
<text text-anchor="middle" x="661" y="-99.8" font-family="Times,serif" font-size="14.00" fill="#000000">NgLetDirective</text>
</g>
<!-- NgLetDirective&#45;&gt;SharedModule -->
<g id="edge3" class="edge">
<title>NgLetDirective&#45;&gt;SharedModule</title>
<path fill="none" stroke="#000000" d="M626.1438,-122.1061C626.1438,-122.1061 626.1438,-140.991 626.1438,-140.991"/>
<polygon fill="#000000" stroke="#000000" points="622.6438,-140.9909 626.1438,-150.991 629.6438,-140.991 622.6438,-140.9909"/>
</g>
<!-- DraggableDirective -->
<g id="node4" class="node">
<title>DraggableDirective</title>
<polygon fill="#ffffb3" stroke="#000000" points="591.385,-122 464.615,-122 464.615,-86 591.385,-86 591.385,-122"/>
<text text-anchor="middle" x="528" y="-99.8" font-family="Times,serif" font-size="14.00" fill="#000000">DraggableDirective</text>
</g>
<!-- DraggableDirective&#45;&gt;SharedModule -->
<g id="edge4" class="edge">
<title>DraggableDirective&#45;&gt;SharedModule</title>
<path fill="none" stroke="#000000" d="M567.9906,-122.1061C567.9906,-122.1061 567.9906,-140.991 567.9906,-140.991"/>
<polygon fill="#000000" stroke="#000000" points="564.4906,-140.9909 567.9906,-150.991 571.4906,-140.991 564.4906,-140.9909"/>
</g>
<!-- BreadcrumbsModule  -->
<g id="node8" class="node">
<title>BreadcrumbsModule </title>
<polygon fill="#fb8072" stroke="#000000" points="1163.687,-252 1026.313,-252 1026.313,-216 1163.687,-216 1163.687,-252"/>
<text text-anchor="middle" x="1095" y="-229.8" font-family="Times,serif" font-size="14.00" fill="#000000">BreadcrumbsModule </text>
</g>
<!-- SharedModule&#45;&gt;BreadcrumbsModule  -->
<g id="edge7" class="edge">
<title>SharedModule&#45;&gt;BreadcrumbsModule </title>
<path fill="none" stroke="#000000" stroke-dasharray="5,2" d="M643.4089,-169C769.8036,-169 1095,-169 1095,-169 1095,-169 1095,-205.8939 1095,-205.8939"/>
<polygon fill="#000000" stroke="#000000" points="1091.5001,-205.8938 1095,-215.8939 1098.5001,-205.8939 1091.5001,-205.8938"/>
</g>
<!-- MaterialModule  -->
<g id="node9" class="node">
<title>MaterialModule </title>
<polygon fill="#fb8072" stroke="#000000" points="1008.4716,-252 897.5284,-252 897.5284,-216 1008.4716,-216 1008.4716,-252"/>
<text text-anchor="middle" x="953" y="-229.8" font-family="Times,serif" font-size="14.00" fill="#000000">MaterialModule </text>
</g>
<!-- SharedModule&#45;&gt;MaterialModule  -->
<g id="edge8" class="edge">
<title>SharedModule&#45;&gt;MaterialModule </title>
<path fill="none" stroke="#000000" stroke-dasharray="5,2" d="M643.5245,-175C737.9858,-175 934.5882,-175 934.5882,-175 934.5882,-175 934.5882,-205.9775 934.5882,-205.9775"/>
<polygon fill="#000000" stroke="#000000" points="931.0883,-205.9774 934.5882,-215.9775 938.0883,-205.9775 931.0883,-205.9774"/>
</g>
<!-- MaterialDateModule  -->
<g id="node10" class="node">
<title>MaterialDateModule </title>
<polygon fill="#fb8072" stroke="#000000" points="879.397,-252 742.603,-252 742.603,-216 879.397,-216 879.397,-252"/>
<text text-anchor="middle" x="811" y="-229.8" font-family="Times,serif" font-size="14.00" fill="#000000">MaterialDateModule </text>
</g>
<!-- SharedModule&#45;&gt;MaterialDateModule  -->
<g id="edge9" class="edge">
<title>SharedModule&#45;&gt;MaterialDateModule </title>
<path fill="none" stroke="#000000" stroke-dasharray="5,2" d="M643.2903,-181C706.7206,-181 808.8473,-181 808.8473,-181 808.8473,-181 808.8473,-205.7604 808.8473,-205.7604"/>
<polygon fill="#000000" stroke="#000000" points="805.3474,-205.7604 808.8473,-215.7604 812.3474,-205.7604 805.3474,-205.7604"/>
</g>
<!-- FullscreenModule  -->
<g id="node11" class="node">
<title>FullscreenModule </title>
<polygon fill="#fb8072" stroke="#000000" points="724.8631,-252 603.1369,-252 603.1369,-216 724.8631,-216 724.8631,-252"/>
<text text-anchor="middle" x="664" y="-229.8" font-family="Times,serif" font-size="14.00" fill="#000000">FullscreenModule </text>
</g>
<!-- SharedModule&#45;&gt;FullscreenModule  -->
<g id="edge10" class="edge">
<title>SharedModule&#45;&gt;FullscreenModule </title>
<path fill="none" stroke="#000000" stroke-dasharray="5,2" d="M623.2649,-187.1061C623.2649,-187.1061 623.2649,-205.991 623.2649,-205.991"/>
<polygon fill="#000000" stroke="#000000" points="619.765,-205.9909 623.2649,-215.991 626.765,-205.991 619.765,-205.9909"/>
</g>
<!-- FooterComponent  -->
<g id="node12" class="node">
<title>FooterComponent </title>
<polygon fill="#fb8072" stroke="#000000" points="585.8814,-252 464.1186,-252 464.1186,-216 585.8814,-216 585.8814,-252"/>
<text text-anchor="middle" x="525" y="-229.8" font-family="Times,serif" font-size="14.00" fill="#000000">FooterComponent </text>
</g>
<!-- SharedModule&#45;&gt;FooterComponent  -->
<g id="edge11" class="edge">
<title>SharedModule&#45;&gt;FooterComponent </title>
<path fill="none" stroke="#000000" stroke-dasharray="5,2" d="M565.2397,-187.1061C565.2397,-187.1061 565.2397,-205.991 565.2397,-205.991"/>
<polygon fill="#000000" stroke="#000000" points="561.7397,-205.9909 565.2397,-215.991 568.7397,-205.991 561.7397,-205.9909"/>
</g>
<!-- MinValidatorDirective  -->
<g id="node13" class="node">
<title>MinValidatorDirective </title>
<polygon fill="#fb8072" stroke="#000000" points="445.7864,-252 298.2136,-252 298.2136,-216 445.7864,-216 445.7864,-252"/>
<text text-anchor="middle" x="372" y="-229.8" font-family="Times,serif" font-size="14.00" fill="#000000">MinValidatorDirective </text>
</g>
<!-- SharedModule&#45;&gt;MinValidatorDirective  -->
<g id="edge12" class="edge">
<title>SharedModule&#45;&gt;MinValidatorDirective </title>
<path fill="none" stroke="#000000" stroke-dasharray="5,2" d="M544.5907,-181C476.5595,-181 362.3562,-181 362.3562,-181 362.3562,-181 362.3562,-205.7604 362.3562,-205.7604"/>
<polygon fill="#000000" stroke="#000000" points="358.8563,-205.7604 362.3562,-215.7604 365.8563,-205.7604 358.8563,-205.7604"/>
</g>
<!-- NgLetDirective  -->
<g id="node14" class="node">
<title>NgLetDirective </title>
<polygon fill="#fb8072" stroke="#000000" points="279.8478,-252 172.1522,-252 172.1522,-216 279.8478,-216 279.8478,-252"/>
<text text-anchor="middle" x="226" y="-229.8" font-family="Times,serif" font-size="14.00" fill="#000000">NgLetDirective </text>
</g>
<!-- SharedModule&#45;&gt;NgLetDirective  -->
<g id="edge13" class="edge">
<title>SharedModule&#45;&gt;NgLetDirective </title>
<path fill="none" stroke="#000000" stroke-dasharray="5,2" d="M544.6519,-175C447.1334,-175 239.0942,-175 239.0942,-175 239.0942,-175 239.0942,-205.9775 239.0942,-205.9775"/>
<polygon fill="#000000" stroke="#000000" points="235.5942,-205.9774 239.0942,-215.9775 242.5942,-205.9775 235.5942,-205.9774"/>
</g>
<!-- DraggableDirective  -->
<g id="node15" class="node">
<title>DraggableDirective </title>
<polygon fill="#fb8072" stroke="#000000" points="153.8845,-252 24.1155,-252 24.1155,-216 153.8845,-216 153.8845,-252"/>
<text text-anchor="middle" x="89" y="-229.8" font-family="Times,serif" font-size="14.00" fill="#000000">DraggableDirective </text>
</g>
<!-- SharedModule&#45;&gt;DraggableDirective  -->
<g id="edge14" class="edge">
<title>SharedModule&#45;&gt;DraggableDirective </title>
<path fill="none" stroke="#000000" stroke-dasharray="5,2" d="M544.659,-169C417.5879,-169 89,-169 89,-169 89,-169 89,-205.8939 89,-205.8939"/>
<polygon fill="#000000" stroke="#000000" points="85.5001,-205.8938 89,-215.8939 92.5001,-205.8939 85.5001,-205.8938"/>
</g>
<!-- FullscreenModule -->
<g id="node6" class="node">
<title>FullscreenModule</title>
<polygon fill="#8dd3c7" stroke="#000000" points="440.8627,-122 437.8627,-126 416.8627,-126 413.8627,-122 323.1373,-122 323.1373,-86 440.8627,-86 440.8627,-122"/>
<text text-anchor="middle" x="382" y="-99.8" font-family="Times,serif" font-size="14.00" fill="#000000">FullscreenModule</text>
</g>
<!-- FullscreenModule&#45;&gt;SharedModule -->
<g id="edge5" class="edge">
<title>FullscreenModule&#45;&gt;SharedModule</title>
<path fill="none" stroke="#000000" d="M401.6438,-122.2396C401.6438,-137.5706 401.6438,-157 401.6438,-157 401.6438,-157 534.4635,-157 534.4635,-157"/>
<polygon fill="#000000" stroke="#000000" points="534.4635,-160.5001 544.4635,-157 534.4635,-153.5001 534.4635,-160.5001"/>
</g>
<!-- MaterialModule -->
<g id="node7" class="node">
<title>MaterialModule</title>
<polygon fill="#8dd3c7" stroke="#000000" points="305.4706,-122 302.4706,-126 281.4706,-126 278.4706,-122 198.5294,-122 198.5294,-86 305.4706,-86 305.4706,-122"/>
<text text-anchor="middle" x="252" y="-99.8" font-family="Times,serif" font-size="14.00" fill="#000000">MaterialModule</text>
</g>
<!-- MaterialModule&#45;&gt;SharedModule -->
<g id="edge6" class="edge">
<title>MaterialModule&#45;&gt;SharedModule</title>
<path fill="none" stroke="#000000" d="M301.7961,-122.0225C301.7961,-139.3734 301.7961,-163 301.7961,-163 301.7961,-163 534.762,-163 534.762,-163"/>
<polygon fill="#000000" stroke="#000000" points="534.762,-166.5001 544.762,-163 534.762,-159.5001 534.762,-166.5001"/>
</g>
</g>
</svg>
