<?xml version="1.0" encoding="UTF-8" standalone="no"?>
<!DOCTYPE svg PUBLIC "-//W3C//DTD SVG 1.1//EN"
 "http://www.w3.org/Graphics/SVG/1.1/DTD/svg11.dtd">
<!-- Generated by graphviz version 2.40.1 (20161225.0304)
 -->
<!-- Title: dependencies Pages: 1 -->
<svg width="504pt" height="284pt"
 viewBox="0.00 0.00 504.00 284.00" xmlns="http://www.w3.org/2000/svg" xmlns:xlink="http://www.w3.org/1999/xlink">
<g id="graph0" class="graph" transform="scale(1 1) rotate(0) translate(4 280)">
<title>dependencies</title>
<polygon fill="#ffffff" stroke="transparent" points="-4,4 -4,-280 500,-280 500,4 -4,4"/>
<text text-anchor="start" x="227.0091" y="-42.4" font-family="sans-serif" font-weight="bold" font-size="14.00" fill="#000000">Legend</text>
<polygon fill="#ffffb3" stroke="transparent" points="14,-10 14,-30 34,-30 34,-10 14,-10"/>
<text text-anchor="start" x="37.629" y="-15.4" font-family="sans-serif" font-size="14.00" fill="#000000"> &#160;Declarations</text>
<polygon fill="#8dd3c7" stroke="transparent" points="127,-10 127,-30 147,-30 147,-10 127,-10"/>
<text text-anchor="start" x="150.7251" y="-15.4" font-family="sans-serif" font-size="14.00" fill="#000000"> &#160;Module</text>
<polygon fill="#80b1d3" stroke="transparent" points="213,-10 213,-30 233,-30 233,-10 213,-10"/>
<text text-anchor="start" x="236.7812" y="-15.4" font-family="sans-serif" font-size="14.00" fill="#000000"> &#160;Bootstrap</text>
<polygon fill="#fdb462" stroke="transparent" points="310,-10 310,-30 330,-30 330,-10 310,-10"/>
<text text-anchor="start" x="333.6732" y="-15.4" font-family="sans-serif" font-size="14.00" fill="#000000"> &#160;Providers</text>
<polygon fill="#fb8072" stroke="transparent" points="406,-10 406,-30 426,-30 426,-10 406,-10"/>
<text text-anchor="start" x="429.7258" y="-15.4" font-family="sans-serif" font-size="14.00" fill="#000000"> &#160;Exports</text>
<g id="clust1" class="cluster">
<title>cluster_QuickpanelModule</title>
<polygon fill="none" stroke="#000000" stroke-dasharray="1,5" points="94,-70 94,-268 402,-268 402,-70 94,-70"/>
</g>
<g id="clust2" class="cluster">
<title>cluster_QuickpanelModule_declarations</title>
<polygon fill="none" stroke="#000000" points="232,-78 232,-130 394,-130 394,-78 232,-78"/>
</g>
<g id="clust4" class="cluster">
<title>cluster_QuickpanelModule_imports</title>
<polygon fill="none" stroke="#000000" points="102,-78 102,-130 224,-130 224,-78 102,-78"/>
</g>
<g id="clust5" class="cluster">
<title>cluster_QuickpanelModule_exports</title>
<polygon fill="none" stroke="#000000" points="165,-208 165,-260 331,-260 331,-208 165,-208"/>
</g>
<!-- QuickpanelComponent -->
<g id="node1" class="node">
<title>QuickpanelComponent</title>
<polygon fill="#ffffb3" stroke="#000000" points="385.8641,-122 240.1359,-122 240.1359,-86 385.8641,-86 385.8641,-122"/>
<text text-anchor="middle" x="313" y="-99.8" font-family="Times,serif" font-size="14.00" fill="#000000">QuickpanelComponent</text>
</g>
<!-- QuickpanelModule -->
<g id="node2" class="node">
<title>QuickpanelModule</title>
<polygon fill="#8dd3c7" stroke="#000000" points="310.0814,-187 307.0814,-191 286.0814,-191 283.0814,-187 185.9186,-187 185.9186,-151 310.0814,-151 310.0814,-187"/>
<text text-anchor="middle" x="248" y="-164.8" font-family="Times,serif" font-size="14.00" fill="#000000">QuickpanelModule</text>
</g>
<!-- QuickpanelComponent&#45;&gt;QuickpanelModule -->
<g id="edge1" class="edge">
<title>QuickpanelComponent&#45;&gt;QuickpanelModule</title>
<path fill="none" stroke="#000000" d="M275.0544,-122.1061C275.0544,-122.1061 275.0544,-140.991 275.0544,-140.991"/>
<polygon fill="#000000" stroke="#000000" points="271.5544,-140.9909 275.0544,-150.991 278.5544,-140.991 271.5544,-140.9909"/>
</g>
<!-- QuickpanelComponent  -->
<g id="node4" class="node">
<title>QuickpanelComponent </title>
<polygon fill="#fb8072" stroke="#000000" points="322.8644,-252 173.1356,-252 173.1356,-216 322.8644,-216 322.8644,-252"/>
<text text-anchor="middle" x="248" y="-229.8" font-family="Times,serif" font-size="14.00" fill="#000000">QuickpanelComponent </text>
</g>
<!-- QuickpanelModule&#45;&gt;QuickpanelComponent  -->
<g id="edge3" class="edge">
<title>QuickpanelModule&#45;&gt;QuickpanelComponent </title>
<path fill="none" stroke="#000000" stroke-dasharray="5,2" d="M248,-187.1061C248,-187.1061 248,-205.991 248,-205.991"/>
<polygon fill="#000000" stroke="#000000" points="244.5001,-205.9909 248,-215.991 251.5001,-205.991 244.5001,-205.9909"/>
</g>
<!-- MaterialModule -->
<g id="node3" class="node">
<title>MaterialModule</title>
<polygon fill="#8dd3c7" stroke="#000000" points="216.4706,-122 213.4706,-126 192.4706,-126 189.4706,-122 109.5294,-122 109.5294,-86 216.4706,-86 216.4706,-122"/>
<text text-anchor="middle" x="163" y="-99.8" font-family="Times,serif" font-size="14.00" fill="#000000">MaterialModule</text>
</g>
<!-- MaterialModule&#45;&gt;QuickpanelModule -->
<g id="edge2" class="edge">
<title>MaterialModule&#45;&gt;QuickpanelModule</title>
<path fill="none" stroke="#000000" d="M201.2223,-122.1061C201.2223,-122.1061 201.2223,-140.991 201.2223,-140.991"/>
<polygon fill="#000000" stroke="#000000" points="197.7224,-140.9909 201.2223,-150.991 204.7224,-140.991 197.7224,-140.9909"/>
</g>
</g>
</svg>
