<?xml version="1.0" encoding="UTF-8" standalone="no"?>
<!DOCTYPE svg PUBLIC "-//W3C//DTD SVG 1.1//EN"
 "http://www.w3.org/Graphics/SVG/1.1/DTD/svg11.dtd">
<!-- Generated by graphviz version 2.40.1 (20161225.0304)
 -->
<!-- Title: dependencies Pages: 1 -->
<svg width="504pt" height="284pt"
 viewBox="0.00 0.00 504.00 284.00" xmlns="http://www.w3.org/2000/svg" xmlns:xlink="http://www.w3.org/1999/xlink">
<g id="graph0" class="graph" transform="scale(1 1) rotate(0) translate(4 280)">
<title>dependencies</title>
<polygon fill="#ffffff" stroke="transparent" points="-4,4 -4,-280 500,-280 500,4 -4,4"/>
<text text-anchor="start" x="227.0091" y="-42.4" font-family="sans-serif" font-weight="bold" font-size="14.00" fill="#000000">Legend</text>
<polygon fill="#ffffb3" stroke="transparent" points="14,-10 14,-30 34,-30 34,-10 14,-10"/>
<text text-anchor="start" x="37.629" y="-15.4" font-family="sans-serif" font-size="14.00" fill="#000000"> &#160;Declarations</text>
<polygon fill="#8dd3c7" stroke="transparent" points="127,-10 127,-30 147,-30 147,-10 127,-10"/>
<text text-anchor="start" x="150.7251" y="-15.4" font-family="sans-serif" font-size="14.00" fill="#000000"> &#160;Module</text>
<polygon fill="#80b1d3" stroke="transparent" points="213,-10 213,-30 233,-30 233,-10 213,-10"/>
<text text-anchor="start" x="236.7812" y="-15.4" font-family="sans-serif" font-size="14.00" fill="#000000"> &#160;Bootstrap</text>
<polygon fill="#fdb462" stroke="transparent" points="310,-10 310,-30 330,-30 330,-10 310,-10"/>
<text text-anchor="start" x="333.6732" y="-15.4" font-family="sans-serif" font-size="14.00" fill="#000000"> &#160;Providers</text>
<polygon fill="#fb8072" stroke="transparent" points="406,-10 406,-30 426,-30 426,-10 406,-10"/>
<text text-anchor="start" x="429.7258" y="-15.4" font-family="sans-serif" font-size="14.00" fill="#000000"> &#160;Exports</text>
<g id="clust1" class="cluster">
<title>cluster_QuickpanelModule</title>
<polygon fill="none" stroke="#000000" stroke-dasharray="1,5" points="29.5,-70 29.5,-268 466.5,-268 466.5,-70 29.5,-70"/>
</g>
<g id="clust2" class="cluster">
<title>cluster_QuickpanelModule_declarations</title>
<polygon fill="none" stroke="#000000" points="296.5,-78 296.5,-130 458.5,-130 458.5,-78 296.5,-78"/>
</g>
<g id="clust4" class="cluster">
<title>cluster_QuickpanelModule_imports</title>
<polygon fill="none" stroke="#000000" points="37.5,-78 37.5,-130 288.5,-130 288.5,-78 37.5,-78"/>
</g>
<g id="clust5" class="cluster">
<title>cluster_QuickpanelModule_exports</title>
<polygon fill="none" stroke="#000000" points="144.5,-208 144.5,-260 310.5,-260 310.5,-208 144.5,-208"/>
</g>
<!-- QuickpanelComponent -->
<g id="node1" class="node">
<title>QuickpanelComponent</title>
<polygon fill="#ffffb3" stroke="#000000" points="450.3641,-122 304.6359,-122 304.6359,-86 450.3641,-86 450.3641,-122"/>
<text text-anchor="middle" x="377.5" y="-99.8" font-family="Times,serif" font-size="14.00" fill="#000000">QuickpanelComponent</text>
</g>
<!-- QuickpanelModule -->
<g id="node2" class="node">
<title>QuickpanelModule</title>
<polygon fill="#8dd3c7" stroke="#000000" points="289.5814,-187 286.5814,-191 265.5814,-191 262.5814,-187 165.4186,-187 165.4186,-151 289.5814,-151 289.5814,-187"/>
<text text-anchor="middle" x="227.5" y="-164.8" font-family="Times,serif" font-size="14.00" fill="#000000">QuickpanelModule</text>
</g>
<!-- QuickpanelComponent&#45;&gt;QuickpanelModule -->
<g id="edge1" class="edge">
<title>QuickpanelComponent&#45;&gt;QuickpanelModule</title>
<path fill="none" stroke="#000000" d="M304.3746,-104C293.1798,-104 285.263,-104 285.263,-104 285.263,-104 285.263,-140.8939 285.263,-140.8939"/>
<polygon fill="#000000" stroke="#000000" points="281.7631,-140.8938 285.263,-150.8939 288.7631,-140.8939 281.7631,-140.8938"/>
</g>
<!-- QuickpanelComponent  -->
<g id="node5" class="node">
<title>QuickpanelComponent </title>
<polygon fill="#fb8072" stroke="#000000" points="302.3644,-252 152.6356,-252 152.6356,-216 302.3644,-216 302.3644,-252"/>
<text text-anchor="middle" x="227.5" y="-229.8" font-family="Times,serif" font-size="14.00" fill="#000000">QuickpanelComponent </text>
</g>
<!-- QuickpanelModule&#45;&gt;QuickpanelComponent  -->
<g id="edge4" class="edge">
<title>QuickpanelModule&#45;&gt;QuickpanelComponent </title>
<path fill="none" stroke="#000000" stroke-dasharray="5,2" d="M227.5,-187.1061C227.5,-187.1061 227.5,-205.991 227.5,-205.991"/>
<polygon fill="#000000" stroke="#000000" points="224.0001,-205.9909 227.5,-215.991 231.0001,-205.991 224.0001,-205.9909"/>
</g>
<!-- MaterialModule -->
<g id="node3" class="node">
<title>MaterialModule</title>
<polygon fill="#8dd3c7" stroke="#000000" points="280.9706,-122 277.9706,-126 256.9706,-126 253.9706,-122 174.0294,-122 174.0294,-86 280.9706,-86 280.9706,-122"/>
<text text-anchor="middle" x="227.5" y="-99.8" font-family="Times,serif" font-size="14.00" fill="#000000">MaterialModule</text>
</g>
<!-- MaterialModule&#45;&gt;QuickpanelModule -->
<g id="edge2" class="edge">
<title>MaterialModule&#45;&gt;QuickpanelModule</title>
<path fill="none" stroke="#000000" d="M227.5,-122.1061C227.5,-122.1061 227.5,-140.991 227.5,-140.991"/>
<polygon fill="#000000" stroke="#000000" points="224.0001,-140.9909 227.5,-150.991 231.0001,-140.991 224.0001,-140.9909"/>
</g>
<!-- ScrollbarModule -->
<g id="node4" class="node">
<title>ScrollbarModule</title>
<polygon fill="#8dd3c7" stroke="#000000" points="155.8641,-122 152.8641,-126 131.8641,-126 128.8641,-122 45.1359,-122 45.1359,-86 155.8641,-86 155.8641,-122"/>
<text text-anchor="middle" x="100.5" y="-99.8" font-family="Times,serif" font-size="14.00" fill="#000000">ScrollbarModule</text>
</g>
<!-- ScrollbarModule&#45;&gt;QuickpanelModule -->
<g id="edge3" class="edge">
<title>ScrollbarModule&#45;&gt;QuickpanelModule</title>
<path fill="none" stroke="#000000" d="M156.058,-104C164.1071,-104 169.737,-104 169.737,-104 169.737,-104 169.737,-140.8939 169.737,-140.8939"/>
<polygon fill="#000000" stroke="#000000" points="166.2371,-140.8938 169.737,-150.8939 173.2371,-140.8939 166.2371,-140.8938"/>
</g>
</g>
</svg>
