<?xml version="1.0" encoding="UTF-8" standalone="no"?>
<!DOCTYPE svg PUBLIC "-//W3C//DTD SVG 1.1//EN"
 "http://www.w3.org/Graphics/SVG/1.1/DTD/svg11.dtd">
<!-- Generated by graphviz version 2.40.1 (20161225.0304)
 -->
<!-- Title: dependencies Pages: 1 -->
<svg width="504pt" height="284pt"
 viewBox="0.00 0.00 504.00 284.00" xmlns="http://www.w3.org/2000/svg" xmlns:xlink="http://www.w3.org/1999/xlink">
<g id="graph0" class="graph" transform="scale(1 1) rotate(0) translate(4 280)">
<title>dependencies</title>
<polygon fill="#ffffff" stroke="transparent" points="-4,4 -4,-280 500,-280 500,4 -4,4"/>
<text text-anchor="start" x="227.0091" y="-42.4" font-family="sans-serif" font-weight="bold" font-size="14.00" fill="#000000">Legend</text>
<polygon fill="#ffffb3" stroke="transparent" points="14,-10 14,-30 34,-30 34,-10 14,-10"/>
<text text-anchor="start" x="37.629" y="-15.4" font-family="sans-serif" font-size="14.00" fill="#000000"> &#160;Declarations</text>
<polygon fill="#8dd3c7" stroke="transparent" points="127,-10 127,-30 147,-30 147,-10 127,-10"/>
<text text-anchor="start" x="150.7251" y="-15.4" font-family="sans-serif" font-size="14.00" fill="#000000"> &#160;Module</text>
<polygon fill="#80b1d3" stroke="transparent" points="213,-10 213,-30 233,-30 233,-10 213,-10"/>
<text text-anchor="start" x="236.7812" y="-15.4" font-family="sans-serif" font-size="14.00" fill="#000000"> &#160;Bootstrap</text>
<polygon fill="#fdb462" stroke="transparent" points="310,-10 310,-30 330,-30 330,-10 310,-10"/>
<text text-anchor="start" x="333.6732" y="-15.4" font-family="sans-serif" font-size="14.00" fill="#000000"> &#160;Providers</text>
<polygon fill="#fb8072" stroke="transparent" points="406,-10 406,-30 426,-30 426,-10 406,-10"/>
<text text-anchor="start" x="429.7258" y="-15.4" font-family="sans-serif" font-size="14.00" fill="#000000"> &#160;Exports</text>
<g id="clust1" class="cluster">
<title>cluster_HelperModule</title>
<polygon fill="none" stroke="#000000" stroke-dasharray="1,5" points="79.5,-70 79.5,-268 416.5,-268 416.5,-70 79.5,-70"/>
</g>
<g id="clust2" class="cluster">
<title>cluster_HelperModule_declarations</title>
<polygon fill="none" stroke="#000000" points="92.5,-78 92.5,-130 403.5,-130 403.5,-78 92.5,-78"/>
</g>
<g id="clust7" class="cluster">
<title>cluster_HelperModule_exports</title>
<polygon fill="none" stroke="#000000" points="87.5,-208 87.5,-260 408.5,-260 408.5,-208 87.5,-208"/>
</g>
<!-- FilterPipe -->
<g id="node1" class="node">
<title>FilterPipe</title>
<polygon fill="#ffffb3" stroke="#000000" points="395.2177,-122 323.7823,-122 323.7823,-86 395.2177,-86 395.2177,-122"/>
<text text-anchor="middle" x="359.5" y="-99.8" font-family="Times,serif" font-size="14.00" fill="#000000">FilterPipe</text>
</g>
<!-- HelperModule -->
<g id="node4" class="node">
<title>HelperModule</title>
<polygon fill="#8dd3c7" stroke="#000000" points="308.1375,-187 305.1375,-191 284.1375,-191 281.1375,-187 210.8625,-187 210.8625,-151 308.1375,-151 308.1375,-187"/>
<text text-anchor="middle" x="259.5" y="-164.8" font-family="Times,serif" font-size="14.00" fill="#000000">HelperModule</text>
</g>
<!-- FilterPipe&#45;&gt;HelperModule -->
<g id="edge1" class="edge">
<title>FilterPipe&#45;&gt;HelperModule</title>
<path fill="none" stroke="#000000" d="M372.1196,-122.0225C372.1196,-139.3734 372.1196,-163 372.1196,-163 372.1196,-163 318.2416,-163 318.2416,-163"/>
<polygon fill="#000000" stroke="#000000" points="318.2416,-159.5001 308.2416,-163 318.2415,-166.5001 318.2416,-159.5001"/>
</g>
<!-- GroupByPipe -->
<g id="node2" class="node">
<title>GroupByPipe</title>
<polygon fill="#ffffb3" stroke="#000000" points="305.9916,-122 213.0084,-122 213.0084,-86 305.9916,-86 305.9916,-122"/>
<text text-anchor="middle" x="259.5" y="-99.8" font-family="Times,serif" font-size="14.00" fill="#000000">GroupByPipe</text>
</g>
<!-- GroupByPipe&#45;&gt;HelperModule -->
<g id="edge2" class="edge">
<title>GroupByPipe&#45;&gt;HelperModule</title>
<path fill="none" stroke="#000000" d="M259.5,-122.1061C259.5,-122.1061 259.5,-140.991 259.5,-140.991"/>
<polygon fill="#000000" stroke="#000000" points="256.0001,-140.9909 259.5,-150.991 263.0001,-140.991 256.0001,-140.9909"/>
</g>
<!-- SafeHtmlPipe -->
<g id="node3" class="node">
<title>SafeHtmlPipe</title>
<polygon fill="#ffffb3" stroke="#000000" points="194.5397,-122 100.4603,-122 100.4603,-86 194.5397,-86 194.5397,-122"/>
<text text-anchor="middle" x="147.5" y="-99.8" font-family="Times,serif" font-size="14.00" fill="#000000">SafeHtmlPipe</text>
</g>
<!-- SafeHtmlPipe&#45;&gt;HelperModule -->
<g id="edge3" class="edge">
<title>SafeHtmlPipe&#45;&gt;HelperModule</title>
<path fill="none" stroke="#000000" d="M162.4231,-122.0225C162.4231,-139.3734 162.4231,-163 162.4231,-163 162.4231,-163 200.6771,-163 200.6771,-163"/>
<polygon fill="#000000" stroke="#000000" points="200.6772,-166.5001 210.6771,-163 200.6771,-159.5001 200.6772,-166.5001"/>
</g>
<!-- FilterPipe  -->
<g id="node5" class="node">
<title>FilterPipe </title>
<polygon fill="#fb8072" stroke="#000000" points="400.7179,-252 326.2821,-252 326.2821,-216 400.7179,-216 400.7179,-252"/>
<text text-anchor="middle" x="363.5" y="-229.8" font-family="Times,serif" font-size="14.00" fill="#000000">FilterPipe </text>
</g>
<!-- HelperModule&#45;&gt;FilterPipe  -->
<g id="edge4" class="edge">
<title>HelperModule&#45;&gt;FilterPipe </title>
<path fill="none" stroke="#000000" stroke-dasharray="5,2" d="M308.2495,-175C329.2718,-175 349.1304,-175 349.1304,-175 349.1304,-175 349.1304,-205.9775 349.1304,-205.9775"/>
<polygon fill="#000000" stroke="#000000" points="345.6305,-205.9774 349.1304,-215.9775 352.6305,-205.9775 345.6305,-205.9774"/>
</g>
<!-- GroupByPipe  -->
<g id="node6" class="node">
<title>GroupByPipe </title>
<polygon fill="#fb8072" stroke="#000000" points="307.9929,-252 211.0071,-252 211.0071,-216 307.9929,-216 307.9929,-252"/>
<text text-anchor="middle" x="259.5" y="-229.8" font-family="Times,serif" font-size="14.00" fill="#000000">GroupByPipe </text>
</g>
<!-- HelperModule&#45;&gt;GroupByPipe  -->
<g id="edge5" class="edge">
<title>HelperModule&#45;&gt;GroupByPipe </title>
<path fill="none" stroke="#000000" stroke-dasharray="5,2" d="M259.5,-187.1061C259.5,-187.1061 259.5,-205.991 259.5,-205.991"/>
<polygon fill="#000000" stroke="#000000" points="256.0001,-205.9909 259.5,-215.991 263.0001,-205.991 256.0001,-205.9909"/>
</g>
<!-- SafeHtmlPipe  -->
<g id="node7" class="node">
<title>SafeHtmlPipe </title>
<polygon fill="#fb8072" stroke="#000000" points="193.5386,-252 95.4614,-252 95.4614,-216 193.5386,-216 193.5386,-252"/>
<text text-anchor="middle" x="144.5" y="-229.8" font-family="Times,serif" font-size="14.00" fill="#000000">SafeHtmlPipe </text>
</g>
<!-- HelperModule&#45;&gt;SafeHtmlPipe  -->
<g id="edge6" class="edge">
<title>HelperModule&#45;&gt;SafeHtmlPipe </title>
<path fill="none" stroke="#000000" stroke-dasharray="5,2" d="M210.6776,-175C174.4559,-175 131.3269,-175 131.3269,-175 131.3269,-175 131.3269,-205.9775 131.3269,-205.9775"/>
<polygon fill="#000000" stroke="#000000" points="127.827,-205.9774 131.3269,-215.9775 134.827,-205.9775 127.827,-205.9774"/>
</g>
</g>
</svg>
