<?xml version="1.0" encoding="UTF-8" standalone="no"?>
<!DOCTYPE svg PUBLIC "-//W3C//DTD SVG 1.1//EN"
 "http://www.w3.org/Graphics/SVG/1.1/DTD/svg11.dtd">
<!-- Generated by graphviz version 2.40.1 (20161225.0304)
 -->
<!-- Title: dependencies Pages: 1 -->
<svg width="504pt" height="349pt"
 viewBox="0.00 0.00 504.00 349.00" xmlns="http://www.w3.org/2000/svg" xmlns:xlink="http://www.w3.org/1999/xlink">
<g id="graph0" class="graph" transform="scale(1 1) rotate(0) translate(4 345)">
<title>dependencies</title>
<polygon fill="#ffffff" stroke="transparent" points="-4,4 -4,-345 500,-345 500,4 -4,4"/>
<text text-anchor="start" x="227.0091" y="-42.4" font-family="sans-serif" font-weight="bold" font-size="14.00" fill="#000000">Legend</text>
<polygon fill="#ffffb3" stroke="transparent" points="14,-10 14,-30 34,-30 34,-10 14,-10"/>
<text text-anchor="start" x="37.629" y="-15.4" font-family="sans-serif" font-size="14.00" fill="#000000"> &#160;Declarations</text>
<polygon fill="#8dd3c7" stroke="transparent" points="127,-10 127,-30 147,-30 147,-10 127,-10"/>
<text text-anchor="start" x="150.7251" y="-15.4" font-family="sans-serif" font-size="14.00" fill="#000000"> &#160;Module</text>
<polygon fill="#80b1d3" stroke="transparent" points="213,-10 213,-30 233,-30 233,-10 213,-10"/>
<text text-anchor="start" x="236.7812" y="-15.4" font-family="sans-serif" font-size="14.00" fill="#000000"> &#160;Bootstrap</text>
<polygon fill="#fdb462" stroke="transparent" points="310,-10 310,-30 330,-30 330,-10 310,-10"/>
<text text-anchor="start" x="333.6732" y="-15.4" font-family="sans-serif" font-size="14.00" fill="#000000"> &#160;Providers</text>
<polygon fill="#fb8072" stroke="transparent" points="406,-10 406,-30 426,-30 426,-10 406,-10"/>
<text text-anchor="start" x="429.7258" y="-15.4" font-family="sans-serif" font-size="14.00" fill="#000000"> &#160;Exports</text>
<g id="clust1" class="cluster">
<title>cluster_SvgViewerModule</title>
<polygon fill="none" stroke="#000000" stroke-dasharray="1,5" points="149,-70 149,-333 347,-333 347,-70 149,-70"/>
</g>
<g id="clust2" class="cluster">
<title>cluster_SvgViewerModule_declarations</title>
<polygon fill="none" stroke="#000000" points="160,-143 160,-195 320,-195 320,-143 160,-143"/>
</g>
<g id="clust3" class="cluster">
<title>cluster_SvgViewerModule_SvgViewerComponent_providers</title>
<polygon fill="none" stroke="#000000" points="157,-78 157,-130 339,-130 339,-78 157,-78"/>
</g>
<g id="clust5" class="cluster">
<title>cluster_SvgViewerModule_exports</title>
<polygon fill="none" stroke="#000000" points="161,-273 161,-325 325,-325 325,-273 161,-273"/>
</g>
<!-- SvgViewerComponent -->
<g id="node1" class="node">
<title>SvgViewerComponent</title>
<polygon fill="#ffffb3" stroke="#000000" points="312.3089,-187 167.6911,-187 167.6911,-151 312.3089,-151 312.3089,-187"/>
<text text-anchor="middle" x="240" y="-164.8" font-family="Times,serif" font-size="14.00" fill="#000000">SvgViewerComponent</text>
</g>
<!-- SvgViewerModule -->
<g id="node2" class="node">
<title>SvgViewerModule</title>
<polygon fill="#8dd3c7" stroke="#000000" points="304.0269,-252 301.0269,-256 280.0269,-256 277.0269,-252 181.9731,-252 181.9731,-216 304.0269,-216 304.0269,-252"/>
<text text-anchor="middle" x="243" y="-229.8" font-family="Times,serif" font-size="14.00" fill="#000000">SvgViewerModule</text>
</g>
<!-- SvgViewerComponent&#45;&gt;SvgViewerModule -->
<g id="edge1" class="edge">
<title>SvgViewerComponent&#45;&gt;SvgViewerModule</title>
<path fill="none" stroke="#000000" d="M243,-187.1061C243,-187.1061 243,-205.991 243,-205.991"/>
<polygon fill="#000000" stroke="#000000" points="239.5001,-205.9909 243,-215.991 246.5001,-205.991 239.5001,-205.9909"/>
</g>
<!-- SvgViewerComponent  -->
<g id="node4" class="node">
<title>SvgViewerComponent </title>
<polygon fill="#fb8072" stroke="#000000" points="316.8087,-317 169.1913,-317 169.1913,-281 316.8087,-281 316.8087,-317"/>
<text text-anchor="middle" x="243" y="-294.8" font-family="Times,serif" font-size="14.00" fill="#000000">SvgViewerComponent </text>
</g>
<!-- SvgViewerModule&#45;&gt;SvgViewerComponent  -->
<g id="edge3" class="edge">
<title>SvgViewerModule&#45;&gt;SvgViewerComponent </title>
<path fill="none" stroke="#000000" stroke-dasharray="5,2" d="M243,-252.1061C243,-252.1061 243,-270.991 243,-270.991"/>
<polygon fill="#000000" stroke="#000000" points="239.5001,-270.9909 243,-280.991 246.5001,-270.991 239.5001,-270.9909"/>
</g>
<!-- SvgViewerService -->
<g id="node3" class="node">
<title>SvgViewerService</title>
<ellipse fill="#fdb462" stroke="#000000" cx="248" cy="-104" rx="83.3635" ry="18"/>
<text text-anchor="middle" x="248" y="-99.8" font-family="Times,serif" font-size="14.00" fill="#000000">SvgViewerService</text>
</g>
<!-- SvgViewerService&#45;&gt;SvgViewerComponent -->
<g id="edge2" class="edge">
<title>SvgViewerService&#45;&gt;SvgViewerComponent</title>
<path fill="none" stroke="#000000" d="M240,-122.1061C240,-122.1061 240,-140.991 240,-140.991"/>
<polygon fill="#000000" stroke="#000000" points="236.5001,-140.9909 240,-150.991 243.5001,-140.991 236.5001,-140.9909"/>
</g>
<!-- SvgViewerService&#45;&gt;SvgViewerModule -->
<g id="edge4" class="edge">
<title>SvgViewerService&#45;&gt;SvgViewerModule</title>
<path fill="none" stroke="#000000" d="M324.168,-111.3618C324.168,-138.8625 324.168,-234 324.168,-234 324.168,-234 314.104,-234 314.104,-234"/>
<polygon fill="#000000" stroke="#000000" points="314.104,-230.5001 304.104,-234 314.104,-237.5001 314.104,-230.5001"/>
</g>
</g>
</svg>
