<?xml version="1.0" encoding="UTF-8" standalone="no"?>
<!DOCTYPE svg PUBLIC "-//W3C//DTD SVG 1.1//EN"
 "http://www.w3.org/Graphics/SVG/1.1/DTD/svg11.dtd">
<!-- Generated by graphviz version 2.40.1 (20161225.0304)
 -->
<!-- Title: dependencies Pages: 1 -->
<svg width="504pt" height="284pt"
 viewBox="0.00 0.00 504.00 284.00" xmlns="http://www.w3.org/2000/svg" xmlns:xlink="http://www.w3.org/1999/xlink">
<g id="graph0" class="graph" transform="scale(1 1) rotate(0) translate(4 280)">
<title>dependencies</title>
<polygon fill="#ffffff" stroke="transparent" points="-4,4 -4,-280 500,-280 500,4 -4,4"/>
<text text-anchor="start" x="227.0091" y="-42.4" font-family="sans-serif" font-weight="bold" font-size="14.00" fill="#000000">Legend</text>
<polygon fill="#ffffb3" stroke="transparent" points="14,-10 14,-30 34,-30 34,-10 14,-10"/>
<text text-anchor="start" x="37.629" y="-15.4" font-family="sans-serif" font-size="14.00" fill="#000000"> &#160;Declarations</text>
<polygon fill="#8dd3c7" stroke="transparent" points="127,-10 127,-30 147,-30 147,-10 127,-10"/>
<text text-anchor="start" x="150.7251" y="-15.4" font-family="sans-serif" font-size="14.00" fill="#000000"> &#160;Module</text>
<polygon fill="#80b1d3" stroke="transparent" points="213,-10 213,-30 233,-30 233,-10 213,-10"/>
<text text-anchor="start" x="236.7812" y="-15.4" font-family="sans-serif" font-size="14.00" fill="#000000"> &#160;Bootstrap</text>
<polygon fill="#fdb462" stroke="transparent" points="310,-10 310,-30 330,-30 330,-10 310,-10"/>
<text text-anchor="start" x="333.6732" y="-15.4" font-family="sans-serif" font-size="14.00" fill="#000000"> &#160;Providers</text>
<polygon fill="#fb8072" stroke="transparent" points="406,-10 406,-30 426,-30 426,-10 406,-10"/>
<text text-anchor="start" x="429.7258" y="-15.4" font-family="sans-serif" font-size="14.00" fill="#000000"> &#160;Exports</text>
<g id="clust1" class="cluster">
<title>cluster_NxPipesModule</title>
<polygon fill="none" stroke="#000000" stroke-dasharray="1,5" points="130,-70 130,-268 366,-268 366,-70 130,-70"/>
</g>
<g id="clust2" class="cluster">
<title>cluster_NxPipesModule_declarations</title>
<polygon fill="none" stroke="#000000" points="142,-78 142,-130 354,-130 354,-78 142,-78"/>
</g>
<g id="clust6" class="cluster">
<title>cluster_NxPipesModule_exports</title>
<polygon fill="none" stroke="#000000" points="138,-208 138,-260 358,-260 358,-208 138,-208"/>
</g>
<!-- CharactersPipe -->
<g id="node1" class="node">
<title>CharactersPipe</title>
<polygon fill="#ffffb3" stroke="#000000" points="346.2395,-122 245.7605,-122 245.7605,-86 346.2395,-86 346.2395,-122"/>
<text text-anchor="middle" x="296" y="-99.8" font-family="Times,serif" font-size="14.00" fill="#000000">CharactersPipe</text>
</g>
<!-- NxPipesModule -->
<g id="node3" class="node">
<title>NxPipesModule</title>
<polygon fill="#8dd3c7" stroke="#000000" points="294.4888,-187 291.4888,-191 270.4888,-191 267.4888,-187 187.5112,-187 187.5112,-151 294.4888,-151 294.4888,-187"/>
<text text-anchor="middle" x="241" y="-164.8" font-family="Times,serif" font-size="14.00" fill="#000000">NxPipesModule</text>
</g>
<!-- CharactersPipe&#45;&gt;NxPipesModule -->
<g id="edge1" class="edge">
<title>CharactersPipe&#45;&gt;NxPipesModule</title>
<path fill="none" stroke="#000000" d="M270.0624,-122.1061C270.0624,-122.1061 270.0624,-140.991 270.0624,-140.991"/>
<polygon fill="#000000" stroke="#000000" points="266.5625,-140.9909 270.0624,-150.991 273.5625,-140.991 266.5625,-140.9909"/>
</g>
<!-- WordsPipe -->
<g id="node2" class="node">
<title>WordsPipe</title>
<polygon fill="#ffffb3" stroke="#000000" points="228.2079,-122 149.7921,-122 149.7921,-86 228.2079,-86 228.2079,-122"/>
<text text-anchor="middle" x="189" y="-99.8" font-family="Times,serif" font-size="14.00" fill="#000000">WordsPipe</text>
</g>
<!-- WordsPipe&#45;&gt;NxPipesModule -->
<g id="edge2" class="edge">
<title>WordsPipe&#45;&gt;NxPipesModule</title>
<path fill="none" stroke="#000000" d="M207.8047,-122.1061C207.8047,-122.1061 207.8047,-140.991 207.8047,-140.991"/>
<polygon fill="#000000" stroke="#000000" points="204.3048,-140.9909 207.8047,-150.991 211.3048,-140.991 204.3048,-140.9909"/>
</g>
<!-- CharactersPipe  -->
<g id="node4" class="node">
<title>CharactersPipe </title>
<polygon fill="#fb8072" stroke="#000000" points="350.2395,-252 245.7605,-252 245.7605,-216 350.2395,-216 350.2395,-252"/>
<text text-anchor="middle" x="298" y="-229.8" font-family="Times,serif" font-size="14.00" fill="#000000">CharactersPipe </text>
</g>
<!-- NxPipesModule&#45;&gt;CharactersPipe  -->
<g id="edge3" class="edge">
<title>NxPipesModule&#45;&gt;CharactersPipe </title>
<path fill="none" stroke="#000000" stroke-dasharray="5,2" d="M270.1874,-187.1061C270.1874,-187.1061 270.1874,-205.991 270.1874,-205.991"/>
<polygon fill="#000000" stroke="#000000" points="266.6875,-205.9909 270.1874,-215.991 273.6875,-205.991 266.6875,-205.9909"/>
</g>
<!-- WordsPipe  -->
<g id="node5" class="node">
<title>WordsPipe </title>
<polygon fill="#fb8072" stroke="#000000" points="227.7081,-252 146.2919,-252 146.2919,-216 227.7081,-216 227.7081,-252"/>
<text text-anchor="middle" x="187" y="-229.8" font-family="Times,serif" font-size="14.00" fill="#000000">WordsPipe </text>
</g>
<!-- NxPipesModule&#45;&gt;WordsPipe  -->
<g id="edge4" class="edge">
<title>NxPipesModule&#45;&gt;WordsPipe </title>
<path fill="none" stroke="#000000" stroke-dasharray="5,2" d="M207.6797,-187.1061C207.6797,-187.1061 207.6797,-205.991 207.6797,-205.991"/>
<polygon fill="#000000" stroke="#000000" points="204.1798,-205.9909 207.6797,-215.991 211.1798,-205.991 204.1798,-205.9909"/>
</g>
</g>
</svg>
