<?xml version="1.0" encoding="UTF-8" standalone="no"?>
<!DOCTYPE svg PUBLIC "-//W3C//DTD SVG 1.1//EN"
 "http://www.w3.org/Graphics/SVG/1.1/DTD/svg11.dtd">
<!-- Generated by graphviz version 2.40.1 (20161225.0304)
 -->
<!-- Title: dependencies Pages: 1 -->
<svg width="504pt" height="284pt"
 viewBox="0.00 0.00 504.00 284.00" xmlns="http://www.w3.org/2000/svg" xmlns:xlink="http://www.w3.org/1999/xlink">
<g id="graph0" class="graph" transform="scale(1 1) rotate(0) translate(4 280)">
<title>dependencies</title>
<polygon fill="#ffffff" stroke="transparent" points="-4,4 -4,-280 500,-280 500,4 -4,4"/>
<text text-anchor="start" x="227.0091" y="-42.4" font-family="sans-serif" font-weight="bold" font-size="14.00" fill="#000000">Legend</text>
<polygon fill="#ffffb3" stroke="transparent" points="14,-10 14,-30 34,-30 34,-10 14,-10"/>
<text text-anchor="start" x="37.629" y="-15.4" font-family="sans-serif" font-size="14.00" fill="#000000"> &#160;Declarations</text>
<polygon fill="#8dd3c7" stroke="transparent" points="127,-10 127,-30 147,-30 147,-10 127,-10"/>
<text text-anchor="start" x="150.7251" y="-15.4" font-family="sans-serif" font-size="14.00" fill="#000000"> &#160;Module</text>
<polygon fill="#80b1d3" stroke="transparent" points="213,-10 213,-30 233,-30 233,-10 213,-10"/>
<text text-anchor="start" x="236.7812" y="-15.4" font-family="sans-serif" font-size="14.00" fill="#000000"> &#160;Bootstrap</text>
<polygon fill="#fdb462" stroke="transparent" points="310,-10 310,-30 330,-30 330,-10 310,-10"/>
<text text-anchor="start" x="333.6732" y="-15.4" font-family="sans-serif" font-size="14.00" fill="#000000"> &#160;Providers</text>
<polygon fill="#fb8072" stroke="transparent" points="406,-10 406,-30 426,-30 426,-10 406,-10"/>
<text text-anchor="start" x="429.7258" y="-15.4" font-family="sans-serif" font-size="14.00" fill="#000000"> &#160;Exports</text>
<g id="clust1" class="cluster">
<title>cluster_AuthModule</title>
<polygon fill="none" stroke="#000000" stroke-dasharray="1,5" points="29,-70 29,-268 467,-268 467,-70 29,-70"/>
</g>
<g id="clust4" class="cluster">
<title>cluster_AuthModule_exports</title>
<polygon fill="none" stroke="#000000" points="86,-208 86,-260 411,-260 411,-208 86,-208"/>
</g>
<g id="clust6" class="cluster">
<title>cluster_AuthModule_providers</title>
<polygon fill="none" stroke="#000000" points="37,-78 37,-130 459,-130 459,-78 37,-78"/>
</g>
<!-- AuthGuard  -->
<g id="node1" class="node">
<title>AuthGuard </title>
<polygon fill="#fb8072" stroke="#000000" points="403.4804,-252 320.5196,-252 320.5196,-216 403.4804,-216 403.4804,-252"/>
<text text-anchor="middle" x="362" y="-229.8" font-family="Times,serif" font-size="14.00" fill="#000000">AuthGuard </text>
</g>
<!-- AuthService  -->
<g id="node2" class="node">
<title>AuthService </title>
<polygon fill="#fb8072" stroke="#000000" points="302.9761,-252 213.0239,-252 213.0239,-216 302.9761,-216 302.9761,-252"/>
<text text-anchor="middle" x="258" y="-229.8" font-family="Times,serif" font-size="14.00" fill="#000000">AuthService </text>
</g>
<!-- WsAuthGuard  -->
<g id="node3" class="node">
<title>WsAuthGuard </title>
<polygon fill="#fb8072" stroke="#000000" points="195.6383,-252 94.3617,-252 94.3617,-216 195.6383,-216 195.6383,-252"/>
<text text-anchor="middle" x="145" y="-229.8" font-family="Times,serif" font-size="14.00" fill="#000000">WsAuthGuard </text>
</g>
<!-- AuthModule -->
<g id="node4" class="node">
<title>AuthModule</title>
<polygon fill="#8dd3c7" stroke="#000000" points="301.5482,-187 298.5482,-191 277.5482,-191 274.5482,-187 214.4518,-187 214.4518,-151 301.5482,-151 301.5482,-187"/>
<text text-anchor="middle" x="258" y="-164.8" font-family="Times,serif" font-size="14.00" fill="#000000">AuthModule</text>
</g>
<!-- AuthModule&#45;&gt;AuthGuard  -->
<g id="edge1" class="edge">
<title>AuthModule&#45;&gt;AuthGuard </title>
<path fill="none" stroke="#000000" stroke-dasharray="5,2" d="M301.9158,-175C315.3855,-175 326.7283,-175 326.7283,-175 326.7283,-175 326.7283,-205.9775 326.7283,-205.9775"/>
<polygon fill="#000000" stroke="#000000" points="323.2284,-205.9774 326.7283,-215.9775 330.2284,-205.9775 323.2284,-205.9774"/>
</g>
<!-- AuthModule&#45;&gt;AuthService  -->
<g id="edge2" class="edge">
<title>AuthModule&#45;&gt;AuthService </title>
<path fill="none" stroke="#000000" stroke-dasharray="5,2" d="M258,-187.1061C258,-187.1061 258,-205.991 258,-205.991"/>
<polygon fill="#000000" stroke="#000000" points="254.5001,-205.9909 258,-215.991 261.5001,-205.991 254.5001,-205.9909"/>
</g>
<!-- AuthModule&#45;&gt;WsAuthGuard  -->
<g id="edge3" class="edge">
<title>AuthModule&#45;&gt;WsAuthGuard </title>
<path fill="none" stroke="#000000" stroke-dasharray="5,2" d="M214.2517,-175C200.8335,-175 189.5339,-175 189.5339,-175 189.5339,-175 189.5339,-205.9775 189.5339,-205.9775"/>
<polygon fill="#000000" stroke="#000000" points="186.034,-205.9774 189.5339,-215.9775 193.034,-205.9775 186.034,-205.9774"/>
</g>
<!-- AuthService -->
<g id="node5" class="node">
<title>AuthService</title>
<ellipse fill="#fdb462" stroke="#000000" cx="392" cy="-104" rx="59.1083" ry="18"/>
<text text-anchor="middle" x="392" y="-99.8" font-family="Times,serif" font-size="14.00" fill="#000000">AuthService</text>
</g>
<!-- AuthService&#45;&gt;AuthModule -->
<g id="edge4" class="edge">
<title>AuthService&#45;&gt;AuthModule</title>
<path fill="none" stroke="#000000" d="M367.9678,-120.7492C367.9678,-138.1922 367.9678,-163 367.9678,-163 367.9678,-163 311.7782,-163 311.7782,-163"/>
<polygon fill="#000000" stroke="#000000" points="311.7782,-159.5001 301.7782,-163 311.7781,-166.5001 311.7782,-159.5001"/>
</g>
<!-- JwtStrategy -->
<g id="node6" class="node">
<title>JwtStrategy</title>
<ellipse fill="#fdb462" stroke="#000000" cx="258" cy="-104" rx="56.7561" ry="18"/>
<text text-anchor="middle" x="258" y="-99.8" font-family="Times,serif" font-size="14.00" fill="#000000">JwtStrategy</text>
</g>
<!-- JwtStrategy&#45;&gt;AuthModule -->
<g id="edge5" class="edge">
<title>JwtStrategy&#45;&gt;AuthModule</title>
<path fill="none" stroke="#000000" d="M258,-122.1061C258,-122.1061 258,-140.991 258,-140.991"/>
<polygon fill="#000000" stroke="#000000" points="254.5001,-140.9909 258,-150.991 261.5001,-140.991 254.5001,-140.9909"/>
</g>
<!-- WsJwtStrategy -->
<g id="node7" class="node">
<title>WsJwtStrategy</title>
<ellipse fill="#fdb462" stroke="#000000" cx="114" cy="-104" rx="69.4974" ry="18"/>
<text text-anchor="middle" x="114" y="-99.8" font-family="Times,serif" font-size="14.00" fill="#000000">WsJwtStrategy</text>
</g>
<!-- WsJwtStrategy&#45;&gt;AuthModule -->
<g id="edge6" class="edge">
<title>WsJwtStrategy&#45;&gt;AuthModule</title>
<path fill="none" stroke="#000000" d="M138.9648,-121.0652C138.9648,-138.4902 138.9648,-163 138.9648,-163 138.9648,-163 204.3516,-163 204.3516,-163"/>
<polygon fill="#000000" stroke="#000000" points="204.3516,-166.5001 214.3516,-163 204.3516,-159.5001 204.3516,-166.5001"/>
</g>
</g>
</svg>
