<?xml version="1.0" encoding="UTF-8" standalone="no"?>
<!DOCTYPE svg PUBLIC "-//W3C//DTD SVG 1.1//EN"
 "http://www.w3.org/Graphics/SVG/1.1/DTD/svg11.dtd">
<!-- Generated by graphviz version 2.40.1 (20161225.0304)
 -->
<!-- Title: dependencies Pages: 1 -->
<svg width="504pt" height="284pt"
 viewBox="0.00 0.00 504.00 284.00" xmlns="http://www.w3.org/2000/svg" xmlns:xlink="http://www.w3.org/1999/xlink">
<g id="graph0" class="graph" transform="scale(1 1) rotate(0) translate(4 280)">
<title>dependencies</title>
<polygon fill="#ffffff" stroke="transparent" points="-4,4 -4,-280 500,-280 500,4 -4,4"/>
<text text-anchor="start" x="227.0091" y="-42.4" font-family="sans-serif" font-weight="bold" font-size="14.00" fill="#000000">Legend</text>
<polygon fill="#ffffb3" stroke="transparent" points="14,-10 14,-30 34,-30 34,-10 14,-10"/>
<text text-anchor="start" x="37.629" y="-15.4" font-family="sans-serif" font-size="14.00" fill="#000000"> &#160;Declarations</text>
<polygon fill="#8dd3c7" stroke="transparent" points="127,-10 127,-30 147,-30 147,-10 127,-10"/>
<text text-anchor="start" x="150.7251" y="-15.4" font-family="sans-serif" font-size="14.00" fill="#000000"> &#160;Module</text>
<polygon fill="#80b1d3" stroke="transparent" points="213,-10 213,-30 233,-30 233,-10 213,-10"/>
<text text-anchor="start" x="236.7812" y="-15.4" font-family="sans-serif" font-size="14.00" fill="#000000"> &#160;Bootstrap</text>
<polygon fill="#fdb462" stroke="transparent" points="310,-10 310,-30 330,-30 330,-10 310,-10"/>
<text text-anchor="start" x="333.6732" y="-15.4" font-family="sans-serif" font-size="14.00" fill="#000000"> &#160;Providers</text>
<polygon fill="#fb8072" stroke="transparent" points="406,-10 406,-30 426,-30 426,-10 406,-10"/>
<text text-anchor="start" x="429.7258" y="-15.4" font-family="sans-serif" font-size="14.00" fill="#000000"> &#160;Exports</text>
<g id="clust1" class="cluster">
<title>cluster_TruncateModule</title>
<polygon fill="none" stroke="#000000" stroke-dasharray="1,5" points="130,-70 130,-268 366,-268 366,-70 130,-70"/>
</g>
<g id="clust2" class="cluster">
<title>cluster_TruncateModule_declarations</title>
<polygon fill="none" stroke="#000000" points="142,-78 142,-130 354,-130 354,-78 142,-78"/>
</g>
<g id="clust6" class="cluster">
<title>cluster_TruncateModule_exports</title>
<polygon fill="none" stroke="#000000" points="138,-208 138,-260 358,-260 358,-208 138,-208"/>
</g>
<!-- CharactersPipe -->
<g id="node1" class="node">
<title>CharactersPipe</title>
<polygon fill="#ffffb3" stroke="#000000" points="346.2395,-122 245.7605,-122 245.7605,-86 346.2395,-86 346.2395,-122"/>
<text text-anchor="middle" x="296" y="-99.8" font-family="Times,serif" font-size="14.00" fill="#000000">CharactersPipe</text>
</g>
<!-- TruncateModule -->
<g id="node3" class="node">
<title>TruncateModule</title>
<polygon fill="#8dd3c7" stroke="#000000" points="296.7978,-187 293.7978,-191 272.7978,-191 269.7978,-187 187.2022,-187 187.2022,-151 296.7978,-151 296.7978,-187"/>
<text text-anchor="middle" x="242" y="-164.8" font-family="Times,serif" font-size="14.00" fill="#000000">TruncateModule</text>
</g>
<!-- CharactersPipe&#45;&gt;TruncateModule -->
<g id="edge1" class="edge">
<title>CharactersPipe&#45;&gt;TruncateModule</title>
<path fill="none" stroke="#000000" d="M271.1396,-122.1061C271.1396,-122.1061 271.1396,-140.991 271.1396,-140.991"/>
<polygon fill="#000000" stroke="#000000" points="267.6396,-140.9909 271.1396,-150.991 274.6396,-140.991 267.6396,-140.9909"/>
</g>
<!-- WordsPipe -->
<g id="node2" class="node">
<title>WordsPipe</title>
<polygon fill="#ffffb3" stroke="#000000" points="228.2079,-122 149.7921,-122 149.7921,-86 228.2079,-86 228.2079,-122"/>
<text text-anchor="middle" x="189" y="-99.8" font-family="Times,serif" font-size="14.00" fill="#000000">WordsPipe</text>
</g>
<!-- WordsPipe&#45;&gt;TruncateModule -->
<g id="edge2" class="edge">
<title>WordsPipe&#45;&gt;TruncateModule</title>
<path fill="none" stroke="#000000" d="M207.7276,-122.1061C207.7276,-122.1061 207.7276,-140.991 207.7276,-140.991"/>
<polygon fill="#000000" stroke="#000000" points="204.2276,-140.9909 207.7276,-150.991 211.2276,-140.991 204.2276,-140.9909"/>
</g>
<!-- CharactersPipe  -->
<g id="node4" class="node">
<title>CharactersPipe </title>
<polygon fill="#fb8072" stroke="#000000" points="350.2395,-252 245.7605,-252 245.7605,-216 350.2395,-216 350.2395,-252"/>
<text text-anchor="middle" x="298" y="-229.8" font-family="Times,serif" font-size="14.00" fill="#000000">CharactersPipe </text>
</g>
<!-- TruncateModule&#45;&gt;CharactersPipe  -->
<g id="edge3" class="edge">
<title>TruncateModule&#45;&gt;CharactersPipe </title>
<path fill="none" stroke="#000000" stroke-dasharray="5,2" d="M271.2646,-187.1061C271.2646,-187.1061 271.2646,-205.991 271.2646,-205.991"/>
<polygon fill="#000000" stroke="#000000" points="267.7646,-205.9909 271.2646,-215.991 274.7646,-205.991 267.7646,-205.9909"/>
</g>
<!-- WordsPipe  -->
<g id="node5" class="node">
<title>WordsPipe </title>
<polygon fill="#fb8072" stroke="#000000" points="227.7081,-252 146.2919,-252 146.2919,-216 227.7081,-216 227.7081,-252"/>
<text text-anchor="middle" x="187" y="-229.8" font-family="Times,serif" font-size="14.00" fill="#000000">WordsPipe </text>
</g>
<!-- TruncateModule&#45;&gt;WordsPipe  -->
<g id="edge4" class="edge">
<title>TruncateModule&#45;&gt;WordsPipe </title>
<path fill="none" stroke="#000000" stroke-dasharray="5,2" d="M207.6026,-187.1061C207.6026,-187.1061 207.6026,-205.991 207.6026,-205.991"/>
<polygon fill="#000000" stroke="#000000" points="204.1026,-205.9909 207.6026,-215.991 211.1026,-205.991 204.1026,-205.9909"/>
</g>
</g>
</svg>
