<?xml version="1.0" encoding="UTF-8" standalone="no"?>
<!DOCTYPE svg PUBLIC "-//W3C//DTD SVG 1.1//EN"
 "http://www.w3.org/Graphics/SVG/1.1/DTD/svg11.dtd">
<!-- Generated by graphviz version 2.40.1 (20161225.0304)
 -->
<!-- Title: dependencies Pages: 1 -->
<svg width="504pt" height="211pt"
 viewBox="0.00 0.00 504.00 211.00" xmlns="http://www.w3.org/2000/svg" xmlns:xlink="http://www.w3.org/1999/xlink">
<g id="graph0" class="graph" transform="scale(1 1) rotate(0) translate(4 207)">
<title>dependencies</title>
<polygon fill="#ffffff" stroke="transparent" points="-4,4 -4,-207 500,-207 500,4 -4,4"/>
<text text-anchor="start" x="227.0091" y="-42.4" font-family="sans-serif" font-weight="bold" font-size="14.00" fill="#000000">Legend</text>
<polygon fill="#ffffb3" stroke="transparent" points="14,-10 14,-30 34,-30 34,-10 14,-10"/>
<text text-anchor="start" x="37.629" y="-15.4" font-family="sans-serif" font-size="14.00" fill="#000000"> &#160;Declarations</text>
<polygon fill="#8dd3c7" stroke="transparent" points="127,-10 127,-30 147,-30 147,-10 127,-10"/>
<text text-anchor="start" x="150.7251" y="-15.4" font-family="sans-serif" font-size="14.00" fill="#000000"> &#160;Module</text>
<polygon fill="#80b1d3" stroke="transparent" points="213,-10 213,-30 233,-30 233,-10 213,-10"/>
<text text-anchor="start" x="236.7812" y="-15.4" font-family="sans-serif" font-size="14.00" fill="#000000"> &#160;Bootstrap</text>
<polygon fill="#fdb462" stroke="transparent" points="310,-10 310,-30 330,-30 330,-10 310,-10"/>
<text text-anchor="start" x="333.6732" y="-15.4" font-family="sans-serif" font-size="14.00" fill="#000000"> &#160;Providers</text>
<polygon fill="#fb8072" stroke="transparent" points="406,-10 406,-30 426,-30 426,-10 406,-10"/>
<text text-anchor="start" x="429.7258" y="-15.4" font-family="sans-serif" font-size="14.00" fill="#000000"> &#160;Exports</text>
<g id="clust1" class="cluster">
<title>cluster_CoreModule</title>
<polygon fill="none" stroke="#000000" stroke-dasharray="1,5" points="127.5,-70 127.5,-195 368.5,-195 368.5,-70 127.5,-70"/>
</g>
<g id="clust3" class="cluster">
<title>cluster_CoreModule_imports</title>
<polygon fill="none" stroke="#000000" points="135.5,-78 135.5,-130 360.5,-130 360.5,-78 135.5,-78"/>
</g>
<!-- ConfigModule -->
<g id="node1" class="node">
<title>ConfigModule</title>
<polygon fill="#8dd3c7" stroke="#000000" points="352.9386,-122 349.9386,-126 328.9386,-126 325.9386,-122 254.0614,-122 254.0614,-86 352.9386,-86 352.9386,-122"/>
<text text-anchor="middle" x="303.5" y="-99.8" font-family="Times,serif" font-size="14.00" fill="#000000">ConfigModule</text>
</g>
<!-- CoreModule -->
<g id="node3" class="node">
<title>CoreModule</title>
<polygon fill="#8dd3c7" stroke="#000000" points="289.7619,-187 286.7619,-191 265.7619,-191 262.7619,-187 203.2381,-187 203.2381,-151 289.7619,-151 289.7619,-187"/>
<text text-anchor="middle" x="246.5" y="-164.8" font-family="Times,serif" font-size="14.00" fill="#000000">CoreModule</text>
</g>
<!-- ConfigModule&#45;&gt;CoreModule -->
<g id="edge1" class="edge">
<title>ConfigModule&#45;&gt;CoreModule</title>
<path fill="none" stroke="#000000" d="M272.081,-122.1061C272.081,-122.1061 272.081,-140.991 272.081,-140.991"/>
<polygon fill="#000000" stroke="#000000" points="268.5811,-140.9909 272.081,-150.991 275.5811,-140.991 268.5811,-140.9909"/>
</g>
<!-- EmailModule -->
<g id="node2" class="node">
<title>EmailModule</title>
<polygon fill="#8dd3c7" stroke="#000000" points="235.9888,-122 232.9888,-126 211.9888,-126 208.9888,-122 143.0112,-122 143.0112,-86 235.9888,-86 235.9888,-122"/>
<text text-anchor="middle" x="189.5" y="-99.8" font-family="Times,serif" font-size="14.00" fill="#000000">EmailModule</text>
</g>
<!-- EmailModule&#45;&gt;CoreModule -->
<g id="edge2" class="edge">
<title>EmailModule&#45;&gt;CoreModule</title>
<path fill="none" stroke="#000000" d="M219.5568,-122.1061C219.5568,-122.1061 219.5568,-140.991 219.5568,-140.991"/>
<polygon fill="#000000" stroke="#000000" points="216.0569,-140.9909 219.5568,-150.991 223.0569,-140.991 216.0569,-140.9909"/>
</g>
</g>
</svg>
