<?xml version="1.0" encoding="UTF-8" standalone="no"?>
<!DOCTYPE svg PUBLIC "-//W3C//DTD SVG 1.1//EN"
 "http://www.w3.org/Graphics/SVG/1.1/DTD/svg11.dtd">
<!-- Generated by graphviz version 2.40.1 (20161225.0304)
 -->
<!-- Title: dependencies Pages: 1 -->
<svg width="1147pt" height="211pt"
 viewBox="0.00 0.00 1147.00 211.00" xmlns="http://www.w3.org/2000/svg" xmlns:xlink="http://www.w3.org/1999/xlink">
<g id="graph0" class="graph" transform="scale(1 1) rotate(0) translate(4 207)">
<title>dependencies</title>
<polygon fill="#ffffff" stroke="transparent" points="-4,4 -4,-207 1143,-207 1143,4 -4,4"/>
<text text-anchor="start" x="548.5091" y="-42.4" font-family="sans-serif" font-weight="bold" font-size="14.00" fill="#000000">Legend</text>
<polygon fill="#ffffb3" stroke="transparent" points="335.5,-10 335.5,-30 355.5,-30 355.5,-10 335.5,-10"/>
<text text-anchor="start" x="359.129" y="-15.4" font-family="sans-serif" font-size="14.00" fill="#000000"> &#160;Declarations</text>
<polygon fill="#8dd3c7" stroke="transparent" points="448.5,-10 448.5,-30 468.5,-30 468.5,-10 448.5,-10"/>
<text text-anchor="start" x="472.2251" y="-15.4" font-family="sans-serif" font-size="14.00" fill="#000000"> &#160;Module</text>
<polygon fill="#80b1d3" stroke="transparent" points="534.5,-10 534.5,-30 554.5,-30 554.5,-10 534.5,-10"/>
<text text-anchor="start" x="558.2812" y="-15.4" font-family="sans-serif" font-size="14.00" fill="#000000"> &#160;Bootstrap</text>
<polygon fill="#fdb462" stroke="transparent" points="631.5,-10 631.5,-30 651.5,-30 651.5,-10 631.5,-10"/>
<text text-anchor="start" x="655.1732" y="-15.4" font-family="sans-serif" font-size="14.00" fill="#000000"> &#160;Providers</text>
<polygon fill="#fb8072" stroke="transparent" points="727.5,-10 727.5,-30 747.5,-30 747.5,-10 727.5,-10"/>
<text text-anchor="start" x="751.2258" y="-15.4" font-family="sans-serif" font-size="14.00" fill="#000000"> &#160;Exports</text>
<g id="clust1" class="cluster">
<title>cluster_CoreModule</title>
<polygon fill="none" stroke="#000000" stroke-dasharray="1,5" points="8,-70 8,-195 1131,-195 1131,-70 8,-70"/>
</g>
<g id="clust3" class="cluster">
<title>cluster_CoreModule_imports</title>
<polygon fill="none" stroke="#000000" points="885,-78 885,-130 1123,-130 1123,-78 885,-78"/>
</g>
<g id="clust6" class="cluster">
<title>cluster_CoreModule_providers</title>
<polygon fill="none" stroke="#000000" points="16,-78 16,-130 877,-130 877,-78 16,-78"/>
</g>
<!-- NavigatorModule -->
<g id="node1" class="node">
<title>NavigatorModule</title>
<polygon fill="#8dd3c7" stroke="#000000" points="1114.5284,-122 1111.5284,-126 1090.5284,-126 1087.5284,-122 999.4716,-122 999.4716,-86 1114.5284,-86 1114.5284,-122"/>
<text text-anchor="middle" x="1057" y="-99.8" font-family="Times,serif" font-size="14.00" fill="#000000">NavigatorModule</text>
</g>
<!-- CoreModule -->
<g id="node3" class="node">
<title>CoreModule</title>
<polygon fill="#8dd3c7" stroke="#000000" points="651.2619,-187 648.2619,-191 627.2619,-191 624.2619,-187 564.7381,-187 564.7381,-151 651.2619,-151 651.2619,-187"/>
<text text-anchor="middle" x="608" y="-164.8" font-family="Times,serif" font-size="14.00" fill="#000000">CoreModule</text>
</g>
<!-- NavigatorModule&#45;&gt;CoreModule -->
<g id="edge1" class="edge">
<title>NavigatorModule&#45;&gt;CoreModule</title>
<path fill="none" stroke="#000000" d="M1057,-122.2921C1057,-144.2057 1057,-178 1057,-178 1057,-178 661.46,-178 661.46,-178"/>
<polygon fill="#000000" stroke="#000000" points="661.46,-174.5001 651.46,-178 661.4599,-181.5001 661.46,-174.5001"/>
</g>
<!-- AuthModule -->
<g id="node2" class="node">
<title>AuthModule</title>
<polygon fill="#8dd3c7" stroke="#000000" points="980.5482,-122 977.5482,-126 956.5482,-126 953.5482,-122 893.4518,-122 893.4518,-86 980.5482,-86 980.5482,-122"/>
<text text-anchor="middle" x="937" y="-99.8" font-family="Times,serif" font-size="14.00" fill="#000000">AuthModule</text>
</g>
<!-- AuthModule&#45;&gt;CoreModule -->
<g id="edge2" class="edge">
<title>AuthModule&#45;&gt;CoreModule</title>
<path fill="none" stroke="#000000" d="M937,-122.1061C937,-141.3391 937,-169 937,-169 937,-169 661.3493,-169 661.3493,-169"/>
<polygon fill="#000000" stroke="#000000" points="661.3494,-165.5001 651.3493,-169 661.3493,-172.5001 661.3494,-165.5001"/>
</g>
<!-- PageTitleService -->
<g id="node4" class="node">
<title>PageTitleService</title>
<ellipse fill="#fdb462" stroke="#000000" cx="792" cy="-104" rx="76.9985" ry="18"/>
<text text-anchor="middle" x="792" y="-99.8" font-family="Times,serif" font-size="14.00" fill="#000000">PageTitleService</text>
</g>
<!-- PageTitleService&#45;&gt;CoreModule -->
<g id="edge3" class="edge">
<title>PageTitleService&#45;&gt;CoreModule</title>
<path fill="none" stroke="#000000" d="M792,-122.027C792,-138.3976 792,-160 792,-160 792,-160 661.6054,-160 661.6054,-160"/>
<polygon fill="#000000" stroke="#000000" points="661.6055,-156.5001 651.6054,-160 661.6054,-163.5001 661.6055,-156.5001"/>
</g>
<!-- MediaQueryService -->
<g id="node5" class="node">
<title>MediaQueryService</title>
<ellipse fill="#fdb462" stroke="#000000" cx="608" cy="-104" rx="88.5831" ry="18"/>
<text text-anchor="middle" x="608" y="-99.8" font-family="Times,serif" font-size="14.00" fill="#000000">MediaQueryService</text>
</g>
<!-- MediaQueryService&#45;&gt;CoreModule -->
<g id="edge4" class="edge">
<title>MediaQueryService&#45;&gt;CoreModule</title>
<path fill="none" stroke="#000000" d="M608,-122.1061C608,-122.1061 608,-140.991 608,-140.991"/>
<polygon fill="#000000" stroke="#000000" points="604.5001,-140.9909 608,-150.991 611.5001,-140.991 604.5001,-140.9909"/>
</g>
<!-- ServiceWorkerService -->
<g id="node6" class="node">
<title>ServiceWorkerService</title>
<ellipse fill="#fdb462" stroke="#000000" cx="403" cy="-104" rx="98.3715" ry="18"/>
<text text-anchor="middle" x="403" y="-99.8" font-family="Times,serif" font-size="14.00" fill="#000000">ServiceWorkerService</text>
</g>
<!-- ServiceWorkerService&#45;&gt;CoreModule -->
<g id="edge5" class="edge">
<title>ServiceWorkerService&#45;&gt;CoreModule</title>
<path fill="none" stroke="#000000" d="M403,-122.027C403,-138.3976 403,-160 403,-160 403,-160 554.5248,-160 554.5248,-160"/>
<polygon fill="#000000" stroke="#000000" points="554.5248,-163.5001 564.5248,-160 554.5247,-156.5001 554.5248,-163.5001"/>
</g>
<!-- EventBus -->
<g id="node7" class="node">
<title>EventBus</title>
<ellipse fill="#fdb462" stroke="#000000" cx="238" cy="-104" rx="48.6752" ry="18"/>
<text text-anchor="middle" x="238" y="-99.8" font-family="Times,serif" font-size="14.00" fill="#000000">EventBus</text>
</g>
<!-- EventBus&#45;&gt;CoreModule -->
<g id="edge6" class="edge">
<title>EventBus&#45;&gt;CoreModule</title>
<path fill="none" stroke="#000000" d="M238,-122.1061C238,-141.3391 238,-169 238,-169 238,-169 554.4683,-169 554.4683,-169"/>
<polygon fill="#000000" stroke="#000000" points="554.4683,-172.5001 564.4683,-169 554.4682,-165.5001 554.4683,-172.5001"/>
</g>
<!-- ErrorInterceptor -->
<g id="node8" class="node">
<title>ErrorInterceptor</title>
<ellipse fill="#fdb462" stroke="#000000" cx="98" cy="-104" rx="73.5329" ry="18"/>
<text text-anchor="middle" x="98" y="-99.8" font-family="Times,serif" font-size="14.00" fill="#000000">ErrorInterceptor</text>
</g>
<!-- ErrorInterceptor&#45;&gt;CoreModule -->
<g id="edge7" class="edge">
<title>ErrorInterceptor&#45;&gt;CoreModule</title>
<path fill="none" stroke="#000000" d="M98,-122.2921C98,-144.2057 98,-178 98,-178 98,-178 554.5177,-178 554.5177,-178"/>
<polygon fill="#000000" stroke="#000000" points="554.5177,-181.5001 564.5177,-178 554.5177,-174.5001 554.5177,-181.5001"/>
</g>
</g>
</svg>
