<?xml version="1.0" encoding="UTF-8" standalone="no"?>
<!DOCTYPE svg PUBLIC "-//W3C//DTD SVG 1.1//EN"
 "http://www.w3.org/Graphics/SVG/1.1/DTD/svg11.dtd">
<!-- Generated by graphviz version 2.40.1 (20161225.0304)
 -->
<!-- Title: dependencies Pages: 1 -->
<svg width="1144pt" height="233pt"
 viewBox="0.00 0.00 1144.00 233.40" xmlns="http://www.w3.org/2000/svg" xmlns:xlink="http://www.w3.org/1999/xlink">
<g id="graph0" class="graph" transform="scale(1 1) rotate(0) translate(4 229.4)">
<title>dependencies</title>
<polygon fill="#ffffff" stroke="transparent" points="-4,4 -4,-229.4 1140,-229.4 1140,4 -4,4"/>
<text text-anchor="start" x="547.0091" y="-42.4" font-family="sans-serif" font-weight="bold" font-size="14.00" fill="#000000">Legend</text>
<polygon fill="#ffffb3" stroke="transparent" points="334,-10 334,-30 354,-30 354,-10 334,-10"/>
<text text-anchor="start" x="357.629" y="-15.4" font-family="sans-serif" font-size="14.00" fill="#000000"> &#160;Declarations</text>
<polygon fill="#8dd3c7" stroke="transparent" points="447,-10 447,-30 467,-30 467,-10 447,-10"/>
<text text-anchor="start" x="470.7251" y="-15.4" font-family="sans-serif" font-size="14.00" fill="#000000"> &#160;Module</text>
<polygon fill="#80b1d3" stroke="transparent" points="533,-10 533,-30 553,-30 553,-10 533,-10"/>
<text text-anchor="start" x="556.7812" y="-15.4" font-family="sans-serif" font-size="14.00" fill="#000000"> &#160;Bootstrap</text>
<polygon fill="#fdb462" stroke="transparent" points="630,-10 630,-30 650,-30 650,-10 630,-10"/>
<text text-anchor="start" x="653.6732" y="-15.4" font-family="sans-serif" font-size="14.00" fill="#000000"> &#160;Providers</text>
<polygon fill="#fb8072" stroke="transparent" points="726,-10 726,-30 746,-30 746,-10 726,-10"/>
<text text-anchor="start" x="749.7258" y="-15.4" font-family="sans-serif" font-size="14.00" fill="#000000"> &#160;Exports</text>
<g id="clust1" class="cluster">
<title>cluster_CoreModule</title>
<polygon fill="none" stroke="#000000" stroke-dasharray="1,5" points="8,-70 8,-217.4 1128,-217.4 1128,-70 8,-70"/>
</g>
<g id="clust3" class="cluster">
<title>cluster_CoreModule_imports</title>
<polygon fill="none" stroke="#000000" points="885,-78 885,-152.4 1120,-152.4 1120,-78 885,-78"/>
</g>
<g id="clust6" class="cluster">
<title>cluster_CoreModule_providers</title>
<polygon fill="none" stroke="#000000" points="16,-89.2 16,-141.2 877,-141.2 877,-89.2 16,-89.2"/>
</g>
<!-- NavigatorModule -->
<g id="node1" class="node">
<title>NavigatorModule</title>
<polygon fill="#8dd3c7" stroke="#000000" points="1111.5284,-133.2 1108.5284,-137.2 1087.5284,-137.2 1084.5284,-133.2 996.4716,-133.2 996.4716,-97.2 1111.5284,-97.2 1111.5284,-133.2"/>
<text text-anchor="middle" x="1054" y="-111" font-family="Times,serif" font-size="14.00" fill="#000000">NavigatorModule</text>
</g>
<!-- CoreModule -->
<g id="node3" class="node">
<title>CoreModule</title>
<polygon fill="#8dd3c7" stroke="#000000" points="651.2619,-209.4 648.2619,-213.4 627.2619,-213.4 624.2619,-209.4 564.7381,-209.4 564.7381,-173.4 651.2619,-173.4 651.2619,-209.4"/>
<text text-anchor="middle" x="608" y="-187.2" font-family="Times,serif" font-size="14.00" fill="#000000">CoreModule</text>
</g>
<!-- NavigatorModule&#45;&gt;CoreModule -->
<g id="edge1" class="edge">
<title>NavigatorModule&#45;&gt;CoreModule</title>
<path fill="none" stroke="#000000" d="M1054,-133.4428C1054,-157.6596 1054,-197.4 1054,-197.4 1054,-197.4 661.5764,-197.4 661.5764,-197.4"/>
<polygon fill="#000000" stroke="#000000" points="661.5764,-193.9001 651.5764,-197.4 661.5764,-200.9001 661.5764,-193.9001"/>
</g>
<!-- . === &#160;? .(, {
 &#160;&#160;&#160;: true
}) : [] -->
<g id="node2" class="node">
<title>. === &#160;? .(, {
 &#160;&#160;&#160;: true
}) : []</title>
<polygon fill="#8dd3c7" stroke="#000000" points="978.7781,-144.6014 975.7781,-148.6014 954.7781,-148.6014 951.7781,-144.6014 893.2219,-144.6014 893.2219,-85.7986 978.7781,-85.7986 978.7781,-144.6014"/>
<text text-anchor="middle" x="936" y="-127.8" font-family="Times,serif" font-size="14.00" fill="#000000">. === &#160;? .(, {</text>
<text text-anchor="middle" x="936" y="-111" font-family="Times,serif" font-size="14.00" fill="#000000"> &#160;&#160;&#160;: true</text>
<text text-anchor="middle" x="936" y="-94.2" font-family="Times,serif" font-size="14.00" fill="#000000">}) : []</text>
</g>
<!-- . === &#160;? .(, {
 &#160;&#160;&#160;: true
}) : []&#45;&gt;CoreModule -->
<g id="edge2" class="edge">
<title>. === &#160;? .(, {
 &#160;&#160;&#160;: true
}) : []&#45;&gt;CoreModule</title>
<path fill="none" stroke="#000000" d="M893.0611,-139.4C807.1904,-139.4 622.4603,-139.4 622.4603,-139.4 622.4603,-139.4 622.4603,-163.2129 622.4603,-163.2129"/>
<polygon fill="#000000" stroke="#000000" points="618.9604,-163.2129 622.4603,-173.2129 625.9604,-163.213 618.9604,-163.2129"/>
</g>
<!-- PageTitleService -->
<g id="node4" class="node">
<title>PageTitleService</title>
<ellipse fill="#fdb462" stroke="#000000" cx="792" cy="-115.2" rx="76.9985" ry="18"/>
<text text-anchor="middle" x="792" y="-111" font-family="Times,serif" font-size="14.00" fill="#000000">PageTitleService</text>
</g>
<!-- PageTitleService&#45;&gt;CoreModule -->
<g id="edge3" class="edge">
<title>PageTitleService&#45;&gt;CoreModule</title>
<path fill="none" stroke="#000000" d="M792,-133.2782C792,-154.078 792,-185.4 792,-185.4 792,-185.4 661.6054,-185.4 661.6054,-185.4"/>
<polygon fill="#000000" stroke="#000000" points="661.6055,-181.9001 651.6054,-185.4 661.6054,-188.9001 661.6055,-181.9001"/>
</g>
<!-- MediaQueryService -->
<g id="node5" class="node">
<title>MediaQueryService</title>
<ellipse fill="#fdb462" stroke="#000000" cx="608" cy="-115.2" rx="88.5831" ry="18"/>
<text text-anchor="middle" x="608" y="-111" font-family="Times,serif" font-size="14.00" fill="#000000">MediaQueryService</text>
</g>
<!-- MediaQueryService&#45;&gt;CoreModule -->
<g id="edge4" class="edge">
<title>MediaQueryService&#45;&gt;CoreModule</title>
<path fill="none" stroke="#000000" d="M593.5397,-133.2583C593.5397,-133.2583 593.5397,-163.2072 593.5397,-163.2072"/>
<polygon fill="#000000" stroke="#000000" points="590.0398,-163.2072 593.5397,-173.2072 597.0398,-163.2072 590.0398,-163.2072"/>
</g>
<!-- ServiceWorkerService -->
<g id="node6" class="node">
<title>ServiceWorkerService</title>
<ellipse fill="#fdb462" stroke="#000000" cx="403" cy="-115.2" rx="98.3715" ry="18"/>
<text text-anchor="middle" x="403" y="-111" font-family="Times,serif" font-size="14.00" fill="#000000">ServiceWorkerService</text>
</g>
<!-- ServiceWorkerService&#45;&gt;CoreModule -->
<g id="edge5" class="edge">
<title>ServiceWorkerService&#45;&gt;CoreModule</title>
<path fill="none" stroke="#000000" d="M403,-133.2084C403,-153.1138 403,-182.4 403,-182.4 403,-182.4 554.5248,-182.4 554.5248,-182.4"/>
<polygon fill="#000000" stroke="#000000" points="554.5248,-185.9001 564.5248,-182.4 554.5247,-178.9001 554.5248,-185.9001"/>
</g>
<!-- EventBus -->
<g id="node7" class="node">
<title>EventBus</title>
<ellipse fill="#fdb462" stroke="#000000" cx="238" cy="-115.2" rx="48.6752" ry="18"/>
<text text-anchor="middle" x="238" y="-111" font-family="Times,serif" font-size="14.00" fill="#000000">EventBus</text>
</g>
<!-- EventBus&#45;&gt;CoreModule -->
<g id="edge6" class="edge">
<title>EventBus&#45;&gt;CoreModule</title>
<path fill="none" stroke="#000000" d="M238,-133.2583C238,-155.7917 238,-191.4 238,-191.4 238,-191.4 554.4683,-191.4 554.4683,-191.4"/>
<polygon fill="#000000" stroke="#000000" points="554.4683,-194.9001 564.4683,-191.4 554.4682,-187.9001 554.4683,-194.9001"/>
</g>
<!-- ErrorInterceptor -->
<g id="node8" class="node">
<title>ErrorInterceptor</title>
<ellipse fill="#fdb462" stroke="#000000" cx="98" cy="-115.2" rx="73.5329" ry="18"/>
<text text-anchor="middle" x="98" y="-111" font-family="Times,serif" font-size="14.00" fill="#000000">ErrorInterceptor</text>
</g>
<!-- ErrorInterceptor&#45;&gt;CoreModule -->
<g id="edge7" class="edge">
<title>ErrorInterceptor&#45;&gt;CoreModule</title>
<path fill="none" stroke="#000000" d="M98,-133.2687C98,-158.2784 98,-200.4 98,-200.4 98,-200.4 554.5177,-200.4 554.5177,-200.4"/>
<polygon fill="#000000" stroke="#000000" points="554.5177,-203.9001 564.5177,-200.4 554.5177,-196.9001 554.5177,-203.9001"/>
</g>
</g>
</svg>
