<?xml version="1.0" encoding="UTF-8" standalone="no"?>
<!DOCTYPE svg PUBLIC "-//W3C//DTD SVG 1.1//EN"
 "http://www.w3.org/Graphics/SVG/1.1/DTD/svg11.dtd">
<!-- Generated by graphviz version 2.40.1 (20161225.0304)
 -->
<!-- Title: dependencies Pages: 1 -->
<svg width="1339pt" height="211pt"
 viewBox="0.00 0.00 1339.00 211.00" xmlns="http://www.w3.org/2000/svg" xmlns:xlink="http://www.w3.org/1999/xlink">
<g id="graph0" class="graph" transform="scale(1 1) rotate(0) translate(4 207)">
<title>dependencies</title>
<polygon fill="#ffffff" stroke="transparent" points="-4,4 -4,-207 1335,-207 1335,4 -4,4"/>
<text text-anchor="start" x="644.5091" y="-42.4" font-family="sans-serif" font-weight="bold" font-size="14.00" fill="#000000">Legend</text>
<polygon fill="#ffffb3" stroke="transparent" points="431.5,-10 431.5,-30 451.5,-30 451.5,-10 431.5,-10"/>
<text text-anchor="start" x="455.129" y="-15.4" font-family="sans-serif" font-size="14.00" fill="#000000"> &#160;Declarations</text>
<polygon fill="#8dd3c7" stroke="transparent" points="544.5,-10 544.5,-30 564.5,-30 564.5,-10 544.5,-10"/>
<text text-anchor="start" x="568.2251" y="-15.4" font-family="sans-serif" font-size="14.00" fill="#000000"> &#160;Module</text>
<polygon fill="#80b1d3" stroke="transparent" points="630.5,-10 630.5,-30 650.5,-30 650.5,-10 630.5,-10"/>
<text text-anchor="start" x="654.2812" y="-15.4" font-family="sans-serif" font-size="14.00" fill="#000000"> &#160;Bootstrap</text>
<polygon fill="#fdb462" stroke="transparent" points="727.5,-10 727.5,-30 747.5,-30 747.5,-10 727.5,-10"/>
<text text-anchor="start" x="751.1732" y="-15.4" font-family="sans-serif" font-size="14.00" fill="#000000"> &#160;Providers</text>
<polygon fill="#fb8072" stroke="transparent" points="823.5,-10 823.5,-30 843.5,-30 843.5,-10 823.5,-10"/>
<text text-anchor="start" x="847.2258" y="-15.4" font-family="sans-serif" font-size="14.00" fill="#000000"> &#160;Exports</text>
<g id="clust1" class="cluster">
<title>cluster_CoreModule</title>
<polygon fill="none" stroke="#000000" stroke-dasharray="1,5" points="8,-70 8,-195 1323,-195 1323,-70 8,-70"/>
</g>
<g id="clust3" class="cluster">
<title>cluster_CoreModule_imports</title>
<polygon fill="none" stroke="#000000" points="885,-78 885,-130 1315,-130 1315,-78 885,-78"/>
</g>
<g id="clust6" class="cluster">
<title>cluster_CoreModule_providers</title>
<polygon fill="none" stroke="#000000" points="16,-78 16,-130 877,-130 877,-78 16,-78"/>
</g>
<!-- NavigatorModule -->
<g id="node1" class="node">
<title>NavigatorModule</title>
<polygon fill="#8dd3c7" stroke="#000000" points="1306.5284,-122 1303.5284,-126 1282.5284,-126 1279.5284,-122 1191.4716,-122 1191.4716,-86 1306.5284,-86 1306.5284,-122"/>
<text text-anchor="middle" x="1249" y="-99.8" font-family="Times,serif" font-size="14.00" fill="#000000">NavigatorModule</text>
</g>
<!-- CoreModule -->
<g id="node4" class="node">
<title>CoreModule</title>
<polygon fill="#8dd3c7" stroke="#000000" points="743.2619,-187 740.2619,-191 719.2619,-191 716.2619,-187 656.7381,-187 656.7381,-151 743.2619,-151 743.2619,-187"/>
<text text-anchor="middle" x="700" y="-164.8" font-family="Times,serif" font-size="14.00" fill="#000000">CoreModule</text>
</g>
<!-- NavigatorModule&#45;&gt;CoreModule -->
<g id="edge1" class="edge">
<title>NavigatorModule&#45;&gt;CoreModule</title>
<path fill="none" stroke="#000000" d="M1249,-122.2921C1249,-144.2057 1249,-178 1249,-178 1249,-178 753.538,-178 753.538,-178"/>
<polygon fill="#000000" stroke="#000000" points="753.538,-174.5001 743.538,-178 753.538,-181.5001 753.538,-174.5001"/>
</g>
<!-- NgxsSocketioPluginModule -->
<g id="node2" class="node">
<title>NgxsSocketioPluginModule</title>
<polygon fill="#8dd3c7" stroke="#000000" points="1173.1581,-122 1170.1581,-126 1149.1581,-126 1146.1581,-122 998.8419,-122 998.8419,-86 1173.1581,-86 1173.1581,-122"/>
<text text-anchor="middle" x="1086" y="-99.8" font-family="Times,serif" font-size="14.00" fill="#000000">NgxsSocketioPluginModule</text>
</g>
<!-- NgxsSocketioPluginModule&#45;&gt;CoreModule -->
<g id="edge2" class="edge">
<title>NgxsSocketioPluginModule&#45;&gt;CoreModule</title>
<path fill="none" stroke="#000000" d="M1086,-122.1061C1086,-141.3391 1086,-169 1086,-169 1086,-169 753.5288,-169 753.5288,-169"/>
<polygon fill="#000000" stroke="#000000" points="753.5288,-165.5001 743.5288,-169 753.5287,-172.5001 753.5288,-165.5001"/>
</g>
<!-- AuthModule -->
<g id="node3" class="node">
<title>AuthModule</title>
<polygon fill="#8dd3c7" stroke="#000000" points="980.5482,-122 977.5482,-126 956.5482,-126 953.5482,-122 893.4518,-122 893.4518,-86 980.5482,-86 980.5482,-122"/>
<text text-anchor="middle" x="937" y="-99.8" font-family="Times,serif" font-size="14.00" fill="#000000">AuthModule</text>
</g>
<!-- AuthModule&#45;&gt;CoreModule -->
<g id="edge3" class="edge">
<title>AuthModule&#45;&gt;CoreModule</title>
<path fill="none" stroke="#000000" d="M937,-122.027C937,-138.3976 937,-160 937,-160 937,-160 753.4695,-160 753.4695,-160"/>
<polygon fill="#000000" stroke="#000000" points="753.4695,-156.5001 743.4695,-160 753.4694,-163.5001 753.4695,-156.5001"/>
</g>
<!-- PageTitleService -->
<g id="node5" class="node">
<title>PageTitleService</title>
<ellipse fill="#fdb462" stroke="#000000" cx="792" cy="-104" rx="76.9985" ry="18"/>
<text text-anchor="middle" x="792" y="-99.8" font-family="Times,serif" font-size="14.00" fill="#000000">PageTitleService</text>
</g>
<!-- PageTitleService&#45;&gt;CoreModule -->
<g id="edge4" class="edge">
<title>PageTitleService&#45;&gt;CoreModule</title>
<path fill="none" stroke="#000000" d="M729.1908,-114.4434C729.1908,-114.4434 729.1908,-140.9681 729.1908,-140.9681"/>
<polygon fill="#000000" stroke="#000000" points="725.6909,-140.968 729.1908,-150.9681 732.6909,-140.9681 725.6909,-140.968"/>
</g>
<!-- MediaQueryService -->
<g id="node6" class="node">
<title>MediaQueryService</title>
<ellipse fill="#fdb462" stroke="#000000" cx="608" cy="-104" rx="88.5831" ry="18"/>
<text text-anchor="middle" x="608" y="-99.8" font-family="Times,serif" font-size="14.00" fill="#000000">MediaQueryService</text>
</g>
<!-- MediaQueryService&#45;&gt;CoreModule -->
<g id="edge5" class="edge">
<title>MediaQueryService&#45;&gt;CoreModule</title>
<path fill="none" stroke="#000000" d="M676.7053,-115.6207C676.7053,-115.6207 676.7053,-140.8534 676.7053,-140.8534"/>
<polygon fill="#000000" stroke="#000000" points="673.2054,-140.8533 676.7053,-150.8534 680.2054,-140.8534 673.2054,-140.8533"/>
</g>
<!-- ServiceWorkerService -->
<g id="node7" class="node">
<title>ServiceWorkerService</title>
<ellipse fill="#fdb462" stroke="#000000" cx="403" cy="-104" rx="98.3715" ry="18"/>
<text text-anchor="middle" x="403" y="-99.8" font-family="Times,serif" font-size="14.00" fill="#000000">ServiceWorkerService</text>
</g>
<!-- ServiceWorkerService&#45;&gt;CoreModule -->
<g id="edge6" class="edge">
<title>ServiceWorkerService&#45;&gt;CoreModule</title>
<path fill="none" stroke="#000000" d="M403,-122.027C403,-138.3976 403,-160 403,-160 403,-160 646.4956,-160 646.4956,-160"/>
<polygon fill="#000000" stroke="#000000" points="646.4956,-163.5001 656.4956,-160 646.4955,-156.5001 646.4956,-163.5001"/>
</g>
<!-- EventBus -->
<g id="node8" class="node">
<title>EventBus</title>
<ellipse fill="#fdb462" stroke="#000000" cx="238" cy="-104" rx="48.6752" ry="18"/>
<text text-anchor="middle" x="238" y="-99.8" font-family="Times,serif" font-size="14.00" fill="#000000">EventBus</text>
</g>
<!-- EventBus&#45;&gt;CoreModule -->
<g id="edge7" class="edge">
<title>EventBus&#45;&gt;CoreModule</title>
<path fill="none" stroke="#000000" d="M238,-122.1061C238,-141.3391 238,-169 238,-169 238,-169 646.5362,-169 646.5362,-169"/>
<polygon fill="#000000" stroke="#000000" points="646.5362,-172.5001 656.5362,-169 646.5361,-165.5001 646.5362,-172.5001"/>
</g>
<!-- ErrorInterceptor -->
<g id="node9" class="node">
<title>ErrorInterceptor</title>
<ellipse fill="#fdb462" stroke="#000000" cx="98" cy="-104" rx="73.5329" ry="18"/>
<text text-anchor="middle" x="98" y="-99.8" font-family="Times,serif" font-size="14.00" fill="#000000">ErrorInterceptor</text>
</g>
<!-- ErrorInterceptor&#45;&gt;CoreModule -->
<g id="edge8" class="edge">
<title>ErrorInterceptor&#45;&gt;CoreModule</title>
<path fill="none" stroke="#000000" d="M98,-122.2921C98,-144.2057 98,-178 98,-178 98,-178 646.7056,-178 646.7056,-178"/>
<polygon fill="#000000" stroke="#000000" points="646.7057,-181.5001 656.7056,-178 646.7056,-174.5001 646.7057,-181.5001"/>
</g>
</g>
</svg>
