<?xml version="1.0" encoding="UTF-8" standalone="no"?>
<!DOCTYPE svg PUBLIC "-//W3C//DTD SVG 1.1//EN"
 "http://www.w3.org/Graphics/SVG/1.1/DTD/svg11.dtd">
<!-- Generated by graphviz version 2.40.1 (20161225.0304)
 -->
<!-- Title: dependencies Pages: 1 -->
<svg width="1011pt" height="233pt"
 viewBox="0.00 0.00 1011.00 233.40" xmlns="http://www.w3.org/2000/svg" xmlns:xlink="http://www.w3.org/1999/xlink">
<g id="graph0" class="graph" transform="scale(1 1) rotate(0) translate(4 229.4)">
<title>dependencies</title>
<polygon fill="#ffffff" stroke="transparent" points="-4,4 -4,-229.4 1007,-229.4 1007,4 -4,4"/>
<text text-anchor="start" x="480.5091" y="-42.4" font-family="sans-serif" font-weight="bold" font-size="14.00" fill="#000000">Legend</text>
<polygon fill="#ffffb3" stroke="transparent" points="267.5,-10 267.5,-30 287.5,-30 287.5,-10 267.5,-10"/>
<text text-anchor="start" x="291.129" y="-15.4" font-family="sans-serif" font-size="14.00" fill="#000000"> &#160;Declarations</text>
<polygon fill="#8dd3c7" stroke="transparent" points="380.5,-10 380.5,-30 400.5,-30 400.5,-10 380.5,-10"/>
<text text-anchor="start" x="404.2251" y="-15.4" font-family="sans-serif" font-size="14.00" fill="#000000"> &#160;Module</text>
<polygon fill="#80b1d3" stroke="transparent" points="466.5,-10 466.5,-30 486.5,-30 486.5,-10 466.5,-10"/>
<text text-anchor="start" x="490.2812" y="-15.4" font-family="sans-serif" font-size="14.00" fill="#000000"> &#160;Bootstrap</text>
<polygon fill="#fdb462" stroke="transparent" points="563.5,-10 563.5,-30 583.5,-30 583.5,-10 563.5,-10"/>
<text text-anchor="start" x="587.1732" y="-15.4" font-family="sans-serif" font-size="14.00" fill="#000000"> &#160;Providers</text>
<polygon fill="#fb8072" stroke="transparent" points="659.5,-10 659.5,-30 679.5,-30 679.5,-10 659.5,-10"/>
<text text-anchor="start" x="683.2258" y="-15.4" font-family="sans-serif" font-size="14.00" fill="#000000"> &#160;Exports</text>
<g id="clust1" class="cluster">
<title>cluster_CoreModule</title>
<polygon fill="none" stroke="#000000" stroke-dasharray="1,5" points="8,-70 8,-217.4 995,-217.4 995,-70 8,-70"/>
</g>
<g id="clust3" class="cluster">
<title>cluster_CoreModule_imports</title>
<polygon fill="none" stroke="#000000" points="885,-78 885,-152.4 987,-152.4 987,-78 885,-78"/>
</g>
<g id="clust6" class="cluster">
<title>cluster_CoreModule_providers</title>
<polygon fill="none" stroke="#000000" points="16,-89.2 16,-141.2 877,-141.2 877,-89.2 16,-89.2"/>
</g>
<!-- . === &#160;? .(, {
 &#160;&#160;&#160;: true
}) : [] -->
<g id="node1" class="node">
<title>. === &#160;? .(, {
 &#160;&#160;&#160;: true
}) : []</title>
<polygon fill="#8dd3c7" stroke="#000000" points="978.7781,-144.6014 975.7781,-148.6014 954.7781,-148.6014 951.7781,-144.6014 893.2219,-144.6014 893.2219,-85.7986 978.7781,-85.7986 978.7781,-144.6014"/>
<text text-anchor="middle" x="936" y="-127.8" font-family="Times,serif" font-size="14.00" fill="#000000">. === &#160;? .(, {</text>
<text text-anchor="middle" x="936" y="-111" font-family="Times,serif" font-size="14.00" fill="#000000"> &#160;&#160;&#160;: true</text>
<text text-anchor="middle" x="936" y="-94.2" font-family="Times,serif" font-size="14.00" fill="#000000">}) : []</text>
</g>
<!-- CoreModule -->
<g id="node2" class="node">
<title>CoreModule</title>
<polygon fill="#8dd3c7" stroke="#000000" points="548.2619,-209.4 545.2619,-213.4 524.2619,-213.4 521.2619,-209.4 461.7381,-209.4 461.7381,-173.4 548.2619,-173.4 548.2619,-209.4"/>
<text text-anchor="middle" x="505" y="-187.2" font-family="Times,serif" font-size="14.00" fill="#000000">CoreModule</text>
</g>
<!-- . === &#160;? .(, {
 &#160;&#160;&#160;: true
}) : []&#45;&gt;CoreModule -->
<g id="edge1" class="edge">
<title>. === &#160;? .(, {
 &#160;&#160;&#160;: true
}) : []&#45;&gt;CoreModule</title>
<path fill="none" stroke="#000000" d="M893.0998,-139.4C790.3556,-139.4 538.6568,-139.4 538.6568,-139.4 538.6568,-139.4 538.6568,-163.2129 538.6568,-163.2129"/>
<polygon fill="#000000" stroke="#000000" points="535.1569,-163.2129 538.6568,-173.2129 542.1569,-163.213 535.1569,-163.2129"/>
</g>
<!-- PageTitleService -->
<g id="node3" class="node">
<title>PageTitleService</title>
<ellipse fill="#fdb462" stroke="#000000" cx="792" cy="-115.2" rx="76.9985" ry="18"/>
<text text-anchor="middle" x="792" y="-111" font-family="Times,serif" font-size="14.00" fill="#000000">PageTitleService</text>
</g>
<!-- PageTitleService&#45;&gt;CoreModule -->
<g id="edge2" class="edge">
<title>PageTitleService&#45;&gt;CoreModule</title>
<path fill="none" stroke="#000000" d="M792,-133.2583C792,-155.7917 792,-191.4 792,-191.4 792,-191.4 558.2775,-191.4 558.2775,-191.4"/>
<polygon fill="#000000" stroke="#000000" points="558.2776,-187.9001 548.2775,-191.4 558.2775,-194.9001 558.2776,-187.9001"/>
</g>
<!-- MediaQueryService -->
<g id="node4" class="node">
<title>MediaQueryService</title>
<ellipse fill="#fdb462" stroke="#000000" cx="608" cy="-115.2" rx="88.5831" ry="18"/>
<text text-anchor="middle" x="608" y="-111" font-family="Times,serif" font-size="14.00" fill="#000000">MediaQueryService</text>
</g>
<!-- MediaQueryService&#45;&gt;CoreModule -->
<g id="edge3" class="edge">
<title>MediaQueryService&#45;&gt;CoreModule</title>
<path fill="none" stroke="#000000" d="M528.9327,-123.6459C528.9327,-123.6459 528.9327,-163.3869 528.9327,-163.3869"/>
<polygon fill="#000000" stroke="#000000" points="525.4328,-163.3869 528.9327,-173.3869 532.4328,-163.3869 525.4328,-163.3869"/>
</g>
<!-- ServiceWorkerService -->
<g id="node5" class="node">
<title>ServiceWorkerService</title>
<ellipse fill="#fdb462" stroke="#000000" cx="403" cy="-115.2" rx="98.3715" ry="18"/>
<text text-anchor="middle" x="403" y="-111" font-family="Times,serif" font-size="14.00" fill="#000000">ServiceWorkerService</text>
</g>
<!-- ServiceWorkerService&#45;&gt;CoreModule -->
<g id="edge4" class="edge">
<title>ServiceWorkerService&#45;&gt;CoreModule</title>
<path fill="none" stroke="#000000" d="M481.5275,-126.1176C481.5275,-126.1176 481.5275,-163.1467 481.5275,-163.1467"/>
<polygon fill="#000000" stroke="#000000" points="478.0276,-163.1467 481.5275,-173.1467 485.0276,-163.1467 478.0276,-163.1467"/>
</g>
<!-- EventBus -->
<g id="node6" class="node">
<title>EventBus</title>
<ellipse fill="#fdb462" stroke="#000000" cx="238" cy="-115.2" rx="48.6752" ry="18"/>
<text text-anchor="middle" x="238" y="-111" font-family="Times,serif" font-size="14.00" fill="#000000">EventBus</text>
</g>
<!-- EventBus&#45;&gt;CoreModule -->
<g id="edge5" class="edge">
<title>EventBus&#45;&gt;CoreModule</title>
<path fill="none" stroke="#000000" d="M238,-133.2782C238,-154.078 238,-185.4 238,-185.4 238,-185.4 451.5076,-185.4 451.5076,-185.4"/>
<polygon fill="#000000" stroke="#000000" points="451.5076,-188.9001 461.5076,-185.4 451.5076,-181.9001 451.5076,-188.9001"/>
</g>
<!-- ErrorInterceptor -->
<g id="node7" class="node">
<title>ErrorInterceptor</title>
<ellipse fill="#fdb462" stroke="#000000" cx="98" cy="-115.2" rx="73.5329" ry="18"/>
<text text-anchor="middle" x="98" y="-111" font-family="Times,serif" font-size="14.00" fill="#000000">ErrorInterceptor</text>
</g>
<!-- ErrorInterceptor&#45;&gt;CoreModule -->
<g id="edge6" class="edge">
<title>ErrorInterceptor&#45;&gt;CoreModule</title>
<path fill="none" stroke="#000000" d="M98,-133.4428C98,-157.6596 98,-197.4 98,-197.4 98,-197.4 451.4439,-197.4 451.4439,-197.4"/>
<polygon fill="#000000" stroke="#000000" points="451.4439,-200.9001 461.4439,-197.4 451.4438,-193.9001 451.4439,-200.9001"/>
</g>
</g>
</svg>
