<?xml version="1.0" encoding="UTF-8" standalone="no"?>
<!DOCTYPE svg PUBLIC "-//W3C//DTD SVG 1.1//EN"
 "http://www.w3.org/Graphics/SVG/1.1/DTD/svg11.dtd">
<!-- Generated by graphviz version 2.40.1 (20161225.0304)
 -->
<!-- Title: dependencies Pages: 1 -->
<svg width="642pt" height="211pt"
 viewBox="0.00 0.00 642.00 211.00" xmlns="http://www.w3.org/2000/svg" xmlns:xlink="http://www.w3.org/1999/xlink">
<g id="graph0" class="graph" transform="scale(1 1) rotate(0) translate(4 207)">
<title>dependencies</title>
<polygon fill="#ffffff" stroke="transparent" points="-4,4 -4,-207 638,-207 638,4 -4,4"/>
<text text-anchor="start" x="296.0091" y="-42.4" font-family="sans-serif" font-weight="bold" font-size="14.00" fill="#000000">Legend</text>
<polygon fill="#ffffb3" stroke="transparent" points="83,-10 83,-30 103,-30 103,-10 83,-10"/>
<text text-anchor="start" x="106.629" y="-15.4" font-family="sans-serif" font-size="14.00" fill="#000000"> &#160;Declarations</text>
<polygon fill="#8dd3c7" stroke="transparent" points="196,-10 196,-30 216,-30 216,-10 196,-10"/>
<text text-anchor="start" x="219.7251" y="-15.4" font-family="sans-serif" font-size="14.00" fill="#000000"> &#160;Module</text>
<polygon fill="#80b1d3" stroke="transparent" points="282,-10 282,-30 302,-30 302,-10 282,-10"/>
<text text-anchor="start" x="305.7812" y="-15.4" font-family="sans-serif" font-size="14.00" fill="#000000"> &#160;Bootstrap</text>
<polygon fill="#fdb462" stroke="transparent" points="379,-10 379,-30 399,-30 399,-10 379,-10"/>
<text text-anchor="start" x="402.6732" y="-15.4" font-family="sans-serif" font-size="14.00" fill="#000000"> &#160;Providers</text>
<polygon fill="#fb8072" stroke="transparent" points="475,-10 475,-30 495,-30 495,-10 475,-10"/>
<text text-anchor="start" x="498.7258" y="-15.4" font-family="sans-serif" font-size="14.00" fill="#000000"> &#160;Exports</text>
<g id="clust1" class="cluster">
<title>cluster_CoreModule</title>
<polygon fill="none" stroke="#000000" stroke-dasharray="1,5" points="8,-70 8,-195 626,-195 626,-70 8,-70"/>
</g>
<g id="clust3" class="cluster">
<title>cluster_CoreModule_imports</title>
<polygon fill="none" stroke="#000000" points="188,-78 188,-130 618,-130 618,-78 188,-78"/>
</g>
<g id="clust6" class="cluster">
<title>cluster_CoreModule_providers</title>
<polygon fill="none" stroke="#000000" points="16,-78 16,-130 180,-130 180,-78 16,-78"/>
</g>
<!-- AuthModule -->
<g id="node1" class="node">
<title>AuthModule</title>
<polygon fill="#8dd3c7" stroke="#000000" points="609.5482,-122 606.5482,-126 585.5482,-126 582.5482,-122 522.4518,-122 522.4518,-86 609.5482,-86 609.5482,-122"/>
<text text-anchor="middle" x="566" y="-99.8" font-family="Times,serif" font-size="14.00" fill="#000000">AuthModule</text>
</g>
<!-- CoreModule -->
<g id="node4" class="node">
<title>CoreModule</title>
<polygon fill="#8dd3c7" stroke="#000000" points="407.2619,-187 404.2619,-191 383.2619,-191 380.2619,-187 320.7381,-187 320.7381,-151 407.2619,-151 407.2619,-187"/>
<text text-anchor="middle" x="364" y="-164.8" font-family="Times,serif" font-size="14.00" fill="#000000">CoreModule</text>
</g>
<!-- AuthModule&#45;&gt;CoreModule -->
<g id="edge1" class="edge">
<title>AuthModule&#45;&gt;CoreModule</title>
<path fill="none" stroke="#000000" d="M566,-122.1061C566,-141.3391 566,-169 566,-169 566,-169 417.3341,-169 417.3341,-169"/>
<polygon fill="#000000" stroke="#000000" points="417.3341,-165.5001 407.3341,-169 417.334,-172.5001 417.3341,-165.5001"/>
</g>
<!-- NavigatorModule -->
<g id="node2" class="node">
<title>NavigatorModule</title>
<polygon fill="#8dd3c7" stroke="#000000" points="503.5284,-122 500.5284,-126 479.5284,-126 476.5284,-122 388.4716,-122 388.4716,-86 503.5284,-86 503.5284,-122"/>
<text text-anchor="middle" x="446" y="-99.8" font-family="Times,serif" font-size="14.00" fill="#000000">NavigatorModule</text>
</g>
<!-- NavigatorModule&#45;&gt;CoreModule -->
<g id="edge2" class="edge">
<title>NavigatorModule&#45;&gt;CoreModule</title>
<path fill="none" stroke="#000000" d="M397.8086,-122.1061C397.8086,-122.1061 397.8086,-140.991 397.8086,-140.991"/>
<polygon fill="#000000" stroke="#000000" points="394.3086,-140.9909 397.8086,-150.991 401.3086,-140.991 394.3086,-140.9909"/>
</g>
<!-- NgxsSocketioPluginModule -->
<g id="node3" class="node">
<title>NgxsSocketioPluginModule</title>
<polygon fill="#8dd3c7" stroke="#000000" points="370.1581,-122 367.1581,-126 346.1581,-126 343.1581,-122 195.8419,-122 195.8419,-86 370.1581,-86 370.1581,-122"/>
<text text-anchor="middle" x="283" y="-99.8" font-family="Times,serif" font-size="14.00" fill="#000000">NgxsSocketioPluginModule</text>
</g>
<!-- NgxsSocketioPluginModule&#45;&gt;CoreModule -->
<g id="edge3" class="edge">
<title>NgxsSocketioPluginModule&#45;&gt;CoreModule</title>
<path fill="none" stroke="#000000" d="M345.4741,-122.1061C345.4741,-122.1061 345.4741,-140.991 345.4741,-140.991"/>
<polygon fill="#000000" stroke="#000000" points="341.9741,-140.9909 345.4741,-150.991 348.9741,-140.991 341.9741,-140.9909"/>
</g>
<!-- ErrorInterceptor -->
<g id="node5" class="node">
<title>ErrorInterceptor</title>
<ellipse fill="#fdb462" stroke="#000000" cx="98" cy="-104" rx="73.5329" ry="18"/>
<text text-anchor="middle" x="98" y="-99.8" font-family="Times,serif" font-size="14.00" fill="#000000">ErrorInterceptor</text>
</g>
<!-- ErrorInterceptor&#45;&gt;CoreModule -->
<g id="edge4" class="edge">
<title>ErrorInterceptor&#45;&gt;CoreModule</title>
<path fill="none" stroke="#000000" d="M98,-122.1061C98,-141.3391 98,-169 98,-169 98,-169 310.6705,-169 310.6705,-169"/>
<polygon fill="#000000" stroke="#000000" points="310.6705,-172.5001 320.6705,-169 310.6705,-165.5001 310.6705,-172.5001"/>
</g>
</g>
</svg>
