<?xml version="1.0" encoding="UTF-8" standalone="no"?>
<!DOCTYPE svg PUBLIC "-//W3C//DTD SVG 1.1//EN"
 "http://www.w3.org/Graphics/SVG/1.1/DTD/svg11.dtd">
<!-- Generated by graphviz version 2.40.1 (20161225.0304)
 -->
<!-- Title: dependencies Pages: 1 -->
<svg width="1373pt" height="211pt"
 viewBox="0.00 0.00 1373.00 211.00" xmlns="http://www.w3.org/2000/svg" xmlns:xlink="http://www.w3.org/1999/xlink">
<g id="graph0" class="graph" transform="scale(1 1) rotate(0) translate(4 207)">
<title>dependencies</title>
<polygon fill="#ffffff" stroke="transparent" points="-4,4 -4,-207 1369,-207 1369,4 -4,4"/>
<text text-anchor="start" x="661.5091" y="-42.4" font-family="sans-serif" font-weight="bold" font-size="14.00" fill="#000000">Legend</text>
<polygon fill="#ffffb3" stroke="transparent" points="448.5,-10 448.5,-30 468.5,-30 468.5,-10 448.5,-10"/>
<text text-anchor="start" x="472.129" y="-15.4" font-family="sans-serif" font-size="14.00" fill="#000000"> &#160;Declarations</text>
<polygon fill="#8dd3c7" stroke="transparent" points="561.5,-10 561.5,-30 581.5,-30 581.5,-10 561.5,-10"/>
<text text-anchor="start" x="585.2251" y="-15.4" font-family="sans-serif" font-size="14.00" fill="#000000"> &#160;Module</text>
<polygon fill="#80b1d3" stroke="transparent" points="647.5,-10 647.5,-30 667.5,-30 667.5,-10 647.5,-10"/>
<text text-anchor="start" x="671.2812" y="-15.4" font-family="sans-serif" font-size="14.00" fill="#000000"> &#160;Bootstrap</text>
<polygon fill="#fdb462" stroke="transparent" points="744.5,-10 744.5,-30 764.5,-30 764.5,-10 744.5,-10"/>
<text text-anchor="start" x="768.1732" y="-15.4" font-family="sans-serif" font-size="14.00" fill="#000000"> &#160;Providers</text>
<polygon fill="#fb8072" stroke="transparent" points="840.5,-10 840.5,-30 860.5,-30 860.5,-10 840.5,-10"/>
<text text-anchor="start" x="864.2258" y="-15.4" font-family="sans-serif" font-size="14.00" fill="#000000"> &#160;Exports</text>
<g id="clust1" class="cluster">
<title>cluster_GridModule</title>
<polygon fill="none" stroke="#000000" stroke-dasharray="1,5" points="8,-70 8,-195 1357,-195 1357,-70 8,-70"/>
</g>
<g id="clust2" class="cluster">
<title>cluster_GridModule_declarations</title>
<polygon fill="none" stroke="#000000" points="821,-78 821,-130 1349,-130 1349,-78 821,-78"/>
</g>
<g id="clust6" class="cluster">
<title>cluster_GridModule_imports</title>
<polygon fill="none" stroke="#000000" points="414,-78 414,-130 813,-130 813,-78 414,-78"/>
</g>
<g id="clust9" class="cluster">
<title>cluster_GridModule_providers</title>
<polygon fill="none" stroke="#000000" points="16,-78 16,-130 406,-130 406,-78 16,-78"/>
</g>
<!-- AccountComponent -->
<g id="node1" class="node">
<title>AccountComponent</title>
<polygon fill="#ffffb3" stroke="#000000" points="1341.259,-122 1212.741,-122 1212.741,-86 1341.259,-86 1341.259,-122"/>
<text text-anchor="middle" x="1277" y="-99.8" font-family="Times,serif" font-size="14.00" fill="#000000">AccountComponent</text>
</g>
<!-- GridModule -->
<g id="node4" class="node">
<title>GridModule</title>
<polygon fill="#8dd3c7" stroke="#000000" points="710.7079,-187 707.7079,-191 686.7079,-191 683.7079,-187 625.2921,-187 625.2921,-151 710.7079,-151 710.7079,-187"/>
<text text-anchor="middle" x="668" y="-164.8" font-family="Times,serif" font-size="14.00" fill="#000000">GridModule</text>
</g>
<!-- AccountComponent&#45;&gt;GridModule -->
<g id="edge1" class="edge">
<title>AccountComponent&#45;&gt;GridModule</title>
<path fill="none" stroke="#000000" d="M1277,-122.2921C1277,-144.2057 1277,-178 1277,-178 1277,-178 720.8237,-178 720.8237,-178"/>
<polygon fill="#000000" stroke="#000000" points="720.8237,-174.5001 710.8237,-178 720.8237,-181.5001 720.8237,-174.5001"/>
</g>
<!-- AccountsGridListComponent -->
<g id="node2" class="node">
<title>AccountsGridListComponent</title>
<polygon fill="#ffffb3" stroke="#000000" points="1194.64,-122 1013.36,-122 1013.36,-86 1194.64,-86 1194.64,-122"/>
<text text-anchor="middle" x="1104" y="-99.8" font-family="Times,serif" font-size="14.00" fill="#000000">AccountsGridListComponent</text>
</g>
<!-- AccountsGridListComponent&#45;&gt;GridModule -->
<g id="edge2" class="edge">
<title>AccountsGridListComponent&#45;&gt;GridModule</title>
<path fill="none" stroke="#000000" d="M1104,-122.1061C1104,-141.3391 1104,-169 1104,-169 1104,-169 720.9986,-169 720.9986,-169"/>
<polygon fill="#000000" stroke="#000000" points="720.9986,-165.5001 710.9986,-169 720.9986,-172.5001 720.9986,-165.5001"/>
</g>
<!-- AccountsTableComponent -->
<g id="node3" class="node">
<title>AccountsTableComponent</title>
<polygon fill="#ffffb3" stroke="#000000" points="995.0758,-122 828.9242,-122 828.9242,-86 995.0758,-86 995.0758,-122"/>
<text text-anchor="middle" x="912" y="-99.8" font-family="Times,serif" font-size="14.00" fill="#000000">AccountsTableComponent</text>
</g>
<!-- AccountsTableComponent&#45;&gt;GridModule -->
<g id="edge3" class="edge">
<title>AccountsTableComponent&#45;&gt;GridModule</title>
<path fill="none" stroke="#000000" d="M912,-122.027C912,-138.3976 912,-160 912,-160 912,-160 720.7808,-160 720.7808,-160"/>
<polygon fill="#000000" stroke="#000000" points="720.7808,-156.5001 710.7808,-160 720.7807,-163.5001 720.7808,-156.5001"/>
</g>
<!-- AppConfirmModule -->
<g id="node5" class="node">
<title>AppConfirmModule</title>
<polygon fill="#8dd3c7" stroke="#000000" points="804.5954,-122 801.5954,-126 780.5954,-126 777.5954,-122 673.4046,-122 673.4046,-86 804.5954,-86 804.5954,-122"/>
<text text-anchor="middle" x="739" y="-99.8" font-family="Times,serif" font-size="14.00" fill="#000000">AppConfirmModule</text>
</g>
<!-- AppConfirmModule&#45;&gt;GridModule -->
<g id="edge4" class="edge">
<title>AppConfirmModule&#45;&gt;GridModule</title>
<path fill="none" stroke="#000000" d="M692.0281,-122.1061C692.0281,-122.1061 692.0281,-140.991 692.0281,-140.991"/>
<polygon fill="#000000" stroke="#000000" points="688.5281,-140.9909 692.0281,-150.991 695.5281,-140.991 688.5281,-140.9909"/>
</g>
<!-- DraggableModule -->
<g id="node6" class="node">
<title>DraggableModule</title>
<polygon fill="#8dd3c7" stroke="#000000" points="655.8515,-122 652.8515,-126 631.8515,-126 628.8515,-122 538.1485,-122 538.1485,-86 655.8515,-86 655.8515,-122"/>
<text text-anchor="middle" x="597" y="-99.8" font-family="Times,serif" font-size="14.00" fill="#000000">DraggableModule</text>
</g>
<!-- DraggableModule&#45;&gt;GridModule -->
<g id="edge5" class="edge">
<title>DraggableModule&#45;&gt;GridModule</title>
<path fill="none" stroke="#000000" d="M640.661,-122.1061C640.661,-122.1061 640.661,-140.991 640.661,-140.991"/>
<polygon fill="#000000" stroke="#000000" points="637.161,-140.9909 640.661,-150.991 644.161,-140.991 637.161,-140.9909"/>
</g>
<!-- SharedModule -->
<g id="node7" class="node">
<title>SharedModule</title>
<polygon fill="#8dd3c7" stroke="#000000" points="520.4231,-122 517.4231,-126 496.4231,-126 493.4231,-122 421.5769,-122 421.5769,-86 520.4231,-86 520.4231,-122"/>
<text text-anchor="middle" x="471" y="-99.8" font-family="Times,serif" font-size="14.00" fill="#000000">SharedModule</text>
</g>
<!-- SharedModule&#45;&gt;GridModule -->
<g id="edge6" class="edge">
<title>SharedModule&#45;&gt;GridModule</title>
<path fill="none" stroke="#000000" d="M471,-122.027C471,-138.3976 471,-160 471,-160 471,-160 615.2539,-160 615.2539,-160"/>
<polygon fill="#000000" stroke="#000000" points="615.254,-163.5001 625.2539,-160 615.2539,-156.5001 615.254,-163.5001"/>
</g>
<!-- AccountService -->
<g id="node8" class="node">
<title>AccountService</title>
<ellipse fill="#fdb462" stroke="#000000" cx="325" cy="-104" rx="72.9121" ry="18"/>
<text text-anchor="middle" x="325" y="-99.8" font-family="Times,serif" font-size="14.00" fill="#000000">AccountService</text>
</g>
<!-- AccountService&#45;&gt;GridModule -->
<g id="edge7" class="edge">
<title>AccountService&#45;&gt;GridModule</title>
<path fill="none" stroke="#000000" d="M325,-122.1061C325,-141.3391 325,-169 325,-169 325,-169 615.2523,-169 615.2523,-169"/>
<polygon fill="#000000" stroke="#000000" points="615.2524,-172.5001 625.2523,-169 615.2523,-165.5001 615.2524,-172.5001"/>
</g>
<!-- RandomAccountService -->
<g id="node9" class="node">
<title>RandomAccountService</title>
<ellipse fill="#fdb462" stroke="#000000" cx="129" cy="-104" rx="105.3605" ry="18"/>
<text text-anchor="middle" x="129" y="-99.8" font-family="Times,serif" font-size="14.00" fill="#000000">RandomAccountService</text>
</g>
<!-- RandomAccountService&#45;&gt;GridModule -->
<g id="edge8" class="edge">
<title>RandomAccountService&#45;&gt;GridModule</title>
<path fill="none" stroke="#000000" d="M129,-122.2921C129,-144.2057 129,-178 129,-178 129,-178 615.255,-178 615.255,-178"/>
<polygon fill="#000000" stroke="#000000" points="615.2551,-181.5001 625.255,-178 615.255,-174.5001 615.2551,-181.5001"/>
</g>
</g>
</svg>
