<?xml version="1.0" encoding="UTF-8" standalone="no"?>
<!DOCTYPE svg PUBLIC "-//W3C//DTD SVG 1.1//EN"
 "http://www.w3.org/Graphics/SVG/1.1/DTD/svg11.dtd">
<!-- Generated by graphviz version 2.40.1 (20161225.0304)
 -->
<!-- Title: dependencies Pages: 1 -->
<svg width="1578pt" height="211pt"
 viewBox="0.00 0.00 1578.00 211.00" xmlns="http://www.w3.org/2000/svg" xmlns:xlink="http://www.w3.org/1999/xlink">
<g id="graph0" class="graph" transform="scale(1 1) rotate(0) translate(4 207)">
<title>dependencies</title>
<polygon fill="#ffffff" stroke="transparent" points="-4,4 -4,-207 1574,-207 1574,4 -4,4"/>
<text text-anchor="start" x="764.0091" y="-42.4" font-family="sans-serif" font-weight="bold" font-size="14.00" fill="#000000">Legend</text>
<polygon fill="#ffffb3" stroke="transparent" points="551,-10 551,-30 571,-30 571,-10 551,-10"/>
<text text-anchor="start" x="574.629" y="-15.4" font-family="sans-serif" font-size="14.00" fill="#000000"> &#160;Declarations</text>
<polygon fill="#8dd3c7" stroke="transparent" points="664,-10 664,-30 684,-30 684,-10 664,-10"/>
<text text-anchor="start" x="687.7251" y="-15.4" font-family="sans-serif" font-size="14.00" fill="#000000"> &#160;Module</text>
<polygon fill="#80b1d3" stroke="transparent" points="750,-10 750,-30 770,-30 770,-10 750,-10"/>
<text text-anchor="start" x="773.7812" y="-15.4" font-family="sans-serif" font-size="14.00" fill="#000000"> &#160;Bootstrap</text>
<polygon fill="#fdb462" stroke="transparent" points="847,-10 847,-30 867,-30 867,-10 847,-10"/>
<text text-anchor="start" x="870.6732" y="-15.4" font-family="sans-serif" font-size="14.00" fill="#000000"> &#160;Providers</text>
<polygon fill="#fb8072" stroke="transparent" points="943,-10 943,-30 963,-30 963,-10 943,-10"/>
<text text-anchor="start" x="966.7258" y="-15.4" font-family="sans-serif" font-size="14.00" fill="#000000"> &#160;Exports</text>
<g id="clust1" class="cluster">
<title>cluster_GridModule</title>
<polygon fill="none" stroke="#000000" stroke-dasharray="1,5" points="8,-70 8,-195 1562,-195 1562,-70 8,-70"/>
</g>
<g id="clust2" class="cluster">
<title>cluster_GridModule_declarations</title>
<polygon fill="none" stroke="#000000" points="821,-78 821,-130 1554,-130 1554,-78 821,-78"/>
</g>
<g id="clust7" class="cluster">
<title>cluster_GridModule_imports</title>
<polygon fill="none" stroke="#000000" points="414,-78 414,-130 813,-130 813,-78 414,-78"/>
</g>
<g id="clust10" class="cluster">
<title>cluster_GridModule_providers</title>
<polygon fill="none" stroke="#000000" points="16,-78 16,-130 406,-130 406,-78 16,-78"/>
</g>
<!-- AccountDetailComponent -->
<g id="node1" class="node">
<title>AccountDetailComponent</title>
<polygon fill="#ffffb3" stroke="#000000" points="1546.4664,-122 1383.5336,-122 1383.5336,-86 1546.4664,-86 1546.4664,-122"/>
<text text-anchor="middle" x="1465" y="-99.8" font-family="Times,serif" font-size="14.00" fill="#000000">AccountDetailComponent</text>
</g>
<!-- GridModule -->
<g id="node5" class="node">
<title>GridModule</title>
<polygon fill="#8dd3c7" stroke="#000000" points="781.7079,-187 778.7079,-191 757.7079,-191 754.7079,-187 696.2921,-187 696.2921,-151 781.7079,-151 781.7079,-187"/>
<text text-anchor="middle" x="739" y="-164.8" font-family="Times,serif" font-size="14.00" fill="#000000">GridModule</text>
</g>
<!-- AccountDetailComponent&#45;&gt;GridModule -->
<g id="edge1" class="edge">
<title>AccountDetailComponent&#45;&gt;GridModule</title>
<path fill="none" stroke="#000000" d="M1465,-122.0109C1465,-144.4852 1465,-180 1465,-180 1465,-180 791.7042,-180 791.7042,-180"/>
<polygon fill="#000000" stroke="#000000" points="791.7042,-176.5001 781.7042,-180 791.7041,-183.5001 791.7042,-176.5001"/>
</g>
<!-- AccountEditComponent -->
<g id="node2" class="node">
<title>AccountEditComponent</title>
<polygon fill="#ffffb3" stroke="#000000" points="1365.0926,-122 1212.9074,-122 1212.9074,-86 1365.0926,-86 1365.0926,-122"/>
<text text-anchor="middle" x="1289" y="-99.8" font-family="Times,serif" font-size="14.00" fill="#000000">AccountEditComponent</text>
</g>
<!-- AccountEditComponent&#45;&gt;GridModule -->
<g id="edge2" class="edge">
<title>AccountEditComponent&#45;&gt;GridModule</title>
<path fill="none" stroke="#000000" d="M1289,-122.1289C1289,-142.5724 1289,-173 1289,-173 1289,-173 791.6999,-173 791.6999,-173"/>
<polygon fill="#000000" stroke="#000000" points="791.7,-169.5001 781.6999,-173 791.6999,-176.5001 791.7,-169.5001"/>
</g>
<!-- AccountsGridListComponent -->
<g id="node3" class="node">
<title>AccountsGridListComponent</title>
<polygon fill="#ffffb3" stroke="#000000" points="1194.64,-122 1013.36,-122 1013.36,-86 1194.64,-86 1194.64,-122"/>
<text text-anchor="middle" x="1104" y="-99.8" font-family="Times,serif" font-size="14.00" fill="#000000">AccountsGridListComponent</text>
</g>
<!-- AccountsGridListComponent&#45;&gt;GridModule -->
<g id="edge3" class="edge">
<title>AccountsGridListComponent&#45;&gt;GridModule</title>
<path fill="none" stroke="#000000" d="M1104,-122.2667C1104,-140.5552 1104,-166 1104,-166 1104,-166 791.9435,-166 791.9435,-166"/>
<polygon fill="#000000" stroke="#000000" points="791.9435,-162.5001 781.9435,-166 791.9434,-169.5001 791.9435,-162.5001"/>
</g>
<!-- AccountsTableComponent -->
<g id="node4" class="node">
<title>AccountsTableComponent</title>
<polygon fill="#ffffb3" stroke="#000000" points="995.0758,-122 828.9242,-122 828.9242,-86 995.0758,-86 995.0758,-122"/>
<text text-anchor="middle" x="912" y="-99.8" font-family="Times,serif" font-size="14.00" fill="#000000">AccountsTableComponent</text>
</g>
<!-- AccountsTableComponent&#45;&gt;GridModule -->
<g id="edge4" class="edge">
<title>AccountsTableComponent&#45;&gt;GridModule</title>
<path fill="none" stroke="#000000" d="M912,-122.0091C912,-138.0494 912,-159 912,-159 912,-159 791.7641,-159 791.7641,-159"/>
<polygon fill="#000000" stroke="#000000" points="791.7641,-155.5001 781.7641,-159 791.764,-162.5001 791.7641,-155.5001"/>
</g>
<!-- AppConfirmModule -->
<g id="node6" class="node">
<title>AppConfirmModule</title>
<polygon fill="#8dd3c7" stroke="#000000" points="804.5954,-122 801.5954,-126 780.5954,-126 777.5954,-122 673.4046,-122 673.4046,-86 804.5954,-86 804.5954,-122"/>
<text text-anchor="middle" x="739" y="-99.8" font-family="Times,serif" font-size="14.00" fill="#000000">AppConfirmModule</text>
</g>
<!-- AppConfirmModule&#45;&gt;GridModule -->
<g id="edge5" class="edge">
<title>AppConfirmModule&#45;&gt;GridModule</title>
<path fill="none" stroke="#000000" d="M739,-122.1061C739,-122.1061 739,-140.991 739,-140.991"/>
<polygon fill="#000000" stroke="#000000" points="735.5001,-140.9909 739,-150.991 742.5001,-140.991 735.5001,-140.9909"/>
</g>
<!-- DraggableModule -->
<g id="node7" class="node">
<title>DraggableModule</title>
<polygon fill="#8dd3c7" stroke="#000000" points="655.8515,-122 652.8515,-126 631.8515,-126 628.8515,-122 538.1485,-122 538.1485,-86 655.8515,-86 655.8515,-122"/>
<text text-anchor="middle" x="597" y="-99.8" font-family="Times,serif" font-size="14.00" fill="#000000">DraggableModule</text>
</g>
<!-- DraggableModule&#45;&gt;GridModule -->
<g id="edge6" class="edge">
<title>DraggableModule&#45;&gt;GridModule</title>
<path fill="none" stroke="#000000" d="M597,-122.0091C597,-138.0494 597,-159 597,-159 597,-159 686.3953,-159 686.3953,-159"/>
<polygon fill="#000000" stroke="#000000" points="686.3954,-162.5001 696.3953,-159 686.3953,-155.5001 686.3954,-162.5001"/>
</g>
<!-- SharedModule -->
<g id="node8" class="node">
<title>SharedModule</title>
<polygon fill="#8dd3c7" stroke="#000000" points="520.4231,-122 517.4231,-126 496.4231,-126 493.4231,-122 421.5769,-122 421.5769,-86 520.4231,-86 520.4231,-122"/>
<text text-anchor="middle" x="471" y="-99.8" font-family="Times,serif" font-size="14.00" fill="#000000">SharedModule</text>
</g>
<!-- SharedModule&#45;&gt;GridModule -->
<g id="edge7" class="edge">
<title>SharedModule&#45;&gt;GridModule</title>
<path fill="none" stroke="#000000" d="M471,-122.2667C471,-140.5552 471,-166 471,-166 471,-166 686.2383,-166 686.2383,-166"/>
<polygon fill="#000000" stroke="#000000" points="686.2383,-169.5001 696.2383,-166 686.2382,-162.5001 686.2383,-169.5001"/>
</g>
<!-- AccountService -->
<g id="node9" class="node">
<title>AccountService</title>
<ellipse fill="#fdb462" stroke="#000000" cx="325" cy="-104" rx="72.9121" ry="18"/>
<text text-anchor="middle" x="325" y="-99.8" font-family="Times,serif" font-size="14.00" fill="#000000">AccountService</text>
</g>
<!-- AccountService&#45;&gt;GridModule -->
<g id="edge8" class="edge">
<title>AccountService&#45;&gt;GridModule</title>
<path fill="none" stroke="#000000" d="M325,-122.1289C325,-142.5724 325,-173 325,-173 325,-173 686.254,-173 686.254,-173"/>
<polygon fill="#000000" stroke="#000000" points="686.2541,-176.5001 696.254,-173 686.254,-169.5001 686.2541,-176.5001"/>
</g>
<!-- RandomAccountService -->
<g id="node10" class="node">
<title>RandomAccountService</title>
<ellipse fill="#fdb462" stroke="#000000" cx="129" cy="-104" rx="105.3605" ry="18"/>
<text text-anchor="middle" x="129" y="-99.8" font-family="Times,serif" font-size="14.00" fill="#000000">RandomAccountService</text>
</g>
<!-- RandomAccountService&#45;&gt;GridModule -->
<g id="edge9" class="edge">
<title>RandomAccountService&#45;&gt;GridModule</title>
<path fill="none" stroke="#000000" d="M129,-122.0109C129,-144.4852 129,-180 129,-180 129,-180 686.106,-180 686.106,-180"/>
<polygon fill="#000000" stroke="#000000" points="686.106,-183.5001 696.106,-180 686.1059,-176.5001 686.106,-183.5001"/>
</g>
</g>
</svg>
