<?xml version="1.0" encoding="UTF-8" standalone="no"?>
<!DOCTYPE svg PUBLIC "-//W3C//DTD SVG 1.1//EN"
 "http://www.w3.org/Graphics/SVG/1.1/DTD/svg11.dtd">
<!-- Generated by graphviz version 2.40.1 (20161225.0304)
 -->
<!-- Title: dependencies Pages: 1 -->
<svg width="1443pt" height="211pt"
 viewBox="0.00 0.00 1443.00 211.00" xmlns="http://www.w3.org/2000/svg" xmlns:xlink="http://www.w3.org/1999/xlink">
<g id="graph0" class="graph" transform="scale(1 1) rotate(0) translate(4 207)">
<title>dependencies</title>
<polygon fill="#ffffff" stroke="transparent" points="-4,4 -4,-207 1439,-207 1439,4 -4,4"/>
<text text-anchor="start" x="696.5091" y="-42.4" font-family="sans-serif" font-weight="bold" font-size="14.00" fill="#000000">Legend</text>
<polygon fill="#ffffb3" stroke="transparent" points="483.5,-10 483.5,-30 503.5,-30 503.5,-10 483.5,-10"/>
<text text-anchor="start" x="507.129" y="-15.4" font-family="sans-serif" font-size="14.00" fill="#000000"> &#160;Declarations</text>
<polygon fill="#8dd3c7" stroke="transparent" points="596.5,-10 596.5,-30 616.5,-30 616.5,-10 596.5,-10"/>
<text text-anchor="start" x="620.2251" y="-15.4" font-family="sans-serif" font-size="14.00" fill="#000000"> &#160;Module</text>
<polygon fill="#80b1d3" stroke="transparent" points="682.5,-10 682.5,-30 702.5,-30 702.5,-10 682.5,-10"/>
<text text-anchor="start" x="706.2812" y="-15.4" font-family="sans-serif" font-size="14.00" fill="#000000"> &#160;Bootstrap</text>
<polygon fill="#fdb462" stroke="transparent" points="779.5,-10 779.5,-30 799.5,-30 799.5,-10 779.5,-10"/>
<text text-anchor="start" x="803.1732" y="-15.4" font-family="sans-serif" font-size="14.00" fill="#000000"> &#160;Providers</text>
<polygon fill="#fb8072" stroke="transparent" points="875.5,-10 875.5,-30 895.5,-30 895.5,-10 875.5,-10"/>
<text text-anchor="start" x="899.2258" y="-15.4" font-family="sans-serif" font-size="14.00" fill="#000000"> &#160;Exports</text>
<g id="clust1" class="cluster">
<title>cluster_GridModule</title>
<polygon fill="none" stroke="#000000" stroke-dasharray="1,5" points="8,-70 8,-195 1427,-195 1427,-70 8,-70"/>
</g>
<g id="clust2" class="cluster">
<title>cluster_GridModule_declarations</title>
<polygon fill="none" stroke="#000000" points="686,-78 686,-130 1419,-130 1419,-78 686,-78"/>
</g>
<g id="clust7" class="cluster">
<title>cluster_GridModule_imports</title>
<polygon fill="none" stroke="#000000" points="414,-78 414,-130 678,-130 678,-78 414,-78"/>
</g>
<g id="clust10" class="cluster">
<title>cluster_GridModule_providers</title>
<polygon fill="none" stroke="#000000" points="16,-78 16,-130 406,-130 406,-78 16,-78"/>
</g>
<!-- AccountDetailComponent -->
<g id="node1" class="node">
<title>AccountDetailComponent</title>
<polygon fill="#ffffb3" stroke="#000000" points="1411.4664,-122 1248.5336,-122 1248.5336,-86 1411.4664,-86 1411.4664,-122"/>
<text text-anchor="middle" x="1330" y="-99.8" font-family="Times,serif" font-size="14.00" fill="#000000">AccountDetailComponent</text>
</g>
<!-- GridModule -->
<g id="node5" class="node">
<title>GridModule</title>
<polygon fill="#8dd3c7" stroke="#000000" points="732.7079,-187 729.7079,-191 708.7079,-191 705.7079,-187 647.2921,-187 647.2921,-151 732.7079,-151 732.7079,-187"/>
<text text-anchor="middle" x="690" y="-164.8" font-family="Times,serif" font-size="14.00" fill="#000000">GridModule</text>
</g>
<!-- AccountDetailComponent&#45;&gt;GridModule -->
<g id="edge1" class="edge">
<title>AccountDetailComponent&#45;&gt;GridModule</title>
<path fill="none" stroke="#000000" d="M1330,-122.2921C1330,-144.2057 1330,-178 1330,-178 1330,-178 742.986,-178 742.986,-178"/>
<polygon fill="#000000" stroke="#000000" points="742.986,-174.5001 732.986,-178 742.9859,-181.5001 742.986,-174.5001"/>
</g>
<!-- AccountEditComponent -->
<g id="node2" class="node">
<title>AccountEditComponent</title>
<polygon fill="#ffffb3" stroke="#000000" points="1230.0926,-122 1077.9074,-122 1077.9074,-86 1230.0926,-86 1230.0926,-122"/>
<text text-anchor="middle" x="1154" y="-99.8" font-family="Times,serif" font-size="14.00" fill="#000000">AccountEditComponent</text>
</g>
<!-- AccountEditComponent&#45;&gt;GridModule -->
<g id="edge2" class="edge">
<title>AccountEditComponent&#45;&gt;GridModule</title>
<path fill="none" stroke="#000000" d="M1154,-122.1061C1154,-141.3391 1154,-169 1154,-169 1154,-169 742.8203,-169 742.8203,-169"/>
<polygon fill="#000000" stroke="#000000" points="742.8203,-165.5001 732.8203,-169 742.8203,-172.5001 742.8203,-165.5001"/>
</g>
<!-- AccountsGridListComponent -->
<g id="node3" class="node">
<title>AccountsGridListComponent</title>
<polygon fill="#ffffb3" stroke="#000000" points="1059.64,-122 878.36,-122 878.36,-86 1059.64,-86 1059.64,-122"/>
<text text-anchor="middle" x="969" y="-99.8" font-family="Times,serif" font-size="14.00" fill="#000000">AccountsGridListComponent</text>
</g>
<!-- AccountsGridListComponent&#45;&gt;GridModule -->
<g id="edge3" class="edge">
<title>AccountsGridListComponent&#45;&gt;GridModule</title>
<path fill="none" stroke="#000000" d="M969,-122.027C969,-138.3976 969,-160 969,-160 969,-160 742.6778,-160 742.6778,-160"/>
<polygon fill="#000000" stroke="#000000" points="742.6778,-156.5001 732.6778,-160 742.6778,-163.5001 742.6778,-156.5001"/>
</g>
<!-- AccountsTableComponent -->
<g id="node4" class="node">
<title>AccountsTableComponent</title>
<polygon fill="#ffffb3" stroke="#000000" points="860.0758,-122 693.9242,-122 693.9242,-86 860.0758,-86 860.0758,-122"/>
<text text-anchor="middle" x="777" y="-99.8" font-family="Times,serif" font-size="14.00" fill="#000000">AccountsTableComponent</text>
</g>
<!-- AccountsTableComponent&#45;&gt;GridModule -->
<g id="edge4" class="edge">
<title>AccountsTableComponent&#45;&gt;GridModule</title>
<path fill="none" stroke="#000000" d="M713.283,-122.1061C713.283,-122.1061 713.283,-140.991 713.283,-140.991"/>
<polygon fill="#000000" stroke="#000000" points="709.783,-140.9909 713.283,-150.991 716.783,-140.991 709.783,-140.9909"/>
</g>
<!-- AppConfirmModule -->
<g id="node6" class="node">
<title>AppConfirmModule</title>
<polygon fill="#8dd3c7" stroke="#000000" points="669.5954,-122 666.5954,-126 645.5954,-126 642.5954,-122 538.4046,-122 538.4046,-86 669.5954,-86 669.5954,-122"/>
<text text-anchor="middle" x="604" y="-99.8" font-family="Times,serif" font-size="14.00" fill="#000000">AppConfirmModule</text>
</g>
<!-- AppConfirmModule&#45;&gt;GridModule -->
<g id="edge5" class="edge">
<title>AppConfirmModule&#45;&gt;GridModule</title>
<path fill="none" stroke="#000000" d="M658.472,-122.1061C658.472,-122.1061 658.472,-140.991 658.472,-140.991"/>
<polygon fill="#000000" stroke="#000000" points="654.972,-140.9909 658.472,-150.991 661.972,-140.991 654.972,-140.9909"/>
</g>
<!-- SharedModule -->
<g id="node7" class="node">
<title>SharedModule</title>
<polygon fill="#8dd3c7" stroke="#000000" points="520.4231,-122 517.4231,-126 496.4231,-126 493.4231,-122 421.5769,-122 421.5769,-86 520.4231,-86 520.4231,-122"/>
<text text-anchor="middle" x="471" y="-99.8" font-family="Times,serif" font-size="14.00" fill="#000000">SharedModule</text>
</g>
<!-- SharedModule&#45;&gt;GridModule -->
<g id="edge6" class="edge">
<title>SharedModule&#45;&gt;GridModule</title>
<path fill="none" stroke="#000000" d="M471,-122.027C471,-138.3976 471,-160 471,-160 471,-160 637.2547,-160 637.2547,-160"/>
<polygon fill="#000000" stroke="#000000" points="637.2547,-163.5001 647.2547,-160 637.2547,-156.5001 637.2547,-163.5001"/>
</g>
<!-- AccountService -->
<g id="node8" class="node">
<title>AccountService</title>
<ellipse fill="#fdb462" stroke="#000000" cx="325" cy="-104" rx="72.9121" ry="18"/>
<text text-anchor="middle" x="325" y="-99.8" font-family="Times,serif" font-size="14.00" fill="#000000">AccountService</text>
</g>
<!-- AccountService&#45;&gt;GridModule -->
<g id="edge7" class="edge">
<title>AccountService&#45;&gt;GridModule</title>
<path fill="none" stroke="#000000" d="M325,-122.1061C325,-141.3391 325,-169 325,-169 325,-169 637.0565,-169 637.0565,-169"/>
<polygon fill="#000000" stroke="#000000" points="637.0566,-172.5001 647.0565,-169 637.0565,-165.5001 637.0566,-172.5001"/>
</g>
<!-- RandomAccountService -->
<g id="node9" class="node">
<title>RandomAccountService</title>
<ellipse fill="#fdb462" stroke="#000000" cx="129" cy="-104" rx="105.3605" ry="18"/>
<text text-anchor="middle" x="129" y="-99.8" font-family="Times,serif" font-size="14.00" fill="#000000">RandomAccountService</text>
</g>
<!-- RandomAccountService&#45;&gt;GridModule -->
<g id="edge8" class="edge">
<title>RandomAccountService&#45;&gt;GridModule</title>
<path fill="none" stroke="#000000" d="M129,-122.2921C129,-144.2057 129,-178 129,-178 129,-178 637.3734,-178 637.3734,-178"/>
<polygon fill="#000000" stroke="#000000" points="637.3734,-181.5001 647.3734,-178 637.3733,-174.5001 637.3734,-181.5001"/>
</g>
</g>
</svg>
