<?xml version="1.0" encoding="UTF-8" standalone="no"?>
<!DOCTYPE svg PUBLIC "-//W3C//DTD SVG 1.1//EN"
 "http://www.w3.org/Graphics/SVG/1.1/DTD/svg11.dtd">
<!-- Generated by graphviz version 2.40.1 (20161225.0304)
 -->
<!-- Title: dependencies Pages: 1 -->
<svg width="1179pt" height="211pt"
 viewBox="0.00 0.00 1179.00 211.00" xmlns="http://www.w3.org/2000/svg" xmlns:xlink="http://www.w3.org/1999/xlink">
<g id="graph0" class="graph" transform="scale(1 1) rotate(0) translate(4 207)">
<title>dependencies</title>
<polygon fill="#ffffff" stroke="transparent" points="-4,4 -4,-207 1175,-207 1175,4 -4,4"/>
<text text-anchor="start" x="564.5091" y="-42.4" font-family="sans-serif" font-weight="bold" font-size="14.00" fill="#000000">Legend</text>
<polygon fill="#ffffb3" stroke="transparent" points="351.5,-10 351.5,-30 371.5,-30 371.5,-10 351.5,-10"/>
<text text-anchor="start" x="375.129" y="-15.4" font-family="sans-serif" font-size="14.00" fill="#000000"> &#160;Declarations</text>
<polygon fill="#8dd3c7" stroke="transparent" points="464.5,-10 464.5,-30 484.5,-30 484.5,-10 464.5,-10"/>
<text text-anchor="start" x="488.2251" y="-15.4" font-family="sans-serif" font-size="14.00" fill="#000000"> &#160;Module</text>
<polygon fill="#80b1d3" stroke="transparent" points="550.5,-10 550.5,-30 570.5,-30 570.5,-10 550.5,-10"/>
<text text-anchor="start" x="574.2812" y="-15.4" font-family="sans-serif" font-size="14.00" fill="#000000"> &#160;Bootstrap</text>
<polygon fill="#fdb462" stroke="transparent" points="647.5,-10 647.5,-30 667.5,-30 667.5,-10 647.5,-10"/>
<text text-anchor="start" x="671.1732" y="-15.4" font-family="sans-serif" font-size="14.00" fill="#000000"> &#160;Providers</text>
<polygon fill="#fb8072" stroke="transparent" points="743.5,-10 743.5,-30 763.5,-30 763.5,-10 743.5,-10"/>
<text text-anchor="start" x="767.2258" y="-15.4" font-family="sans-serif" font-size="14.00" fill="#000000"> &#160;Exports</text>
<g id="clust1" class="cluster">
<title>cluster_DashboardModule</title>
<polygon fill="none" stroke="#000000" stroke-dasharray="1,5" points="8,-70 8,-195 1163,-195 1163,-70 8,-70"/>
</g>
<g id="clust2" class="cluster">
<title>cluster_DashboardModule_declarations</title>
<polygon fill="none" stroke="#000000" points="653,-78 653,-130 1155,-130 1155,-78 653,-78"/>
</g>
<g id="clust6" class="cluster">
<title>cluster_DashboardModule_imports</title>
<polygon fill="none" stroke="#000000" points="16,-78 16,-130 645,-130 645,-78 16,-78"/>
</g>
<!-- DashboardLayoutComponent -->
<g id="node1" class="node">
<title>DashboardLayoutComponent</title>
<polygon fill="#ffffb3" stroke="#000000" points="1146.6316,-122 965.3684,-122 965.3684,-86 1146.6316,-86 1146.6316,-122"/>
<text text-anchor="middle" x="1056" y="-99.8" font-family="Times,serif" font-size="14.00" fill="#000000">DashboardLayoutComponent</text>
</g>
<!-- DashboardModule -->
<g id="node4" class="node">
<title>DashboardModule</title>
<polygon fill="#8dd3c7" stroke="#000000" points="574.191,-187 571.191,-191 550.191,-191 547.191,-187 453.809,-187 453.809,-151 574.191,-151 574.191,-187"/>
<text text-anchor="middle" x="514" y="-164.8" font-family="Times,serif" font-size="14.00" fill="#000000">DashboardModule</text>
</g>
<!-- DashboardLayoutComponent&#45;&gt;DashboardModule -->
<g id="edge1" class="edge">
<title>DashboardLayoutComponent&#45;&gt;DashboardModule</title>
<path fill="none" stroke="#000000" d="M1056,-122.2921C1056,-144.2057 1056,-178 1056,-178 1056,-178 584.3353,-178 584.3353,-178"/>
<polygon fill="#000000" stroke="#000000" points="584.3353,-174.5001 574.3353,-178 584.3352,-181.5001 584.3353,-174.5001"/>
</g>
<!-- OverviewComponent -->
<g id="node2" class="node">
<title>OverviewComponent</title>
<polygon fill="#ffffb3" stroke="#000000" points="947.0268,-122 810.9732,-122 810.9732,-86 947.0268,-86 947.0268,-122"/>
<text text-anchor="middle" x="879" y="-99.8" font-family="Times,serif" font-size="14.00" fill="#000000">OverviewComponent</text>
</g>
<!-- OverviewComponent&#45;&gt;DashboardModule -->
<g id="edge2" class="edge">
<title>OverviewComponent&#45;&gt;DashboardModule</title>
<path fill="none" stroke="#000000" d="M879,-122.1061C879,-141.3391 879,-169 879,-169 879,-169 584.2723,-169 584.2723,-169"/>
<polygon fill="#000000" stroke="#000000" points="584.2724,-165.5001 574.2723,-169 584.2723,-172.5001 584.2724,-165.5001"/>
</g>
<!-- RainbowComponent -->
<g id="node3" class="node">
<title>RainbowComponent</title>
<polygon fill="#ffffb3" stroke="#000000" points="792.8809,-122 661.1191,-122 661.1191,-86 792.8809,-86 792.8809,-122"/>
<text text-anchor="middle" x="727" y="-99.8" font-family="Times,serif" font-size="14.00" fill="#000000">RainbowComponent</text>
</g>
<!-- RainbowComponent&#45;&gt;DashboardModule -->
<g id="edge3" class="edge">
<title>RainbowComponent&#45;&gt;DashboardModule</title>
<path fill="none" stroke="#000000" d="M727,-122.027C727,-138.3976 727,-160 727,-160 727,-160 584.1832,-160 584.1832,-160"/>
<polygon fill="#000000" stroke="#000000" points="584.1832,-156.5001 574.1832,-160 584.1831,-163.5001 584.1832,-156.5001"/>
</g>
<!-- ChatBoxModule -->
<g id="node5" class="node">
<title>ChatBoxModule</title>
<polygon fill="#8dd3c7" stroke="#000000" points="636.8287,-122 633.8287,-126 612.8287,-126 609.8287,-122 527.1713,-122 527.1713,-86 636.8287,-86 636.8287,-122"/>
<text text-anchor="middle" x="582" y="-99.8" font-family="Times,serif" font-size="14.00" fill="#000000">ChatBoxModule</text>
</g>
<!-- ChatBoxModule&#45;&gt;DashboardModule -->
<g id="edge4" class="edge">
<title>ChatBoxModule&#45;&gt;DashboardModule</title>
<path fill="none" stroke="#000000" d="M550.7157,-122.1061C550.7157,-122.1061 550.7157,-140.991 550.7157,-140.991"/>
<polygon fill="#000000" stroke="#000000" points="547.2157,-140.9909 550.7157,-150.991 554.2157,-140.991 547.2157,-140.9909"/>
</g>
<!-- QuickpanelModule -->
<g id="node6" class="node">
<title>QuickpanelModule</title>
<polygon fill="#8dd3c7" stroke="#000000" points="509.0814,-122 506.0814,-126 485.0814,-126 482.0814,-122 384.9186,-122 384.9186,-86 509.0814,-86 509.0814,-122"/>
<text text-anchor="middle" x="447" y="-99.8" font-family="Times,serif" font-size="14.00" fill="#000000">QuickpanelModule</text>
</g>
<!-- QuickpanelModule&#45;&gt;DashboardModule -->
<g id="edge5" class="edge">
<title>QuickpanelModule&#45;&gt;DashboardModule</title>
<path fill="none" stroke="#000000" d="M481.4727,-122.1061C481.4727,-122.1061 481.4727,-140.991 481.4727,-140.991"/>
<polygon fill="#000000" stroke="#000000" points="477.9727,-140.9909 481.4727,-150.991 484.9727,-140.991 477.9727,-140.9909"/>
</g>
<!-- SharedModule -->
<g id="node7" class="node">
<title>SharedModule</title>
<polygon fill="#8dd3c7" stroke="#000000" points="367.4231,-122 364.4231,-126 343.4231,-126 340.4231,-122 268.5769,-122 268.5769,-86 367.4231,-86 367.4231,-122"/>
<text text-anchor="middle" x="318" y="-99.8" font-family="Times,serif" font-size="14.00" fill="#000000">SharedModule</text>
</g>
<!-- SharedModule&#45;&gt;DashboardModule -->
<g id="edge6" class="edge">
<title>SharedModule&#45;&gt;DashboardModule</title>
<path fill="none" stroke="#000000" d="M318,-122.027C318,-138.3976 318,-160 318,-160 318,-160 443.8615,-160 443.8615,-160"/>
<polygon fill="#000000" stroke="#000000" points="443.8616,-163.5001 453.8615,-160 443.8615,-156.5001 443.8616,-163.5001"/>
</g>
<!-- SidenavModule -->
<g id="node8" class="node">
<title>SidenavModule</title>
<polygon fill="#8dd3c7" stroke="#000000" points="250.1528,-122 247.1528,-126 226.1528,-126 223.1528,-122 145.8472,-122 145.8472,-86 250.1528,-86 250.1528,-122"/>
<text text-anchor="middle" x="198" y="-99.8" font-family="Times,serif" font-size="14.00" fill="#000000">SidenavModule</text>
</g>
<!-- SidenavModule&#45;&gt;DashboardModule -->
<g id="edge7" class="edge">
<title>SidenavModule&#45;&gt;DashboardModule</title>
<path fill="none" stroke="#000000" d="M198,-122.1061C198,-141.3391 198,-169 198,-169 198,-169 443.819,-169 443.819,-169"/>
<polygon fill="#000000" stroke="#000000" points="443.8191,-172.5001 453.819,-169 443.819,-165.5001 443.8191,-172.5001"/>
</g>
<!-- ToolbarModule -->
<g id="node9" class="node">
<title>ToolbarModule</title>
<polygon fill="#8dd3c7" stroke="#000000" points="127.8683,-122 124.8683,-126 103.8683,-126 100.8683,-122 24.1317,-122 24.1317,-86 127.8683,-86 127.8683,-122"/>
<text text-anchor="middle" x="76" y="-99.8" font-family="Times,serif" font-size="14.00" fill="#000000">ToolbarModule</text>
</g>
<!-- ToolbarModule&#45;&gt;DashboardModule -->
<g id="edge8" class="edge">
<title>ToolbarModule&#45;&gt;DashboardModule</title>
<path fill="none" stroke="#000000" d="M76,-122.2921C76,-144.2057 76,-178 76,-178 76,-178 443.5578,-178 443.5578,-178"/>
<polygon fill="#000000" stroke="#000000" points="443.5579,-181.5001 453.5578,-178 443.5578,-174.5001 443.5579,-181.5001"/>
</g>
</g>
</svg>
