<?xml version="1.0" encoding="UTF-8" standalone="no"?>
<!DOCTYPE svg PUBLIC "-//W3C//DTD SVG 1.1//EN"
 "http://www.w3.org/Graphics/SVG/1.1/DTD/svg11.dtd">
<!-- Generated by graphviz version 2.40.1 (20161225.0304)
 -->
<!-- Title: dependencies Pages: 1 -->
<svg width="1175pt" height="211pt"
 viewBox="0.00 0.00 1175.00 211.00" xmlns="http://www.w3.org/2000/svg" xmlns:xlink="http://www.w3.org/1999/xlink">
<g id="graph0" class="graph" transform="scale(1 1) rotate(0) translate(4 207)">
<title>dependencies</title>
<polygon fill="#ffffff" stroke="transparent" points="-4,4 -4,-207 1171,-207 1171,4 -4,4"/>
<text text-anchor="start" x="562.5091" y="-42.4" font-family="sans-serif" font-weight="bold" font-size="14.00" fill="#000000">Legend</text>
<polygon fill="#ffffb3" stroke="transparent" points="349.5,-10 349.5,-30 369.5,-30 369.5,-10 349.5,-10"/>
<text text-anchor="start" x="373.129" y="-15.4" font-family="sans-serif" font-size="14.00" fill="#000000"> &#160;Declarations</text>
<polygon fill="#8dd3c7" stroke="transparent" points="462.5,-10 462.5,-30 482.5,-30 482.5,-10 462.5,-10"/>
<text text-anchor="start" x="486.2251" y="-15.4" font-family="sans-serif" font-size="14.00" fill="#000000"> &#160;Module</text>
<polygon fill="#80b1d3" stroke="transparent" points="548.5,-10 548.5,-30 568.5,-30 568.5,-10 548.5,-10"/>
<text text-anchor="start" x="572.2812" y="-15.4" font-family="sans-serif" font-size="14.00" fill="#000000"> &#160;Bootstrap</text>
<polygon fill="#fdb462" stroke="transparent" points="645.5,-10 645.5,-30 665.5,-30 665.5,-10 645.5,-10"/>
<text text-anchor="start" x="669.1732" y="-15.4" font-family="sans-serif" font-size="14.00" fill="#000000"> &#160;Providers</text>
<polygon fill="#fb8072" stroke="transparent" points="741.5,-10 741.5,-30 761.5,-30 761.5,-10 741.5,-10"/>
<text text-anchor="start" x="765.2258" y="-15.4" font-family="sans-serif" font-size="14.00" fill="#000000"> &#160;Exports</text>
<g id="clust1" class="cluster">
<title>cluster_DashboardModule</title>
<polygon fill="none" stroke="#000000" stroke-dasharray="1,5" points="8,-70 8,-195 1159,-195 1159,-70 8,-70"/>
</g>
<g id="clust2" class="cluster">
<title>cluster_DashboardModule_declarations</title>
<polygon fill="none" stroke="#000000" points="649,-78 649,-130 1151,-130 1151,-78 649,-78"/>
</g>
<g id="clust6" class="cluster">
<title>cluster_DashboardModule_imports</title>
<polygon fill="none" stroke="#000000" points="16,-78 16,-130 641,-130 641,-78 16,-78"/>
</g>
<!-- DashboardLayoutComponent -->
<g id="node1" class="node">
<title>DashboardLayoutComponent</title>
<polygon fill="#ffffb3" stroke="#000000" points="1142.6316,-122 961.3684,-122 961.3684,-86 1142.6316,-86 1142.6316,-122"/>
<text text-anchor="middle" x="1052" y="-99.8" font-family="Times,serif" font-size="14.00" fill="#000000">DashboardLayoutComponent</text>
</g>
<!-- DashboardModule -->
<g id="node4" class="node">
<title>DashboardModule</title>
<polygon fill="#8dd3c7" stroke="#000000" points="573.191,-187 570.191,-191 549.191,-191 546.191,-187 452.809,-187 452.809,-151 573.191,-151 573.191,-187"/>
<text text-anchor="middle" x="513" y="-164.8" font-family="Times,serif" font-size="14.00" fill="#000000">DashboardModule</text>
</g>
<!-- DashboardLayoutComponent&#45;&gt;DashboardModule -->
<g id="edge1" class="edge">
<title>DashboardLayoutComponent&#45;&gt;DashboardModule</title>
<path fill="none" stroke="#000000" d="M1052,-122.2921C1052,-144.2057 1052,-178 1052,-178 1052,-178 583.2612,-178 583.2612,-178"/>
<polygon fill="#000000" stroke="#000000" points="583.2613,-174.5001 573.2612,-178 583.2612,-181.5001 583.2613,-174.5001"/>
</g>
<!-- OverviewComponent -->
<g id="node2" class="node">
<title>OverviewComponent</title>
<polygon fill="#ffffb3" stroke="#000000" points="943.0268,-122 806.9732,-122 806.9732,-86 943.0268,-86 943.0268,-122"/>
<text text-anchor="middle" x="875" y="-99.8" font-family="Times,serif" font-size="14.00" fill="#000000">OverviewComponent</text>
</g>
<!-- OverviewComponent&#45;&gt;DashboardModule -->
<g id="edge2" class="edge">
<title>OverviewComponent&#45;&gt;DashboardModule</title>
<path fill="none" stroke="#000000" d="M875,-122.1061C875,-141.3391 875,-169 875,-169 875,-169 583.1833,-169 583.1833,-169"/>
<polygon fill="#000000" stroke="#000000" points="583.1833,-165.5001 573.1833,-169 583.1833,-172.5001 583.1833,-165.5001"/>
</g>
<!-- RainbowComponent -->
<g id="node3" class="node">
<title>RainbowComponent</title>
<polygon fill="#ffffb3" stroke="#000000" points="788.8809,-122 657.1191,-122 657.1191,-86 788.8809,-86 788.8809,-122"/>
<text text-anchor="middle" x="723" y="-99.8" font-family="Times,serif" font-size="14.00" fill="#000000">RainbowComponent</text>
</g>
<!-- RainbowComponent&#45;&gt;DashboardModule -->
<g id="edge3" class="edge">
<title>RainbowComponent&#45;&gt;DashboardModule</title>
<path fill="none" stroke="#000000" d="M723,-122.027C723,-138.3976 723,-160 723,-160 723,-160 583.1776,-160 583.1776,-160"/>
<polygon fill="#000000" stroke="#000000" points="583.1776,-156.5001 573.1776,-160 583.1775,-163.5001 583.1776,-156.5001"/>
</g>
<!-- ChatBotModule -->
<g id="node5" class="node">
<title>ChatBotModule</title>
<polygon fill="#8dd3c7" stroke="#000000" points="633.219,-122 630.219,-126 609.219,-126 606.219,-122 526.781,-122 526.781,-86 633.219,-86 633.219,-122"/>
<text text-anchor="middle" x="580" y="-99.8" font-family="Times,serif" font-size="14.00" fill="#000000">ChatBotModule</text>
</g>
<!-- ChatBotModule&#45;&gt;DashboardModule -->
<g id="edge4" class="edge">
<title>ChatBotModule&#45;&gt;DashboardModule</title>
<path fill="none" stroke="#000000" d="M549.993,-122.1061C549.993,-122.1061 549.993,-140.991 549.993,-140.991"/>
<polygon fill="#000000" stroke="#000000" points="546.4931,-140.9909 549.993,-150.991 553.4931,-140.991 546.4931,-140.9909"/>
</g>
<!-- QuickpanelModule -->
<g id="node6" class="node">
<title>QuickpanelModule</title>
<polygon fill="#8dd3c7" stroke="#000000" points="509.0814,-122 506.0814,-126 485.0814,-126 482.0814,-122 384.9186,-122 384.9186,-86 509.0814,-86 509.0814,-122"/>
<text text-anchor="middle" x="447" y="-99.8" font-family="Times,serif" font-size="14.00" fill="#000000">QuickpanelModule</text>
</g>
<!-- QuickpanelModule&#45;&gt;DashboardModule -->
<g id="edge5" class="edge">
<title>QuickpanelModule&#45;&gt;DashboardModule</title>
<path fill="none" stroke="#000000" d="M480.9727,-122.1061C480.9727,-122.1061 480.9727,-140.991 480.9727,-140.991"/>
<polygon fill="#000000" stroke="#000000" points="477.4727,-140.9909 480.9727,-150.991 484.4727,-140.991 477.4727,-140.9909"/>
</g>
<!-- SharedModule -->
<g id="node7" class="node">
<title>SharedModule</title>
<polygon fill="#8dd3c7" stroke="#000000" points="367.4231,-122 364.4231,-126 343.4231,-126 340.4231,-122 268.5769,-122 268.5769,-86 367.4231,-86 367.4231,-122"/>
<text text-anchor="middle" x="318" y="-99.8" font-family="Times,serif" font-size="14.00" fill="#000000">SharedModule</text>
</g>
<!-- SharedModule&#45;&gt;DashboardModule -->
<g id="edge6" class="edge">
<title>SharedModule&#45;&gt;DashboardModule</title>
<path fill="none" stroke="#000000" d="M318,-122.027C318,-138.3976 318,-160 318,-160 318,-160 442.9024,-160 442.9024,-160"/>
<polygon fill="#000000" stroke="#000000" points="442.9025,-163.5001 452.9024,-160 442.9024,-156.5001 442.9025,-163.5001"/>
</g>
<!-- SidenavModule -->
<g id="node8" class="node">
<title>SidenavModule</title>
<polygon fill="#8dd3c7" stroke="#000000" points="250.1528,-122 247.1528,-126 226.1528,-126 223.1528,-122 145.8472,-122 145.8472,-86 250.1528,-86 250.1528,-122"/>
<text text-anchor="middle" x="198" y="-99.8" font-family="Times,serif" font-size="14.00" fill="#000000">SidenavModule</text>
</g>
<!-- SidenavModule&#45;&gt;DashboardModule -->
<g id="edge7" class="edge">
<title>SidenavModule&#45;&gt;DashboardModule</title>
<path fill="none" stroke="#000000" d="M198,-122.1061C198,-141.3391 198,-169 198,-169 198,-169 442.6375,-169 442.6375,-169"/>
<polygon fill="#000000" stroke="#000000" points="442.6376,-172.5001 452.6375,-169 442.6375,-165.5001 442.6376,-172.5001"/>
</g>
<!-- ToolbarModule -->
<g id="node9" class="node">
<title>ToolbarModule</title>
<polygon fill="#8dd3c7" stroke="#000000" points="127.8683,-122 124.8683,-126 103.8683,-126 100.8683,-122 24.1317,-122 24.1317,-86 127.8683,-86 127.8683,-122"/>
<text text-anchor="middle" x="76" y="-99.8" font-family="Times,serif" font-size="14.00" fill="#000000">ToolbarModule</text>
</g>
<!-- ToolbarModule&#45;&gt;DashboardModule -->
<g id="edge8" class="edge">
<title>ToolbarModule&#45;&gt;DashboardModule</title>
<path fill="none" stroke="#000000" d="M76,-122.2921C76,-144.2057 76,-178 76,-178 76,-178 442.6958,-178 442.6958,-178"/>
<polygon fill="#000000" stroke="#000000" points="442.6959,-181.5001 452.6958,-178 442.6958,-174.5001 442.6959,-181.5001"/>
</g>
</g>
</svg>
