<?xml version="1.0" encoding="UTF-8" standalone="no"?>
<!DOCTYPE svg PUBLIC "-//W3C//DTD SVG 1.1//EN"
 "http://www.w3.org/Graphics/SVG/1.1/DTD/svg11.dtd">
<!-- Generated by graphviz version 2.40.1 (20161225.0304)
 -->
<!-- Title: dependencies Pages: 1 -->
<svg width="1221pt" height="211pt"
 viewBox="0.00 0.00 1221.00 211.00" xmlns="http://www.w3.org/2000/svg" xmlns:xlink="http://www.w3.org/1999/xlink">
<g id="graph0" class="graph" transform="scale(1 1) rotate(0) translate(4 207)">
<title>dependencies</title>
<polygon fill="#ffffff" stroke="transparent" points="-4,4 -4,-207 1217,-207 1217,4 -4,4"/>
<text text-anchor="start" x="585.5091" y="-42.4" font-family="sans-serif" font-weight="bold" font-size="14.00" fill="#000000">Legend</text>
<polygon fill="#ffffb3" stroke="transparent" points="372.5,-10 372.5,-30 392.5,-30 392.5,-10 372.5,-10"/>
<text text-anchor="start" x="396.129" y="-15.4" font-family="sans-serif" font-size="14.00" fill="#000000"> &#160;Declarations</text>
<polygon fill="#8dd3c7" stroke="transparent" points="485.5,-10 485.5,-30 505.5,-30 505.5,-10 485.5,-10"/>
<text text-anchor="start" x="509.2251" y="-15.4" font-family="sans-serif" font-size="14.00" fill="#000000"> &#160;Module</text>
<polygon fill="#80b1d3" stroke="transparent" points="571.5,-10 571.5,-30 591.5,-30 591.5,-10 571.5,-10"/>
<text text-anchor="start" x="595.2812" y="-15.4" font-family="sans-serif" font-size="14.00" fill="#000000"> &#160;Bootstrap</text>
<polygon fill="#fdb462" stroke="transparent" points="668.5,-10 668.5,-30 688.5,-30 688.5,-10 668.5,-10"/>
<text text-anchor="start" x="692.1732" y="-15.4" font-family="sans-serif" font-size="14.00" fill="#000000"> &#160;Providers</text>
<polygon fill="#fb8072" stroke="transparent" points="764.5,-10 764.5,-30 784.5,-30 784.5,-10 764.5,-10"/>
<text text-anchor="start" x="788.2258" y="-15.4" font-family="sans-serif" font-size="14.00" fill="#000000"> &#160;Exports</text>
<g id="clust1" class="cluster">
<title>cluster_DashboardModule</title>
<polygon fill="none" stroke="#000000" stroke-dasharray="1,5" points="8,-70 8,-195 1205,-195 1205,-70 8,-70"/>
</g>
<g id="clust2" class="cluster">
<title>cluster_DashboardModule_declarations</title>
<polygon fill="none" stroke="#000000" points="695,-78 695,-130 1197,-130 1197,-78 695,-78"/>
</g>
<g id="clust6" class="cluster">
<title>cluster_DashboardModule_imports</title>
<polygon fill="none" stroke="#000000" points="16,-78 16,-130 687,-130 687,-78 16,-78"/>
</g>
<!-- DashboardLayoutComponent -->
<g id="node1" class="node">
<title>DashboardLayoutComponent</title>
<polygon fill="#ffffb3" stroke="#000000" points="1188.6316,-122 1007.3684,-122 1007.3684,-86 1188.6316,-86 1188.6316,-122"/>
<text text-anchor="middle" x="1098" y="-99.8" font-family="Times,serif" font-size="14.00" fill="#000000">DashboardLayoutComponent</text>
</g>
<!-- DashboardModule -->
<g id="node4" class="node">
<title>DashboardModule</title>
<polygon fill="#8dd3c7" stroke="#000000" points="630.191,-187 627.191,-191 606.191,-191 603.191,-187 509.809,-187 509.809,-151 630.191,-151 630.191,-187"/>
<text text-anchor="middle" x="570" y="-164.8" font-family="Times,serif" font-size="14.00" fill="#000000">DashboardModule</text>
</g>
<!-- DashboardLayoutComponent&#45;&gt;DashboardModule -->
<g id="edge1" class="edge">
<title>DashboardLayoutComponent&#45;&gt;DashboardModule</title>
<path fill="none" stroke="#000000" d="M1098,-122.2921C1098,-144.2057 1098,-178 1098,-178 1098,-178 640.3111,-178 640.3111,-178"/>
<polygon fill="#000000" stroke="#000000" points="640.3111,-174.5001 630.3111,-178 640.311,-181.5001 640.3111,-174.5001"/>
</g>
<!-- OverviewComponent -->
<g id="node2" class="node">
<title>OverviewComponent</title>
<polygon fill="#ffffb3" stroke="#000000" points="989.0268,-122 852.9732,-122 852.9732,-86 989.0268,-86 989.0268,-122"/>
<text text-anchor="middle" x="921" y="-99.8" font-family="Times,serif" font-size="14.00" fill="#000000">OverviewComponent</text>
</g>
<!-- OverviewComponent&#45;&gt;DashboardModule -->
<g id="edge2" class="edge">
<title>OverviewComponent&#45;&gt;DashboardModule</title>
<path fill="none" stroke="#000000" d="M921,-122.1061C921,-141.3391 921,-169 921,-169 921,-169 640.3391,-169 640.3391,-169"/>
<polygon fill="#000000" stroke="#000000" points="640.3391,-165.5001 630.3391,-169 640.339,-172.5001 640.3391,-165.5001"/>
</g>
<!-- RainbowComponent -->
<g id="node3" class="node">
<title>RainbowComponent</title>
<polygon fill="#ffffb3" stroke="#000000" points="834.8809,-122 703.1191,-122 703.1191,-86 834.8809,-86 834.8809,-122"/>
<text text-anchor="middle" x="769" y="-99.8" font-family="Times,serif" font-size="14.00" fill="#000000">RainbowComponent</text>
</g>
<!-- RainbowComponent&#45;&gt;DashboardModule -->
<g id="edge3" class="edge">
<title>RainbowComponent&#45;&gt;DashboardModule</title>
<path fill="none" stroke="#000000" d="M769,-122.027C769,-138.3976 769,-160 769,-160 769,-160 640.2466,-160 640.2466,-160"/>
<polygon fill="#000000" stroke="#000000" points="640.2466,-156.5001 630.2466,-160 640.2466,-163.5001 640.2466,-156.5001"/>
</g>
<!-- SharedModule -->
<g id="node5" class="node">
<title>SharedModule</title>
<polygon fill="#8dd3c7" stroke="#000000" points="679.4231,-122 676.4231,-126 655.4231,-126 652.4231,-122 580.5769,-122 580.5769,-86 679.4231,-86 679.4231,-122"/>
<text text-anchor="middle" x="630" y="-99.8" font-family="Times,serif" font-size="14.00" fill="#000000">SharedModule</text>
</g>
<!-- SharedModule&#45;&gt;DashboardModule -->
<g id="edge4" class="edge">
<title>SharedModule&#45;&gt;DashboardModule</title>
<path fill="none" stroke="#000000" d="M605.4422,-122.1061C605.4422,-122.1061 605.4422,-140.991 605.4422,-140.991"/>
<polygon fill="#000000" stroke="#000000" points="601.9422,-140.9909 605.4422,-150.991 608.9422,-140.991 601.9422,-140.9909"/>
</g>
<!-- SidenavModule -->
<g id="node6" class="node">
<title>SidenavModule</title>
<polygon fill="#8dd3c7" stroke="#000000" points="562.1528,-122 559.1528,-126 538.1528,-126 535.1528,-122 457.8472,-122 457.8472,-86 562.1528,-86 562.1528,-122"/>
<text text-anchor="middle" x="510" y="-99.8" font-family="Times,serif" font-size="14.00" fill="#000000">SidenavModule</text>
</g>
<!-- SidenavModule&#45;&gt;DashboardModule -->
<g id="edge5" class="edge">
<title>SidenavModule&#45;&gt;DashboardModule</title>
<path fill="none" stroke="#000000" d="M536.1154,-122.1061C536.1154,-122.1061 536.1154,-140.991 536.1154,-140.991"/>
<polygon fill="#000000" stroke="#000000" points="532.6154,-140.9909 536.1154,-150.991 539.6154,-140.991 532.6154,-140.9909"/>
</g>
<!-- ToolbarModule -->
<g id="node7" class="node">
<title>ToolbarModule</title>
<polygon fill="#8dd3c7" stroke="#000000" points="439.8683,-122 436.8683,-126 415.8683,-126 412.8683,-122 336.1317,-122 336.1317,-86 439.8683,-86 439.8683,-122"/>
<text text-anchor="middle" x="388" y="-99.8" font-family="Times,serif" font-size="14.00" fill="#000000">ToolbarModule</text>
</g>
<!-- ToolbarModule&#45;&gt;DashboardModule -->
<g id="edge6" class="edge">
<title>ToolbarModule&#45;&gt;DashboardModule</title>
<path fill="none" stroke="#000000" d="M388,-122.027C388,-138.3976 388,-160 388,-160 388,-160 499.902,-160 499.902,-160"/>
<polygon fill="#000000" stroke="#000000" points="499.902,-163.5001 509.902,-160 499.902,-156.5001 499.902,-163.5001"/>
</g>
<!-- QuickpanelModule -->
<g id="node8" class="node">
<title>QuickpanelModule</title>
<polygon fill="#8dd3c7" stroke="#000000" points="318.0814,-122 315.0814,-126 294.0814,-126 291.0814,-122 193.9186,-122 193.9186,-86 318.0814,-86 318.0814,-122"/>
<text text-anchor="middle" x="256" y="-99.8" font-family="Times,serif" font-size="14.00" fill="#000000">QuickpanelModule</text>
</g>
<!-- QuickpanelModule&#45;&gt;DashboardModule -->
<g id="edge7" class="edge">
<title>QuickpanelModule&#45;&gt;DashboardModule</title>
<path fill="none" stroke="#000000" d="M256,-122.1061C256,-141.3391 256,-169 256,-169 256,-169 499.8292,-169 499.8292,-169"/>
<polygon fill="#000000" stroke="#000000" points="499.8292,-172.5001 509.8292,-169 499.8291,-165.5001 499.8292,-172.5001"/>
</g>
<!-- LoadingOverlayModule -->
<g id="node9" class="node">
<title>LoadingOverlayModule</title>
<polygon fill="#8dd3c7" stroke="#000000" points="175.7949,-122 172.7949,-126 151.7949,-126 148.7949,-122 24.2051,-122 24.2051,-86 175.7949,-86 175.7949,-122"/>
<text text-anchor="middle" x="100" y="-99.8" font-family="Times,serif" font-size="14.00" fill="#000000">LoadingOverlayModule</text>
</g>
<!-- LoadingOverlayModule&#45;&gt;DashboardModule -->
<g id="edge8" class="edge">
<title>LoadingOverlayModule&#45;&gt;DashboardModule</title>
<path fill="none" stroke="#000000" d="M100,-122.2921C100,-144.2057 100,-178 100,-178 100,-178 499.5179,-178 499.5179,-178"/>
<polygon fill="#000000" stroke="#000000" points="499.5179,-181.5001 509.5179,-178 499.5179,-174.5001 499.5179,-181.5001"/>
</g>
</g>
</svg>
