<?xml version="1.0" encoding="UTF-8" standalone="no"?>
<!DOCTYPE svg PUBLIC "-//W3C//DTD SVG 1.1//EN"
 "http://www.w3.org/Graphics/SVG/1.1/DTD/svg11.dtd">
<!-- Generated by graphviz version 2.40.1 (20161225.0304)
 -->
<!-- Title: dependencies Pages: 1 -->
<svg width="1345pt" height="211pt"
 viewBox="0.00 0.00 1345.00 211.00" xmlns="http://www.w3.org/2000/svg" xmlns:xlink="http://www.w3.org/1999/xlink">
<g id="graph0" class="graph" transform="scale(1 1) rotate(0) translate(4 207)">
<title>dependencies</title>
<polygon fill="#ffffff" stroke="transparent" points="-4,4 -4,-207 1341,-207 1341,4 -4,4"/>
<text text-anchor="start" x="647.5091" y="-42.4" font-family="sans-serif" font-weight="bold" font-size="14.00" fill="#000000">Legend</text>
<polygon fill="#ffffb3" stroke="transparent" points="434.5,-10 434.5,-30 454.5,-30 454.5,-10 434.5,-10"/>
<text text-anchor="start" x="458.129" y="-15.4" font-family="sans-serif" font-size="14.00" fill="#000000"> &#160;Declarations</text>
<polygon fill="#8dd3c7" stroke="transparent" points="547.5,-10 547.5,-30 567.5,-30 567.5,-10 547.5,-10"/>
<text text-anchor="start" x="571.2251" y="-15.4" font-family="sans-serif" font-size="14.00" fill="#000000"> &#160;Module</text>
<polygon fill="#80b1d3" stroke="transparent" points="633.5,-10 633.5,-30 653.5,-30 653.5,-10 633.5,-10"/>
<text text-anchor="start" x="657.2812" y="-15.4" font-family="sans-serif" font-size="14.00" fill="#000000"> &#160;Bootstrap</text>
<polygon fill="#fdb462" stroke="transparent" points="730.5,-10 730.5,-30 750.5,-30 750.5,-10 730.5,-10"/>
<text text-anchor="start" x="754.1732" y="-15.4" font-family="sans-serif" font-size="14.00" fill="#000000"> &#160;Providers</text>
<polygon fill="#fb8072" stroke="transparent" points="826.5,-10 826.5,-30 846.5,-30 846.5,-10 826.5,-10"/>
<text text-anchor="start" x="850.2258" y="-15.4" font-family="sans-serif" font-size="14.00" fill="#000000"> &#160;Exports</text>
<g id="clust1" class="cluster">
<title>cluster_DashboardModule</title>
<polygon fill="none" stroke="#000000" stroke-dasharray="1,5" points="8,-70 8,-195 1329,-195 1329,-70 8,-70"/>
</g>
<g id="clust2" class="cluster">
<title>cluster_DashboardModule_declarations</title>
<polygon fill="none" stroke="#000000" points="819,-78 819,-130 1321,-130 1321,-78 819,-78"/>
</g>
<g id="clust6" class="cluster">
<title>cluster_DashboardModule_imports</title>
<polygon fill="none" stroke="#000000" points="16,-78 16,-130 811,-130 811,-78 16,-78"/>
</g>
<!-- DashboardLayoutComponent -->
<g id="node1" class="node">
<title>DashboardLayoutComponent</title>
<polygon fill="#ffffb3" stroke="#000000" points="1312.6316,-122 1131.3684,-122 1131.3684,-86 1312.6316,-86 1312.6316,-122"/>
<text text-anchor="middle" x="1222" y="-99.8" font-family="Times,serif" font-size="14.00" fill="#000000">DashboardLayoutComponent</text>
</g>
<!-- DashboardModule -->
<g id="node4" class="node">
<title>DashboardModule</title>
<polygon fill="#8dd3c7" stroke="#000000" points="694.191,-187 691.191,-191 670.191,-191 667.191,-187 573.809,-187 573.809,-151 694.191,-151 694.191,-187"/>
<text text-anchor="middle" x="634" y="-164.8" font-family="Times,serif" font-size="14.00" fill="#000000">DashboardModule</text>
</g>
<!-- DashboardLayoutComponent&#45;&gt;DashboardModule -->
<g id="edge1" class="edge">
<title>DashboardLayoutComponent&#45;&gt;DashboardModule</title>
<path fill="none" stroke="#000000" d="M1222,-122.2921C1222,-144.2057 1222,-178 1222,-178 1222,-178 704.163,-178 704.163,-178"/>
<polygon fill="#000000" stroke="#000000" points="704.1631,-174.5001 694.163,-178 704.163,-181.5001 704.1631,-174.5001"/>
</g>
<!-- OverviewComponent -->
<g id="node2" class="node">
<title>OverviewComponent</title>
<polygon fill="#ffffb3" stroke="#000000" points="1113.0268,-122 976.9732,-122 976.9732,-86 1113.0268,-86 1113.0268,-122"/>
<text text-anchor="middle" x="1045" y="-99.8" font-family="Times,serif" font-size="14.00" fill="#000000">OverviewComponent</text>
</g>
<!-- OverviewComponent&#45;&gt;DashboardModule -->
<g id="edge2" class="edge">
<title>OverviewComponent&#45;&gt;DashboardModule</title>
<path fill="none" stroke="#000000" d="M1045,-122.1061C1045,-141.3391 1045,-169 1045,-169 1045,-169 704.2031,-169 704.2031,-169"/>
<polygon fill="#000000" stroke="#000000" points="704.2031,-165.5001 694.2031,-169 704.2031,-172.5001 704.2031,-165.5001"/>
</g>
<!-- RainbowComponent -->
<g id="node3" class="node">
<title>RainbowComponent</title>
<polygon fill="#ffffb3" stroke="#000000" points="958.8809,-122 827.1191,-122 827.1191,-86 958.8809,-86 958.8809,-122"/>
<text text-anchor="middle" x="893" y="-99.8" font-family="Times,serif" font-size="14.00" fill="#000000">RainbowComponent</text>
</g>
<!-- RainbowComponent&#45;&gt;DashboardModule -->
<g id="edge3" class="edge">
<title>RainbowComponent&#45;&gt;DashboardModule</title>
<path fill="none" stroke="#000000" d="M893,-122.027C893,-138.3976 893,-160 893,-160 893,-160 704.3971,-160 704.3971,-160"/>
<polygon fill="#000000" stroke="#000000" points="704.3972,-156.5001 694.3971,-160 704.3971,-163.5001 704.3972,-156.5001"/>
</g>
<!-- SharedModule -->
<g id="node5" class="node">
<title>SharedModule</title>
<polygon fill="#8dd3c7" stroke="#000000" points="803.4231,-122 800.4231,-126 779.4231,-126 776.4231,-122 704.5769,-122 704.5769,-86 803.4231,-86 803.4231,-122"/>
<text text-anchor="middle" x="754" y="-99.8" font-family="Times,serif" font-size="14.00" fill="#000000">SharedModule</text>
</g>
<!-- SharedModule&#45;&gt;DashboardModule -->
<g id="edge4" class="edge">
<title>SharedModule&#45;&gt;DashboardModule</title>
<path fill="none" stroke="#000000" d="M704.6855,-104C696.2854,-104 690.2108,-104 690.2108,-104 690.2108,-104 690.2108,-140.8939 690.2108,-140.8939"/>
<polygon fill="#000000" stroke="#000000" points="686.7108,-140.8938 690.2108,-150.8939 693.7108,-140.8939 686.7108,-140.8938"/>
</g>
<!-- SidenavModule -->
<g id="node6" class="node">
<title>SidenavModule</title>
<polygon fill="#8dd3c7" stroke="#000000" points="686.1528,-122 683.1528,-126 662.1528,-126 659.1528,-122 581.8472,-122 581.8472,-86 686.1528,-86 686.1528,-122"/>
<text text-anchor="middle" x="634" y="-99.8" font-family="Times,serif" font-size="14.00" fill="#000000">SidenavModule</text>
</g>
<!-- SidenavModule&#45;&gt;DashboardModule -->
<g id="edge5" class="edge">
<title>SidenavModule&#45;&gt;DashboardModule</title>
<path fill="none" stroke="#000000" d="M634,-122.1061C634,-122.1061 634,-140.991 634,-140.991"/>
<polygon fill="#000000" stroke="#000000" points="630.5001,-140.9909 634,-150.991 637.5001,-140.991 630.5001,-140.9909"/>
</g>
<!-- ToolbarModule -->
<g id="node7" class="node">
<title>ToolbarModule</title>
<polygon fill="#8dd3c7" stroke="#000000" points="563.8683,-122 560.8683,-126 539.8683,-126 536.8683,-122 460.1317,-122 460.1317,-86 563.8683,-86 563.8683,-122"/>
<text text-anchor="middle" x="512" y="-99.8" font-family="Times,serif" font-size="14.00" fill="#000000">ToolbarModule</text>
</g>
<!-- ToolbarModule&#45;&gt;DashboardModule -->
<g id="edge6" class="edge">
<title>ToolbarModule&#45;&gt;DashboardModule</title>
<path fill="none" stroke="#000000" d="M564.1577,-104C572.1425,-104 577.7893,-104 577.7893,-104 577.7893,-104 577.7893,-140.8939 577.7893,-140.8939"/>
<polygon fill="#000000" stroke="#000000" points="574.2893,-140.8938 577.7893,-150.8939 581.2893,-140.8939 574.2893,-140.8938"/>
</g>
<!-- QuickpanelModule -->
<g id="node8" class="node">
<title>QuickpanelModule</title>
<polygon fill="#8dd3c7" stroke="#000000" points="442.0814,-122 439.0814,-126 418.0814,-126 415.0814,-122 317.9186,-122 317.9186,-86 442.0814,-86 442.0814,-122"/>
<text text-anchor="middle" x="380" y="-99.8" font-family="Times,serif" font-size="14.00" fill="#000000">QuickpanelModule</text>
</g>
<!-- QuickpanelModule&#45;&gt;DashboardModule -->
<g id="edge7" class="edge">
<title>QuickpanelModule&#45;&gt;DashboardModule</title>
<path fill="none" stroke="#000000" d="M380,-122.027C380,-138.3976 380,-160 380,-160 380,-160 563.8055,-160 563.8055,-160"/>
<polygon fill="#000000" stroke="#000000" points="563.8056,-163.5001 573.8055,-160 563.8055,-156.5001 563.8056,-163.5001"/>
</g>
<!-- ChatBotModule -->
<g id="node9" class="node">
<title>ChatBotModule</title>
<polygon fill="#8dd3c7" stroke="#000000" points="300.219,-122 297.219,-126 276.219,-126 273.219,-122 193.781,-122 193.781,-86 300.219,-86 300.219,-122"/>
<text text-anchor="middle" x="247" y="-99.8" font-family="Times,serif" font-size="14.00" fill="#000000">ChatBotModule</text>
</g>
<!-- ChatBotModule&#45;&gt;DashboardModule -->
<g id="edge8" class="edge">
<title>ChatBotModule&#45;&gt;DashboardModule</title>
<path fill="none" stroke="#000000" d="M247,-122.1061C247,-141.3391 247,-169 247,-169 247,-169 563.5313,-169 563.5313,-169"/>
<polygon fill="#000000" stroke="#000000" points="563.5313,-172.5001 573.5313,-169 563.5312,-165.5001 563.5313,-172.5001"/>
</g>
<!-- LoadingOverlayModule -->
<g id="node10" class="node">
<title>LoadingOverlayModule</title>
<polygon fill="#8dd3c7" stroke="#000000" points="175.7949,-122 172.7949,-126 151.7949,-126 148.7949,-122 24.2051,-122 24.2051,-86 175.7949,-86 175.7949,-122"/>
<text text-anchor="middle" x="100" y="-99.8" font-family="Times,serif" font-size="14.00" fill="#000000">LoadingOverlayModule</text>
</g>
<!-- LoadingOverlayModule&#45;&gt;DashboardModule -->
<g id="edge9" class="edge">
<title>LoadingOverlayModule&#45;&gt;DashboardModule</title>
<path fill="none" stroke="#000000" d="M100,-122.2921C100,-144.2057 100,-178 100,-178 100,-178 563.7814,-178 563.7814,-178"/>
<polygon fill="#000000" stroke="#000000" points="563.7815,-181.5001 573.7814,-178 563.7814,-174.5001 563.7815,-181.5001"/>
</g>
</g>
</svg>
