<?xml version="1.0" encoding="UTF-8" standalone="no"?>
<!DOCTYPE svg PUBLIC "-//W3C//DTD SVG 1.1//EN"
 "http://www.w3.org/Graphics/SVG/1.1/DTD/svg11.dtd">
<!-- Generated by graphviz version 2.40.1 (20161225.0304)
 -->
<!-- Title: dependencies Pages: 1 -->
<svg width="1373pt" height="211pt"
 viewBox="0.00 0.00 1373.00 211.00" xmlns="http://www.w3.org/2000/svg" xmlns:xlink="http://www.w3.org/1999/xlink">
<g id="graph0" class="graph" transform="scale(1 1) rotate(0) translate(4 207)">
<title>dependencies</title>
<polygon fill="#ffffff" stroke="transparent" points="-4,4 -4,-207 1369,-207 1369,4 -4,4"/>
<text text-anchor="start" x="661.5091" y="-42.4" font-family="sans-serif" font-weight="bold" font-size="14.00" fill="#000000">Legend</text>
<polygon fill="#ffffb3" stroke="transparent" points="448.5,-10 448.5,-30 468.5,-30 468.5,-10 448.5,-10"/>
<text text-anchor="start" x="472.129" y="-15.4" font-family="sans-serif" font-size="14.00" fill="#000000"> &#160;Declarations</text>
<polygon fill="#8dd3c7" stroke="transparent" points="561.5,-10 561.5,-30 581.5,-30 581.5,-10 561.5,-10"/>
<text text-anchor="start" x="585.2251" y="-15.4" font-family="sans-serif" font-size="14.00" fill="#000000"> &#160;Module</text>
<polygon fill="#80b1d3" stroke="transparent" points="647.5,-10 647.5,-30 667.5,-30 667.5,-10 647.5,-10"/>
<text text-anchor="start" x="671.2812" y="-15.4" font-family="sans-serif" font-size="14.00" fill="#000000"> &#160;Bootstrap</text>
<polygon fill="#fdb462" stroke="transparent" points="744.5,-10 744.5,-30 764.5,-30 764.5,-10 744.5,-10"/>
<text text-anchor="start" x="768.1732" y="-15.4" font-family="sans-serif" font-size="14.00" fill="#000000"> &#160;Providers</text>
<polygon fill="#fb8072" stroke="transparent" points="840.5,-10 840.5,-30 860.5,-30 860.5,-10 840.5,-10"/>
<text text-anchor="start" x="864.2258" y="-15.4" font-family="sans-serif" font-size="14.00" fill="#000000"> &#160;Exports</text>
<g id="clust1" class="cluster">
<title>cluster_DashboardModule</title>
<polygon fill="none" stroke="#000000" stroke-dasharray="1,5" points="8,-70 8,-195 1357,-195 1357,-70 8,-70"/>
</g>
<g id="clust2" class="cluster">
<title>cluster_DashboardModule_declarations</title>
<polygon fill="none" stroke="#000000" points="847,-78 847,-130 1349,-130 1349,-78 847,-78"/>
</g>
<g id="clust6" class="cluster">
<title>cluster_DashboardModule_imports</title>
<polygon fill="none" stroke="#000000" points="16,-78 16,-130 839,-130 839,-78 16,-78"/>
</g>
<!-- DashboardLayoutComponent -->
<g id="node1" class="node">
<title>DashboardLayoutComponent</title>
<polygon fill="#ffffb3" stroke="#000000" points="1340.6316,-122 1159.3684,-122 1159.3684,-86 1340.6316,-86 1340.6316,-122"/>
<text text-anchor="middle" x="1250" y="-99.8" font-family="Times,serif" font-size="14.00" fill="#000000">DashboardLayoutComponent</text>
</g>
<!-- DashboardModule -->
<g id="node4" class="node">
<title>DashboardModule</title>
<polygon fill="#8dd3c7" stroke="#000000" points="722.191,-187 719.191,-191 698.191,-191 695.191,-187 601.809,-187 601.809,-151 722.191,-151 722.191,-187"/>
<text text-anchor="middle" x="662" y="-164.8" font-family="Times,serif" font-size="14.00" fill="#000000">DashboardModule</text>
</g>
<!-- DashboardLayoutComponent&#45;&gt;DashboardModule -->
<g id="edge1" class="edge">
<title>DashboardLayoutComponent&#45;&gt;DashboardModule</title>
<path fill="none" stroke="#000000" d="M1250,-122.2921C1250,-144.2057 1250,-178 1250,-178 1250,-178 732.163,-178 732.163,-178"/>
<polygon fill="#000000" stroke="#000000" points="732.1631,-174.5001 722.163,-178 732.163,-181.5001 732.1631,-174.5001"/>
</g>
<!-- OverviewComponent -->
<g id="node2" class="node">
<title>OverviewComponent</title>
<polygon fill="#ffffb3" stroke="#000000" points="1141.0268,-122 1004.9732,-122 1004.9732,-86 1141.0268,-86 1141.0268,-122"/>
<text text-anchor="middle" x="1073" y="-99.8" font-family="Times,serif" font-size="14.00" fill="#000000">OverviewComponent</text>
</g>
<!-- OverviewComponent&#45;&gt;DashboardModule -->
<g id="edge2" class="edge">
<title>OverviewComponent&#45;&gt;DashboardModule</title>
<path fill="none" stroke="#000000" d="M1073,-122.1061C1073,-141.3391 1073,-169 1073,-169 1073,-169 732.2031,-169 732.2031,-169"/>
<polygon fill="#000000" stroke="#000000" points="732.2031,-165.5001 722.2031,-169 732.2031,-172.5001 732.2031,-165.5001"/>
</g>
<!-- RainbowComponent -->
<g id="node3" class="node">
<title>RainbowComponent</title>
<polygon fill="#ffffb3" stroke="#000000" points="986.8809,-122 855.1191,-122 855.1191,-86 986.8809,-86 986.8809,-122"/>
<text text-anchor="middle" x="921" y="-99.8" font-family="Times,serif" font-size="14.00" fill="#000000">RainbowComponent</text>
</g>
<!-- RainbowComponent&#45;&gt;DashboardModule -->
<g id="edge3" class="edge">
<title>RainbowComponent&#45;&gt;DashboardModule</title>
<path fill="none" stroke="#000000" d="M921,-122.027C921,-138.3976 921,-160 921,-160 921,-160 732.3971,-160 732.3971,-160"/>
<polygon fill="#000000" stroke="#000000" points="732.3972,-156.5001 722.3971,-160 732.3971,-163.5001 732.3972,-156.5001"/>
</g>
<!-- SharedModule -->
<g id="node5" class="node">
<title>SharedModule</title>
<polygon fill="#8dd3c7" stroke="#000000" points="831.4231,-122 828.4231,-126 807.4231,-126 804.4231,-122 732.5769,-122 732.5769,-86 831.4231,-86 831.4231,-122"/>
<text text-anchor="middle" x="782" y="-99.8" font-family="Times,serif" font-size="14.00" fill="#000000">SharedModule</text>
</g>
<!-- SharedModule&#45;&gt;DashboardModule -->
<g id="edge4" class="edge">
<title>SharedModule&#45;&gt;DashboardModule</title>
<path fill="none" stroke="#000000" d="M732.6855,-104C724.2854,-104 718.2108,-104 718.2108,-104 718.2108,-104 718.2108,-140.8939 718.2108,-140.8939"/>
<polygon fill="#000000" stroke="#000000" points="714.7108,-140.8938 718.2108,-150.8939 721.7108,-140.8939 714.7108,-140.8938"/>
</g>
<!-- SidenavModule -->
<g id="node6" class="node">
<title>SidenavModule</title>
<polygon fill="#8dd3c7" stroke="#000000" points="714.1528,-122 711.1528,-126 690.1528,-126 687.1528,-122 609.8472,-122 609.8472,-86 714.1528,-86 714.1528,-122"/>
<text text-anchor="middle" x="662" y="-99.8" font-family="Times,serif" font-size="14.00" fill="#000000">SidenavModule</text>
</g>
<!-- SidenavModule&#45;&gt;DashboardModule -->
<g id="edge5" class="edge">
<title>SidenavModule&#45;&gt;DashboardModule</title>
<path fill="none" stroke="#000000" d="M662,-122.1061C662,-122.1061 662,-140.991 662,-140.991"/>
<polygon fill="#000000" stroke="#000000" points="658.5001,-140.9909 662,-150.991 665.5001,-140.991 658.5001,-140.9909"/>
</g>
<!-- ToolbarModule -->
<g id="node7" class="node">
<title>ToolbarModule</title>
<polygon fill="#8dd3c7" stroke="#000000" points="591.8683,-122 588.8683,-126 567.8683,-126 564.8683,-122 488.1317,-122 488.1317,-86 591.8683,-86 591.8683,-122"/>
<text text-anchor="middle" x="540" y="-99.8" font-family="Times,serif" font-size="14.00" fill="#000000">ToolbarModule</text>
</g>
<!-- ToolbarModule&#45;&gt;DashboardModule -->
<g id="edge6" class="edge">
<title>ToolbarModule&#45;&gt;DashboardModule</title>
<path fill="none" stroke="#000000" d="M592.1577,-104C600.1425,-104 605.7893,-104 605.7893,-104 605.7893,-104 605.7893,-140.8939 605.7893,-140.8939"/>
<polygon fill="#000000" stroke="#000000" points="602.2893,-140.8938 605.7893,-150.8939 609.2893,-140.8939 602.2893,-140.8938"/>
</g>
<!-- BreadcrumbsModule -->
<g id="node8" class="node">
<title>BreadcrumbsModule</title>
<polygon fill="#8dd3c7" stroke="#000000" points="470.1867,-122 467.1867,-126 446.1867,-126 443.1867,-122 335.8133,-122 335.8133,-86 470.1867,-86 470.1867,-122"/>
<text text-anchor="middle" x="403" y="-99.8" font-family="Times,serif" font-size="14.00" fill="#000000">BreadcrumbsModule</text>
</g>
<!-- BreadcrumbsModule&#45;&gt;DashboardModule -->
<g id="edge7" class="edge">
<title>BreadcrumbsModule&#45;&gt;DashboardModule</title>
<path fill="none" stroke="#000000" d="M403,-122.027C403,-138.3976 403,-160 403,-160 403,-160 591.6029,-160 591.6029,-160"/>
<polygon fill="#000000" stroke="#000000" points="591.6029,-163.5001 601.6029,-160 591.6028,-156.5001 591.6029,-163.5001"/>
</g>
<!-- QuickpanelModule -->
<g id="node9" class="node">
<title>QuickpanelModule</title>
<polygon fill="#8dd3c7" stroke="#000000" points="318.0814,-122 315.0814,-126 294.0814,-126 291.0814,-122 193.9186,-122 193.9186,-86 318.0814,-86 318.0814,-122"/>
<text text-anchor="middle" x="256" y="-99.8" font-family="Times,serif" font-size="14.00" fill="#000000">QuickpanelModule</text>
</g>
<!-- QuickpanelModule&#45;&gt;DashboardModule -->
<g id="edge8" class="edge">
<title>QuickpanelModule&#45;&gt;DashboardModule</title>
<path fill="none" stroke="#000000" d="M256,-122.1061C256,-141.3391 256,-169 256,-169 256,-169 591.6561,-169 591.6561,-169"/>
<polygon fill="#000000" stroke="#000000" points="591.6561,-172.5001 601.6561,-169 591.6561,-165.5001 591.6561,-172.5001"/>
</g>
<!-- LoadingOverlayModule -->
<g id="node10" class="node">
<title>LoadingOverlayModule</title>
<polygon fill="#8dd3c7" stroke="#000000" points="175.7949,-122 172.7949,-126 151.7949,-126 148.7949,-122 24.2051,-122 24.2051,-86 175.7949,-86 175.7949,-122"/>
<text text-anchor="middle" x="100" y="-99.8" font-family="Times,serif" font-size="14.00" fill="#000000">LoadingOverlayModule</text>
</g>
<!-- LoadingOverlayModule&#45;&gt;DashboardModule -->
<g id="edge9" class="edge">
<title>LoadingOverlayModule&#45;&gt;DashboardModule</title>
<path fill="none" stroke="#000000" d="M100,-122.2921C100,-144.2057 100,-178 100,-178 100,-178 591.8562,-178 591.8562,-178"/>
<polygon fill="#000000" stroke="#000000" points="591.8562,-181.5001 601.8562,-178 591.8561,-174.5001 591.8562,-181.5001"/>
</g>
</g>
</svg>
