<?xml version="1.0" encoding="UTF-8" standalone="no"?>
<!DOCTYPE svg PUBLIC "-//W3C//DTD SVG 1.1//EN"
 "http://www.w3.org/Graphics/SVG/1.1/DTD/svg11.dtd">
<!-- Generated by graphviz version 2.40.1 (20161225.0304)
 -->
<!-- Title: dependencies Pages: 1 -->
<svg width="504pt" height="211pt"
 viewBox="0.00 0.00 504.00 211.00" xmlns="http://www.w3.org/2000/svg" xmlns:xlink="http://www.w3.org/1999/xlink">
<g id="graph0" class="graph" transform="scale(1 1) rotate(0) translate(4 207)">
<title>dependencies</title>
<polygon fill="#ffffff" stroke="transparent" points="-4,4 -4,-207 500,-207 500,4 -4,4"/>
<text text-anchor="start" x="227.0091" y="-42.4" font-family="sans-serif" font-weight="bold" font-size="14.00" fill="#000000">Legend</text>
<polygon fill="#ffffb3" stroke="transparent" points="14,-10 14,-30 34,-30 34,-10 14,-10"/>
<text text-anchor="start" x="37.629" y="-15.4" font-family="sans-serif" font-size="14.00" fill="#000000"> &#160;Declarations</text>
<polygon fill="#8dd3c7" stroke="transparent" points="127,-10 127,-30 147,-30 147,-10 127,-10"/>
<text text-anchor="start" x="150.7251" y="-15.4" font-family="sans-serif" font-size="14.00" fill="#000000"> &#160;Module</text>
<polygon fill="#80b1d3" stroke="transparent" points="213,-10 213,-30 233,-30 233,-10 213,-10"/>
<text text-anchor="start" x="236.7812" y="-15.4" font-family="sans-serif" font-size="14.00" fill="#000000"> &#160;Bootstrap</text>
<polygon fill="#fdb462" stroke="transparent" points="310,-10 310,-30 330,-30 330,-10 310,-10"/>
<text text-anchor="start" x="333.6732" y="-15.4" font-family="sans-serif" font-size="14.00" fill="#000000"> &#160;Providers</text>
<polygon fill="#fb8072" stroke="transparent" points="406,-10 406,-30 426,-30 426,-10 406,-10"/>
<text text-anchor="start" x="429.7258" y="-15.4" font-family="sans-serif" font-size="14.00" fill="#000000"> &#160;Exports</text>
<g id="clust1" class="cluster">
<title>cluster_AppModule</title>
<polygon fill="none" stroke="#000000" stroke-dasharray="1,5" points="8.5,-70 8.5,-195 487.5,-195 487.5,-70 8.5,-70"/>
</g>
<g id="clust3" class="cluster">
<title>cluster_AppModule_imports</title>
<polygon fill="none" stroke="#000000" points="16.5,-78 16.5,-130 479.5,-130 479.5,-78 16.5,-78"/>
</g>
<!-- AuthModule -->
<g id="node1" class="node">
<title>AuthModule</title>
<polygon fill="#8dd3c7" stroke="#000000" points="471.0482,-122 468.0482,-126 447.0482,-126 444.0482,-122 383.9518,-122 383.9518,-86 471.0482,-86 471.0482,-122"/>
<text text-anchor="middle" x="427.5" y="-99.8" font-family="Times,serif" font-size="14.00" fill="#000000">AuthModule</text>
</g>
<!-- AppModule -->
<g id="node5" class="node">
<title>AppModule</title>
<polygon fill="#8dd3c7" stroke="#000000" points="300.1571,-187 297.1571,-191 276.1571,-191 273.1571,-187 216.8429,-187 216.8429,-151 300.1571,-151 300.1571,-187"/>
<text text-anchor="middle" x="258.5" y="-164.8" font-family="Times,serif" font-size="14.00" fill="#000000">AppModule</text>
</g>
<!-- AuthModule&#45;&gt;AppModule -->
<g id="edge1" class="edge">
<title>AuthModule&#45;&gt;AppModule</title>
<path fill="none" stroke="#000000" d="M427.5,-122.1061C427.5,-141.3391 427.5,-169 427.5,-169 427.5,-169 310.2753,-169 310.2753,-169"/>
<polygon fill="#000000" stroke="#000000" points="310.2753,-165.5001 300.2753,-169 310.2753,-172.5001 310.2753,-165.5001"/>
</g>
<!-- CoreModule -->
<g id="node2" class="node">
<title>CoreModule</title>
<polygon fill="#8dd3c7" stroke="#000000" points="365.7619,-122 362.7619,-126 341.7619,-126 338.7619,-122 279.2381,-122 279.2381,-86 365.7619,-86 365.7619,-122"/>
<text text-anchor="middle" x="322.5" y="-99.8" font-family="Times,serif" font-size="14.00" fill="#000000">CoreModule</text>
</g>
<!-- CoreModule&#45;&gt;AppModule -->
<g id="edge2" class="edge">
<title>CoreModule&#45;&gt;AppModule</title>
<path fill="none" stroke="#000000" d="M289.7237,-122.1061C289.7237,-122.1061 289.7237,-140.991 289.7237,-140.991"/>
<polygon fill="#000000" stroke="#000000" points="286.2238,-140.9909 289.7237,-150.991 293.2238,-140.991 286.2238,-140.9909"/>
</g>
<!-- NotificationsModule -->
<g id="node3" class="node">
<title>NotificationsModule</title>
<polygon fill="#8dd3c7" stroke="#000000" points="260.6443,-122 257.6443,-126 236.6443,-126 233.6443,-122 128.3557,-122 128.3557,-86 260.6443,-86 260.6443,-122"/>
<text text-anchor="middle" x="194.5" y="-99.8" font-family="Times,serif" font-size="14.00" fill="#000000">NotificationsModule</text>
</g>
<!-- NotificationsModule&#45;&gt;AppModule -->
<g id="edge3" class="edge">
<title>NotificationsModule&#45;&gt;AppModule</title>
<path fill="none" stroke="#000000" d="M238.7469,-122.1061C238.7469,-122.1061 238.7469,-140.991 238.7469,-140.991"/>
<polygon fill="#000000" stroke="#000000" points="235.2469,-140.9909 238.7469,-150.991 242.2469,-140.991 235.2469,-140.9909"/>
</g>
<!-- UserModule -->
<g id="node4" class="node">
<title>UserModule</title>
<polygon fill="#8dd3c7" stroke="#000000" points="110.4762,-122 107.4762,-126 86.4762,-126 83.4762,-122 24.5238,-122 24.5238,-86 110.4762,-86 110.4762,-122"/>
<text text-anchor="middle" x="67.5" y="-99.8" font-family="Times,serif" font-size="14.00" fill="#000000">UserModule</text>
</g>
<!-- UserModule&#45;&gt;AppModule -->
<g id="edge4" class="edge">
<title>UserModule&#45;&gt;AppModule</title>
<path fill="none" stroke="#000000" d="M67.5,-122.1061C67.5,-141.3391 67.5,-169 67.5,-169 67.5,-169 206.5842,-169 206.5842,-169"/>
<polygon fill="#000000" stroke="#000000" points="206.5843,-172.5001 216.5842,-169 206.5842,-165.5001 206.5843,-172.5001"/>
</g>
</g>
</svg>
