<?xml version="1.0" encoding="UTF-8" standalone="no"?>
<!DOCTYPE svg PUBLIC "-//W3C//DTD SVG 1.1//EN"
 "http://www.w3.org/Graphics/SVG/1.1/DTD/svg11.dtd">
<!-- Generated by graphviz version 2.40.1 (20161225.0304)
 -->
<!-- Title: dependencies Pages: 1 -->
<svg width="1766pt" height="211pt"
 viewBox="0.00 0.00 1766.00 211.00" xmlns="http://www.w3.org/2000/svg" xmlns:xlink="http://www.w3.org/1999/xlink">
<g id="graph0" class="graph" transform="scale(1 1) rotate(0) translate(4 207)">
<title>dependencies</title>
<polygon fill="#ffffff" stroke="transparent" points="-4,4 -4,-207 1762,-207 1762,4 -4,4"/>
<text text-anchor="start" x="858.0091" y="-42.4" font-family="sans-serif" font-weight="bold" font-size="14.00" fill="#000000">Legend</text>
<polygon fill="#ffffb3" stroke="transparent" points="645,-10 645,-30 665,-30 665,-10 645,-10"/>
<text text-anchor="start" x="668.629" y="-15.4" font-family="sans-serif" font-size="14.00" fill="#000000"> &#160;Declarations</text>
<polygon fill="#8dd3c7" stroke="transparent" points="758,-10 758,-30 778,-30 778,-10 758,-10"/>
<text text-anchor="start" x="781.7251" y="-15.4" font-family="sans-serif" font-size="14.00" fill="#000000"> &#160;Module</text>
<polygon fill="#80b1d3" stroke="transparent" points="844,-10 844,-30 864,-30 864,-10 844,-10"/>
<text text-anchor="start" x="867.7812" y="-15.4" font-family="sans-serif" font-size="14.00" fill="#000000"> &#160;Bootstrap</text>
<polygon fill="#fdb462" stroke="transparent" points="941,-10 941,-30 961,-30 961,-10 941,-10"/>
<text text-anchor="start" x="964.6732" y="-15.4" font-family="sans-serif" font-size="14.00" fill="#000000"> &#160;Providers</text>
<polygon fill="#fb8072" stroke="transparent" points="1037,-10 1037,-30 1057,-30 1057,-10 1037,-10"/>
<text text-anchor="start" x="1060.7258" y="-15.4" font-family="sans-serif" font-size="14.00" fill="#000000"> &#160;Exports</text>
<g id="clust1" class="cluster">
<title>cluster_HomeModule</title>
<polygon fill="none" stroke="#000000" stroke-dasharray="1,5" points="8,-70 8,-195 1750,-195 1750,-70 8,-70"/>
</g>
<g id="clust2" class="cluster">
<title>cluster_HomeModule_declarations</title>
<polygon fill="none" stroke="#000000" points="580,-78 580,-130 1742,-130 1742,-78 580,-78"/>
</g>
<g id="clust11" class="cluster">
<title>cluster_HomeModule_imports</title>
<polygon fill="none" stroke="#000000" points="16,-78 16,-130 572,-130 572,-78 16,-78"/>
</g>
<!-- AboutComponent -->
<g id="node1" class="node">
<title>AboutComponent</title>
<polygon fill="#ffffb3" stroke="#000000" points="1734.3301,-122 1617.6699,-122 1617.6699,-86 1734.3301,-86 1734.3301,-122"/>
<text text-anchor="middle" x="1676" y="-99.8" font-family="Times,serif" font-size="14.00" fill="#000000">AboutComponent</text>
</g>
<!-- HomeModule -->
<g id="node9" class="node">
<title>HomeModule</title>
<polygon fill="#8dd3c7" stroke="#000000" points="940.7619,-187 937.7619,-191 916.7619,-191 913.7619,-187 847.2381,-187 847.2381,-151 940.7619,-151 940.7619,-187"/>
<text text-anchor="middle" x="894" y="-164.8" font-family="Times,serif" font-size="14.00" fill="#000000">HomeModule</text>
</g>
<!-- AboutComponent&#45;&gt;HomeModule -->
<g id="edge1" class="edge">
<title>AboutComponent&#45;&gt;HomeModule</title>
<path fill="none" stroke="#000000" d="M1676,-122.0908C1676,-145.1328 1676,-182 1676,-182 1676,-182 950.8658,-182 950.8658,-182"/>
<polygon fill="#000000" stroke="#000000" points="950.8658,-178.5001 940.8658,-182 950.8657,-185.5001 950.8658,-178.5001"/>
</g>
<!-- BlogComponent -->
<g id="node2" class="node">
<title>BlogComponent</title>
<polygon fill="#ffffb3" stroke="#000000" points="1600.0605,-122 1491.9395,-122 1491.9395,-86 1600.0605,-86 1600.0605,-122"/>
<text text-anchor="middle" x="1546" y="-99.8" font-family="Times,serif" font-size="14.00" fill="#000000">BlogComponent</text>
</g>
<!-- BlogComponent&#45;&gt;HomeModule -->
<g id="edge2" class="edge">
<title>BlogComponent&#45;&gt;HomeModule</title>
<path fill="none" stroke="#000000" d="M1546,-122.2843C1546,-143.3211 1546,-175 1546,-175 1546,-175 950.8902,-175 950.8902,-175"/>
<polygon fill="#000000" stroke="#000000" points="950.8903,-171.5001 940.8902,-175 950.8902,-178.5001 950.8903,-171.5001"/>
</g>
<!-- FeaturesComponent -->
<g id="node3" class="node">
<title>FeaturesComponent</title>
<polygon fill="#ffffb3" stroke="#000000" points="1473.2548,-122 1344.7452,-122 1344.7452,-86 1473.2548,-86 1473.2548,-122"/>
<text text-anchor="middle" x="1409" y="-99.8" font-family="Times,serif" font-size="14.00" fill="#000000">FeaturesComponent</text>
</g>
<!-- FeaturesComponent&#45;&gt;HomeModule -->
<g id="edge3" class="edge">
<title>FeaturesComponent&#45;&gt;HomeModule</title>
<path fill="none" stroke="#000000" d="M1409,-122.1061C1409,-141.3391 1409,-169 1409,-169 1409,-169 951.0681,-169 951.0681,-169"/>
<polygon fill="#000000" stroke="#000000" points="951.0681,-165.5001 941.0681,-169 951.068,-172.5001 951.0681,-165.5001"/>
</g>
<!-- FooterComponent -->
<g id="node4" class="node">
<title>FooterComponent</title>
<polygon fill="#ffffb3" stroke="#000000" points="1326.8809,-122 1209.1191,-122 1209.1191,-86 1326.8809,-86 1326.8809,-122"/>
<text text-anchor="middle" x="1268" y="-99.8" font-family="Times,serif" font-size="14.00" fill="#000000">FooterComponent</text>
</g>
<!-- FooterComponent&#45;&gt;HomeModule -->
<g id="edge4" class="edge">
<title>FooterComponent&#45;&gt;HomeModule</title>
<path fill="none" stroke="#000000" d="M1268,-122.0225C1268,-139.3734 1268,-163 1268,-163 1268,-163 950.9887,-163 950.9887,-163"/>
<polygon fill="#000000" stroke="#000000" points="950.9887,-159.5001 940.9887,-163 950.9886,-166.5001 950.9887,-159.5001"/>
</g>
<!-- HeaderComponent -->
<g id="node5" class="node">
<title>HeaderComponent</title>
<polygon fill="#ffffb3" stroke="#000000" points="1190.7437,-122 1069.2563,-122 1069.2563,-86 1190.7437,-86 1190.7437,-122"/>
<text text-anchor="middle" x="1130" y="-99.8" font-family="Times,serif" font-size="14.00" fill="#000000">HeaderComponent</text>
</g>
<!-- HeaderComponent&#45;&gt;HomeModule -->
<g id="edge5" class="edge">
<title>HeaderComponent&#45;&gt;HomeModule</title>
<path fill="none" stroke="#000000" d="M1130,-122.2396C1130,-137.5706 1130,-157 1130,-157 1130,-157 950.9082,-157 950.9082,-157"/>
<polygon fill="#000000" stroke="#000000" points="950.9082,-153.5001 940.9082,-157 950.9081,-160.5001 950.9082,-153.5001"/>
</g>
<!-- HomeLayoutComponent -->
<g id="node6" class="node">
<title>HomeLayoutComponent</title>
<polygon fill="#ffffb3" stroke="#000000" points="1051.7021,-122 896.2979,-122 896.2979,-86 1051.7021,-86 1051.7021,-122"/>
<text text-anchor="middle" x="974" y="-99.8" font-family="Times,serif" font-size="14.00" fill="#000000">HomeLayoutComponent</text>
</g>
<!-- HomeLayoutComponent&#45;&gt;HomeModule -->
<g id="edge6" class="edge">
<title>HomeLayoutComponent&#45;&gt;HomeModule</title>
<path fill="none" stroke="#000000" d="M918.6399,-122.1061C918.6399,-122.1061 918.6399,-140.991 918.6399,-140.991"/>
<polygon fill="#000000" stroke="#000000" points="915.14,-140.9909 918.6399,-150.991 922.14,-140.991 915.14,-140.9909"/>
</g>
<!-- LandingComponent -->
<g id="node7" class="node">
<title>LandingComponent</title>
<polygon fill="#ffffb3" stroke="#000000" points="877.9902,-122 750.0098,-122 750.0098,-86 877.9902,-86 877.9902,-122"/>
<text text-anchor="middle" x="814" y="-99.8" font-family="Times,serif" font-size="14.00" fill="#000000">LandingComponent</text>
</g>
<!-- LandingComponent&#45;&gt;HomeModule -->
<g id="edge7" class="edge">
<title>LandingComponent&#45;&gt;HomeModule</title>
<path fill="none" stroke="#000000" d="M862.5572,-122.1061C862.5572,-122.1061 862.5572,-140.991 862.5572,-140.991"/>
<polygon fill="#000000" stroke="#000000" points="859.0572,-140.9909 862.5572,-150.991 866.0572,-140.991 859.0572,-140.9909"/>
</g>
<!-- StickyHeaderDirective -->
<g id="node8" class="node">
<title>StickyHeaderDirective</title>
<polygon fill="#ffffb3" stroke="#000000" points="732.2725,-122 587.7275,-122 587.7275,-86 732.2725,-86 732.2725,-122"/>
<text text-anchor="middle" x="660" y="-99.8" font-family="Times,serif" font-size="14.00" fill="#000000">StickyHeaderDirective</text>
</g>
<!-- StickyHeaderDirective&#45;&gt;HomeModule -->
<g id="edge8" class="edge">
<title>StickyHeaderDirective&#45;&gt;HomeModule</title>
<path fill="none" stroke="#000000" d="M660,-122.2396C660,-137.5706 660,-157 660,-157 660,-157 837.209,-157 837.209,-157"/>
<polygon fill="#000000" stroke="#000000" points="837.209,-160.5001 847.209,-157 837.209,-153.5001 837.209,-160.5001"/>
</g>
<!-- ScrollToTopModule -->
<g id="node10" class="node">
<title>ScrollToTopModule</title>
<polygon fill="#8dd3c7" stroke="#000000" points="563.594,-122 560.594,-126 539.594,-126 536.594,-122 432.406,-122 432.406,-86 563.594,-86 563.594,-122"/>
<text text-anchor="middle" x="498" y="-99.8" font-family="Times,serif" font-size="14.00" fill="#000000">ScrollToTopModule</text>
</g>
<!-- ScrollToTopModule&#45;&gt;HomeModule -->
<g id="edge9" class="edge">
<title>ScrollToTopModule&#45;&gt;HomeModule</title>
<path fill="none" stroke="#000000" d="M498,-122.0225C498,-139.3734 498,-163 498,-163 498,-163 837.0185,-163 837.0185,-163"/>
<polygon fill="#000000" stroke="#000000" points="837.0186,-166.5001 847.0185,-163 837.0185,-159.5001 837.0186,-166.5001"/>
</g>
<!-- SharedModule -->
<g id="node11" class="node">
<title>SharedModule</title>
<polygon fill="#8dd3c7" stroke="#000000" points="414.4231,-122 411.4231,-126 390.4231,-126 387.4231,-122 315.5769,-122 315.5769,-86 414.4231,-86 414.4231,-122"/>
<text text-anchor="middle" x="365" y="-99.8" font-family="Times,serif" font-size="14.00" fill="#000000">SharedModule</text>
</g>
<!-- SharedModule&#45;&gt;HomeModule -->
<g id="edge10" class="edge">
<title>SharedModule&#45;&gt;HomeModule</title>
<path fill="none" stroke="#000000" d="M365,-122.1061C365,-141.3391 365,-169 365,-169 365,-169 837.0548,-169 837.0548,-169"/>
<polygon fill="#000000" stroke="#000000" points="837.0548,-172.5001 847.0548,-169 837.0547,-165.5001 837.0548,-172.5001"/>
</g>
<!-- SvgViewerModule -->
<g id="node12" class="node">
<title>SvgViewerModule</title>
<polygon fill="#8dd3c7" stroke="#000000" points="298.0269,-122 295.0269,-126 274.0269,-126 271.0269,-122 175.9731,-122 175.9731,-86 298.0269,-86 298.0269,-122"/>
<text text-anchor="middle" x="237" y="-99.8" font-family="Times,serif" font-size="14.00" fill="#000000">SvgViewerModule</text>
</g>
<!-- SvgViewerModule&#45;&gt;HomeModule -->
<g id="edge11" class="edge">
<title>SvgViewerModule&#45;&gt;HomeModule</title>
<path fill="none" stroke="#000000" d="M237,-122.2843C237,-143.3211 237,-175 237,-175 237,-175 837.0138,-175 837.0138,-175"/>
<polygon fill="#000000" stroke="#000000" points="837.0139,-178.5001 847.0138,-175 837.0138,-171.5001 837.0139,-178.5001"/>
</g>
<!-- ThemePickerModule -->
<g id="node13" class="node">
<title>ThemePickerModule</title>
<polygon fill="#8dd3c7" stroke="#000000" points="158.1853,-122 155.1853,-126 134.1853,-126 131.1853,-122 23.8147,-122 23.8147,-86 158.1853,-86 158.1853,-122"/>
<text text-anchor="middle" x="91" y="-99.8" font-family="Times,serif" font-size="14.00" fill="#000000">ThemePickerModule</text>
</g>
<!-- ThemePickerModule&#45;&gt;HomeModule -->
<g id="edge12" class="edge">
<title>ThemePickerModule&#45;&gt;HomeModule</title>
<path fill="none" stroke="#000000" d="M91,-122.0908C91,-145.1328 91,-182 91,-182 91,-182 837.0619,-182 837.0619,-182"/>
<polygon fill="#000000" stroke="#000000" points="837.062,-185.5001 847.0619,-182 837.0619,-178.5001 837.062,-185.5001"/>
</g>
</g>
</svg>
