<?xml version="1.0" encoding="UTF-8" standalone="no"?>
<!DOCTYPE svg PUBLIC "-//W3C//DTD SVG 1.1//EN"
 "http://www.w3.org/Graphics/SVG/1.1/DTD/svg11.dtd">
<!-- Generated by graphviz version 2.40.1 (20161225.0304)
 -->
<!-- Title: dependencies Pages: 1 -->
<svg width="1604pt" height="211pt"
 viewBox="0.00 0.00 1604.00 211.00" xmlns="http://www.w3.org/2000/svg" xmlns:xlink="http://www.w3.org/1999/xlink">
<g id="graph0" class="graph" transform="scale(1 1) rotate(0) translate(4 207)">
<title>dependencies</title>
<polygon fill="#ffffff" stroke="transparent" points="-4,4 -4,-207 1600,-207 1600,4 -4,4"/>
<text text-anchor="start" x="777.0091" y="-42.4" font-family="sans-serif" font-weight="bold" font-size="14.00" fill="#000000">Legend</text>
<polygon fill="#ffffb3" stroke="transparent" points="564,-10 564,-30 584,-30 584,-10 564,-10"/>
<text text-anchor="start" x="587.629" y="-15.4" font-family="sans-serif" font-size="14.00" fill="#000000"> &#160;Declarations</text>
<polygon fill="#8dd3c7" stroke="transparent" points="677,-10 677,-30 697,-30 697,-10 677,-10"/>
<text text-anchor="start" x="700.7251" y="-15.4" font-family="sans-serif" font-size="14.00" fill="#000000"> &#160;Module</text>
<polygon fill="#80b1d3" stroke="transparent" points="763,-10 763,-30 783,-30 783,-10 763,-10"/>
<text text-anchor="start" x="786.7812" y="-15.4" font-family="sans-serif" font-size="14.00" fill="#000000"> &#160;Bootstrap</text>
<polygon fill="#fdb462" stroke="transparent" points="860,-10 860,-30 880,-30 880,-10 860,-10"/>
<text text-anchor="start" x="883.6732" y="-15.4" font-family="sans-serif" font-size="14.00" fill="#000000"> &#160;Providers</text>
<polygon fill="#fb8072" stroke="transparent" points="956,-10 956,-30 976,-30 976,-10 956,-10"/>
<text text-anchor="start" x="979.7258" y="-15.4" font-family="sans-serif" font-size="14.00" fill="#000000"> &#160;Exports</text>
<g id="clust1" class="cluster">
<title>cluster_HomeModule</title>
<polygon fill="none" stroke="#000000" stroke-dasharray="1,5" points="8,-70 8,-195 1588,-195 1588,-70 8,-70"/>
</g>
<g id="clust2" class="cluster">
<title>cluster_HomeModule_declarations</title>
<polygon fill="none" stroke="#000000" points="580,-78 580,-130 1580,-130 1580,-78 580,-78"/>
</g>
<g id="clust10" class="cluster">
<title>cluster_HomeModule_imports</title>
<polygon fill="none" stroke="#000000" points="16,-78 16,-130 572,-130 572,-78 16,-78"/>
</g>
<!-- AboutComponent -->
<g id="node1" class="node">
<title>AboutComponent</title>
<polygon fill="#ffffb3" stroke="#000000" points="1572.3301,-122 1455.6699,-122 1455.6699,-86 1572.3301,-86 1572.3301,-122"/>
<text text-anchor="middle" x="1514" y="-99.8" font-family="Times,serif" font-size="14.00" fill="#000000">AboutComponent</text>
</g>
<!-- HomeModule -->
<g id="node8" class="node">
<title>HomeModule</title>
<polygon fill="#8dd3c7" stroke="#000000" points="858.7619,-187 855.7619,-191 834.7619,-191 831.7619,-187 765.2381,-187 765.2381,-151 858.7619,-151 858.7619,-187"/>
<text text-anchor="middle" x="812" y="-164.8" font-family="Times,serif" font-size="14.00" fill="#000000">HomeModule</text>
</g>
<!-- AboutComponent&#45;&gt;HomeModule -->
<g id="edge1" class="edge">
<title>AboutComponent&#45;&gt;HomeModule</title>
<path fill="none" stroke="#000000" d="M1514,-122.0908C1514,-145.1328 1514,-182 1514,-182 1514,-182 868.8767,-182 868.8767,-182"/>
<polygon fill="#000000" stroke="#000000" points="868.8767,-178.5001 858.8767,-182 868.8767,-185.5001 868.8767,-178.5001"/>
</g>
<!-- BlogComponent -->
<g id="node2" class="node">
<title>BlogComponent</title>
<polygon fill="#ffffb3" stroke="#000000" points="1438.0605,-122 1329.9395,-122 1329.9395,-86 1438.0605,-86 1438.0605,-122"/>
<text text-anchor="middle" x="1384" y="-99.8" font-family="Times,serif" font-size="14.00" fill="#000000">BlogComponent</text>
</g>
<!-- BlogComponent&#45;&gt;HomeModule -->
<g id="edge2" class="edge">
<title>BlogComponent&#45;&gt;HomeModule</title>
<path fill="none" stroke="#000000" d="M1384,-122.2843C1384,-143.3211 1384,-175 1384,-175 1384,-175 868.8092,-175 868.8092,-175"/>
<polygon fill="#000000" stroke="#000000" points="868.8092,-171.5001 858.8092,-175 868.8091,-178.5001 868.8092,-171.5001"/>
</g>
<!-- FeaturesComponent -->
<g id="node3" class="node">
<title>FeaturesComponent</title>
<polygon fill="#ffffb3" stroke="#000000" points="1311.2548,-122 1182.7452,-122 1182.7452,-86 1311.2548,-86 1311.2548,-122"/>
<text text-anchor="middle" x="1247" y="-99.8" font-family="Times,serif" font-size="14.00" fill="#000000">FeaturesComponent</text>
</g>
<!-- FeaturesComponent&#45;&gt;HomeModule -->
<g id="edge3" class="edge">
<title>FeaturesComponent&#45;&gt;HomeModule</title>
<path fill="none" stroke="#000000" d="M1247,-122.1061C1247,-141.3391 1247,-169 1247,-169 1247,-169 868.9659,-169 868.9659,-169"/>
<polygon fill="#000000" stroke="#000000" points="868.966,-165.5001 858.9659,-169 868.9659,-172.5001 868.966,-165.5001"/>
</g>
<!-- FooterComponent -->
<g id="node4" class="node">
<title>FooterComponent</title>
<polygon fill="#ffffb3" stroke="#000000" points="1164.8809,-122 1047.1191,-122 1047.1191,-86 1164.8809,-86 1164.8809,-122"/>
<text text-anchor="middle" x="1106" y="-99.8" font-family="Times,serif" font-size="14.00" fill="#000000">FooterComponent</text>
</g>
<!-- FooterComponent&#45;&gt;HomeModule -->
<g id="edge4" class="edge">
<title>FooterComponent&#45;&gt;HomeModule</title>
<path fill="none" stroke="#000000" d="M1106,-122.0225C1106,-139.3734 1106,-163 1106,-163 1106,-163 868.9103,-163 868.9103,-163"/>
<polygon fill="#000000" stroke="#000000" points="868.9103,-159.5001 858.9103,-163 868.9102,-166.5001 868.9103,-159.5001"/>
</g>
<!-- HeaderComponent -->
<g id="node5" class="node">
<title>HeaderComponent</title>
<polygon fill="#ffffb3" stroke="#000000" points="1028.7437,-122 907.2563,-122 907.2563,-86 1028.7437,-86 1028.7437,-122"/>
<text text-anchor="middle" x="968" y="-99.8" font-family="Times,serif" font-size="14.00" fill="#000000">HeaderComponent</text>
</g>
<!-- HeaderComponent&#45;&gt;HomeModule -->
<g id="edge5" class="edge">
<title>HeaderComponent&#45;&gt;HomeModule</title>
<path fill="none" stroke="#000000" d="M968,-122.2396C968,-137.5706 968,-157 968,-157 968,-157 868.8051,-157 868.8051,-157"/>
<polygon fill="#000000" stroke="#000000" points="868.8052,-153.5001 858.8051,-157 868.8051,-160.5001 868.8052,-153.5001"/>
</g>
<!-- HomeLayoutComponent -->
<g id="node6" class="node">
<title>HomeLayoutComponent</title>
<polygon fill="#ffffb3" stroke="#000000" points="889.7021,-122 734.2979,-122 734.2979,-86 889.7021,-86 889.7021,-122"/>
<text text-anchor="middle" x="812" y="-99.8" font-family="Times,serif" font-size="14.00" fill="#000000">HomeLayoutComponent</text>
</g>
<!-- HomeLayoutComponent&#45;&gt;HomeModule -->
<g id="edge6" class="edge">
<title>HomeLayoutComponent&#45;&gt;HomeModule</title>
<path fill="none" stroke="#000000" d="M812,-122.1061C812,-122.1061 812,-140.991 812,-140.991"/>
<polygon fill="#000000" stroke="#000000" points="808.5001,-140.9909 812,-150.991 815.5001,-140.991 808.5001,-140.9909"/>
</g>
<!-- LandingComponent -->
<g id="node7" class="node">
<title>LandingComponent</title>
<polygon fill="#ffffb3" stroke="#000000" points="715.9902,-122 588.0098,-122 588.0098,-86 715.9902,-86 715.9902,-122"/>
<text text-anchor="middle" x="652" y="-99.8" font-family="Times,serif" font-size="14.00" fill="#000000">LandingComponent</text>
</g>
<!-- LandingComponent&#45;&gt;HomeModule -->
<g id="edge7" class="edge">
<title>LandingComponent&#45;&gt;HomeModule</title>
<path fill="none" stroke="#000000" d="M652,-122.2396C652,-137.5706 652,-157 652,-157 652,-157 754.8601,-157 754.8601,-157"/>
<polygon fill="#000000" stroke="#000000" points="754.8601,-160.5001 764.8601,-157 754.8601,-153.5001 754.8601,-160.5001"/>
</g>
<!-- ScrollToTopModule -->
<g id="node9" class="node">
<title>ScrollToTopModule</title>
<polygon fill="#8dd3c7" stroke="#000000" points="563.594,-122 560.594,-126 539.594,-126 536.594,-122 432.406,-122 432.406,-86 563.594,-86 563.594,-122"/>
<text text-anchor="middle" x="498" y="-99.8" font-family="Times,serif" font-size="14.00" fill="#000000">ScrollToTopModule</text>
</g>
<!-- ScrollToTopModule&#45;&gt;HomeModule -->
<g id="edge8" class="edge">
<title>ScrollToTopModule&#45;&gt;HomeModule</title>
<path fill="none" stroke="#000000" d="M498,-122.0225C498,-139.3734 498,-163 498,-163 498,-163 754.991,-163 754.991,-163"/>
<polygon fill="#000000" stroke="#000000" points="754.9911,-166.5001 764.991,-163 754.991,-159.5001 754.9911,-166.5001"/>
</g>
<!-- SharedModule -->
<g id="node10" class="node">
<title>SharedModule</title>
<polygon fill="#8dd3c7" stroke="#000000" points="414.4231,-122 411.4231,-126 390.4231,-126 387.4231,-122 315.5769,-122 315.5769,-86 414.4231,-86 414.4231,-122"/>
<text text-anchor="middle" x="365" y="-99.8" font-family="Times,serif" font-size="14.00" fill="#000000">SharedModule</text>
</g>
<!-- SharedModule&#45;&gt;HomeModule -->
<g id="edge9" class="edge">
<title>SharedModule&#45;&gt;HomeModule</title>
<path fill="none" stroke="#000000" d="M365,-122.1061C365,-141.3391 365,-169 365,-169 365,-169 755.008,-169 755.008,-169"/>
<polygon fill="#000000" stroke="#000000" points="755.0081,-172.5001 765.008,-169 755.008,-165.5001 755.0081,-172.5001"/>
</g>
<!-- SvgViewerModule -->
<g id="node11" class="node">
<title>SvgViewerModule</title>
<polygon fill="#8dd3c7" stroke="#000000" points="298.0269,-122 295.0269,-126 274.0269,-126 271.0269,-122 175.9731,-122 175.9731,-86 298.0269,-86 298.0269,-122"/>
<text text-anchor="middle" x="237" y="-99.8" font-family="Times,serif" font-size="14.00" fill="#000000">SvgViewerModule</text>
</g>
<!-- SvgViewerModule&#45;&gt;HomeModule -->
<g id="edge10" class="edge">
<title>SvgViewerModule&#45;&gt;HomeModule</title>
<path fill="none" stroke="#000000" d="M237,-122.2843C237,-143.3211 237,-175 237,-175 237,-175 754.9453,-175 754.9453,-175"/>
<polygon fill="#000000" stroke="#000000" points="754.9454,-178.5001 764.9453,-175 754.9453,-171.5001 754.9454,-178.5001"/>
</g>
<!-- ThemePickerModule -->
<g id="node12" class="node">
<title>ThemePickerModule</title>
<polygon fill="#8dd3c7" stroke="#000000" points="158.1853,-122 155.1853,-126 134.1853,-126 131.1853,-122 23.8147,-122 23.8147,-86 158.1853,-86 158.1853,-122"/>
<text text-anchor="middle" x="91" y="-99.8" font-family="Times,serif" font-size="14.00" fill="#000000">ThemePickerModule</text>
</g>
<!-- ThemePickerModule&#45;&gt;HomeModule -->
<g id="edge11" class="edge">
<title>ThemePickerModule&#45;&gt;HomeModule</title>
<path fill="none" stroke="#000000" d="M91,-122.0908C91,-145.1328 91,-182 91,-182 91,-182 754.9713,-182 754.9713,-182"/>
<polygon fill="#000000" stroke="#000000" points="754.9713,-185.5001 764.9713,-182 754.9713,-178.5001 754.9713,-185.5001"/>
</g>
</g>
</svg>
