<?xml version="1.0" encoding="UTF-8" standalone="no"?>
<!DOCTYPE svg PUBLIC "-//W3C//DTD SVG 1.1//EN"
 "http://www.w3.org/Graphics/SVG/1.1/DTD/svg11.dtd">
<!-- Generated by graphviz version 2.40.1 (20161225.0304)
 -->
<!-- Title: dependencies Pages: 1 -->
<svg width="1468pt" height="211pt"
 viewBox="0.00 0.00 1468.00 211.00" xmlns="http://www.w3.org/2000/svg" xmlns:xlink="http://www.w3.org/1999/xlink">
<g id="graph0" class="graph" transform="scale(1 1) rotate(0) translate(4 207)">
<title>dependencies</title>
<polygon fill="#ffffff" stroke="transparent" points="-4,4 -4,-207 1464,-207 1464,4 -4,4"/>
<text text-anchor="start" x="709.0091" y="-42.4" font-family="sans-serif" font-weight="bold" font-size="14.00" fill="#000000">Legend</text>
<polygon fill="#ffffb3" stroke="transparent" points="496,-10 496,-30 516,-30 516,-10 496,-10"/>
<text text-anchor="start" x="519.629" y="-15.4" font-family="sans-serif" font-size="14.00" fill="#000000"> &#160;Declarations</text>
<polygon fill="#8dd3c7" stroke="transparent" points="609,-10 609,-30 629,-30 629,-10 609,-10"/>
<text text-anchor="start" x="632.7251" y="-15.4" font-family="sans-serif" font-size="14.00" fill="#000000"> &#160;Module</text>
<polygon fill="#80b1d3" stroke="transparent" points="695,-10 695,-30 715,-30 715,-10 695,-10"/>
<text text-anchor="start" x="718.7812" y="-15.4" font-family="sans-serif" font-size="14.00" fill="#000000"> &#160;Bootstrap</text>
<polygon fill="#fdb462" stroke="transparent" points="792,-10 792,-30 812,-30 812,-10 792,-10"/>
<text text-anchor="start" x="815.6732" y="-15.4" font-family="sans-serif" font-size="14.00" fill="#000000"> &#160;Providers</text>
<polygon fill="#fb8072" stroke="transparent" points="888,-10 888,-30 908,-30 908,-10 888,-10"/>
<text text-anchor="start" x="911.7258" y="-15.4" font-family="sans-serif" font-size="14.00" fill="#000000"> &#160;Exports</text>
<g id="clust1" class="cluster">
<title>cluster_HomeModule</title>
<polygon fill="none" stroke="#000000" stroke-dasharray="1,5" points="8,-70 8,-195 1452,-195 1452,-70 8,-70"/>
</g>
<g id="clust2" class="cluster">
<title>cluster_HomeModule_declarations</title>
<polygon fill="none" stroke="#000000" points="580,-78 580,-130 1444,-130 1444,-78 580,-78"/>
</g>
<g id="clust9" class="cluster">
<title>cluster_HomeModule_imports</title>
<polygon fill="none" stroke="#000000" points="16,-78 16,-130 572,-130 572,-78 16,-78"/>
</g>
<!-- HeaderComponent -->
<g id="node1" class="node">
<title>HeaderComponent</title>
<polygon fill="#ffffb3" stroke="#000000" points="1435.7437,-122 1314.2563,-122 1314.2563,-86 1435.7437,-86 1435.7437,-122"/>
<text text-anchor="middle" x="1375" y="-99.8" font-family="Times,serif" font-size="14.00" fill="#000000">HeaderComponent</text>
</g>
<!-- HomeModule -->
<g id="node7" class="node">
<title>HomeModule</title>
<polygon fill="#8dd3c7" stroke="#000000" points="768.7619,-187 765.7619,-191 744.7619,-191 741.7619,-187 675.2381,-187 675.2381,-151 768.7619,-151 768.7619,-187"/>
<text text-anchor="middle" x="722" y="-164.8" font-family="Times,serif" font-size="14.00" fill="#000000">HomeModule</text>
</g>
<!-- HeaderComponent&#45;&gt;HomeModule -->
<g id="edge1" class="edge">
<title>HeaderComponent&#45;&gt;HomeModule</title>
<path fill="none" stroke="#000000" d="M1375,-122.0109C1375,-144.4852 1375,-180 1375,-180 1375,-180 778.9621,-180 778.9621,-180"/>
<polygon fill="#000000" stroke="#000000" points="778.9622,-176.5001 768.9621,-180 778.9621,-183.5001 778.9622,-176.5001"/>
</g>
<!-- HomeLayoutComponent -->
<g id="node2" class="node">
<title>HomeLayoutComponent</title>
<polygon fill="#ffffb3" stroke="#000000" points="1296.7021,-122 1141.2979,-122 1141.2979,-86 1296.7021,-86 1296.7021,-122"/>
<text text-anchor="middle" x="1219" y="-99.8" font-family="Times,serif" font-size="14.00" fill="#000000">HomeLayoutComponent</text>
</g>
<!-- HomeLayoutComponent&#45;&gt;HomeModule -->
<g id="edge2" class="edge">
<title>HomeLayoutComponent&#45;&gt;HomeModule</title>
<path fill="none" stroke="#000000" d="M1219,-122.1289C1219,-142.5724 1219,-173 1219,-173 1219,-173 779.2046,-173 779.2046,-173"/>
<polygon fill="#000000" stroke="#000000" points="779.2047,-169.5001 769.2046,-173 779.2046,-176.5001 779.2047,-169.5001"/>
</g>
<!-- LandingComponent -->
<g id="node3" class="node">
<title>LandingComponent</title>
<polygon fill="#ffffb3" stroke="#000000" points="1122.9902,-122 995.0098,-122 995.0098,-86 1122.9902,-86 1122.9902,-122"/>
<text text-anchor="middle" x="1059" y="-99.8" font-family="Times,serif" font-size="14.00" fill="#000000">LandingComponent</text>
</g>
<!-- LandingComponent&#45;&gt;HomeModule -->
<g id="edge3" class="edge">
<title>LandingComponent&#45;&gt;HomeModule</title>
<path fill="none" stroke="#000000" d="M1059,-122.2667C1059,-140.5552 1059,-166 1059,-166 1059,-166 778.8584,-166 778.8584,-166"/>
<polygon fill="#000000" stroke="#000000" points="778.8584,-162.5001 768.8584,-166 778.8584,-169.5001 778.8584,-162.5001"/>
</g>
<!-- BlogComponent -->
<g id="node4" class="node">
<title>BlogComponent</title>
<polygon fill="#ffffb3" stroke="#000000" points="977.0605,-122 868.9395,-122 868.9395,-86 977.0605,-86 977.0605,-122"/>
<text text-anchor="middle" x="923" y="-99.8" font-family="Times,serif" font-size="14.00" fill="#000000">BlogComponent</text>
</g>
<!-- BlogComponent&#45;&gt;HomeModule -->
<g id="edge4" class="edge">
<title>BlogComponent&#45;&gt;HomeModule</title>
<path fill="none" stroke="#000000" d="M923,-122.0091C923,-138.0494 923,-159 923,-159 923,-159 778.8719,-159 778.8719,-159"/>
<polygon fill="#000000" stroke="#000000" points="778.8719,-155.5001 768.8719,-159 778.8719,-162.5001 778.8719,-155.5001"/>
</g>
<!-- AboutComponent -->
<g id="node5" class="node">
<title>AboutComponent</title>
<polygon fill="#ffffb3" stroke="#000000" points="851.3301,-122 734.6699,-122 734.6699,-86 851.3301,-86 851.3301,-122"/>
<text text-anchor="middle" x="793" y="-99.8" font-family="Times,serif" font-size="14.00" fill="#000000">AboutComponent</text>
</g>
<!-- AboutComponent&#45;&gt;HomeModule -->
<g id="edge5" class="edge">
<title>AboutComponent&#45;&gt;HomeModule</title>
<path fill="none" stroke="#000000" d="M751.858,-122.1061C751.858,-122.1061 751.858,-140.991 751.858,-140.991"/>
<polygon fill="#000000" stroke="#000000" points="748.3581,-140.9909 751.858,-150.991 755.3581,-140.991 748.3581,-140.9909"/>
</g>
<!-- FeaturesComponent -->
<g id="node6" class="node">
<title>FeaturesComponent</title>
<polygon fill="#ffffb3" stroke="#000000" points="716.2548,-122 587.7452,-122 587.7452,-86 716.2548,-86 716.2548,-122"/>
<text text-anchor="middle" x="652" y="-99.8" font-family="Times,serif" font-size="14.00" fill="#000000">FeaturesComponent</text>
</g>
<!-- FeaturesComponent&#45;&gt;HomeModule -->
<g id="edge6" class="edge">
<title>FeaturesComponent&#45;&gt;HomeModule</title>
<path fill="none" stroke="#000000" d="M695.7483,-122.1061C695.7483,-122.1061 695.7483,-140.991 695.7483,-140.991"/>
<polygon fill="#000000" stroke="#000000" points="692.2483,-140.9909 695.7483,-150.991 699.2483,-140.991 692.2483,-140.9909"/>
</g>
<!-- SharedModule -->
<g id="node8" class="node">
<title>SharedModule</title>
<polygon fill="#8dd3c7" stroke="#000000" points="564.4231,-122 561.4231,-126 540.4231,-126 537.4231,-122 465.5769,-122 465.5769,-86 564.4231,-86 564.4231,-122"/>
<text text-anchor="middle" x="515" y="-99.8" font-family="Times,serif" font-size="14.00" fill="#000000">SharedModule</text>
</g>
<!-- SharedModule&#45;&gt;HomeModule -->
<g id="edge7" class="edge">
<title>SharedModule&#45;&gt;HomeModule</title>
<path fill="none" stroke="#000000" d="M515,-122.0091C515,-138.0494 515,-159 515,-159 515,-159 665.0285,-159 665.0285,-159"/>
<polygon fill="#000000" stroke="#000000" points="665.0285,-162.5001 675.0285,-159 665.0285,-155.5001 665.0285,-162.5001"/>
</g>
<!-- ScrollToTopModule -->
<g id="node9" class="node">
<title>ScrollToTopModule</title>
<polygon fill="#8dd3c7" stroke="#000000" points="447.594,-122 444.594,-126 423.594,-126 420.594,-122 316.406,-122 316.406,-86 447.594,-86 447.594,-122"/>
<text text-anchor="middle" x="382" y="-99.8" font-family="Times,serif" font-size="14.00" fill="#000000">ScrollToTopModule</text>
</g>
<!-- ScrollToTopModule&#45;&gt;HomeModule -->
<g id="edge8" class="edge">
<title>ScrollToTopModule&#45;&gt;HomeModule</title>
<path fill="none" stroke="#000000" d="M382,-122.2667C382,-140.5552 382,-166 382,-166 382,-166 665.0814,-166 665.0814,-166"/>
<polygon fill="#000000" stroke="#000000" points="665.0815,-169.5001 675.0814,-166 665.0814,-162.5001 665.0815,-169.5001"/>
</g>
<!-- ThemePickerModule -->
<g id="node10" class="node">
<title>ThemePickerModule</title>
<polygon fill="#8dd3c7" stroke="#000000" points="298.1853,-122 295.1853,-126 274.1853,-126 271.1853,-122 163.8147,-122 163.8147,-86 298.1853,-86 298.1853,-122"/>
<text text-anchor="middle" x="231" y="-99.8" font-family="Times,serif" font-size="14.00" fill="#000000">ThemePickerModule</text>
</g>
<!-- ThemePickerModule&#45;&gt;HomeModule -->
<g id="edge9" class="edge">
<title>ThemePickerModule&#45;&gt;HomeModule</title>
<path fill="none" stroke="#000000" d="M231,-122.1289C231,-142.5724 231,-173 231,-173 231,-173 664.9209,-173 664.9209,-173"/>
<polygon fill="#000000" stroke="#000000" points="664.9209,-176.5001 674.9209,-173 664.9208,-169.5001 664.9209,-176.5001"/>
</g>
<!-- SvgViewerModule -->
<g id="node11" class="node">
<title>SvgViewerModule</title>
<polygon fill="#8dd3c7" stroke="#000000" points="146.0269,-122 143.0269,-126 122.0269,-126 119.0269,-122 23.9731,-122 23.9731,-86 146.0269,-86 146.0269,-122"/>
<text text-anchor="middle" x="85" y="-99.8" font-family="Times,serif" font-size="14.00" fill="#000000">SvgViewerModule</text>
</g>
<!-- SvgViewerModule&#45;&gt;HomeModule -->
<g id="edge10" class="edge">
<title>SvgViewerModule&#45;&gt;HomeModule</title>
<path fill="none" stroke="#000000" d="M85,-122.0109C85,-144.4852 85,-180 85,-180 85,-180 665.1599,-180 665.1599,-180"/>
<polygon fill="#000000" stroke="#000000" points="665.1599,-183.5001 675.1599,-180 665.1598,-176.5001 665.1599,-183.5001"/>
</g>
</g>
</svg>
