<?xml version="1.0" encoding="UTF-8" standalone="no"?>
<!DOCTYPE svg PUBLIC "-//W3C//DTD SVG 1.1//EN"
 "http://www.w3.org/Graphics/SVG/1.1/DTD/svg11.dtd">
<!-- Generated by graphviz version 2.40.1 (20161225.0304)
 -->
<!-- Title: dependencies Pages: 1 -->
<svg width="634pt" height="284pt"
 viewBox="0.00 0.00 634.00 284.00" xmlns="http://www.w3.org/2000/svg" xmlns:xlink="http://www.w3.org/1999/xlink">
<g id="graph0" class="graph" transform="scale(1 1) rotate(0) translate(4 280)">
<title>dependencies</title>
<polygon fill="#ffffff" stroke="transparent" points="-4,4 -4,-280 630,-280 630,4 -4,4"/>
<text text-anchor="start" x="292.0091" y="-42.4" font-family="sans-serif" font-weight="bold" font-size="14.00" fill="#000000">Legend</text>
<polygon fill="#ffffb3" stroke="transparent" points="79,-10 79,-30 99,-30 99,-10 79,-10"/>
<text text-anchor="start" x="102.629" y="-15.4" font-family="sans-serif" font-size="14.00" fill="#000000"> &#160;Declarations</text>
<polygon fill="#8dd3c7" stroke="transparent" points="192,-10 192,-30 212,-30 212,-10 192,-10"/>
<text text-anchor="start" x="215.7251" y="-15.4" font-family="sans-serif" font-size="14.00" fill="#000000"> &#160;Module</text>
<polygon fill="#80b1d3" stroke="transparent" points="278,-10 278,-30 298,-30 298,-10 278,-10"/>
<text text-anchor="start" x="301.7812" y="-15.4" font-family="sans-serif" font-size="14.00" fill="#000000"> &#160;Bootstrap</text>
<polygon fill="#fdb462" stroke="transparent" points="375,-10 375,-30 395,-30 395,-10 375,-10"/>
<text text-anchor="start" x="398.6732" y="-15.4" font-family="sans-serif" font-size="14.00" fill="#000000"> &#160;Providers</text>
<polygon fill="#fb8072" stroke="transparent" points="471,-10 471,-30 491,-30 491,-10 471,-10"/>
<text text-anchor="start" x="494.7258" y="-15.4" font-family="sans-serif" font-size="14.00" fill="#000000"> &#160;Exports</text>
<g id="clust1" class="cluster">
<title>cluster_ThemePickerModule</title>
<polygon fill="none" stroke="#000000" stroke-dasharray="1,5" points="8,-70 8,-268 618,-268 618,-70 8,-70"/>
</g>
<g id="clust2" class="cluster">
<title>cluster_ThemePickerModule_declarations</title>
<polygon fill="none" stroke="#000000" points="438,-78 438,-130 610,-130 610,-78 438,-78"/>
</g>
<g id="clust5" class="cluster">
<title>cluster_ThemePickerModule_exports</title>
<polygon fill="none" stroke="#000000" points="240,-208 240,-260 416,-260 416,-208 240,-208"/>
</g>
<g id="clust7" class="cluster">
<title>cluster_ThemePickerModule_providers</title>
<polygon fill="none" stroke="#000000" points="16,-78 16,-130 430,-130 430,-78 16,-78"/>
</g>
<!-- ThemePickerComponent -->
<g id="node1" class="node">
<title>ThemePickerComponent</title>
<polygon fill="#ffffb3" stroke="#000000" points="601.9678,-122 446.0322,-122 446.0322,-86 601.9678,-86 601.9678,-122"/>
<text text-anchor="middle" x="524" y="-99.8" font-family="Times,serif" font-size="14.00" fill="#000000">ThemePickerComponent</text>
</g>
<!-- ThemePickerModule -->
<g id="node2" class="node">
<title>ThemePickerModule</title>
<polygon fill="#8dd3c7" stroke="#000000" points="395.1853,-187 392.1853,-191 371.1853,-191 368.1853,-187 260.8147,-187 260.8147,-151 395.1853,-151 395.1853,-187"/>
<text text-anchor="middle" x="328" y="-164.8" font-family="Times,serif" font-size="14.00" fill="#000000">ThemePickerModule</text>
</g>
<!-- ThemePickerComponent&#45;&gt;ThemePickerModule -->
<g id="edge1" class="edge">
<title>ThemePickerComponent&#45;&gt;ThemePickerModule</title>
<path fill="none" stroke="#000000" d="M524,-122.1061C524,-141.3391 524,-169 524,-169 524,-169 405.1779,-169 405.1779,-169"/>
<polygon fill="#000000" stroke="#000000" points="405.1779,-165.5001 395.1779,-169 405.1778,-172.5001 405.1779,-165.5001"/>
</g>
<!-- ThemePickerComponent  -->
<g id="node3" class="node">
<title>ThemePickerComponent </title>
<polygon fill="#fb8072" stroke="#000000" points="407.9685,-252 248.0315,-252 248.0315,-216 407.9685,-216 407.9685,-252"/>
<text text-anchor="middle" x="328" y="-229.8" font-family="Times,serif" font-size="14.00" fill="#000000">ThemePickerComponent </text>
</g>
<!-- ThemePickerModule&#45;&gt;ThemePickerComponent  -->
<g id="edge2" class="edge">
<title>ThemePickerModule&#45;&gt;ThemePickerComponent </title>
<path fill="none" stroke="#000000" stroke-dasharray="5,2" d="M328,-187.1061C328,-187.1061 328,-205.991 328,-205.991"/>
<polygon fill="#000000" stroke="#000000" points="324.5001,-205.9909 328,-215.991 331.5001,-205.991 324.5001,-205.9909"/>
</g>
<!-- StyleManagerService -->
<g id="node4" class="node">
<title>StyleManagerService</title>
<ellipse fill="#fdb462" stroke="#000000" cx="328" cy="-104" rx="94.3176" ry="18"/>
<text text-anchor="middle" x="328" y="-99.8" font-family="Times,serif" font-size="14.00" fill="#000000">StyleManagerService</text>
</g>
<!-- StyleManagerService&#45;&gt;ThemePickerModule -->
<g id="edge3" class="edge">
<title>StyleManagerService&#45;&gt;ThemePickerModule</title>
<path fill="none" stroke="#000000" d="M328,-122.1061C328,-122.1061 328,-140.991 328,-140.991"/>
<polygon fill="#000000" stroke="#000000" points="324.5001,-140.9909 328,-150.991 331.5001,-140.991 324.5001,-140.9909"/>
</g>
<!-- ThemeStorageService -->
<g id="node5" class="node">
<title>ThemeStorageService</title>
<ellipse fill="#fdb462" stroke="#000000" cx="120" cy="-104" rx="96.1054" ry="18"/>
<text text-anchor="middle" x="120" y="-99.8" font-family="Times,serif" font-size="14.00" fill="#000000">ThemeStorageService</text>
</g>
<!-- ThemeStorageService&#45;&gt;ThemePickerModule -->
<g id="edge4" class="edge">
<title>ThemeStorageService&#45;&gt;ThemePickerModule</title>
<path fill="none" stroke="#000000" d="M120,-122.1061C120,-141.3391 120,-169 120,-169 120,-169 250.7556,-169 250.7556,-169"/>
<polygon fill="#000000" stroke="#000000" points="250.7556,-172.5001 260.7556,-169 250.7556,-165.5001 250.7556,-172.5001"/>
</g>
</g>
</svg>
