<?xml version="1.0" encoding="UTF-8" standalone="no"?>
<!DOCTYPE svg PUBLIC "-//W3C//DTD SVG 1.1//EN"
 "http://www.w3.org/Graphics/SVG/1.1/DTD/svg11.dtd">
<!-- Generated by graphviz version 2.40.1 (20161225.0304)
 -->
<!-- Title: dependencies Pages: 1 -->
<svg width="1708pt" height="284pt"
 viewBox="0.00 0.00 1708.00 284.00" xmlns="http://www.w3.org/2000/svg" xmlns:xlink="http://www.w3.org/1999/xlink">
<g id="graph0" class="graph" transform="scale(1 1) rotate(0) translate(4 280)">
<title>dependencies</title>
<polygon fill="#ffffff" stroke="transparent" points="-4,4 -4,-280 1704,-280 1704,4 -4,4"/>
<text text-anchor="start" x="829.0091" y="-42.4" font-family="sans-serif" font-weight="bold" font-size="14.00" fill="#000000">Legend</text>
<polygon fill="#ffffb3" stroke="transparent" points="616,-10 616,-30 636,-30 636,-10 616,-10"/>
<text text-anchor="start" x="639.629" y="-15.4" font-family="sans-serif" font-size="14.00" fill="#000000"> &#160;Declarations</text>
<polygon fill="#8dd3c7" stroke="transparent" points="729,-10 729,-30 749,-30 749,-10 729,-10"/>
<text text-anchor="start" x="752.7251" y="-15.4" font-family="sans-serif" font-size="14.00" fill="#000000"> &#160;Module</text>
<polygon fill="#80b1d3" stroke="transparent" points="815,-10 815,-30 835,-30 835,-10 815,-10"/>
<text text-anchor="start" x="838.7812" y="-15.4" font-family="sans-serif" font-size="14.00" fill="#000000"> &#160;Bootstrap</text>
<polygon fill="#fdb462" stroke="transparent" points="912,-10 912,-30 932,-30 932,-10 912,-10"/>
<text text-anchor="start" x="935.6732" y="-15.4" font-family="sans-serif" font-size="14.00" fill="#000000"> &#160;Providers</text>
<polygon fill="#fb8072" stroke="transparent" points="1008,-10 1008,-30 1028,-30 1028,-10 1008,-10"/>
<text text-anchor="start" x="1031.7258" y="-15.4" font-family="sans-serif" font-size="14.00" fill="#000000"> &#160;Exports</text>
<g id="clust1" class="cluster">
<title>cluster_ChatBoxModule</title>
<polygon fill="none" stroke="#000000" stroke-dasharray="1,5" points="8,-70 8,-268 1692,-268 1692,-70 8,-70"/>
</g>
<g id="clust2" class="cluster">
<title>cluster_ChatBoxModule_declarations</title>
<polygon fill="none" stroke="#000000" points="947,-78 947,-130 1684,-130 1684,-78 947,-78"/>
</g>
<g id="clust7" class="cluster">
<title>cluster_ChatBoxModule_imports</title>
<polygon fill="none" stroke="#000000" points="705,-78 705,-130 939,-130 939,-78 705,-78"/>
</g>
<g id="clust8" class="cluster">
<title>cluster_ChatBoxModule_exports</title>
<polygon fill="none" stroke="#000000" points="738,-208 738,-260 888,-260 888,-208 738,-208"/>
</g>
<g id="clust10" class="cluster">
<title>cluster_ChatBoxModule_providers</title>
<polygon fill="none" stroke="#000000" points="16,-78 16,-130 697,-130 697,-78 16,-78"/>
</g>
<!-- ChatBoxComponent -->
<g id="node1" class="node">
<title>ChatBoxComponent</title>
<polygon fill="#ffffb3" stroke="#000000" points="1675.6108,-122 1544.3892,-122 1544.3892,-86 1675.6108,-86 1675.6108,-122"/>
<text text-anchor="middle" x="1610" y="-99.8" font-family="Times,serif" font-size="14.00" fill="#000000">ChatBoxComponent</text>
</g>
<!-- ChatBoxModule -->
<g id="node5" class="node">
<title>ChatBoxModule</title>
<polygon fill="#8dd3c7" stroke="#000000" points="867.8287,-187 864.8287,-191 843.8287,-191 840.8287,-187 758.1713,-187 758.1713,-151 867.8287,-151 867.8287,-187"/>
<text text-anchor="middle" x="813" y="-164.8" font-family="Times,serif" font-size="14.00" fill="#000000">ChatBoxModule</text>
</g>
<!-- ChatBoxComponent&#45;&gt;ChatBoxModule -->
<g id="edge1" class="edge">
<title>ChatBoxComponent&#45;&gt;ChatBoxModule</title>
<path fill="none" stroke="#000000" d="M1610,-122.0109C1610,-144.4852 1610,-180 1610,-180 1610,-180 877.781,-180 877.781,-180"/>
<polygon fill="#000000" stroke="#000000" points="877.7811,-176.5001 867.781,-180 877.781,-183.5001 877.7811,-176.5001"/>
</g>
<!-- ChatCardComponent -->
<g id="node2" class="node">
<title>ChatCardComponent</title>
<polygon fill="#ffffb3" stroke="#000000" points="1526.486,-122 1391.514,-122 1391.514,-86 1526.486,-86 1526.486,-122"/>
<text text-anchor="middle" x="1459" y="-99.8" font-family="Times,serif" font-size="14.00" fill="#000000">ChatCardComponent</text>
</g>
<!-- ChatCardComponent&#45;&gt;ChatBoxModule -->
<g id="edge2" class="edge">
<title>ChatCardComponent&#45;&gt;ChatBoxModule</title>
<path fill="none" stroke="#000000" d="M1459,-122.1289C1459,-142.5724 1459,-173 1459,-173 1459,-173 877.7989,-173 877.7989,-173"/>
<polygon fill="#000000" stroke="#000000" points="877.799,-169.5001 867.7989,-173 877.7989,-176.5001 877.799,-169.5001"/>
</g>
<!-- TextToSpeechPreferencesComponent -->
<g id="node3" class="node">
<title>TextToSpeechPreferencesComponent</title>
<polygon fill="#ffffb3" stroke="#000000" points="1373.2513,-122 1144.7487,-122 1144.7487,-86 1373.2513,-86 1373.2513,-122"/>
<text text-anchor="middle" x="1259" y="-99.8" font-family="Times,serif" font-size="14.00" fill="#000000">TextToSpeechPreferencesComponent</text>
</g>
<!-- TextToSpeechPreferencesComponent&#45;&gt;ChatBoxModule -->
<g id="edge3" class="edge">
<title>TextToSpeechPreferencesComponent&#45;&gt;ChatBoxModule</title>
<path fill="none" stroke="#000000" d="M1259,-122.2667C1259,-140.5552 1259,-166 1259,-166 1259,-166 877.6884,-166 877.6884,-166"/>
<polygon fill="#000000" stroke="#000000" points="877.6884,-162.5001 867.6884,-166 877.6883,-169.5001 877.6884,-162.5001"/>
</g>
<!-- TypingIndicatorComponent -->
<g id="node4" class="node">
<title>TypingIndicatorComponent</title>
<polygon fill="#ffffb3" stroke="#000000" points="1127.3075,-122 954.6925,-122 954.6925,-86 1127.3075,-86 1127.3075,-122"/>
<text text-anchor="middle" x="1041" y="-99.8" font-family="Times,serif" font-size="14.00" fill="#000000">TypingIndicatorComponent</text>
</g>
<!-- TypingIndicatorComponent&#45;&gt;ChatBoxModule -->
<g id="edge4" class="edge">
<title>TypingIndicatorComponent&#45;&gt;ChatBoxModule</title>
<path fill="none" stroke="#000000" d="M1041,-122.0091C1041,-138.0494 1041,-159 1041,-159 1041,-159 877.9018,-159 877.9018,-159"/>
<polygon fill="#000000" stroke="#000000" points="877.9019,-155.5001 867.9018,-159 877.9018,-162.5001 877.9019,-155.5001"/>
</g>
<!-- ChatBoxComponent  -->
<g id="node8" class="node">
<title>ChatBoxComponent </title>
<polygon fill="#fb8072" stroke="#000000" points="880.1114,-252 745.8886,-252 745.8886,-216 880.1114,-216 880.1114,-252"/>
<text text-anchor="middle" x="813" y="-229.8" font-family="Times,serif" font-size="14.00" fill="#000000">ChatBoxComponent </text>
</g>
<!-- ChatBoxModule&#45;&gt;ChatBoxComponent  -->
<g id="edge7" class="edge">
<title>ChatBoxModule&#45;&gt;ChatBoxComponent </title>
<path fill="none" stroke="#000000" stroke-dasharray="5,2" d="M813,-187.1061C813,-187.1061 813,-205.991 813,-205.991"/>
<polygon fill="#000000" stroke="#000000" points="809.5001,-205.9909 813,-215.991 816.5001,-205.991 809.5001,-205.9909"/>
</g>
<!-- DraggableModule -->
<g id="node6" class="node">
<title>DraggableModule</title>
<polygon fill="#8dd3c7" stroke="#000000" points="930.8515,-122 927.8515,-126 906.8515,-126 903.8515,-122 813.1485,-122 813.1485,-86 930.8515,-86 930.8515,-122"/>
<text text-anchor="middle" x="872" y="-99.8" font-family="Times,serif" font-size="14.00" fill="#000000">DraggableModule</text>
</g>
<!-- DraggableModule&#45;&gt;ChatBoxModule -->
<g id="edge5" class="edge">
<title>DraggableModule&#45;&gt;ChatBoxModule</title>
<path fill="none" stroke="#000000" d="M840.3692,-122.1061C840.3692,-122.1061 840.3692,-140.991 840.3692,-140.991"/>
<polygon fill="#000000" stroke="#000000" points="836.8693,-140.9909 840.3692,-150.991 843.8693,-140.991 836.8693,-140.9909"/>
</g>
<!-- LedModule -->
<g id="node7" class="node">
<title>LedModule</title>
<polygon fill="#8dd3c7" stroke="#000000" points="794.8176,-122 791.8176,-126 770.8176,-126 767.8176,-122 713.1824,-122 713.1824,-86 794.8176,-86 794.8176,-122"/>
<text text-anchor="middle" x="754" y="-99.8" font-family="Times,serif" font-size="14.00" fill="#000000">LedModule</text>
</g>
<!-- LedModule&#45;&gt;ChatBoxModule -->
<g id="edge6" class="edge">
<title>LedModule&#45;&gt;ChatBoxModule</title>
<path fill="none" stroke="#000000" d="M776.4972,-122.1061C776.4972,-122.1061 776.4972,-140.991 776.4972,-140.991"/>
<polygon fill="#000000" stroke="#000000" points="772.9973,-140.9909 776.4972,-150.991 779.9973,-140.991 772.9973,-140.9909"/>
</g>
<!-- ChatService -->
<g id="node9" class="node">
<title>ChatService</title>
<ellipse fill="#fdb462" stroke="#000000" cx="631" cy="-104" rx="58.4628" ry="18"/>
<text text-anchor="middle" x="631" y="-99.8" font-family="Times,serif" font-size="14.00" fill="#000000">ChatService</text>
</g>
<!-- ChatService&#45;&gt;ChatBoxModule -->
<g id="edge8" class="edge">
<title>ChatService&#45;&gt;ChatBoxModule</title>
<path fill="none" stroke="#000000" d="M631,-122.0091C631,-138.0494 631,-159 631,-159 631,-159 747.9001,-159 747.9001,-159"/>
<polygon fill="#000000" stroke="#000000" points="747.9001,-162.5001 757.9001,-159 747.9001,-155.5001 747.9001,-162.5001"/>
</g>
<!-- NlpService -->
<g id="node10" class="node">
<title>NlpService</title>
<ellipse fill="#fdb462" stroke="#000000" cx="500" cy="-104" rx="54.4508" ry="18"/>
<text text-anchor="middle" x="500" y="-99.8" font-family="Times,serif" font-size="14.00" fill="#000000">NlpService</text>
</g>
<!-- NlpService&#45;&gt;ChatBoxModule -->
<g id="edge9" class="edge">
<title>NlpService&#45;&gt;ChatBoxModule</title>
<path fill="none" stroke="#000000" d="M500,-122.2667C500,-140.5552 500,-166 500,-166 500,-166 748.1214,-166 748.1214,-166"/>
<polygon fill="#000000" stroke="#000000" points="748.1214,-169.5001 758.1214,-166 748.1214,-162.5001 748.1214,-169.5001"/>
</g>
<!-- SpeechToTextService -->
<g id="node11" class="node">
<title>SpeechToTextService</title>
<ellipse fill="#fdb462" stroke="#000000" cx="331" cy="-104" rx="96.1073" ry="18"/>
<text text-anchor="middle" x="331" y="-99.8" font-family="Times,serif" font-size="14.00" fill="#000000">SpeechToTextService</text>
</g>
<!-- SpeechToTextService&#45;&gt;ChatBoxModule -->
<g id="edge10" class="edge">
<title>SpeechToTextService&#45;&gt;ChatBoxModule</title>
<path fill="none" stroke="#000000" d="M331,-122.1289C331,-142.5724 331,-173 331,-173 331,-173 748.1777,-173 748.1777,-173"/>
<polygon fill="#000000" stroke="#000000" points="748.1778,-176.5001 758.1777,-173 748.1777,-169.5001 748.1778,-176.5001"/>
</g>
<!-- TextToSpeechService -->
<g id="node12" class="node">
<title>TextToSpeechService</title>
<ellipse fill="#fdb462" stroke="#000000" cx="120" cy="-104" rx="96.1073" ry="18"/>
<text text-anchor="middle" x="120" y="-99.8" font-family="Times,serif" font-size="14.00" fill="#000000">TextToSpeechService</text>
</g>
<!-- TextToSpeechService&#45;&gt;ChatBoxModule -->
<g id="edge11" class="edge">
<title>TextToSpeechService&#45;&gt;ChatBoxModule</title>
<path fill="none" stroke="#000000" d="M120,-122.0109C120,-144.4852 120,-180 120,-180 120,-180 748.3322,-180 748.3322,-180"/>
<polygon fill="#000000" stroke="#000000" points="748.3322,-183.5001 758.3322,-180 748.3321,-176.5001 748.3322,-183.5001"/>
</g>
</g>
</svg>
