<?xml version="1.0" encoding="UTF-8" standalone="no"?>
<!DOCTYPE svg PUBLIC "-//W3C//DTD SVG 1.1//EN"
 "http://www.w3.org/Graphics/SVG/1.1/DTD/svg11.dtd">
<!-- Generated by graphviz version 2.40.1 (20161225.0304)
 -->
<!-- Title: dependencies Pages: 1 -->
<svg width="504pt" height="211pt"
 viewBox="0.00 0.00 504.00 211.00" xmlns="http://www.w3.org/2000/svg" xmlns:xlink="http://www.w3.org/1999/xlink">
<g id="graph0" class="graph" transform="scale(1 1) rotate(0) translate(4 207)">
<title>dependencies</title>
<polygon fill="#ffffff" stroke="transparent" points="-4,4 -4,-207 500,-207 500,4 -4,4"/>
<text text-anchor="start" x="227.0091" y="-42.4" font-family="sans-serif" font-weight="bold" font-size="14.00" fill="#000000">Legend</text>
<polygon fill="#ffffb3" stroke="transparent" points="14,-10 14,-30 34,-30 34,-10 14,-10"/>
<text text-anchor="start" x="37.629" y="-15.4" font-family="sans-serif" font-size="14.00" fill="#000000"> &#160;Declarations</text>
<polygon fill="#8dd3c7" stroke="transparent" points="127,-10 127,-30 147,-30 147,-10 127,-10"/>
<text text-anchor="start" x="150.7251" y="-15.4" font-family="sans-serif" font-size="14.00" fill="#000000"> &#160;Module</text>
<polygon fill="#80b1d3" stroke="transparent" points="213,-10 213,-30 233,-30 233,-10 213,-10"/>
<text text-anchor="start" x="236.7812" y="-15.4" font-family="sans-serif" font-size="14.00" fill="#000000"> &#160;Bootstrap</text>
<polygon fill="#fdb462" stroke="transparent" points="310,-10 310,-30 330,-30 330,-10 310,-10"/>
<text text-anchor="start" x="333.6732" y="-15.4" font-family="sans-serif" font-size="14.00" fill="#000000"> &#160;Providers</text>
<polygon fill="#fb8072" stroke="transparent" points="406,-10 406,-30 426,-30 426,-10 406,-10"/>
<text text-anchor="start" x="429.7258" y="-15.4" font-family="sans-serif" font-size="14.00" fill="#000000"> &#160;Exports</text>
<g id="clust1" class="cluster">
<title>cluster_AppConfirmModule</title>
<polygon fill="none" stroke="#000000" stroke-dasharray="1,5" points="55,-70 55,-195 441,-195 441,-70 55,-70"/>
</g>
<g id="clust2" class="cluster">
<title>cluster_AppConfirmModule_declarations</title>
<polygon fill="none" stroke="#000000" points="265,-78 265,-130 433,-130 433,-78 265,-78"/>
</g>
<g id="clust7" class="cluster">
<title>cluster_AppConfirmModule_providers</title>
<polygon fill="none" stroke="#000000" points="63,-78 63,-130 257,-130 257,-78 63,-78"/>
</g>
<!-- AppConfirmComponent -->
<g id="node1" class="node">
<title>AppConfirmComponent</title>
<polygon fill="#ffffb3" stroke="#000000" points="425.378,-122 272.622,-122 272.622,-86 425.378,-86 425.378,-122"/>
<text text-anchor="middle" x="349" y="-99.8" font-family="Times,serif" font-size="14.00" fill="#000000">AppConfirmComponent</text>
</g>
<!-- AppConfirmModule -->
<g id="node2" class="node">
<title>AppConfirmModule</title>
<polygon fill="#8dd3c7" stroke="#000000" points="319.5954,-187 316.5954,-191 295.5954,-191 292.5954,-187 188.4046,-187 188.4046,-151 319.5954,-151 319.5954,-187"/>
<text text-anchor="middle" x="254" y="-164.8" font-family="Times,serif" font-size="14.00" fill="#000000">AppConfirmModule</text>
</g>
<!-- AppConfirmComponent&#45;&gt;AppConfirmModule -->
<g id="edge1" class="edge">
<title>AppConfirmComponent&#45;&gt;AppConfirmModule</title>
<path fill="none" stroke="#000000" d="M296.0544,-122.1061C296.0544,-122.1061 296.0544,-140.991 296.0544,-140.991"/>
<polygon fill="#000000" stroke="#000000" points="292.5544,-140.9909 296.0544,-150.991 299.5544,-140.991 292.5544,-140.9909"/>
</g>
<!-- AppConfirmService -->
<g id="node3" class="node">
<title>AppConfirmService</title>
<ellipse fill="#fdb462" stroke="#000000" cx="160" cy="-104" rx="89.1858" ry="18"/>
<text text-anchor="middle" x="160" y="-99.8" font-family="Times,serif" font-size="14.00" fill="#000000">AppConfirmService</text>
</g>
<!-- AppConfirmService&#45;&gt;AppConfirmModule -->
<g id="edge2" class="edge">
<title>AppConfirmService&#45;&gt;AppConfirmModule</title>
<path fill="none" stroke="#000000" d="M218.8975,-117.7848C218.8975,-117.7848 218.8975,-140.5475 218.8975,-140.5475"/>
<polygon fill="#000000" stroke="#000000" points="215.3976,-140.5474 218.8975,-150.5475 222.3976,-140.5475 215.3976,-140.5474"/>
</g>
</g>
</svg>
