<?xml version="1.0" encoding="UTF-8" standalone="no"?>
<!DOCTYPE svg PUBLIC "-//W3C//DTD SVG 1.1//EN"
 "http://www.w3.org/Graphics/SVG/1.1/DTD/svg11.dtd">
<!-- Generated by graphviz version 2.40.1 (20161225.0304)
 -->
<!-- Title: dependencies Pages: 1 -->
<svg width="5664pt" height="211pt"
 viewBox="0.00 0.00 5664.00 211.00" xmlns="http://www.w3.org/2000/svg" xmlns:xlink="http://www.w3.org/1999/xlink">
<g id="graph0" class="graph" transform="scale(1 1) rotate(0) translate(4 207)">
<title>dependencies</title>
<polygon fill="#ffffff" stroke="transparent" points="-4,4 -4,-207 5660,-207 5660,4 -4,4"/>
<text text-anchor="start" x="2807.0091" y="-42.4" font-family="sans-serif" font-weight="bold" font-size="14.00" fill="#000000">Legend</text>
<polygon fill="#ffffb3" stroke="transparent" points="2594,-10 2594,-30 2614,-30 2614,-10 2594,-10"/>
<text text-anchor="start" x="2617.629" y="-15.4" font-family="sans-serif" font-size="14.00" fill="#000000"> &#160;Declarations</text>
<polygon fill="#8dd3c7" stroke="transparent" points="2707,-10 2707,-30 2727,-30 2727,-10 2707,-10"/>
<text text-anchor="start" x="2730.7251" y="-15.4" font-family="sans-serif" font-size="14.00" fill="#000000"> &#160;Module</text>
<polygon fill="#80b1d3" stroke="transparent" points="2793,-10 2793,-30 2813,-30 2813,-10 2793,-10"/>
<text text-anchor="start" x="2816.7812" y="-15.4" font-family="sans-serif" font-size="14.00" fill="#000000"> &#160;Bootstrap</text>
<polygon fill="#fdb462" stroke="transparent" points="2890,-10 2890,-30 2910,-30 2910,-10 2890,-10"/>
<text text-anchor="start" x="2913.6732" y="-15.4" font-family="sans-serif" font-size="14.00" fill="#000000"> &#160;Providers</text>
<polygon fill="#fb8072" stroke="transparent" points="2986,-10 2986,-30 3006,-30 3006,-10 2986,-10"/>
<text text-anchor="start" x="3009.7258" y="-15.4" font-family="sans-serif" font-size="14.00" fill="#000000"> &#160;Exports</text>
<g id="clust1" class="cluster">
<title>cluster_WidgetsModule</title>
<polygon fill="none" stroke="#000000" stroke-dasharray="1,5" points="8,-70 8,-195 5648,-195 5648,-70 8,-70"/>
</g>
<g id="clust2" class="cluster">
<title>cluster_WidgetsModule_declarations</title>
<polygon fill="none" stroke="#000000" points="609,-78 609,-130 5640,-130 5640,-78 609,-78"/>
</g>
<g id="clust33" class="cluster">
<title>cluster_WidgetsModule_imports</title>
<polygon fill="none" stroke="#000000" points="188,-78 188,-130 601,-130 601,-78 188,-78"/>
</g>
<g id="clust36" class="cluster">
<title>cluster_WidgetsModule_providers</title>
<polygon fill="none" stroke="#000000" points="16,-78 16,-130 180,-130 180,-78 16,-78"/>
</g>
<!-- AdvancedPieChartWidgetComponent -->
<g id="node1" class="node">
<title>AdvancedPieChartWidgetComponent</title>
<polygon fill="#ffffb3" stroke="#000000" points="5632.2836,-122 5403.7164,-122 5403.7164,-86 5632.2836,-86 5632.2836,-122"/>
<text text-anchor="middle" x="5518" y="-99.8" font-family="Times,serif" font-size="14.00" fill="#000000">AdvancedPieChartWidgetComponent</text>
</g>
<!-- WidgetsModule -->
<g id="node31" class="node">
<title>WidgetsModule</title>
<polygon fill="#8dd3c7" stroke="#000000" points="3062.205,-187 3059.205,-191 3038.205,-191 3035.205,-187 2955.795,-187 2955.795,-151 3062.205,-151 3062.205,-187"/>
<text text-anchor="middle" x="3009" y="-164.8" font-family="Times,serif" font-size="14.00" fill="#000000">WidgetsModule</text>
</g>
<!-- AdvancedPieChartWidgetComponent&#45;&gt;WidgetsModule -->
<g id="edge1" class="edge">
<title>AdvancedPieChartWidgetComponent&#45;&gt;WidgetsModule</title>
<path fill="none" stroke="#000000" d="M5518,-122.3802C5518,-146.2785 5518,-185 5518,-185 5518,-185 3072.2735,-185 3072.2735,-185"/>
<polygon fill="#000000" stroke="#000000" points="3072.2735,-181.5001 3062.2735,-185 3072.2734,-188.5001 3072.2735,-181.5001"/>
</g>
<!-- AspectRatioContentDirective -->
<g id="node2" class="node">
<title>AspectRatioContentDirective</title>
<polygon fill="#ffffb3" stroke="#000000" points="5385.619,-122 5204.381,-122 5204.381,-86 5385.619,-86 5385.619,-122"/>
<text text-anchor="middle" x="5295" y="-99.8" font-family="Times,serif" font-size="14.00" fill="#000000">AspectRatioContentDirective</text>
</g>
<!-- AspectRatioContentDirective&#45;&gt;WidgetsModule -->
<g id="edge2" class="edge">
<title>AspectRatioContentDirective&#45;&gt;WidgetsModule</title>
<path fill="none" stroke="#000000" d="M5295,-122.3228C5295,-145.6602 5295,-183 5295,-183 5295,-183 3072.1421,-183 3072.1421,-183"/>
<polygon fill="#000000" stroke="#000000" points="3072.1421,-179.5001 3062.1421,-183 3072.142,-186.5001 3072.1421,-179.5001"/>
</g>
<!-- AspectRatioDirective -->
<g id="node3" class="node">
<title>AspectRatioDirective</title>
<polygon fill="#ffffb3" stroke="#000000" points="5186.7865,-122 5049.2135,-122 5049.2135,-86 5186.7865,-86 5186.7865,-122"/>
<text text-anchor="middle" x="5118" y="-99.8" font-family="Times,serif" font-size="14.00" fill="#000000">AspectRatioDirective</text>
</g>
<!-- AspectRatioDirective&#45;&gt;WidgetsModule -->
<g id="edge3" class="edge">
<title>AspectRatioDirective&#45;&gt;WidgetsModule</title>
<path fill="none" stroke="#000000" d="M5118,-122.2479C5118,-145.0179 5118,-181 5118,-181 5118,-181 3072.1877,-181 3072.1877,-181"/>
<polygon fill="#000000" stroke="#000000" points="3072.1877,-177.5001 3062.1877,-181 3072.1876,-184.5001 3072.1877,-177.5001"/>
</g>
<!-- AudienceOverviewWidgetComponent -->
<g id="node4" class="node">
<title>AudienceOverviewWidgetComponent</title>
<polygon fill="#ffffb3" stroke="#000000" points="5031.8777,-122 4800.1223,-122 4800.1223,-86 5031.8777,-86 5031.8777,-122"/>
<text text-anchor="middle" x="4916" y="-99.8" font-family="Times,serif" font-size="14.00" fill="#000000">AudienceOverviewWidgetComponent</text>
</g>
<!-- AudienceOverviewWidgetComponent&#45;&gt;WidgetsModule -->
<g id="edge4" class="edge">
<title>AudienceOverviewWidgetComponent&#45;&gt;WidgetsModule</title>
<path fill="none" stroke="#000000" d="M4916,-122.1554C4916,-144.3519 4916,-179 4916,-179 4916,-179 3072.2453,-179 3072.2453,-179"/>
<polygon fill="#000000" stroke="#000000" points="3072.2453,-175.5001 3062.2453,-179 3072.2452,-182.5001 3072.2453,-175.5001"/>
</g>
<!-- BarChartWidgetComponent -->
<g id="node5" class="node">
<title>BarChartWidgetComponent</title>
<polygon fill="#ffffb3" stroke="#000000" points="4781.8571,-122 4608.1429,-122 4608.1429,-86 4781.8571,-86 4781.8571,-122"/>
<text text-anchor="middle" x="4695" y="-99.8" font-family="Times,serif" font-size="14.00" fill="#000000">BarChartWidgetComponent</text>
</g>
<!-- BarChartWidgetComponent&#45;&gt;WidgetsModule -->
<g id="edge5" class="edge">
<title>BarChartWidgetComponent&#45;&gt;WidgetsModule</title>
<path fill="none" stroke="#000000" d="M4695,-122.0449C4695,-143.6623 4695,-177 4695,-177 4695,-177 3072.2433,-177 3072.2433,-177"/>
<polygon fill="#000000" stroke="#000000" points="3072.2433,-173.5001 3062.2433,-177 3072.2432,-180.5001 3072.2433,-173.5001"/>
</g>
<!-- Card -->
<g id="node6" class="node">
<title>Card</title>
<polygon fill="#ffffb3" stroke="#000000" points="4590,-122 4536,-122 4536,-86 4590,-86 4590,-122"/>
<text text-anchor="middle" x="4563" y="-99.8" font-family="Times,serif" font-size="14.00" fill="#000000">Card</text>
</g>
<!-- Card&#45;&gt;WidgetsModule -->
<g id="edge6" class="edge">
<title>Card&#45;&gt;WidgetsModule</title>
<path fill="none" stroke="#000000" d="M4563,-122.2843C4563,-143.3211 4563,-175 4563,-175 4563,-175 3072.4922,-175 3072.4922,-175"/>
<polygon fill="#000000" stroke="#000000" points="3072.4922,-171.5001 3062.4922,-175 3072.4922,-178.5001 3072.4922,-171.5001"/>
</g>
<!-- CardActions -->
<g id="node7" class="node">
<title>CardActions</title>
<polygon fill="#ffffb3" stroke="#000000" points="4518.2591,-122 4431.7409,-122 4431.7409,-86 4518.2591,-86 4518.2591,-122"/>
<text text-anchor="middle" x="4475" y="-99.8" font-family="Times,serif" font-size="14.00" fill="#000000">CardActions</text>
</g>
<!-- CardActions&#45;&gt;WidgetsModule -->
<g id="edge7" class="edge">
<title>CardActions&#45;&gt;WidgetsModule</title>
<path fill="none" stroke="#000000" d="M4475,-122.1289C4475,-142.5724 4475,-173 4475,-173 4475,-173 3072.4773,-173 3072.4773,-173"/>
<polygon fill="#000000" stroke="#000000" points="3072.4773,-169.5001 3062.4773,-173 3072.4772,-176.5001 3072.4773,-169.5001"/>
</g>
<!-- CardContent -->
<g id="node8" class="node">
<title>CardContent</title>
<polygon fill="#ffffb3" stroke="#000000" points="4413.5454,-122 4326.4546,-122 4326.4546,-86 4413.5454,-86 4413.5454,-122"/>
<text text-anchor="middle" x="4370" y="-99.8" font-family="Times,serif" font-size="14.00" fill="#000000">CardContent</text>
</g>
<!-- CardContent&#45;&gt;WidgetsModule -->
<g id="edge8" class="edge">
<title>CardContent&#45;&gt;WidgetsModule</title>
<path fill="none" stroke="#000000" d="M4370,-122.308C4370,-142.1455 4370,-171 4370,-171 4370,-171 3072.3528,-171 3072.3528,-171"/>
<polygon fill="#000000" stroke="#000000" points="3072.3528,-167.5001 3062.3528,-171 3072.3528,-174.5001 3072.3528,-167.5001"/>
</g>
<!-- CardHeader -->
<g id="node9" class="node">
<title>CardHeader</title>
<polygon fill="#ffffb3" stroke="#000000" points="4307.6236,-122 4224.3764,-122 4224.3764,-86 4307.6236,-86 4307.6236,-122"/>
<text text-anchor="middle" x="4266" y="-99.8" font-family="Times,serif" font-size="14.00" fill="#000000">CardHeader</text>
</g>
<!-- CardHeader&#45;&gt;WidgetsModule -->
<g id="edge9" class="edge">
<title>CardHeader&#45;&gt;WidgetsModule</title>
<path fill="none" stroke="#000000" d="M4266,-122.1686C4266,-141.0898 4266,-168 4266,-168 4266,-168 3072.2088,-168 3072.2088,-168"/>
<polygon fill="#000000" stroke="#000000" points="3072.2089,-164.5001 3062.2088,-168 3072.2088,-171.5001 3072.2089,-164.5001"/>
</g>
<!-- CardHeaderActions -->
<g id="node10" class="node">
<title>CardHeaderActions</title>
<polygon fill="#ffffb3" stroke="#000000" points="4206.6699,-122 4079.3301,-122 4079.3301,-86 4206.6699,-86 4206.6699,-122"/>
<text text-anchor="middle" x="4143" y="-99.8" font-family="Times,serif" font-size="14.00" fill="#000000">CardHeaderActions</text>
</g>
<!-- CardHeaderActions&#45;&gt;WidgetsModule -->
<g id="edge10" class="edge">
<title>CardHeaderActions&#45;&gt;WidgetsModule</title>
<path fill="none" stroke="#000000" d="M4143,-122.2667C4143,-140.5552 4143,-166 4143,-166 4143,-166 3072.1742,-166 3072.1742,-166"/>
<polygon fill="#000000" stroke="#000000" points="3072.1742,-162.5001 3062.1742,-166 3072.1741,-169.5001 3072.1742,-162.5001"/>
</g>
<!-- CardHeaderSubTitle -->
<g id="node11" class="node">
<title>CardHeaderSubTitle</title>
<polygon fill="#ffffb3" stroke="#000000" points="4060.8445,-122 3929.1555,-122 3929.1555,-86 4060.8445,-86 4060.8445,-122"/>
<text text-anchor="middle" x="3995" y="-99.8" font-family="Times,serif" font-size="14.00" fill="#000000">CardHeaderSubTitle</text>
</g>
<!-- CardHeaderSubTitle&#45;&gt;WidgetsModule -->
<g id="edge11" class="edge">
<title>CardHeaderSubTitle&#45;&gt;WidgetsModule</title>
<path fill="none" stroke="#000000" d="M3995,-122.002C3995,-139.6754 3995,-164 3995,-164 3995,-164 3072.3612,-164 3072.3612,-164"/>
<polygon fill="#000000" stroke="#000000" points="3072.3613,-160.5001 3062.3612,-164 3072.3612,-167.5001 3072.3613,-160.5001"/>
</g>
<!-- CardHeaderTitle -->
<g id="node12" class="node">
<title>CardHeaderTitle</title>
<polygon fill="#ffffb3" stroke="#000000" points="3911.0618,-122 3800.9382,-122 3800.9382,-86 3911.0618,-86 3911.0618,-122"/>
<text text-anchor="middle" x="3856" y="-99.8" font-family="Times,serif" font-size="14.00" fill="#000000">CardHeaderTitle</text>
</g>
<!-- CardHeaderTitle&#45;&gt;WidgetsModule -->
<g id="edge12" class="edge">
<title>CardHeaderTitle&#45;&gt;WidgetsModule</title>
<path fill="none" stroke="#000000" d="M3856,-122.0336C3856,-139.0597 3856,-162 3856,-162 3856,-162 3072.3045,-162 3072.3045,-162"/>
<polygon fill="#000000" stroke="#000000" points="3072.3045,-158.5001 3062.3045,-162 3072.3045,-165.5001 3072.3045,-158.5001"/>
</g>
<!-- ChartWidget -->
<g id="node13" class="node">
<title>ChartWidget</title>
<polygon fill="#ffffb3" stroke="#000000" points="3783.3134,-122 3694.6866,-122 3694.6866,-86 3783.3134,-86 3783.3134,-122"/>
<text text-anchor="middle" x="3739" y="-99.8" font-family="Times,serif" font-size="14.00" fill="#000000">ChartWidget</text>
</g>
<!-- ChartWidget&#45;&gt;WidgetsModule -->
<g id="edge13" class="edge">
<title>ChartWidget&#45;&gt;WidgetsModule</title>
<path fill="none" stroke="#000000" d="M3739,-122.027C3739,-138.3976 3739,-160 3739,-160 3739,-160 3072.3829,-160 3072.3829,-160"/>
<polygon fill="#000000" stroke="#000000" points="3072.3829,-156.5001 3062.3829,-160 3072.3828,-163.5001 3072.3829,-156.5001"/>
</g>
<!-- ChartWidgetContent -->
<g id="node14" class="node">
<title>ChartWidgetContent</title>
<polygon fill="#ffffb3" stroke="#000000" points="3677.1457,-122 3544.8543,-122 3544.8543,-86 3677.1457,-86 3677.1457,-122"/>
<text text-anchor="middle" x="3611" y="-99.8" font-family="Times,serif" font-size="14.00" fill="#000000">ChartWidgetContent</text>
</g>
<!-- ChartWidgetContent&#45;&gt;WidgetsModule -->
<g id="edge14" class="edge">
<title>ChartWidgetContent&#45;&gt;WidgetsModule</title>
<path fill="none" stroke="#000000" d="M3611,-122.2819C3611,-137.9478 3611,-158 3611,-158 3611,-158 3072.1594,-158 3072.1594,-158"/>
<polygon fill="#000000" stroke="#000000" points="3072.1594,-154.5001 3062.1594,-158 3072.1594,-161.5001 3072.1594,-154.5001"/>
</g>
<!-- ChartWidgetHeader -->
<g id="node15" class="node">
<title>ChartWidgetHeader</title>
<polygon fill="#ffffb3" stroke="#000000" points="3526.2241,-122 3397.7759,-122 3397.7759,-86 3526.2241,-86 3526.2241,-122"/>
<text text-anchor="middle" x="3462" y="-99.8" font-family="Times,serif" font-size="14.00" fill="#000000">ChartWidgetHeader</text>
</g>
<!-- ChartWidgetHeader&#45;&gt;WidgetsModule -->
<g id="edge15" class="edge">
<title>ChartWidgetHeader&#45;&gt;WidgetsModule</title>
<path fill="none" stroke="#000000" d="M3462,-122.1871C3462,-137.1824 3462,-156 3462,-156 3462,-156 3072.2969,-156 3072.2969,-156"/>
<polygon fill="#000000" stroke="#000000" points="3072.297,-152.5001 3062.2969,-156 3072.2969,-159.5001 3072.297,-152.5001"/>
</g>
<!-- ChartWidgetHeaderActions -->
<g id="node16" class="node">
<title>ChartWidgetHeaderActions</title>
<polygon fill="#ffffb3" stroke="#000000" points="3380.271,-122 3207.729,-122 3207.729,-86 3380.271,-86 3380.271,-122"/>
<text text-anchor="middle" x="3294" y="-99.8" font-family="Times,serif" font-size="14.00" fill="#000000">ChartWidgetHeaderActions</text>
</g>
<!-- ChartWidgetHeaderActions&#45;&gt;WidgetsModule -->
<g id="edge16" class="edge">
<title>ChartWidgetHeaderActions&#45;&gt;WidgetsModule</title>
<path fill="none" stroke="#000000" d="M3294,-122.0511C3294,-136.373 3294,-154 3294,-154 3294,-154 3072.272,-154 3072.272,-154"/>
<polygon fill="#000000" stroke="#000000" points="3072.272,-150.5001 3062.272,-154 3072.272,-157.5001 3072.272,-150.5001"/>
</g>
<!-- ChartWidgetHeaderSubTitle -->
<g id="node17" class="node">
<title>ChartWidgetHeaderSubTitle</title>
<polygon fill="#ffffb3" stroke="#000000" points="3189.4454,-122 3012.5546,-122 3012.5546,-86 3189.4454,-86 3189.4454,-122"/>
<text text-anchor="middle" x="3101" y="-99.8" font-family="Times,serif" font-size="14.00" fill="#000000">ChartWidgetHeaderSubTitle</text>
</g>
<!-- ChartWidgetHeaderSubTitle&#45;&gt;WidgetsModule -->
<g id="edge17" class="edge">
<title>ChartWidgetHeaderSubTitle&#45;&gt;WidgetsModule</title>
<path fill="none" stroke="#000000" d="M3037.3149,-122.1061C3037.3149,-122.1061 3037.3149,-140.991 3037.3149,-140.991"/>
<polygon fill="#000000" stroke="#000000" points="3033.8149,-140.9909 3037.3149,-150.991 3040.8149,-140.991 3033.8149,-140.9909"/>
</g>
<!-- ChartWidgetHeaderTitle -->
<g id="node18" class="node">
<title>ChartWidgetHeaderTitle</title>
<polygon fill="#ffffb3" stroke="#000000" points="2994.6629,-122 2839.3371,-122 2839.3371,-86 2994.6629,-86 2994.6629,-122"/>
<text text-anchor="middle" x="2917" y="-99.8" font-family="Times,serif" font-size="14.00" fill="#000000">ChartWidgetHeaderTitle</text>
</g>
<!-- ChartWidgetHeaderTitle&#45;&gt;WidgetsModule -->
<g id="edge18" class="edge">
<title>ChartWidgetHeaderTitle&#45;&gt;WidgetsModule</title>
<path fill="none" stroke="#000000" d="M2975.2395,-122.1061C2975.2395,-122.1061 2975.2395,-140.991 2975.2395,-140.991"/>
<polygon fill="#000000" stroke="#000000" points="2971.7396,-140.9909 2975.2395,-150.991 2978.7396,-140.991 2971.7396,-140.9909"/>
</g>
<!-- DonutChartWidgetComponent -->
<g id="node19" class="node">
<title>DonutChartWidgetComponent</title>
<polygon fill="#ffffb3" stroke="#000000" points="2821.1427,-122 2632.8573,-122 2632.8573,-86 2821.1427,-86 2821.1427,-122"/>
<text text-anchor="middle" x="2727" y="-99.8" font-family="Times,serif" font-size="14.00" fill="#000000">DonutChartWidgetComponent</text>
</g>
<!-- DonutChartWidgetComponent&#45;&gt;WidgetsModule -->
<g id="edge19" class="edge">
<title>DonutChartWidgetComponent&#45;&gt;WidgetsModule</title>
<path fill="none" stroke="#000000" d="M2727,-122.0511C2727,-136.373 2727,-154 2727,-154 2727,-154 2945.6264,-154 2945.6264,-154"/>
<polygon fill="#000000" stroke="#000000" points="2945.6265,-157.5001 2955.6264,-154 2945.6264,-150.5001 2945.6265,-157.5001"/>
</g>
<!-- LineChartWidgetComponent -->
<g id="node20" class="node">
<title>LineChartWidgetComponent</title>
<polygon fill="#ffffb3" stroke="#000000" points="2614.8033,-122 2435.1967,-122 2435.1967,-86 2614.8033,-86 2614.8033,-122"/>
<text text-anchor="middle" x="2525" y="-99.8" font-family="Times,serif" font-size="14.00" fill="#000000">LineChartWidgetComponent</text>
</g>
<!-- LineChartWidgetComponent&#45;&gt;WidgetsModule -->
<g id="edge20" class="edge">
<title>LineChartWidgetComponent&#45;&gt;WidgetsModule</title>
<path fill="none" stroke="#000000" d="M2525,-122.1871C2525,-137.1824 2525,-156 2525,-156 2525,-156 2945.819,-156 2945.819,-156"/>
<polygon fill="#000000" stroke="#000000" points="2945.8191,-159.5001 2955.819,-156 2945.819,-152.5001 2945.8191,-159.5001"/>
</g>
<!-- ListComponent -->
<g id="node21" class="node">
<title>ListComponent</title>
<polygon fill="#ffffb3" stroke="#000000" points="2417.6109,-122 2314.3891,-122 2314.3891,-86 2417.6109,-86 2417.6109,-122"/>
<text text-anchor="middle" x="2366" y="-99.8" font-family="Times,serif" font-size="14.00" fill="#000000">ListComponent</text>
</g>
<!-- ListComponent&#45;&gt;WidgetsModule -->
<g id="edge21" class="edge">
<title>ListComponent&#45;&gt;WidgetsModule</title>
<path fill="none" stroke="#000000" d="M2366,-122.2819C2366,-137.9478 2366,-158 2366,-158 2366,-158 2945.8336,-158 2945.8336,-158"/>
<polygon fill="#000000" stroke="#000000" points="2945.8336,-161.5001 2955.8336,-158 2945.8335,-154.5001 2945.8336,-161.5001"/>
</g>
<!-- MarketWidgetComponent -->
<g id="node22" class="node">
<title>MarketWidgetComponent</title>
<polygon fill="#ffffb3" stroke="#000000" points="2296.4678,-122 2133.5322,-122 2133.5322,-86 2296.4678,-86 2296.4678,-122"/>
<text text-anchor="middle" x="2215" y="-99.8" font-family="Times,serif" font-size="14.00" fill="#000000">MarketWidgetComponent</text>
</g>
<!-- MarketWidgetComponent&#45;&gt;WidgetsModule -->
<g id="edge22" class="edge">
<title>MarketWidgetComponent&#45;&gt;WidgetsModule</title>
<path fill="none" stroke="#000000" d="M2215,-122.027C2215,-138.3976 2215,-160 2215,-160 2215,-160 2945.6705,-160 2945.6705,-160"/>
<polygon fill="#000000" stroke="#000000" points="2945.6705,-163.5001 2955.6705,-160 2945.6705,-156.5001 2945.6705,-163.5001"/>
</g>
<!-- PageDirective -->
<g id="node23" class="node">
<title>PageDirective</title>
<polygon fill="#ffffb3" stroke="#000000" points="2115.7951,-122 2020.2049,-122 2020.2049,-86 2115.7951,-86 2115.7951,-122"/>
<text text-anchor="middle" x="2068" y="-99.8" font-family="Times,serif" font-size="14.00" fill="#000000">PageDirective</text>
</g>
<!-- PageDirective&#45;&gt;WidgetsModule -->
<g id="edge23" class="edge">
<title>PageDirective&#45;&gt;WidgetsModule</title>
<path fill="none" stroke="#000000" d="M2068,-122.0336C2068,-139.0597 2068,-162 2068,-162 2068,-162 2945.7116,-162 2945.7116,-162"/>
<polygon fill="#000000" stroke="#000000" points="2945.7116,-165.5001 2955.7116,-162 2945.7116,-158.5001 2945.7116,-165.5001"/>
</g>
<!-- PagePaddingDirective -->
<g id="node24" class="node">
<title>PagePaddingDirective</title>
<polygon fill="#ffffb3" stroke="#000000" points="2002.6825,-122 1861.3175,-122 1861.3175,-86 2002.6825,-86 2002.6825,-122"/>
<text text-anchor="middle" x="1932" y="-99.8" font-family="Times,serif" font-size="14.00" fill="#000000">PagePaddingDirective</text>
</g>
<!-- PagePaddingDirective&#45;&gt;WidgetsModule -->
<g id="edge24" class="edge">
<title>PagePaddingDirective&#45;&gt;WidgetsModule</title>
<path fill="none" stroke="#000000" d="M1932,-122.002C1932,-139.6754 1932,-164 1932,-164 1932,-164 2945.5914,-164 2945.5914,-164"/>
<polygon fill="#000000" stroke="#000000" points="2945.5914,-167.5001 2955.5914,-164 2945.5914,-160.5001 2945.5914,-167.5001"/>
</g>
<!-- QuickInfoWidgetComponent -->
<g id="node25" class="node">
<title>QuickInfoWidgetComponent</title>
<polygon fill="#ffffb3" stroke="#000000" points="1843.0758,-122 1662.9242,-122 1662.9242,-86 1843.0758,-86 1843.0758,-122"/>
<text text-anchor="middle" x="1753" y="-99.8" font-family="Times,serif" font-size="14.00" fill="#000000">QuickInfoWidgetComponent</text>
</g>
<!-- QuickInfoWidgetComponent&#45;&gt;WidgetsModule -->
<g id="edge25" class="edge">
<title>QuickInfoWidgetComponent&#45;&gt;WidgetsModule</title>
<path fill="none" stroke="#000000" d="M1753,-122.2667C1753,-140.5552 1753,-166 1753,-166 1753,-166 2945.8335,-166 2945.8335,-166"/>
<polygon fill="#000000" stroke="#000000" points="2945.8335,-169.5001 2955.8335,-166 2945.8334,-162.5001 2945.8335,-169.5001"/>
</g>
<!-- RealtimeUsersWidgetComponent -->
<g id="node26" class="node">
<title>RealtimeUsersWidgetComponent</title>
<polygon fill="#ffffb3" stroke="#000000" points="1644.4566,-122 1439.5434,-122 1439.5434,-86 1644.4566,-86 1644.4566,-122"/>
<text text-anchor="middle" x="1542" y="-99.8" font-family="Times,serif" font-size="14.00" fill="#000000">RealtimeUsersWidgetComponent</text>
</g>
<!-- RealtimeUsersWidgetComponent&#45;&gt;WidgetsModule -->
<g id="edge26" class="edge">
<title>RealtimeUsersWidgetComponent&#45;&gt;WidgetsModule</title>
<path fill="none" stroke="#000000" d="M1542,-122.1686C1542,-141.0898 1542,-168 1542,-168 1542,-168 2945.4863,-168 2945.4863,-168"/>
<polygon fill="#000000" stroke="#000000" points="2945.4863,-171.5001 2955.4863,-168 2945.4862,-164.5001 2945.4863,-171.5001"/>
</g>
<!-- RecentSalesWidgetComponent -->
<g id="node27" class="node">
<title>RecentSalesWidgetComponent</title>
<polygon fill="#ffffb3" stroke="#000000" points="1421.4608,-122 1230.5392,-122 1230.5392,-86 1421.4608,-86 1421.4608,-122"/>
<text text-anchor="middle" x="1326" y="-99.8" font-family="Times,serif" font-size="14.00" fill="#000000">RecentSalesWidgetComponent</text>
</g>
<!-- RecentSalesWidgetComponent&#45;&gt;WidgetsModule -->
<g id="edge27" class="edge">
<title>RecentSalesWidgetComponent&#45;&gt;WidgetsModule</title>
<path fill="none" stroke="#000000" d="M1326,-122.308C1326,-142.1455 1326,-171 1326,-171 1326,-171 2945.8515,-171 2945.8515,-171"/>
<polygon fill="#000000" stroke="#000000" points="2945.8515,-174.5001 2955.8515,-171 2945.8514,-167.5001 2945.8515,-174.5001"/>
</g>
<!-- RecentSalesWidgetTableComponent -->
<g id="node28" class="node">
<title>RecentSalesWidgetTableComponent</title>
<polygon fill="#ffffb3" stroke="#000000" points="1212.3333,-122 989.6667,-122 989.6667,-86 1212.3333,-86 1212.3333,-122"/>
<text text-anchor="middle" x="1101" y="-99.8" font-family="Times,serif" font-size="14.00" fill="#000000">RecentSalesWidgetTableComponent</text>
</g>
<!-- RecentSalesWidgetTableComponent&#45;&gt;WidgetsModule -->
<g id="edge28" class="edge">
<title>RecentSalesWidgetTableComponent&#45;&gt;WidgetsModule</title>
<path fill="none" stroke="#000000" d="M1101,-122.1289C1101,-142.5724 1101,-173 1101,-173 1101,-173 2945.7268,-173 2945.7268,-173"/>
<polygon fill="#000000" stroke="#000000" points="2945.7269,-176.5001 2955.7268,-173 2945.7268,-169.5001 2945.7269,-176.5001"/>
</g>
<!-- SalesSummaryWidgetComponent -->
<g id="node29" class="node">
<title>SalesSummaryWidgetComponent</title>
<polygon fill="#ffffb3" stroke="#000000" points="971.0293,-122 764.9707,-122 764.9707,-86 971.0293,-86 971.0293,-122"/>
<text text-anchor="middle" x="868" y="-99.8" font-family="Times,serif" font-size="14.00" fill="#000000">SalesSummaryWidgetComponent</text>
</g>
<!-- SalesSummaryWidgetComponent&#45;&gt;WidgetsModule -->
<g id="edge29" class="edge">
<title>SalesSummaryWidgetComponent&#45;&gt;WidgetsModule</title>
<path fill="none" stroke="#000000" d="M868,-122.2843C868,-143.3211 868,-175 868,-175 868,-175 2945.8093,-175 2945.8093,-175"/>
<polygon fill="#000000" stroke="#000000" points="2945.8094,-178.5001 2955.8093,-175 2945.8093,-171.5001 2945.8094,-178.5001"/>
</g>
<!-- WizdashComponent -->
<g id="node30" class="node">
<title>WizdashComponent</title>
<polygon fill="#ffffb3" stroke="#000000" points="747.3118,-122 616.6882,-122 616.6882,-86 747.3118,-86 747.3118,-122"/>
<text text-anchor="middle" x="682" y="-99.8" font-family="Times,serif" font-size="14.00" fill="#000000">WizdashComponent</text>
</g>
<!-- WizdashComponent&#45;&gt;WidgetsModule -->
<g id="edge30" class="edge">
<title>WizdashComponent&#45;&gt;WidgetsModule</title>
<path fill="none" stroke="#000000" d="M682,-122.0449C682,-143.6623 682,-177 682,-177 682,-177 2945.7461,-177 2945.7461,-177"/>
<polygon fill="#000000" stroke="#000000" points="2945.7462,-180.5001 2955.7461,-177 2945.7461,-173.5001 2945.7462,-180.5001"/>
</g>
<!-- LoadingOverlayModule -->
<g id="node32" class="node">
<title>LoadingOverlayModule</title>
<polygon fill="#8dd3c7" stroke="#000000" points="592.7949,-122 589.7949,-126 568.7949,-126 565.7949,-122 441.2051,-122 441.2051,-86 592.7949,-86 592.7949,-122"/>
<text text-anchor="middle" x="517" y="-99.8" font-family="Times,serif" font-size="14.00" fill="#000000">LoadingOverlayModule</text>
</g>
<!-- LoadingOverlayModule&#45;&gt;WidgetsModule -->
<g id="edge31" class="edge">
<title>LoadingOverlayModule&#45;&gt;WidgetsModule</title>
<path fill="none" stroke="#000000" d="M517,-122.1554C517,-144.3519 517,-179 517,-179 517,-179 2945.7982,-179 2945.7982,-179"/>
<polygon fill="#000000" stroke="#000000" points="2945.7982,-182.5001 2955.7982,-179 2945.7981,-175.5001 2945.7982,-182.5001"/>
</g>
<!-- ScrollbarModule -->
<g id="node33" class="node">
<title>ScrollbarModule</title>
<polygon fill="#8dd3c7" stroke="#000000" points="423.3641,-122 420.3641,-126 399.3641,-126 396.3641,-122 312.6359,-122 312.6359,-86 423.3641,-86 423.3641,-122"/>
<text text-anchor="middle" x="368" y="-99.8" font-family="Times,serif" font-size="14.00" fill="#000000">ScrollbarModule</text>
</g>
<!-- ScrollbarModule&#45;&gt;WidgetsModule -->
<g id="edge32" class="edge">
<title>ScrollbarModule&#45;&gt;WidgetsModule</title>
<path fill="none" stroke="#000000" d="M368,-122.2479C368,-145.0179 368,-181 368,-181 368,-181 2945.6482,-181 2945.6482,-181"/>
<polygon fill="#000000" stroke="#000000" points="2945.6482,-184.5001 2955.6482,-181 2945.6482,-177.5001 2945.6482,-184.5001"/>
</g>
<!-- SharedModule -->
<g id="node34" class="node">
<title>SharedModule</title>
<polygon fill="#8dd3c7" stroke="#000000" points="294.4231,-122 291.4231,-126 270.4231,-126 267.4231,-122 195.5769,-122 195.5769,-86 294.4231,-86 294.4231,-122"/>
<text text-anchor="middle" x="245" y="-99.8" font-family="Times,serif" font-size="14.00" fill="#000000">SharedModule</text>
</g>
<!-- SharedModule&#45;&gt;WidgetsModule -->
<g id="edge33" class="edge">
<title>SharedModule&#45;&gt;WidgetsModule</title>
<path fill="none" stroke="#000000" d="M245,-122.3228C245,-145.6602 245,-183 245,-183 245,-183 2945.6421,-183 2945.6421,-183"/>
<polygon fill="#000000" stroke="#000000" points="2945.6421,-186.5001 2955.6421,-183 2945.6421,-179.5001 2945.6421,-186.5001"/>
</g>
<!-- WizdashService -->
<g id="node35" class="node">
<title>WizdashService</title>
<ellipse fill="#fdb462" stroke="#000000" cx="98" cy="-104" rx="73.5541" ry="18"/>
<text text-anchor="middle" x="98" y="-99.8" font-family="Times,serif" font-size="14.00" fill="#000000">WizdashService</text>
</g>
<!-- WizdashService&#45;&gt;WidgetsModule -->
<g id="edge34" class="edge">
<title>WizdashService&#45;&gt;WidgetsModule</title>
<path fill="none" stroke="#000000" d="M98,-122.3802C98,-146.2785 98,-185 98,-185 98,-185 2945.6746,-185 2945.6746,-185"/>
<polygon fill="#000000" stroke="#000000" points="2945.6747,-188.5001 2955.6746,-185 2945.6746,-181.5001 2945.6747,-188.5001"/>
</g>
</g>
</svg>
