<?xml version="1.0" encoding="UTF-8" standalone="no"?>
<!DOCTYPE svg PUBLIC "-//W3C//DTD SVG 1.1//EN"
 "http://www.w3.org/Graphics/SVG/1.1/DTD/svg11.dtd">
<!-- Generated by graphviz version 2.40.1 (20161225.0304)
 -->
<!-- Title: dependencies Pages: 1 -->
<svg width="2305pt" height="211pt"
 viewBox="0.00 0.00 2305.00 211.00" xmlns="http://www.w3.org/2000/svg" xmlns:xlink="http://www.w3.org/1999/xlink">
<g id="graph0" class="graph" transform="scale(1 1) rotate(0) translate(4 207)">
<title>dependencies</title>
<polygon fill="#ffffff" stroke="transparent" points="-4,4 -4,-207 2301,-207 2301,4 -4,4"/>
<text text-anchor="start" x="1127.5091" y="-42.4" font-family="sans-serif" font-weight="bold" font-size="14.00" fill="#000000">Legend</text>
<polygon fill="#ffffb3" stroke="transparent" points="914.5,-10 914.5,-30 934.5,-30 934.5,-10 914.5,-10"/>
<text text-anchor="start" x="938.129" y="-15.4" font-family="sans-serif" font-size="14.00" fill="#000000"> &#160;Declarations</text>
<polygon fill="#8dd3c7" stroke="transparent" points="1027.5,-10 1027.5,-30 1047.5,-30 1047.5,-10 1027.5,-10"/>
<text text-anchor="start" x="1051.2251" y="-15.4" font-family="sans-serif" font-size="14.00" fill="#000000"> &#160;Module</text>
<polygon fill="#80b1d3" stroke="transparent" points="1113.5,-10 1113.5,-30 1133.5,-30 1133.5,-10 1113.5,-10"/>
<text text-anchor="start" x="1137.2812" y="-15.4" font-family="sans-serif" font-size="14.00" fill="#000000"> &#160;Bootstrap</text>
<polygon fill="#fdb462" stroke="transparent" points="1210.5,-10 1210.5,-30 1230.5,-30 1230.5,-10 1210.5,-10"/>
<text text-anchor="start" x="1234.1732" y="-15.4" font-family="sans-serif" font-size="14.00" fill="#000000"> &#160;Providers</text>
<polygon fill="#fb8072" stroke="transparent" points="1306.5,-10 1306.5,-30 1326.5,-30 1326.5,-10 1306.5,-10"/>
<text text-anchor="start" x="1330.2258" y="-15.4" font-family="sans-serif" font-size="14.00" fill="#000000"> &#160;Exports</text>
<g id="clust1" class="cluster">
<title>cluster_WidgetsModule</title>
<polygon fill="none" stroke="#000000" stroke-dasharray="1,5" points="8,-70 8,-195 2289,-195 2289,-70 8,-70"/>
</g>
<g id="clust2" class="cluster">
<title>cluster_WidgetsModule_declarations</title>
<polygon fill="none" stroke="#000000" points="478,-78 478,-130 2281,-130 2281,-78 478,-78"/>
</g>
<g id="clust14" class="cluster">
<title>cluster_WidgetsModule_imports</title>
<polygon fill="none" stroke="#000000" points="186,-78 186,-130 470,-130 470,-78 186,-78"/>
</g>
<g id="clust17" class="cluster">
<title>cluster_WidgetsModule_providers</title>
<polygon fill="none" stroke="#000000" points="16,-78 16,-130 178,-130 178,-78 16,-78"/>
</g>
<!-- WizdashComponent -->
<g id="node1" class="node">
<title>WizdashComponent</title>
<polygon fill="#ffffb3" stroke="#000000" points="2273.3118,-122 2142.6882,-122 2142.6882,-86 2273.3118,-86 2273.3118,-122"/>
<text text-anchor="middle" x="2208" y="-99.8" font-family="Times,serif" font-size="14.00" fill="#000000">WizdashComponent</text>
</g>
<!-- WidgetsModule -->
<g id="node12" class="node">
<title>WidgetsModule</title>
<polygon fill="#8dd3c7" stroke="#000000" points="1145.205,-187 1142.205,-191 1121.205,-191 1118.205,-187 1038.795,-187 1038.795,-151 1145.205,-151 1145.205,-187"/>
<text text-anchor="middle" x="1092" y="-164.8" font-family="Times,serif" font-size="14.00" fill="#000000">WidgetsModule</text>
</g>
<!-- WizdashComponent&#45;&gt;WidgetsModule -->
<g id="edge1" class="edge">
<title>WizdashComponent&#45;&gt;WidgetsModule</title>
<path fill="none" stroke="#000000" d="M2208,-122.0908C2208,-145.1328 2208,-182 2208,-182 2208,-182 1155.451,-182 1155.451,-182"/>
<polygon fill="#000000" stroke="#000000" points="1155.4511,-178.5001 1145.451,-182 1155.451,-185.5001 1155.4511,-178.5001"/>
</g>
<!-- WidgetComponent -->
<g id="node2" class="node">
<title>WidgetComponent</title>
<polygon fill="#ffffb3" stroke="#000000" points="2125.0436,-122 2002.9564,-122 2002.9564,-86 2125.0436,-86 2125.0436,-122"/>
<text text-anchor="middle" x="2064" y="-99.8" font-family="Times,serif" font-size="14.00" fill="#000000">WidgetComponent</text>
</g>
<!-- WidgetComponent&#45;&gt;WidgetsModule -->
<g id="edge2" class="edge">
<title>WidgetComponent&#45;&gt;WidgetsModule</title>
<path fill="none" stroke="#000000" d="M2064,-122.0449C2064,-143.6623 2064,-177 2064,-177 2064,-177 1155.2958,-177 1155.2958,-177"/>
<polygon fill="#000000" stroke="#000000" points="1155.2959,-173.5001 1145.2958,-177 1155.2958,-180.5001 1155.2959,-173.5001"/>
</g>
<!-- LineChartWidgetComponent -->
<g id="node3" class="node">
<title>LineChartWidgetComponent</title>
<polygon fill="#ffffb3" stroke="#000000" points="1984.8033,-122 1805.1967,-122 1805.1967,-86 1984.8033,-86 1984.8033,-122"/>
<text text-anchor="middle" x="1895" y="-99.8" font-family="Times,serif" font-size="14.00" fill="#000000">LineChartWidgetComponent</text>
</g>
<!-- LineChartWidgetComponent&#45;&gt;WidgetsModule -->
<g id="edge3" class="edge">
<title>LineChartWidgetComponent&#45;&gt;WidgetsModule</title>
<path fill="none" stroke="#000000" d="M1895,-122.2228C1895,-142.3652 1895,-172 1895,-172 1895,-172 1155.3089,-172 1155.3089,-172"/>
<polygon fill="#000000" stroke="#000000" points="1155.309,-168.5001 1145.3089,-172 1155.3089,-175.5001 1155.309,-168.5001"/>
</g>
<!-- SourceOverviewWidgetComponent -->
<g id="node4" class="node">
<title>SourceOverviewWidgetComponent</title>
<polygon fill="#ffffb3" stroke="#000000" points="1787.1092,-122 1570.8908,-122 1570.8908,-86 1787.1092,-86 1787.1092,-122"/>
<text text-anchor="middle" x="1679" y="-99.8" font-family="Times,serif" font-size="14.00" fill="#000000">SourceOverviewWidgetComponent</text>
</g>
<!-- SourceOverviewWidgetComponent&#45;&gt;WidgetsModule -->
<g id="edge4" class="edge">
<title>SourceOverviewWidgetComponent&#45;&gt;WidgetsModule</title>
<path fill="none" stroke="#000000" d="M1679,-122.2222C1679,-140.8285 1679,-167 1679,-167 1679,-167 1155.1276,-167 1155.1276,-167"/>
<polygon fill="#000000" stroke="#000000" points="1155.1277,-163.5001 1145.1276,-167 1155.1276,-170.5001 1155.1277,-163.5001"/>
</g>
<!-- BarChartComponent -->
<g id="node5" class="node">
<title>BarChartComponent</title>
<polygon fill="#ffffb3" stroke="#000000" points="1552.1471,-122 1419.8529,-122 1419.8529,-86 1552.1471,-86 1552.1471,-122"/>
<text text-anchor="middle" x="1486" y="-99.8" font-family="Times,serif" font-size="14.00" fill="#000000">BarChartComponent</text>
</g>
<!-- BarChartComponent&#45;&gt;WidgetsModule -->
<g id="edge5" class="edge">
<title>BarChartComponent&#45;&gt;WidgetsModule</title>
<path fill="none" stroke="#000000" d="M1486,-122.0336C1486,-139.0597 1486,-162 1486,-162 1486,-162 1155.1366,-162 1155.1366,-162"/>
<polygon fill="#000000" stroke="#000000" points="1155.1366,-158.5001 1145.1366,-162 1155.1366,-165.5001 1155.1366,-158.5001"/>
</g>
<!-- LineChartComponent -->
<g id="node6" class="node">
<title>LineChartComponent</title>
<polygon fill="#ffffb3" stroke="#000000" points="1402.0926,-122 1263.9074,-122 1263.9074,-86 1402.0926,-86 1402.0926,-122"/>
<text text-anchor="middle" x="1333" y="-99.8" font-family="Times,serif" font-size="14.00" fill="#000000">LineChartComponent</text>
</g>
<!-- LineChartComponent&#45;&gt;WidgetsModule -->
<g id="edge6" class="edge">
<title>LineChartComponent&#45;&gt;WidgetsModule</title>
<path fill="none" stroke="#000000" d="M1333,-122.2396C1333,-137.5706 1333,-157 1333,-157 1333,-157 1155.1868,-157 1155.1868,-157"/>
<polygon fill="#000000" stroke="#000000" points="1155.1869,-153.5001 1145.1868,-157 1155.1868,-160.5001 1155.1869,-153.5001"/>
</g>
<!-- RecentSalesComponent -->
<g id="node7" class="node">
<title>RecentSalesComponent</title>
<polygon fill="#ffffb3" stroke="#000000" points="1245.7506,-122 1096.2494,-122 1096.2494,-86 1245.7506,-86 1245.7506,-122"/>
<text text-anchor="middle" x="1171" y="-99.8" font-family="Times,serif" font-size="14.00" fill="#000000">RecentSalesComponent</text>
</g>
<!-- RecentSalesComponent&#45;&gt;WidgetsModule -->
<g id="edge7" class="edge">
<title>RecentSalesComponent&#45;&gt;WidgetsModule</title>
<path fill="none" stroke="#000000" d="M1120.6136,-122.1061C1120.6136,-122.1061 1120.6136,-140.991 1120.6136,-140.991"/>
<polygon fill="#000000" stroke="#000000" points="1117.1137,-140.9909 1120.6136,-150.991 1124.1137,-140.991 1117.1137,-140.9909"/>
</g>
<!-- PieChartComponent -->
<g id="node8" class="node">
<title>PieChartComponent</title>
<polygon fill="#ffffb3" stroke="#000000" points="1078.323,-122 947.677,-122 947.677,-86 1078.323,-86 1078.323,-122"/>
<text text-anchor="middle" x="1013" y="-99.8" font-family="Times,serif" font-size="14.00" fill="#000000">PieChartComponent</text>
</g>
<!-- PieChartComponent&#45;&gt;WidgetsModule -->
<g id="edge8" class="edge">
<title>PieChartComponent&#45;&gt;WidgetsModule</title>
<path fill="none" stroke="#000000" d="M1058.5295,-122.1061C1058.5295,-122.1061 1058.5295,-140.991 1058.5295,-140.991"/>
<polygon fill="#000000" stroke="#000000" points="1055.0295,-140.9909 1058.5295,-150.991 1062.0295,-140.991 1055.0295,-140.9909"/>
</g>
<!-- ActivityComponent -->
<g id="node9" class="node">
<title>ActivityComponent</title>
<polygon fill="#ffffb3" stroke="#000000" points="929.7162,-122 802.2838,-122 802.2838,-86 929.7162,-86 929.7162,-122"/>
<text text-anchor="middle" x="866" y="-99.8" font-family="Times,serif" font-size="14.00" fill="#000000">ActivityComponent</text>
</g>
<!-- ActivityComponent&#45;&gt;WidgetsModule -->
<g id="edge9" class="edge">
<title>ActivityComponent&#45;&gt;WidgetsModule</title>
<path fill="none" stroke="#000000" d="M866,-122.2396C866,-137.5706 866,-157 866,-157 866,-157 1028.7273,-157 1028.7273,-157"/>
<polygon fill="#000000" stroke="#000000" points="1028.7274,-160.5001 1038.7273,-157 1028.7273,-153.5001 1028.7274,-160.5001"/>
</g>
<!-- TrafficSourcesComponent -->
<g id="node10" class="node">
<title>TrafficSourcesComponent</title>
<polygon fill="#ffffb3" stroke="#000000" points="784.0043,-122 619.9957,-122 619.9957,-86 784.0043,-86 784.0043,-122"/>
<text text-anchor="middle" x="702" y="-99.8" font-family="Times,serif" font-size="14.00" fill="#000000">TrafficSourcesComponent</text>
</g>
<!-- TrafficSourcesComponent&#45;&gt;WidgetsModule -->
<g id="edge10" class="edge">
<title>TrafficSourcesComponent&#45;&gt;WidgetsModule</title>
<path fill="none" stroke="#000000" d="M702,-122.0336C702,-139.0597 702,-162 702,-162 702,-162 1028.5899,-162 1028.5899,-162"/>
<polygon fill="#000000" stroke="#000000" points="1028.5899,-165.5001 1038.5899,-162 1028.5899,-158.5001 1028.5899,-165.5001"/>
</g>
<!-- NvD3Component -->
<g id="node11" class="node">
<title>NvD3Component</title>
<polygon fill="#ffffb3" stroke="#000000" points="601.5465,-122 486.4535,-122 486.4535,-86 601.5465,-86 601.5465,-122"/>
<text text-anchor="middle" x="544" y="-99.8" font-family="Times,serif" font-size="14.00" fill="#000000">NvD3Component</text>
</g>
<!-- NvD3Component&#45;&gt;WidgetsModule -->
<g id="edge11" class="edge">
<title>NvD3Component&#45;&gt;WidgetsModule</title>
<path fill="none" stroke="#000000" d="M544,-122.2222C544,-140.8285 544,-167 544,-167 544,-167 1028.4577,-167 1028.4577,-167"/>
<polygon fill="#000000" stroke="#000000" points="1028.4577,-170.5001 1038.4577,-167 1028.4576,-163.5001 1028.4577,-170.5001"/>
</g>
<!-- SharedModule -->
<g id="node13" class="node">
<title>SharedModule</title>
<polygon fill="#8dd3c7" stroke="#000000" points="462.4231,-122 459.4231,-126 438.4231,-126 435.4231,-122 363.5769,-122 363.5769,-86 462.4231,-86 462.4231,-122"/>
<text text-anchor="middle" x="413" y="-99.8" font-family="Times,serif" font-size="14.00" fill="#000000">SharedModule</text>
</g>
<!-- SharedModule&#45;&gt;WidgetsModule -->
<g id="edge12" class="edge">
<title>SharedModule&#45;&gt;WidgetsModule</title>
<path fill="none" stroke="#000000" d="M413,-122.2228C413,-142.3652 413,-172 413,-172 413,-172 1028.72,-172 1028.72,-172"/>
<polygon fill="#000000" stroke="#000000" points="1028.72,-175.5001 1038.72,-172 1028.72,-168.5001 1028.72,-175.5001"/>
</g>
<!-- LoadingOverlayModule -->
<g id="node14" class="node">
<title>LoadingOverlayModule</title>
<polygon fill="#8dd3c7" stroke="#000000" points="345.7949,-122 342.7949,-126 321.7949,-126 318.7949,-122 194.2051,-122 194.2051,-86 345.7949,-86 345.7949,-122"/>
<text text-anchor="middle" x="270" y="-99.8" font-family="Times,serif" font-size="14.00" fill="#000000">LoadingOverlayModule</text>
</g>
<!-- LoadingOverlayModule&#45;&gt;WidgetsModule -->
<g id="edge13" class="edge">
<title>LoadingOverlayModule&#45;&gt;WidgetsModule</title>
<path fill="none" stroke="#000000" d="M270,-122.0449C270,-143.6623 270,-177 270,-177 270,-177 1028.6996,-177 1028.6996,-177"/>
<polygon fill="#000000" stroke="#000000" points="1028.6997,-180.5001 1038.6996,-177 1028.6996,-173.5001 1028.6997,-180.5001"/>
</g>
<!-- D3ChartService -->
<g id="node15" class="node">
<title>D3ChartService</title>
<ellipse fill="#fdb462" stroke="#000000" cx="97" cy="-104" rx="73.492" ry="18"/>
<text text-anchor="middle" x="97" y="-99.8" font-family="Times,serif" font-size="14.00" fill="#000000">D3ChartService</text>
</g>
<!-- D3ChartService&#45;&gt;WidgetsModule -->
<g id="edge14" class="edge">
<title>D3ChartService&#45;&gt;WidgetsModule</title>
<path fill="none" stroke="#000000" d="M97,-122.0908C97,-145.1328 97,-182 97,-182 97,-182 1028.8562,-182 1028.8562,-182"/>
<polygon fill="#000000" stroke="#000000" points="1028.8563,-185.5001 1038.8562,-182 1028.8562,-178.5001 1028.8563,-185.5001"/>
</g>
</g>
</svg>
