<?xml version="1.0" encoding="UTF-8" standalone="no"?>
<!DOCTYPE svg PUBLIC "-//W3C//DTD SVG 1.1//EN"
 "http://www.w3.org/Graphics/SVG/1.1/DTD/svg11.dtd">
<!-- Generated by graphviz version 2.40.1 (20161225.0304)
 -->
<!-- Title: dependencies Pages: 1 -->
<svg width="2518pt" height="211pt"
 viewBox="0.00 0.00 2518.00 211.00" xmlns="http://www.w3.org/2000/svg" xmlns:xlink="http://www.w3.org/1999/xlink">
<g id="graph0" class="graph" transform="scale(1 1) rotate(0) translate(4 207)">
<title>dependencies</title>
<polygon fill="#ffffff" stroke="transparent" points="-4,4 -4,-207 2514,-207 2514,4 -4,4"/>
<text text-anchor="start" x="1234.0091" y="-42.4" font-family="sans-serif" font-weight="bold" font-size="14.00" fill="#000000">Legend</text>
<polygon fill="#ffffb3" stroke="transparent" points="1021,-10 1021,-30 1041,-30 1041,-10 1021,-10"/>
<text text-anchor="start" x="1044.629" y="-15.4" font-family="sans-serif" font-size="14.00" fill="#000000"> &#160;Declarations</text>
<polygon fill="#8dd3c7" stroke="transparent" points="1134,-10 1134,-30 1154,-30 1154,-10 1134,-10"/>
<text text-anchor="start" x="1157.7251" y="-15.4" font-family="sans-serif" font-size="14.00" fill="#000000"> &#160;Module</text>
<polygon fill="#80b1d3" stroke="transparent" points="1220,-10 1220,-30 1240,-30 1240,-10 1220,-10"/>
<text text-anchor="start" x="1243.7812" y="-15.4" font-family="sans-serif" font-size="14.00" fill="#000000"> &#160;Bootstrap</text>
<polygon fill="#fdb462" stroke="transparent" points="1317,-10 1317,-30 1337,-30 1337,-10 1317,-10"/>
<text text-anchor="start" x="1340.6732" y="-15.4" font-family="sans-serif" font-size="14.00" fill="#000000"> &#160;Providers</text>
<polygon fill="#fb8072" stroke="transparent" points="1413,-10 1413,-30 1433,-30 1433,-10 1413,-10"/>
<text text-anchor="start" x="1436.7258" y="-15.4" font-family="sans-serif" font-size="14.00" fill="#000000"> &#160;Exports</text>
<g id="clust1" class="cluster">
<title>cluster_WidgetsModule</title>
<polygon fill="none" stroke="#000000" stroke-dasharray="1,5" points="8,-70 8,-195 2502,-195 2502,-70 8,-70"/>
</g>
<g id="clust2" class="cluster">
<title>cluster_WidgetsModule_declarations</title>
<polygon fill="none" stroke="#000000" points="478,-78 478,-130 2494,-130 2494,-78 478,-78"/>
</g>
<g id="clust15" class="cluster">
<title>cluster_WidgetsModule_imports</title>
<polygon fill="none" stroke="#000000" points="186,-78 186,-130 470,-130 470,-78 186,-78"/>
</g>
<g id="clust18" class="cluster">
<title>cluster_WidgetsModule_providers</title>
<polygon fill="none" stroke="#000000" points="16,-78 16,-130 178,-130 178,-78 16,-78"/>
</g>
<!-- WizdashComponent -->
<g id="node1" class="node">
<title>WizdashComponent</title>
<polygon fill="#ffffb3" stroke="#000000" points="2486.3118,-122 2355.6882,-122 2355.6882,-86 2486.3118,-86 2486.3118,-122"/>
<text text-anchor="middle" x="2421" y="-99.8" font-family="Times,serif" font-size="14.00" fill="#000000">WizdashComponent</text>
</g>
<!-- WidgetsModule -->
<g id="node13" class="node">
<title>WidgetsModule</title>
<polygon fill="#8dd3c7" stroke="#000000" points="1279.205,-187 1276.205,-191 1255.205,-191 1252.205,-187 1172.795,-187 1172.795,-151 1279.205,-151 1279.205,-187"/>
<text text-anchor="middle" x="1226" y="-164.8" font-family="Times,serif" font-size="14.00" fill="#000000">WidgetsModule</text>
</g>
<!-- WizdashComponent&#45;&gt;WidgetsModule -->
<g id="edge1" class="edge">
<title>WizdashComponent&#45;&gt;WidgetsModule</title>
<path fill="none" stroke="#000000" d="M2421,-122.3228C2421,-145.6602 2421,-183 2421,-183 2421,-183 1289.2782,-183 1289.2782,-183"/>
<polygon fill="#000000" stroke="#000000" points="1289.2783,-179.5001 1279.2782,-183 1289.2782,-186.5001 1289.2783,-179.5001"/>
</g>
<!-- WidgetComponent -->
<g id="node2" class="node">
<title>WidgetComponent</title>
<polygon fill="#ffffb3" stroke="#000000" points="2338.0436,-122 2215.9564,-122 2215.9564,-86 2338.0436,-86 2338.0436,-122"/>
<text text-anchor="middle" x="2277" y="-99.8" font-family="Times,serif" font-size="14.00" fill="#000000">WidgetComponent</text>
</g>
<!-- WidgetComponent&#45;&gt;WidgetsModule -->
<g id="edge2" class="edge">
<title>WidgetComponent&#45;&gt;WidgetsModule</title>
<path fill="none" stroke="#000000" d="M2277,-122.2921C2277,-144.2057 2277,-178 2277,-178 2277,-178 1289.2013,-178 1289.2013,-178"/>
<polygon fill="#000000" stroke="#000000" points="1289.2013,-174.5001 1279.2013,-178 1289.2013,-181.5001 1289.2013,-174.5001"/>
</g>
<!-- LineChartWidgetComponent -->
<g id="node3" class="node">
<title>LineChartWidgetComponent</title>
<polygon fill="#ffffb3" stroke="#000000" points="2197.8033,-122 2018.1967,-122 2018.1967,-86 2197.8033,-86 2197.8033,-122"/>
<text text-anchor="middle" x="2108" y="-99.8" font-family="Times,serif" font-size="14.00" fill="#000000">LineChartWidgetComponent</text>
</g>
<!-- LineChartWidgetComponent&#45;&gt;WidgetsModule -->
<g id="edge3" class="edge">
<title>LineChartWidgetComponent&#45;&gt;WidgetsModule</title>
<path fill="none" stroke="#000000" d="M2108,-122.0267C2108,-142.7672 2108,-174 2108,-174 2108,-174 1289.1868,-174 1289.1868,-174"/>
<polygon fill="#000000" stroke="#000000" points="1289.1868,-170.5001 1279.1868,-174 1289.1868,-177.5001 1289.1868,-170.5001"/>
</g>
<!-- SourceOverviewWidgetComponent -->
<g id="node4" class="node">
<title>SourceOverviewWidgetComponent</title>
<polygon fill="#ffffb3" stroke="#000000" points="2000.1092,-122 1783.8908,-122 1783.8908,-86 2000.1092,-86 2000.1092,-122"/>
<text text-anchor="middle" x="1892" y="-99.8" font-family="Times,serif" font-size="14.00" fill="#000000">SourceOverviewWidgetComponent</text>
</g>
<!-- SourceOverviewWidgetComponent&#45;&gt;WidgetsModule -->
<g id="edge4" class="edge">
<title>SourceOverviewWidgetComponent&#45;&gt;WidgetsModule</title>
<path fill="none" stroke="#000000" d="M1892,-122.1061C1892,-141.3391 1892,-169 1892,-169 1892,-169 1289.3758,-169 1289.3758,-169"/>
<polygon fill="#000000" stroke="#000000" points="1289.3758,-165.5001 1279.3758,-169 1289.3757,-172.5001 1289.3758,-165.5001"/>
</g>
<!-- BarChartComponent -->
<g id="node5" class="node">
<title>BarChartComponent</title>
<polygon fill="#ffffb3" stroke="#000000" points="1765.1471,-122 1632.8529,-122 1632.8529,-86 1765.1471,-86 1765.1471,-122"/>
<text text-anchor="middle" x="1699" y="-99.8" font-family="Times,serif" font-size="14.00" fill="#000000">BarChartComponent</text>
</g>
<!-- BarChartComponent&#45;&gt;WidgetsModule -->
<g id="edge5" class="edge">
<title>BarChartComponent&#45;&gt;WidgetsModule</title>
<path fill="none" stroke="#000000" d="M1699,-122.302C1699,-140.2699 1699,-165 1699,-165 1699,-165 1289.3397,-165 1289.3397,-165"/>
<polygon fill="#000000" stroke="#000000" points="1289.3397,-161.5001 1279.3397,-165 1289.3396,-168.5001 1289.3397,-161.5001"/>
</g>
<!-- LineChartComponent -->
<g id="node6" class="node">
<title>LineChartComponent</title>
<polygon fill="#ffffb3" stroke="#000000" points="1615.0926,-122 1476.9074,-122 1476.9074,-86 1615.0926,-86 1615.0926,-122"/>
<text text-anchor="middle" x="1546" y="-99.8" font-family="Times,serif" font-size="14.00" fill="#000000">LineChartComponent</text>
</g>
<!-- LineChartComponent&#45;&gt;WidgetsModule -->
<g id="edge6" class="edge">
<title>LineChartComponent&#45;&gt;WidgetsModule</title>
<path fill="none" stroke="#000000" d="M1546,-122.027C1546,-138.3976 1546,-160 1546,-160 1546,-160 1289.2007,-160 1289.2007,-160"/>
<polygon fill="#000000" stroke="#000000" points="1289.2007,-156.5001 1279.2007,-160 1289.2007,-163.5001 1289.2007,-156.5001"/>
</g>
<!-- RecentSalesComponent -->
<g id="node7" class="node">
<title>RecentSalesComponent</title>
<polygon fill="#ffffb3" stroke="#000000" points="1458.7506,-122 1309.2494,-122 1309.2494,-86 1458.7506,-86 1458.7506,-122"/>
<text text-anchor="middle" x="1384" y="-99.8" font-family="Times,serif" font-size="14.00" fill="#000000">RecentSalesComponent</text>
</g>
<!-- RecentSalesComponent&#45;&gt;WidgetsModule -->
<g id="edge7" class="edge">
<title>RecentSalesComponent&#45;&gt;WidgetsModule</title>
<path fill="none" stroke="#000000" d="M1384,-122.1871C1384,-137.1824 1384,-156 1384,-156 1384,-156 1289.4916,-156 1289.4916,-156"/>
<polygon fill="#000000" stroke="#000000" points="1289.4916,-152.5001 1279.4916,-156 1289.4916,-159.5001 1289.4916,-152.5001"/>
</g>
<!-- PieChartComponent -->
<g id="node8" class="node">
<title>PieChartComponent</title>
<polygon fill="#ffffb3" stroke="#000000" points="1291.323,-122 1160.677,-122 1160.677,-86 1291.323,-86 1291.323,-122"/>
<text text-anchor="middle" x="1226" y="-99.8" font-family="Times,serif" font-size="14.00" fill="#000000">PieChartComponent</text>
</g>
<!-- PieChartComponent&#45;&gt;WidgetsModule -->
<g id="edge8" class="edge">
<title>PieChartComponent&#45;&gt;WidgetsModule</title>
<path fill="none" stroke="#000000" d="M1226,-122.1061C1226,-122.1061 1226,-140.991 1226,-140.991"/>
<polygon fill="#000000" stroke="#000000" points="1222.5001,-140.9909 1226,-150.991 1229.5001,-140.991 1222.5001,-140.9909"/>
</g>
<!-- GoogleMapsWidgetComponent -->
<g id="node9" class="node">
<title>GoogleMapsWidgetComponent</title>
<polygon fill="#ffffb3" stroke="#000000" points="1142.3585,-122 947.6415,-122 947.6415,-86 1142.3585,-86 1142.3585,-122"/>
<text text-anchor="middle" x="1045" y="-99.8" font-family="Times,serif" font-size="14.00" fill="#000000">GoogleMapsWidgetComponent</text>
</g>
<!-- GoogleMapsWidgetComponent&#45;&gt;WidgetsModule -->
<g id="edge9" class="edge">
<title>GoogleMapsWidgetComponent&#45;&gt;WidgetsModule</title>
<path fill="none" stroke="#000000" d="M1045,-122.1871C1045,-137.1824 1045,-156 1045,-156 1045,-156 1162.673,-156 1162.673,-156"/>
<polygon fill="#000000" stroke="#000000" points="1162.673,-159.5001 1172.673,-156 1162.673,-152.5001 1162.673,-159.5001"/>
</g>
<!-- ActivityComponent -->
<g id="node10" class="node">
<title>ActivityComponent</title>
<polygon fill="#ffffb3" stroke="#000000" points="929.7162,-122 802.2838,-122 802.2838,-86 929.7162,-86 929.7162,-122"/>
<text text-anchor="middle" x="866" y="-99.8" font-family="Times,serif" font-size="14.00" fill="#000000">ActivityComponent</text>
</g>
<!-- ActivityComponent&#45;&gt;WidgetsModule -->
<g id="edge10" class="edge">
<title>ActivityComponent&#45;&gt;WidgetsModule</title>
<path fill="none" stroke="#000000" d="M866,-122.027C866,-138.3976 866,-160 866,-160 866,-160 1162.8808,-160 1162.8808,-160"/>
<polygon fill="#000000" stroke="#000000" points="1162.8808,-163.5001 1172.8808,-160 1162.8807,-156.5001 1162.8808,-163.5001"/>
</g>
<!-- TrafficSourcesComponent -->
<g id="node11" class="node">
<title>TrafficSourcesComponent</title>
<polygon fill="#ffffb3" stroke="#000000" points="784.0043,-122 619.9957,-122 619.9957,-86 784.0043,-86 784.0043,-122"/>
<text text-anchor="middle" x="702" y="-99.8" font-family="Times,serif" font-size="14.00" fill="#000000">TrafficSourcesComponent</text>
</g>
<!-- TrafficSourcesComponent&#45;&gt;WidgetsModule -->
<g id="edge11" class="edge">
<title>TrafficSourcesComponent&#45;&gt;WidgetsModule</title>
<path fill="none" stroke="#000000" d="M702,-122.302C702,-140.2699 702,-165 702,-165 702,-165 1162.8724,-165 1162.8724,-165"/>
<polygon fill="#000000" stroke="#000000" points="1162.8725,-168.5001 1172.8724,-165 1162.8724,-161.5001 1162.8725,-168.5001"/>
</g>
<!-- NvD3Component -->
<g id="node12" class="node">
<title>NvD3Component</title>
<polygon fill="#ffffb3" stroke="#000000" points="601.5465,-122 486.4535,-122 486.4535,-86 601.5465,-86 601.5465,-122"/>
<text text-anchor="middle" x="544" y="-99.8" font-family="Times,serif" font-size="14.00" fill="#000000">NvD3Component</text>
</g>
<!-- NvD3Component&#45;&gt;WidgetsModule -->
<g id="edge12" class="edge">
<title>NvD3Component&#45;&gt;WidgetsModule</title>
<path fill="none" stroke="#000000" d="M544,-122.1061C544,-141.3391 544,-169 544,-169 544,-169 1162.7687,-169 1162.7687,-169"/>
<polygon fill="#000000" stroke="#000000" points="1162.7687,-172.5001 1172.7687,-169 1162.7686,-165.5001 1162.7687,-172.5001"/>
</g>
<!-- SharedModule -->
<g id="node14" class="node">
<title>SharedModule</title>
<polygon fill="#8dd3c7" stroke="#000000" points="462.4231,-122 459.4231,-126 438.4231,-126 435.4231,-122 363.5769,-122 363.5769,-86 462.4231,-86 462.4231,-122"/>
<text text-anchor="middle" x="413" y="-99.8" font-family="Times,serif" font-size="14.00" fill="#000000">SharedModule</text>
</g>
<!-- SharedModule&#45;&gt;WidgetsModule -->
<g id="edge13" class="edge">
<title>SharedModule&#45;&gt;WidgetsModule</title>
<path fill="none" stroke="#000000" d="M413,-122.0267C413,-142.7672 413,-174 413,-174 413,-174 1162.6568,-174 1162.6568,-174"/>
<polygon fill="#000000" stroke="#000000" points="1162.6568,-177.5001 1172.6568,-174 1162.6568,-170.5001 1162.6568,-177.5001"/>
</g>
<!-- LoadingOverlayModule -->
<g id="node15" class="node">
<title>LoadingOverlayModule</title>
<polygon fill="#8dd3c7" stroke="#000000" points="345.7949,-122 342.7949,-126 321.7949,-126 318.7949,-122 194.2051,-122 194.2051,-86 345.7949,-86 345.7949,-122"/>
<text text-anchor="middle" x="270" y="-99.8" font-family="Times,serif" font-size="14.00" fill="#000000">LoadingOverlayModule</text>
</g>
<!-- LoadingOverlayModule&#45;&gt;WidgetsModule -->
<g id="edge14" class="edge">
<title>LoadingOverlayModule&#45;&gt;WidgetsModule</title>
<path fill="none" stroke="#000000" d="M270,-122.2921C270,-144.2057 270,-178 270,-178 270,-178 1162.8967,-178 1162.8967,-178"/>
<polygon fill="#000000" stroke="#000000" points="1162.8967,-181.5001 1172.8967,-178 1162.8966,-174.5001 1162.8967,-181.5001"/>
</g>
<!-- D3ChartService -->
<g id="node16" class="node">
<title>D3ChartService</title>
<ellipse fill="#fdb462" stroke="#000000" cx="97" cy="-104" rx="73.492" ry="18"/>
<text text-anchor="middle" x="97" y="-99.8" font-family="Times,serif" font-size="14.00" fill="#000000">D3ChartService</text>
</g>
<!-- D3ChartService&#45;&gt;WidgetsModule -->
<g id="edge15" class="edge">
<title>D3ChartService&#45;&gt;WidgetsModule</title>
<path fill="none" stroke="#000000" d="M97,-122.3228C97,-145.6602 97,-183 97,-183 97,-183 1162.6835,-183 1162.6835,-183"/>
<polygon fill="#000000" stroke="#000000" points="1162.6835,-186.5001 1172.6835,-183 1162.6835,-179.5001 1162.6835,-186.5001"/>
</g>
</g>
</svg>
