<?xml version="1.0" encoding="UTF-8" standalone="no"?>
<!DOCTYPE svg PUBLIC "-//W3C//DTD SVG 1.1//EN"
 "http://www.w3.org/Graphics/SVG/1.1/DTD/svg11.dtd">
<!-- Generated by graphviz version 2.40.1 (20161225.0304)
 -->
<!-- Title: dependencies Pages: 1 -->
<svg width="800pt" height="284pt"
 viewBox="0.00 0.00 800.00 284.00" xmlns="http://www.w3.org/2000/svg" xmlns:xlink="http://www.w3.org/1999/xlink">
<g id="graph0" class="graph" transform="scale(1 1) rotate(0) translate(4 280)">
<title>dependencies</title>
<polygon fill="#ffffff" stroke="transparent" points="-4,4 -4,-280 796,-280 796,4 -4,4"/>
<text text-anchor="start" x="375.0091" y="-42.4" font-family="sans-serif" font-weight="bold" font-size="14.00" fill="#000000">Legend</text>
<polygon fill="#ffffb3" stroke="transparent" points="162,-10 162,-30 182,-30 182,-10 162,-10"/>
<text text-anchor="start" x="185.629" y="-15.4" font-family="sans-serif" font-size="14.00" fill="#000000"> &#160;Declarations</text>
<polygon fill="#8dd3c7" stroke="transparent" points="275,-10 275,-30 295,-30 295,-10 275,-10"/>
<text text-anchor="start" x="298.7251" y="-15.4" font-family="sans-serif" font-size="14.00" fill="#000000"> &#160;Module</text>
<polygon fill="#80b1d3" stroke="transparent" points="361,-10 361,-30 381,-30 381,-10 361,-10"/>
<text text-anchor="start" x="384.7812" y="-15.4" font-family="sans-serif" font-size="14.00" fill="#000000"> &#160;Bootstrap</text>
<polygon fill="#fdb462" stroke="transparent" points="458,-10 458,-30 478,-30 478,-10 458,-10"/>
<text text-anchor="start" x="481.6732" y="-15.4" font-family="sans-serif" font-size="14.00" fill="#000000"> &#160;Providers</text>
<polygon fill="#fb8072" stroke="transparent" points="554,-10 554,-30 574,-30 574,-10 554,-10"/>
<text text-anchor="start" x="577.7258" y="-15.4" font-family="sans-serif" font-size="14.00" fill="#000000"> &#160;Exports</text>
<g id="clust1" class="cluster">
<title>cluster_SidenavModule</title>
<polygon fill="none" stroke="#000000" stroke-dasharray="1,5" points="8,-70 8,-268 784,-268 784,-70 8,-70"/>
</g>
<g id="clust2" class="cluster">
<title>cluster_SidenavModule_declarations</title>
<polygon fill="none" stroke="#000000" points="150,-78 150,-130 776,-130 776,-78 150,-78"/>
</g>
<g id="clust7" class="cluster">
<title>cluster_SidenavModule_imports</title>
<polygon fill="none" stroke="#000000" points="16,-78 16,-130 142,-130 142,-78 16,-78"/>
</g>
<g id="clust8" class="cluster">
<title>cluster_SidenavModule_exports</title>
<polygon fill="none" stroke="#000000" points="221,-208 221,-260 527,-260 527,-208 221,-208"/>
</g>
<!-- SidenavItemComponent -->
<g id="node1" class="node">
<title>SidenavItemComponent</title>
<polygon fill="#ffffb3" stroke="#000000" points="768.0912,-122 615.9088,-122 615.9088,-86 768.0912,-86 768.0912,-122"/>
<text text-anchor="middle" x="692" y="-99.8" font-family="Times,serif" font-size="14.00" fill="#000000">SidenavItemComponent</text>
</g>
<!-- SidenavModule -->
<g id="node5" class="node">
<title>SidenavModule</title>
<polygon fill="#8dd3c7" stroke="#000000" points="429.1528,-187 426.1528,-191 405.1528,-191 402.1528,-187 324.8472,-187 324.8472,-151 429.1528,-151 429.1528,-187"/>
<text text-anchor="middle" x="377" y="-164.8" font-family="Times,serif" font-size="14.00" fill="#000000">SidenavModule</text>
</g>
<!-- SidenavItemComponent&#45;&gt;SidenavModule -->
<g id="edge1" class="edge">
<title>SidenavItemComponent&#45;&gt;SidenavModule</title>
<path fill="none" stroke="#000000" d="M692,-122.2843C692,-143.3211 692,-175 692,-175 692,-175 439.3694,-175 439.3694,-175"/>
<polygon fill="#000000" stroke="#000000" points="439.3695,-171.5001 429.3694,-175 439.3694,-178.5001 439.3695,-171.5001"/>
</g>
<!-- MenuItemComponent -->
<g id="node2" class="node">
<title>MenuItemComponent</title>
<polygon fill="#ffffb3" stroke="#000000" points="597.6484,-122 458.3516,-122 458.3516,-86 597.6484,-86 597.6484,-122"/>
<text text-anchor="middle" x="528" y="-99.8" font-family="Times,serif" font-size="14.00" fill="#000000">MenuItemComponent</text>
</g>
<!-- MenuItemComponent&#45;&gt;SidenavModule -->
<g id="edge2" class="edge">
<title>MenuItemComponent&#45;&gt;SidenavModule</title>
<path fill="none" stroke="#000000" d="M488.5717,-122.0225C488.5717,-139.3734 488.5717,-163 488.5717,-163 488.5717,-163 439.1925,-163 439.1925,-163"/>
<polygon fill="#000000" stroke="#000000" points="439.1925,-159.5001 429.1925,-163 439.1925,-166.5001 439.1925,-159.5001"/>
</g>
<!-- SidenavComponent -->
<g id="node3" class="node">
<title>SidenavComponent</title>
<polygon fill="#ffffb3" stroke="#000000" points="440.4356,-122 313.5644,-122 313.5644,-86 440.4356,-86 440.4356,-122"/>
<text text-anchor="middle" x="377" y="-99.8" font-family="Times,serif" font-size="14.00" fill="#000000">SidenavComponent</text>
</g>
<!-- SidenavComponent&#45;&gt;SidenavModule -->
<g id="edge3" class="edge">
<title>SidenavComponent&#45;&gt;SidenavModule</title>
<path fill="none" stroke="#000000" d="M377,-122.1061C377,-122.1061 377,-140.991 377,-140.991"/>
<polygon fill="#000000" stroke="#000000" points="373.5001,-140.9909 377,-150.991 380.5001,-140.991 373.5001,-140.9909"/>
</g>
<!-- IconSidenavDirective -->
<g id="node4" class="node">
<title>IconSidenavDirective</title>
<polygon fill="#ffffb3" stroke="#000000" points="296.0604,-122 157.9396,-122 157.9396,-86 296.0604,-86 296.0604,-122"/>
<text text-anchor="middle" x="227" y="-99.8" font-family="Times,serif" font-size="14.00" fill="#000000">IconSidenavDirective</text>
</g>
<!-- IconSidenavDirective&#45;&gt;SidenavModule -->
<g id="edge4" class="edge">
<title>IconSidenavDirective&#45;&gt;SidenavModule</title>
<path fill="none" stroke="#000000" d="M262.625,-122.0225C262.625,-139.3734 262.625,-163 262.625,-163 262.625,-163 314.833,-163 314.833,-163"/>
<polygon fill="#000000" stroke="#000000" points="314.833,-166.5001 324.833,-163 314.833,-159.5001 314.833,-166.5001"/>
</g>
<!-- SidenavComponent  -->
<g id="node7" class="node">
<title>SidenavComponent </title>
<polygon fill="#fb8072" stroke="#000000" points="518.9348,-252 389.0652,-252 389.0652,-216 518.9348,-216 518.9348,-252"/>
<text text-anchor="middle" x="454" y="-229.8" font-family="Times,serif" font-size="14.00" fill="#000000">SidenavComponent </text>
</g>
<!-- SidenavModule&#45;&gt;SidenavComponent  -->
<g id="edge6" class="edge">
<title>SidenavModule&#45;&gt;SidenavComponent </title>
<path fill="none" stroke="#000000" stroke-dasharray="5,2" d="M409.1794,-187.1061C409.1794,-187.1061 409.1794,-205.991 409.1794,-205.991"/>
<polygon fill="#000000" stroke="#000000" points="405.6794,-205.9909 409.1794,-215.991 412.6794,-205.991 405.6794,-205.9909"/>
</g>
<!-- IconSidenavDirective  -->
<g id="node8" class="node">
<title>IconSidenavDirective </title>
<polygon fill="#fb8072" stroke="#000000" points="370.5611,-252 229.4389,-252 229.4389,-216 370.5611,-216 370.5611,-252"/>
<text text-anchor="middle" x="300" y="-229.8" font-family="Times,serif" font-size="14.00" fill="#000000">IconSidenavDirective </text>
</g>
<!-- SidenavModule&#45;&gt;IconSidenavDirective  -->
<g id="edge7" class="edge">
<title>SidenavModule&#45;&gt;IconSidenavDirective </title>
<path fill="none" stroke="#000000" stroke-dasharray="5,2" d="M347.727,-187.1061C347.727,-187.1061 347.727,-205.991 347.727,-205.991"/>
<polygon fill="#000000" stroke="#000000" points="344.2271,-205.9909 347.727,-215.991 351.2271,-205.991 344.2271,-205.9909"/>
</g>
<!-- ScrollbarModule -->
<g id="node6" class="node">
<title>ScrollbarModule</title>
<polygon fill="#8dd3c7" stroke="#000000" points="134.3641,-122 131.3641,-126 110.3641,-126 107.3641,-122 23.6359,-122 23.6359,-86 134.3641,-86 134.3641,-122"/>
<text text-anchor="middle" x="79" y="-99.8" font-family="Times,serif" font-size="14.00" fill="#000000">ScrollbarModule</text>
</g>
<!-- ScrollbarModule&#45;&gt;SidenavModule -->
<g id="edge5" class="edge">
<title>ScrollbarModule&#45;&gt;SidenavModule</title>
<path fill="none" stroke="#000000" d="M79,-122.2843C79,-143.3211 79,-175 79,-175 79,-175 314.7514,-175 314.7514,-175"/>
<polygon fill="#000000" stroke="#000000" points="314.7514,-178.5001 324.7514,-175 314.7513,-171.5001 314.7514,-178.5001"/>
</g>
</g>
</svg>
