<?xml version="1.0" encoding="UTF-8" standalone="no"?>
<!DOCTYPE svg PUBLIC "-//W3C//DTD SVG 1.1//EN"
 "http://www.w3.org/Graphics/SVG/1.1/DTD/svg11.dtd">
<!-- Generated by graphviz version 2.40.1 (20161225.0304)
 -->
<!-- Title: dependencies Pages: 1 -->
<svg width="800pt" height="284pt"
 viewBox="0.00 0.00 800.00 284.00" xmlns="http://www.w3.org/2000/svg" xmlns:xlink="http://www.w3.org/1999/xlink">
<g id="graph0" class="graph" transform="scale(1 1) rotate(0) translate(4 280)">
<title>dependencies</title>
<polygon fill="#ffffff" stroke="transparent" points="-4,4 -4,-280 796,-280 796,4 -4,4"/>
<text text-anchor="start" x="375.0091" y="-42.4" font-family="sans-serif" font-weight="bold" font-size="14.00" fill="#000000">Legend</text>
<polygon fill="#ffffb3" stroke="transparent" points="162,-10 162,-30 182,-30 182,-10 162,-10"/>
<text text-anchor="start" x="185.629" y="-15.4" font-family="sans-serif" font-size="14.00" fill="#000000"> &#160;Declarations</text>
<polygon fill="#8dd3c7" stroke="transparent" points="275,-10 275,-30 295,-30 295,-10 275,-10"/>
<text text-anchor="start" x="298.7251" y="-15.4" font-family="sans-serif" font-size="14.00" fill="#000000"> &#160;Module</text>
<polygon fill="#80b1d3" stroke="transparent" points="361,-10 361,-30 381,-30 381,-10 361,-10"/>
<text text-anchor="start" x="384.7812" y="-15.4" font-family="sans-serif" font-size="14.00" fill="#000000"> &#160;Bootstrap</text>
<polygon fill="#fdb462" stroke="transparent" points="458,-10 458,-30 478,-30 478,-10 458,-10"/>
<text text-anchor="start" x="481.6732" y="-15.4" font-family="sans-serif" font-size="14.00" fill="#000000"> &#160;Providers</text>
<polygon fill="#fb8072" stroke="transparent" points="554,-10 554,-30 574,-30 574,-10 554,-10"/>
<text text-anchor="start" x="577.7258" y="-15.4" font-family="sans-serif" font-size="14.00" fill="#000000"> &#160;Exports</text>
<g id="clust1" class="cluster">
<title>cluster_SidenavModule</title>
<polygon fill="none" stroke="#000000" stroke-dasharray="1,5" points="8,-70 8,-268 784,-268 784,-70 8,-70"/>
</g>
<g id="clust2" class="cluster">
<title>cluster_SidenavModule_declarations</title>
<polygon fill="none" stroke="#000000" points="150,-78 150,-130 776,-130 776,-78 150,-78"/>
</g>
<g id="clust7" class="cluster">
<title>cluster_SidenavModule_imports</title>
<polygon fill="none" stroke="#000000" points="16,-78 16,-130 142,-130 142,-78 16,-78"/>
</g>
<g id="clust8" class="cluster">
<title>cluster_SidenavModule_exports</title>
<polygon fill="none" stroke="#000000" points="241,-208 241,-260 547,-260 547,-208 241,-208"/>
</g>
<!-- IconSidenavDirective -->
<g id="node1" class="node">
<title>IconSidenavDirective</title>
<polygon fill="#ffffb3" stroke="#000000" points="768.0604,-122 629.9396,-122 629.9396,-86 768.0604,-86 768.0604,-122"/>
<text text-anchor="middle" x="699" y="-99.8" font-family="Times,serif" font-size="14.00" fill="#000000">IconSidenavDirective</text>
</g>
<!-- SidenavModule -->
<g id="node5" class="node">
<title>SidenavModule</title>
<polygon fill="#8dd3c7" stroke="#000000" points="443.1528,-187 440.1528,-191 419.1528,-191 416.1528,-187 338.8472,-187 338.8472,-151 443.1528,-151 443.1528,-187"/>
<text text-anchor="middle" x="391" y="-164.8" font-family="Times,serif" font-size="14.00" fill="#000000">SidenavModule</text>
</g>
<!-- IconSidenavDirective&#45;&gt;SidenavModule -->
<g id="edge1" class="edge">
<title>IconSidenavDirective&#45;&gt;SidenavModule</title>
<path fill="none" stroke="#000000" d="M699,-122.2843C699,-143.3211 699,-175 699,-175 699,-175 453.248,-175 453.248,-175"/>
<polygon fill="#000000" stroke="#000000" points="453.248,-171.5001 443.248,-175 453.248,-178.5001 453.248,-171.5001"/>
</g>
<!-- MenuItemComponent -->
<g id="node2" class="node">
<title>MenuItemComponent</title>
<polygon fill="#ffffb3" stroke="#000000" points="611.6484,-122 472.3516,-122 472.3516,-86 611.6484,-86 611.6484,-122"/>
<text text-anchor="middle" x="542" y="-99.8" font-family="Times,serif" font-size="14.00" fill="#000000">MenuItemComponent</text>
</g>
<!-- MenuItemComponent&#45;&gt;SidenavModule -->
<g id="edge2" class="edge">
<title>MenuItemComponent&#45;&gt;SidenavModule</title>
<path fill="none" stroke="#000000" d="M505.4781,-122.0225C505.4781,-139.3734 505.4781,-163 505.4781,-163 505.4781,-163 453.214,-163 453.214,-163"/>
<polygon fill="#000000" stroke="#000000" points="453.2141,-159.5001 443.214,-163 453.214,-166.5001 453.2141,-159.5001"/>
</g>
<!-- SidenavComponent -->
<g id="node3" class="node">
<title>SidenavComponent</title>
<polygon fill="#ffffb3" stroke="#000000" points="454.4356,-122 327.5644,-122 327.5644,-86 454.4356,-86 454.4356,-122"/>
<text text-anchor="middle" x="391" y="-99.8" font-family="Times,serif" font-size="14.00" fill="#000000">SidenavComponent</text>
</g>
<!-- SidenavComponent&#45;&gt;SidenavModule -->
<g id="edge3" class="edge">
<title>SidenavComponent&#45;&gt;SidenavModule</title>
<path fill="none" stroke="#000000" d="M391,-122.1061C391,-122.1061 391,-140.991 391,-140.991"/>
<polygon fill="#000000" stroke="#000000" points="387.5001,-140.9909 391,-150.991 394.5001,-140.991 387.5001,-140.9909"/>
</g>
<!-- SidenavItemComponent -->
<g id="node4" class="node">
<title>SidenavItemComponent</title>
<polygon fill="#ffffb3" stroke="#000000" points="310.0912,-122 157.9088,-122 157.9088,-86 310.0912,-86 310.0912,-122"/>
<text text-anchor="middle" x="234" y="-99.8" font-family="Times,serif" font-size="14.00" fill="#000000">SidenavItemComponent</text>
</g>
<!-- SidenavItemComponent&#45;&gt;SidenavModule -->
<g id="edge4" class="edge">
<title>SidenavItemComponent&#45;&gt;SidenavModule</title>
<path fill="none" stroke="#000000" d="M279.5391,-122.0225C279.5391,-139.3734 279.5391,-163 279.5391,-163 279.5391,-163 328.5333,-163 328.5333,-163"/>
<polygon fill="#000000" stroke="#000000" points="328.5334,-166.5001 338.5333,-163 328.5333,-159.5001 328.5334,-166.5001"/>
</g>
<!-- IconSidenavDirective  -->
<g id="node7" class="node">
<title>IconSidenavDirective </title>
<polygon fill="#fb8072" stroke="#000000" points="538.5611,-252 397.4389,-252 397.4389,-216 538.5611,-216 538.5611,-252"/>
<text text-anchor="middle" x="468" y="-229.8" font-family="Times,serif" font-size="14.00" fill="#000000">IconSidenavDirective </text>
</g>
<!-- SidenavModule&#45;&gt;IconSidenavDirective  -->
<g id="edge6" class="edge">
<title>SidenavModule&#45;&gt;IconSidenavDirective </title>
<path fill="none" stroke="#000000" stroke-dasharray="5,2" d="M420.273,-187.1061C420.273,-187.1061 420.273,-205.991 420.273,-205.991"/>
<polygon fill="#000000" stroke="#000000" points="416.773,-205.9909 420.273,-215.991 423.773,-205.991 416.773,-205.9909"/>
</g>
<!-- SidenavComponent  -->
<g id="node8" class="node">
<title>SidenavComponent </title>
<polygon fill="#fb8072" stroke="#000000" points="378.9348,-252 249.0652,-252 249.0652,-216 378.9348,-216 378.9348,-252"/>
<text text-anchor="middle" x="314" y="-229.8" font-family="Times,serif" font-size="14.00" fill="#000000">SidenavComponent </text>
</g>
<!-- SidenavModule&#45;&gt;SidenavComponent  -->
<g id="edge7" class="edge">
<title>SidenavModule&#45;&gt;SidenavComponent </title>
<path fill="none" stroke="#000000" stroke-dasharray="5,2" d="M358.8207,-187.1061C358.8207,-187.1061 358.8207,-205.991 358.8207,-205.991"/>
<polygon fill="#000000" stroke="#000000" points="355.3207,-205.9909 358.8207,-215.991 362.3207,-205.991 355.3207,-205.9909"/>
</g>
<!-- ScrollbarModule -->
<g id="node6" class="node">
<title>ScrollbarModule</title>
<polygon fill="#8dd3c7" stroke="#000000" points="134.3641,-122 131.3641,-126 110.3641,-126 107.3641,-122 23.6359,-122 23.6359,-86 134.3641,-86 134.3641,-122"/>
<text text-anchor="middle" x="79" y="-99.8" font-family="Times,serif" font-size="14.00" fill="#000000">ScrollbarModule</text>
</g>
<!-- ScrollbarModule&#45;&gt;SidenavModule -->
<g id="edge5" class="edge">
<title>ScrollbarModule&#45;&gt;SidenavModule</title>
<path fill="none" stroke="#000000" d="M79,-122.2843C79,-143.3211 79,-175 79,-175 79,-175 328.7782,-175 328.7782,-175"/>
<polygon fill="#000000" stroke="#000000" points="328.7782,-178.5001 338.7782,-175 328.7782,-171.5001 328.7782,-178.5001"/>
</g>
</g>
</svg>
