<?xml version="1.0" encoding="UTF-8" standalone="no"?>
<!DOCTYPE svg PUBLIC "-//W3C//DTD SVG 1.1//EN"
 "http://www.w3.org/Graphics/SVG/1.1/DTD/svg11.dtd">
<!-- Generated by graphviz version 2.40.1 (20161225.0304)
 -->
<!-- Title: dependencies Pages: 1 -->
<svg width="675pt" height="284pt"
 viewBox="0.00 0.00 675.00 284.00" xmlns="http://www.w3.org/2000/svg" xmlns:xlink="http://www.w3.org/1999/xlink">
<g id="graph0" class="graph" transform="scale(1 1) rotate(0) translate(4 280)">
<title>dependencies</title>
<polygon fill="#ffffff" stroke="transparent" points="-4,4 -4,-280 671,-280 671,4 -4,4"/>
<text text-anchor="start" x="312.5091" y="-42.4" font-family="sans-serif" font-weight="bold" font-size="14.00" fill="#000000">Legend</text>
<polygon fill="#ffffb3" stroke="transparent" points="99.5,-10 99.5,-30 119.5,-30 119.5,-10 99.5,-10"/>
<text text-anchor="start" x="123.129" y="-15.4" font-family="sans-serif" font-size="14.00" fill="#000000"> &#160;Declarations</text>
<polygon fill="#8dd3c7" stroke="transparent" points="212.5,-10 212.5,-30 232.5,-30 232.5,-10 212.5,-10"/>
<text text-anchor="start" x="236.2251" y="-15.4" font-family="sans-serif" font-size="14.00" fill="#000000"> &#160;Module</text>
<polygon fill="#80b1d3" stroke="transparent" points="298.5,-10 298.5,-30 318.5,-30 318.5,-10 298.5,-10"/>
<text text-anchor="start" x="322.2812" y="-15.4" font-family="sans-serif" font-size="14.00" fill="#000000"> &#160;Bootstrap</text>
<polygon fill="#fdb462" stroke="transparent" points="395.5,-10 395.5,-30 415.5,-30 415.5,-10 395.5,-10"/>
<text text-anchor="start" x="419.1732" y="-15.4" font-family="sans-serif" font-size="14.00" fill="#000000"> &#160;Providers</text>
<polygon fill="#fb8072" stroke="transparent" points="491.5,-10 491.5,-30 511.5,-30 511.5,-10 491.5,-10"/>
<text text-anchor="start" x="515.2258" y="-15.4" font-family="sans-serif" font-size="14.00" fill="#000000"> &#160;Exports</text>
<g id="clust1" class="cluster">
<title>cluster_NgxPipesModule</title>
<polygon fill="none" stroke="#000000" stroke-dasharray="1,5" points="8,-70 8,-268 659,-268 659,-70 8,-70"/>
</g>
<g id="clust2" class="cluster">
<title>cluster_NgxPipesModule_declarations</title>
<polygon fill="none" stroke="#000000" points="30,-78 30,-130 642,-130 642,-78 30,-78"/>
</g>
<g id="clust10" class="cluster">
<title>cluster_NgxPipesModule_exports</title>
<polygon fill="none" stroke="#000000" points="16,-208 16,-260 651,-260 651,-208 16,-208"/>
</g>
<!-- CharactersPipe -->
<g id="node1" class="node">
<title>CharactersPipe</title>
<polygon fill="#ffffb3" stroke="#000000" points="634.2395,-122 533.7605,-122 533.7605,-86 634.2395,-86 634.2395,-122"/>
<text text-anchor="middle" x="584" y="-99.8" font-family="Times,serif" font-size="14.00" fill="#000000">CharactersPipe</text>
</g>
<!-- NgxPipesModule -->
<g id="node7" class="node">
<title>NgxPipesModule</title>
<polygon fill="#8dd3c7" stroke="#000000" points="342.9888,-187 339.9888,-191 318.9888,-191 315.9888,-187 229.0112,-187 229.0112,-151 342.9888,-151 342.9888,-187"/>
<text text-anchor="middle" x="286" y="-164.8" font-family="Times,serif" font-size="14.00" fill="#000000">NgxPipesModule</text>
</g>
<!-- CharactersPipe&#45;&gt;NgxPipesModule -->
<g id="edge1" class="edge">
<title>CharactersPipe&#45;&gt;NgxPipesModule</title>
<path fill="none" stroke="#000000" d="M602.5399,-122.2667C602.5399,-140.5552 602.5399,-166 602.5399,-166 602.5399,-166 353.323,-166 353.323,-166"/>
<polygon fill="#000000" stroke="#000000" points="353.323,-162.5001 343.323,-166 353.3229,-169.5001 353.323,-162.5001"/>
</g>
<!-- FilterPipe -->
<g id="node2" class="node">
<title>FilterPipe</title>
<polygon fill="#ffffb3" stroke="#000000" points="515.7177,-122 444.2823,-122 444.2823,-86 515.7177,-86 515.7177,-122"/>
<text text-anchor="middle" x="480" y="-99.8" font-family="Times,serif" font-size="14.00" fill="#000000">FilterPipe</text>
</g>
<!-- FilterPipe&#45;&gt;NgxPipesModule -->
<g id="edge2" class="edge">
<title>FilterPipe&#45;&gt;NgxPipesModule</title>
<path fill="none" stroke="#000000" d="M492.6196,-122.0091C492.6196,-138.0494 492.6196,-159 492.6196,-159 492.6196,-159 353.0067,-159 353.0067,-159"/>
<polygon fill="#000000" stroke="#000000" points="353.0067,-155.5001 343.0067,-159 353.0066,-162.5001 353.0067,-155.5001"/>
</g>
<!-- GroupByPipe -->
<g id="node3" class="node">
<title>GroupByPipe</title>
<polygon fill="#ffffb3" stroke="#000000" points="426.4916,-122 333.5084,-122 333.5084,-86 426.4916,-86 426.4916,-122"/>
<text text-anchor="middle" x="380" y="-99.8" font-family="Times,serif" font-size="14.00" fill="#000000">GroupByPipe</text>
</g>
<!-- GroupByPipe&#45;&gt;NgxPipesModule -->
<g id="edge3" class="edge">
<title>GroupByPipe&#45;&gt;NgxPipesModule</title>
<path fill="none" stroke="#000000" d="M338.2493,-122.1061C338.2493,-122.1061 338.2493,-140.991 338.2493,-140.991"/>
<polygon fill="#000000" stroke="#000000" points="334.7494,-140.9909 338.2493,-150.991 341.7494,-140.991 334.7494,-140.9909"/>
</g>
<!-- KeysPipe -->
<g id="node4" class="node">
<title>KeysPipe</title>
<polygon fill="#ffffb3" stroke="#000000" points="315.6545,-122 246.3455,-122 246.3455,-86 315.6545,-86 315.6545,-122"/>
<text text-anchor="middle" x="281" y="-99.8" font-family="Times,serif" font-size="14.00" fill="#000000">KeysPipe</text>
</g>
<!-- KeysPipe&#45;&gt;NgxPipesModule -->
<g id="edge4" class="edge">
<title>KeysPipe&#45;&gt;NgxPipesModule</title>
<path fill="none" stroke="#000000" d="M281,-122.1061C281,-122.1061 281,-140.991 281,-140.991"/>
<polygon fill="#000000" stroke="#000000" points="277.5001,-140.9909 281,-150.991 284.5001,-140.991 277.5001,-140.9909"/>
</g>
<!-- SafeHtmlPipe -->
<g id="node5" class="node">
<title>SafeHtmlPipe</title>
<polygon fill="#ffffb3" stroke="#000000" points="228.0397,-122 133.9603,-122 133.9603,-86 228.0397,-86 228.0397,-122"/>
<text text-anchor="middle" x="181" y="-99.8" font-family="Times,serif" font-size="14.00" fill="#000000">SafeHtmlPipe</text>
</g>
<!-- SafeHtmlPipe&#45;&gt;NgxPipesModule -->
<g id="edge5" class="edge">
<title>SafeHtmlPipe&#45;&gt;NgxPipesModule</title>
<path fill="none" stroke="#000000" d="M228.2448,-104C233.8281,-104 237.5894,-104 237.5894,-104 237.5894,-104 237.5894,-140.8939 237.5894,-140.8939"/>
<polygon fill="#000000" stroke="#000000" points="234.0895,-140.8938 237.5894,-150.8939 241.0895,-140.8939 234.0895,-140.8938"/>
</g>
<!-- WordsPipe -->
<g id="node6" class="node">
<title>WordsPipe</title>
<polygon fill="#ffffb3" stroke="#000000" points="116.2079,-122 37.7921,-122 37.7921,-86 116.2079,-86 116.2079,-122"/>
<text text-anchor="middle" x="77" y="-99.8" font-family="Times,serif" font-size="14.00" fill="#000000">WordsPipe</text>
</g>
<!-- WordsPipe&#45;&gt;NgxPipesModule -->
<g id="edge6" class="edge">
<title>WordsPipe&#45;&gt;NgxPipesModule</title>
<path fill="none" stroke="#000000" d="M110.9788,-122.0225C110.9788,-139.3734 110.9788,-163 110.9788,-163 110.9788,-163 218.6915,-163 218.6915,-163"/>
<polygon fill="#000000" stroke="#000000" points="218.6915,-166.5001 228.6915,-163 218.6915,-159.5001 218.6915,-166.5001"/>
</g>
<!-- CharactersPipe  -->
<g id="node8" class="node">
<title>CharactersPipe </title>
<polygon fill="#fb8072" stroke="#000000" points="643.2395,-252 538.7605,-252 538.7605,-216 643.2395,-216 643.2395,-252"/>
<text text-anchor="middle" x="591" y="-229.8" font-family="Times,serif" font-size="14.00" fill="#000000">CharactersPipe </text>
</g>
<!-- NgxPipesModule&#45;&gt;CharactersPipe  -->
<g id="edge7" class="edge">
<title>NgxPipesModule&#45;&gt;CharactersPipe </title>
<path fill="none" stroke="#000000" stroke-dasharray="5,2" d="M343.2729,-173C426.4129,-173 570.7101,-173 570.7101,-173 570.7101,-173 570.7101,-205.698 570.7101,-205.698"/>
<polygon fill="#000000" stroke="#000000" points="567.2102,-205.698 570.7101,-215.698 574.2102,-205.698 567.2102,-205.698"/>
</g>
<!-- FilterPipe  -->
<g id="node9" class="node">
<title>FilterPipe </title>
<polygon fill="#fb8072" stroke="#000000" points="521.2179,-252 446.7821,-252 446.7821,-216 521.2179,-216 521.2179,-252"/>
<text text-anchor="middle" x="484" y="-229.8" font-family="Times,serif" font-size="14.00" fill="#000000">FilterPipe </text>
</g>
<!-- NgxPipesModule&#45;&gt;FilterPipe  -->
<g id="edge8" class="edge">
<title>NgxPipesModule&#45;&gt;FilterPipe </title>
<path fill="none" stroke="#000000" stroke-dasharray="5,2" d="M343.0952,-180C397.0004,-180 469.6304,-180 469.6304,-180 469.6304,-180 469.6304,-205.7181 469.6304,-205.7181"/>
<polygon fill="#000000" stroke="#000000" points="466.1305,-205.718 469.6304,-215.7181 473.1305,-205.7181 466.1305,-205.718"/>
</g>
<!-- GroupByPipe  -->
<g id="node10" class="node">
<title>GroupByPipe </title>
<polygon fill="#fb8072" stroke="#000000" points="428.4929,-252 331.5071,-252 331.5071,-216 428.4929,-216 428.4929,-252"/>
<text text-anchor="middle" x="380" y="-229.8" font-family="Times,serif" font-size="14.00" fill="#000000">GroupByPipe </text>
</g>
<!-- NgxPipesModule&#45;&gt;GroupByPipe  -->
<g id="edge9" class="edge">
<title>NgxPipesModule&#45;&gt;GroupByPipe </title>
<path fill="none" stroke="#000000" stroke-dasharray="5,2" d="M337.3743,-187.1061C337.3743,-187.1061 337.3743,-205.991 337.3743,-205.991"/>
<polygon fill="#000000" stroke="#000000" points="333.8744,-205.9909 337.3743,-215.991 340.8744,-205.991 333.8744,-205.9909"/>
</g>
<!-- KeysPipe  -->
<g id="node11" class="node">
<title>KeysPipe </title>
<polygon fill="#fb8072" stroke="#000000" points="313.6538,-252 240.3462,-252 240.3462,-216 313.6538,-216 313.6538,-252"/>
<text text-anchor="middle" x="277" y="-229.8" font-family="Times,serif" font-size="14.00" fill="#000000">KeysPipe </text>
</g>
<!-- NgxPipesModule&#45;&gt;KeysPipe  -->
<g id="edge10" class="edge">
<title>NgxPipesModule&#45;&gt;KeysPipe </title>
<path fill="none" stroke="#000000" stroke-dasharray="5,2" d="M277,-187.1061C277,-187.1061 277,-205.991 277,-205.991"/>
<polygon fill="#000000" stroke="#000000" points="273.5001,-205.9909 277,-215.991 280.5001,-205.991 273.5001,-205.9909"/>
</g>
<!-- SafeHtmlPipe  -->
<g id="node12" class="node">
<title>SafeHtmlPipe </title>
<polygon fill="#fb8072" stroke="#000000" points="222.0386,-252 123.9614,-252 123.9614,-216 222.0386,-216 222.0386,-252"/>
<text text-anchor="middle" x="173" y="-229.8" font-family="Times,serif" font-size="14.00" fill="#000000">SafeHtmlPipe </text>
</g>
<!-- NgxPipesModule&#45;&gt;SafeHtmlPipe  -->
<g id="edge11" class="edge">
<title>NgxPipesModule&#45;&gt;SafeHtmlPipe </title>
<path fill="none" stroke="#000000" stroke-dasharray="5,2" d="M234.7144,-187.1061C234.7144,-206.3391 234.7144,-234 234.7144,-234 234.7144,-234 232.2256,-234 232.2256,-234"/>
<polygon fill="#000000" stroke="#000000" points="232.2256,-230.5001 222.2256,-234 232.2255,-237.5001 232.2256,-230.5001"/>
</g>
<!-- WordsPipe  -->
<g id="node13" class="node">
<title>WordsPipe </title>
<polygon fill="#fb8072" stroke="#000000" points="105.7081,-252 24.2919,-252 24.2919,-216 105.7081,-216 105.7081,-252"/>
<text text-anchor="middle" x="65" y="-229.8" font-family="Times,serif" font-size="14.00" fill="#000000">WordsPipe </text>
</g>
<!-- NgxPipesModule&#45;&gt;WordsPipe  -->
<g id="edge12" class="edge">
<title>NgxPipesModule&#45;&gt;WordsPipe </title>
<path fill="none" stroke="#000000" stroke-dasharray="5,2" d="M228.8997,-175C165.4683,-175 71.875,-175 71.875,-175 71.875,-175 71.875,-205.9775 71.875,-205.9775"/>
<polygon fill="#000000" stroke="#000000" points="68.3751,-205.9774 71.875,-215.9775 75.3751,-205.9775 68.3751,-205.9774"/>
</g>
</g>
</svg>
