<?xml version="1.0" encoding="UTF-8" standalone="no"?>
<!DOCTYPE svg PUBLIC "-//W3C//DTD SVG 1.1//EN"
 "http://www.w3.org/Graphics/SVG/1.1/DTD/svg11.dtd">
<!-- Generated by graphviz version 2.40.1 (20161225.0304)
 -->
<!-- Title: dependencies Pages: 1 -->
<svg width="583pt" height="284pt"
 viewBox="0.00 0.00 583.00 284.00" xmlns="http://www.w3.org/2000/svg" xmlns:xlink="http://www.w3.org/1999/xlink">
<g id="graph0" class="graph" transform="scale(1 1) rotate(0) translate(4 280)">
<title>dependencies</title>
<polygon fill="#ffffff" stroke="transparent" points="-4,4 -4,-280 579,-280 579,4 -4,4"/>
<text text-anchor="start" x="266.5091" y="-42.4" font-family="sans-serif" font-weight="bold" font-size="14.00" fill="#000000">Legend</text>
<polygon fill="#ffffb3" stroke="transparent" points="53.5,-10 53.5,-30 73.5,-30 73.5,-10 53.5,-10"/>
<text text-anchor="start" x="77.129" y="-15.4" font-family="sans-serif" font-size="14.00" fill="#000000"> &#160;Declarations</text>
<polygon fill="#8dd3c7" stroke="transparent" points="166.5,-10 166.5,-30 186.5,-30 186.5,-10 166.5,-10"/>
<text text-anchor="start" x="190.2251" y="-15.4" font-family="sans-serif" font-size="14.00" fill="#000000"> &#160;Module</text>
<polygon fill="#80b1d3" stroke="transparent" points="252.5,-10 252.5,-30 272.5,-30 272.5,-10 252.5,-10"/>
<text text-anchor="start" x="276.2812" y="-15.4" font-family="sans-serif" font-size="14.00" fill="#000000"> &#160;Bootstrap</text>
<polygon fill="#fdb462" stroke="transparent" points="349.5,-10 349.5,-30 369.5,-30 369.5,-10 349.5,-10"/>
<text text-anchor="start" x="373.1732" y="-15.4" font-family="sans-serif" font-size="14.00" fill="#000000"> &#160;Providers</text>
<polygon fill="#fb8072" stroke="transparent" points="445.5,-10 445.5,-30 465.5,-30 465.5,-10 445.5,-10"/>
<text text-anchor="start" x="469.2258" y="-15.4" font-family="sans-serif" font-size="14.00" fill="#000000"> &#160;Exports</text>
<g id="clust1" class="cluster">
<title>cluster_NgxPipesModule</title>
<polygon fill="none" stroke="#000000" stroke-dasharray="1,5" points="8,-70 8,-268 567,-268 567,-70 8,-70"/>
</g>
<g id="clust2" class="cluster">
<title>cluster_NgxPipesModule_declarations</title>
<polygon fill="none" stroke="#000000" points="25,-78 25,-130 550,-130 550,-78 25,-78"/>
</g>
<g id="clust9" class="cluster">
<title>cluster_NgxPipesModule_exports</title>
<polygon fill="none" stroke="#000000" points="16,-208 16,-260 559,-260 559,-208 16,-208"/>
</g>
<!-- CharactersPipe -->
<g id="node1" class="node">
<title>CharactersPipe</title>
<polygon fill="#ffffb3" stroke="#000000" points="542.2395,-122 441.7605,-122 441.7605,-86 542.2395,-86 542.2395,-122"/>
<text text-anchor="middle" x="492" y="-99.8" font-family="Times,serif" font-size="14.00" fill="#000000">CharactersPipe</text>
</g>
<!-- NgxPipesModule -->
<g id="node6" class="node">
<title>NgxPipesModule</title>
<polygon fill="#8dd3c7" stroke="#000000" points="344.9888,-187 341.9888,-191 320.9888,-191 317.9888,-187 231.0112,-187 231.0112,-151 344.9888,-151 344.9888,-187"/>
<text text-anchor="middle" x="288" y="-164.8" font-family="Times,serif" font-size="14.00" fill="#000000">NgxPipesModule</text>
</g>
<!-- CharactersPipe&#45;&gt;NgxPipesModule -->
<g id="edge1" class="edge">
<title>CharactersPipe&#45;&gt;NgxPipesModule</title>
<path fill="none" stroke="#000000" d="M510.5399,-122.0225C510.5399,-139.3734 510.5399,-163 510.5399,-163 510.5399,-163 355.0206,-163 355.0206,-163"/>
<polygon fill="#000000" stroke="#000000" points="355.0206,-159.5001 345.0206,-163 355.0205,-166.5001 355.0206,-159.5001"/>
</g>
<!-- FilterPipe -->
<g id="node2" class="node">
<title>FilterPipe</title>
<polygon fill="#ffffb3" stroke="#000000" points="423.7177,-122 352.2823,-122 352.2823,-86 423.7177,-86 423.7177,-122"/>
<text text-anchor="middle" x="388" y="-99.8" font-family="Times,serif" font-size="14.00" fill="#000000">FilterPipe</text>
</g>
<!-- FilterPipe&#45;&gt;NgxPipesModule -->
<g id="edge2" class="edge">
<title>FilterPipe&#45;&gt;NgxPipesModule</title>
<path fill="none" stroke="#000000" d="M352.1719,-104C345.0649,-104 339.7451,-104 339.7451,-104 339.7451,-104 339.7451,-140.8939 339.7451,-140.8939"/>
<polygon fill="#000000" stroke="#000000" points="336.2452,-140.8938 339.7451,-150.8939 343.2452,-140.8939 336.2452,-140.8938"/>
</g>
<!-- GroupByPipe -->
<g id="node3" class="node">
<title>GroupByPipe</title>
<polygon fill="#ffffb3" stroke="#000000" points="334.4916,-122 241.5084,-122 241.5084,-86 334.4916,-86 334.4916,-122"/>
<text text-anchor="middle" x="288" y="-99.8" font-family="Times,serif" font-size="14.00" fill="#000000">GroupByPipe</text>
</g>
<!-- GroupByPipe&#45;&gt;NgxPipesModule -->
<g id="edge3" class="edge">
<title>GroupByPipe&#45;&gt;NgxPipesModule</title>
<path fill="none" stroke="#000000" d="M288,-122.1061C288,-122.1061 288,-140.991 288,-140.991"/>
<polygon fill="#000000" stroke="#000000" points="284.5001,-140.9909 288,-150.991 291.5001,-140.991 284.5001,-140.9909"/>
</g>
<!-- SafeHtmlPipe -->
<g id="node4" class="node">
<title>SafeHtmlPipe</title>
<polygon fill="#ffffb3" stroke="#000000" points="223.0397,-122 128.9603,-122 128.9603,-86 223.0397,-86 223.0397,-122"/>
<text text-anchor="middle" x="176" y="-99.8" font-family="Times,serif" font-size="14.00" fill="#000000">SafeHtmlPipe</text>
</g>
<!-- SafeHtmlPipe&#45;&gt;NgxPipesModule -->
<g id="edge4" class="edge">
<title>SafeHtmlPipe&#45;&gt;NgxPipesModule</title>
<path fill="none" stroke="#000000" d="M223.1805,-104C230.8037,-104 236.2549,-104 236.2549,-104 236.2549,-104 236.2549,-140.8939 236.2549,-140.8939"/>
<polygon fill="#000000" stroke="#000000" points="232.755,-140.8938 236.2549,-150.8939 239.755,-140.8939 232.755,-140.8938"/>
</g>
<!-- WordsPipe -->
<g id="node5" class="node">
<title>WordsPipe</title>
<polygon fill="#ffffb3" stroke="#000000" points="111.2079,-122 32.7921,-122 32.7921,-86 111.2079,-86 111.2079,-122"/>
<text text-anchor="middle" x="72" y="-99.8" font-family="Times,serif" font-size="14.00" fill="#000000">WordsPipe</text>
</g>
<!-- WordsPipe&#45;&gt;NgxPipesModule -->
<g id="edge5" class="edge">
<title>WordsPipe&#45;&gt;NgxPipesModule</title>
<path fill="none" stroke="#000000" d="M81.5346,-122.0225C81.5346,-139.3734 81.5346,-163 81.5346,-163 81.5346,-163 220.7621,-163 220.7621,-163"/>
<polygon fill="#000000" stroke="#000000" points="220.7621,-166.5001 230.7621,-163 220.762,-159.5001 220.7621,-166.5001"/>
</g>
<!-- CharactersPipe  -->
<g id="node7" class="node">
<title>CharactersPipe </title>
<polygon fill="#fb8072" stroke="#000000" points="551.2395,-252 446.7605,-252 446.7605,-216 551.2395,-216 551.2395,-252"/>
<text text-anchor="middle" x="499" y="-229.8" font-family="Times,serif" font-size="14.00" fill="#000000">CharactersPipe </text>
</g>
<!-- NgxPipesModule&#45;&gt;CharactersPipe  -->
<g id="edge6" class="edge">
<title>NgxPipesModule&#45;&gt;CharactersPipe </title>
<path fill="none" stroke="#000000" stroke-dasharray="5,2" d="M345.2193,-175C401.3942,-175 478.7101,-175 478.7101,-175 478.7101,-175 478.7101,-205.9775 478.7101,-205.9775"/>
<polygon fill="#000000" stroke="#000000" points="475.2102,-205.9774 478.7101,-215.9775 482.2102,-205.9775 475.2102,-205.9774"/>
</g>
<!-- FilterPipe  -->
<g id="node8" class="node">
<title>FilterPipe </title>
<polygon fill="#fb8072" stroke="#000000" points="429.2179,-252 354.7821,-252 354.7821,-216 429.2179,-216 429.2179,-252"/>
<text text-anchor="middle" x="392" y="-229.8" font-family="Times,serif" font-size="14.00" fill="#000000">FilterPipe </text>
</g>
<!-- NgxPipesModule&#45;&gt;FilterPipe  -->
<g id="edge7" class="edge">
<title>NgxPipesModule&#45;&gt;FilterPipe </title>
<path fill="none" stroke="#000000" stroke-dasharray="5,2" d="M340.6201,-187.1061C340.6201,-206.3391 340.6201,-234 340.6201,-234 340.6201,-234 344.6599,-234 344.6599,-234"/>
<polygon fill="#000000" stroke="#000000" points="344.6599,-237.5001 354.6599,-234 344.6598,-230.5001 344.6599,-237.5001"/>
</g>
<!-- GroupByPipe  -->
<g id="node9" class="node">
<title>GroupByPipe </title>
<polygon fill="#fb8072" stroke="#000000" points="336.4929,-252 239.5071,-252 239.5071,-216 336.4929,-216 336.4929,-252"/>
<text text-anchor="middle" x="288" y="-229.8" font-family="Times,serif" font-size="14.00" fill="#000000">GroupByPipe </text>
</g>
<!-- NgxPipesModule&#45;&gt;GroupByPipe  -->
<g id="edge8" class="edge">
<title>NgxPipesModule&#45;&gt;GroupByPipe </title>
<path fill="none" stroke="#000000" stroke-dasharray="5,2" d="M288,-187.1061C288,-187.1061 288,-205.991 288,-205.991"/>
<polygon fill="#000000" stroke="#000000" points="284.5001,-205.9909 288,-215.991 291.5001,-205.991 284.5001,-205.9909"/>
</g>
<!-- SafeHtmlPipe  -->
<g id="node10" class="node">
<title>SafeHtmlPipe </title>
<polygon fill="#fb8072" stroke="#000000" points="222.0386,-252 123.9614,-252 123.9614,-216 222.0386,-216 222.0386,-252"/>
<text text-anchor="middle" x="173" y="-229.8" font-family="Times,serif" font-size="14.00" fill="#000000">SafeHtmlPipe </text>
</g>
<!-- NgxPipesModule&#45;&gt;SafeHtmlPipe  -->
<g id="edge9" class="edge">
<title>NgxPipesModule&#45;&gt;SafeHtmlPipe </title>
<path fill="none" stroke="#000000" stroke-dasharray="5,2" d="M235.3799,-187.1061C235.3799,-206.3391 235.3799,-234 235.3799,-234 235.3799,-234 232.1507,-234 232.1507,-234"/>
<polygon fill="#000000" stroke="#000000" points="232.1508,-230.5001 222.1507,-234 232.1507,-237.5001 232.1508,-230.5001"/>
</g>
<!-- WordsPipe  -->
<g id="node11" class="node">
<title>WordsPipe </title>
<polygon fill="#fb8072" stroke="#000000" points="105.7081,-252 24.2919,-252 24.2919,-216 105.7081,-216 105.7081,-252"/>
<text text-anchor="middle" x="65" y="-229.8" font-family="Times,serif" font-size="14.00" fill="#000000">WordsPipe </text>
</g>
<!-- NgxPipesModule&#45;&gt;WordsPipe  -->
<g id="edge10" class="edge">
<title>NgxPipesModule&#45;&gt;WordsPipe </title>
<path fill="none" stroke="#000000" stroke-dasharray="5,2" d="M230.9521,-175C162.6102,-175 57.2154,-175 57.2154,-175 57.2154,-175 57.2154,-205.9775 57.2154,-205.9775"/>
<polygon fill="#000000" stroke="#000000" points="53.7153,-205.9775 57.2154,-215.9775 60.7153,-205.9774 53.7153,-205.9775"/>
</g>
</g>
</svg>
