<?xml version="1.0" encoding="UTF-8" standalone="no"?>
<!DOCTYPE svg PUBLIC "-//W3C//DTD SVG 1.1//EN"
 "http://www.w3.org/Graphics/SVG/1.1/DTD/svg11.dtd">
<!-- Generated by graphviz version 2.40.1 (20161225.0304)
 -->
<!-- Title: dependencies Pages: 1 -->
<svg width="666pt" height="211pt"
 viewBox="0.00 0.00 666.00 211.00" xmlns="http://www.w3.org/2000/svg" xmlns:xlink="http://www.w3.org/1999/xlink">
<g id="graph0" class="graph" transform="scale(1 1) rotate(0) translate(4 207)">
<title>dependencies</title>
<polygon fill="#ffffff" stroke="transparent" points="-4,4 -4,-207 662,-207 662,4 -4,4"/>
<text text-anchor="start" x="308.0091" y="-42.4" font-family="sans-serif" font-weight="bold" font-size="14.00" fill="#000000">Legend</text>
<polygon fill="#ffffb3" stroke="transparent" points="95,-10 95,-30 115,-30 115,-10 95,-10"/>
<text text-anchor="start" x="118.629" y="-15.4" font-family="sans-serif" font-size="14.00" fill="#000000"> &#160;Declarations</text>
<polygon fill="#8dd3c7" stroke="transparent" points="208,-10 208,-30 228,-30 228,-10 208,-10"/>
<text text-anchor="start" x="231.7251" y="-15.4" font-family="sans-serif" font-size="14.00" fill="#000000"> &#160;Module</text>
<polygon fill="#80b1d3" stroke="transparent" points="294,-10 294,-30 314,-30 314,-10 294,-10"/>
<text text-anchor="start" x="317.7812" y="-15.4" font-family="sans-serif" font-size="14.00" fill="#000000"> &#160;Bootstrap</text>
<polygon fill="#fdb462" stroke="transparent" points="391,-10 391,-30 411,-30 411,-10 391,-10"/>
<text text-anchor="start" x="414.6732" y="-15.4" font-family="sans-serif" font-size="14.00" fill="#000000"> &#160;Providers</text>
<polygon fill="#fb8072" stroke="transparent" points="487,-10 487,-30 507,-30 507,-10 487,-10"/>
<text text-anchor="start" x="510.7258" y="-15.4" font-family="sans-serif" font-size="14.00" fill="#000000"> &#160;Exports</text>
<g id="clust1" class="cluster">
<title>cluster_ExperimentsModule</title>
<polygon fill="none" stroke="#000000" stroke-dasharray="1,5" points="8,-70 8,-195 650,-195 650,-70 8,-70"/>
</g>
<g id="clust2" class="cluster">
<title>cluster_ExperimentsModule_declarations</title>
<polygon fill="none" stroke="#000000" points="138,-78 138,-130 642,-130 642,-78 138,-78"/>
</g>
<g id="clust6" class="cluster">
<title>cluster_ExperimentsModule_imports</title>
<polygon fill="none" stroke="#000000" points="16,-78 16,-130 130,-130 130,-78 16,-78"/>
</g>
<!-- ExperimentsComponent -->
<g id="node1" class="node">
<title>ExperimentsComponent</title>
<polygon fill="#ffffb3" stroke="#000000" points="634.0912,-122 481.9088,-122 481.9088,-86 634.0912,-86 634.0912,-122"/>
<text text-anchor="middle" x="558" y="-99.8" font-family="Times,serif" font-size="14.00" fill="#000000">ExperimentsComponent</text>
</g>
<!-- ExperimentsModule -->
<g id="node4" class="node">
<title>ExperimentsModule</title>
<polygon fill="#8dd3c7" stroke="#000000" points="366.309,-187 363.309,-191 342.309,-191 339.309,-187 235.691,-187 235.691,-151 366.309,-151 366.309,-187"/>
<text text-anchor="middle" x="301" y="-164.8" font-family="Times,serif" font-size="14.00" fill="#000000">ExperimentsModule</text>
</g>
<!-- ExperimentsComponent&#45;&gt;ExperimentsModule -->
<g id="edge1" class="edge">
<title>ExperimentsComponent&#45;&gt;ExperimentsModule</title>
<path fill="none" stroke="#000000" d="M558,-122.1061C558,-141.3391 558,-169 558,-169 558,-169 376.1842,-169 376.1842,-169"/>
<polygon fill="#000000" stroke="#000000" points="376.1842,-165.5001 366.1842,-169 376.1841,-172.5001 376.1842,-165.5001"/>
</g>
<!-- HammerCardComponent -->
<g id="node2" class="node">
<title>HammerCardComponent</title>
<polygon fill="#ffffb3" stroke="#000000" points="463.5225,-122 306.4775,-122 306.4775,-86 463.5225,-86 463.5225,-122"/>
<text text-anchor="middle" x="385" y="-99.8" font-family="Times,serif" font-size="14.00" fill="#000000">HammerCardComponent</text>
</g>
<!-- HammerCardComponent&#45;&gt;ExperimentsModule -->
<g id="edge2" class="edge">
<title>HammerCardComponent&#45;&gt;ExperimentsModule</title>
<path fill="none" stroke="#000000" d="M336.1967,-122.1061C336.1967,-122.1061 336.1967,-140.991 336.1967,-140.991"/>
<polygon fill="#000000" stroke="#000000" points="332.6968,-140.9909 336.1967,-150.991 339.6968,-140.991 332.6968,-140.9909"/>
</g>
<!-- HammertimeDirective -->
<g id="node3" class="node">
<title>HammertimeDirective</title>
<polygon fill="#ffffb3" stroke="#000000" points="287.9468,-122 146.0532,-122 146.0532,-86 287.9468,-86 287.9468,-122"/>
<text text-anchor="middle" x="217" y="-99.8" font-family="Times,serif" font-size="14.00" fill="#000000">HammertimeDirective</text>
</g>
<!-- HammertimeDirective&#45;&gt;ExperimentsModule -->
<g id="edge3" class="edge">
<title>HammertimeDirective&#45;&gt;ExperimentsModule</title>
<path fill="none" stroke="#000000" d="M261.9095,-122.1061C261.9095,-122.1061 261.9095,-140.991 261.9095,-140.991"/>
<polygon fill="#000000" stroke="#000000" points="258.4096,-140.9909 261.9095,-150.991 265.4096,-140.991 258.4096,-140.9909"/>
</g>
<!-- SharedModule -->
<g id="node5" class="node">
<title>SharedModule</title>
<polygon fill="#8dd3c7" stroke="#000000" points="122.4231,-122 119.4231,-126 98.4231,-126 95.4231,-122 23.5769,-122 23.5769,-86 122.4231,-86 122.4231,-122"/>
<text text-anchor="middle" x="73" y="-99.8" font-family="Times,serif" font-size="14.00" fill="#000000">SharedModule</text>
</g>
<!-- SharedModule&#45;&gt;ExperimentsModule -->
<g id="edge4" class="edge">
<title>SharedModule&#45;&gt;ExperimentsModule</title>
<path fill="none" stroke="#000000" d="M73,-122.1061C73,-141.3391 73,-169 73,-169 73,-169 225.6644,-169 225.6644,-169"/>
<polygon fill="#000000" stroke="#000000" points="225.6644,-172.5001 235.6644,-169 225.6643,-165.5001 225.6644,-172.5001"/>
</g>
</g>
</svg>
