<?xml version="1.0" encoding="UTF-8" standalone="no"?>
<!DOCTYPE svg PUBLIC "-//W3C//DTD SVG 1.1//EN"
 "http://www.w3.org/Graphics/SVG/1.1/DTD/svg11.dtd">
<!-- Generated by graphviz version 2.40.1 (20161225.0304)
 -->
<!-- Title: dependencies Pages: 1 -->
<svg width="2619pt" height="211pt"
 viewBox="0.00 0.00 2619.00 211.00" xmlns="http://www.w3.org/2000/svg" xmlns:xlink="http://www.w3.org/1999/xlink">
<g id="graph0" class="graph" transform="scale(1 1) rotate(0) translate(4 207)">
<title>dependencies</title>
<polygon fill="#ffffff" stroke="transparent" points="-4,4 -4,-207 2615,-207 2615,4 -4,4"/>
<text text-anchor="start" x="1284.5091" y="-42.4" font-family="sans-serif" font-weight="bold" font-size="14.00" fill="#000000">Legend</text>
<polygon fill="#ffffb3" stroke="transparent" points="1071.5,-10 1071.5,-30 1091.5,-30 1091.5,-10 1071.5,-10"/>
<text text-anchor="start" x="1095.129" y="-15.4" font-family="sans-serif" font-size="14.00" fill="#000000"> &#160;Declarations</text>
<polygon fill="#8dd3c7" stroke="transparent" points="1184.5,-10 1184.5,-30 1204.5,-30 1204.5,-10 1184.5,-10"/>
<text text-anchor="start" x="1208.2251" y="-15.4" font-family="sans-serif" font-size="14.00" fill="#000000"> &#160;Module</text>
<polygon fill="#80b1d3" stroke="transparent" points="1270.5,-10 1270.5,-30 1290.5,-30 1290.5,-10 1270.5,-10"/>
<text text-anchor="start" x="1294.2812" y="-15.4" font-family="sans-serif" font-size="14.00" fill="#000000"> &#160;Bootstrap</text>
<polygon fill="#fdb462" stroke="transparent" points="1367.5,-10 1367.5,-30 1387.5,-30 1387.5,-10 1367.5,-10"/>
<text text-anchor="start" x="1391.1732" y="-15.4" font-family="sans-serif" font-size="14.00" fill="#000000"> &#160;Providers</text>
<polygon fill="#fb8072" stroke="transparent" points="1463.5,-10 1463.5,-30 1483.5,-30 1483.5,-10 1463.5,-10"/>
<text text-anchor="start" x="1487.2258" y="-15.4" font-family="sans-serif" font-size="14.00" fill="#000000"> &#160;Exports</text>
<g id="clust1" class="cluster">
<title>cluster_ExperimentsModule</title>
<polygon fill="none" stroke="#000000" stroke-dasharray="1,5" points="8,-70 8,-195 2603,-195 2603,-70 8,-70"/>
</g>
<g id="clust2" class="cluster">
<title>cluster_ExperimentsModule_declarations</title>
<polygon fill="none" stroke="#000000" points="677,-78 677,-130 2595,-130 2595,-78 677,-78"/>
</g>
<g id="clust15" class="cluster">
<title>cluster_ExperimentsModule_imports</title>
<polygon fill="none" stroke="#000000" points="16,-78 16,-130 669,-130 669,-78 16,-78"/>
</g>
<!-- AnimationsComponent -->
<g id="node1" class="node">
<title>AnimationsComponent</title>
<polygon fill="#ffffb3" stroke="#000000" points="2587.161,-122 2440.839,-122 2440.839,-86 2587.161,-86 2587.161,-122"/>
<text text-anchor="middle" x="2514" y="-99.8" font-family="Times,serif" font-size="14.00" fill="#000000">AnimationsComponent</text>
</g>
<!-- ExperimentsModule -->
<g id="node13" class="node">
<title>ExperimentsModule</title>
<polygon fill="#8dd3c7" stroke="#000000" points="1305.309,-187 1302.309,-191 1281.309,-191 1278.309,-187 1174.691,-187 1174.691,-151 1305.309,-151 1305.309,-187"/>
<text text-anchor="middle" x="1240" y="-164.8" font-family="Times,serif" font-size="14.00" fill="#000000">ExperimentsModule</text>
</g>
<!-- AnimationsComponent&#45;&gt;ExperimentsModule -->
<g id="edge1" class="edge">
<title>AnimationsComponent&#45;&gt;ExperimentsModule</title>
<path fill="none" stroke="#000000" d="M2514,-122.3228C2514,-145.6602 2514,-183 2514,-183 2514,-183 1315.3705,-183 1315.3705,-183"/>
<polygon fill="#000000" stroke="#000000" points="1315.3706,-179.5001 1305.3705,-183 1315.3705,-186.5001 1315.3706,-179.5001"/>
</g>
<!-- CardComponent -->
<g id="node2" class="node">
<title>CardComponent</title>
<polygon fill="#ffffb3" stroke="#000000" points="2422.0452,-122 2313.9548,-122 2313.9548,-86 2422.0452,-86 2422.0452,-122"/>
<text text-anchor="middle" x="2368" y="-99.8" font-family="Times,serif" font-size="14.00" fill="#000000">CardComponent</text>
</g>
<!-- CardComponent&#45;&gt;ExperimentsModule -->
<g id="edge2" class="edge">
<title>CardComponent&#45;&gt;ExperimentsModule</title>
<path fill="none" stroke="#000000" d="M2368,-122.1554C2368,-144.3519 2368,-179 2368,-179 2368,-179 1315.5217,-179 1315.5217,-179"/>
<polygon fill="#000000" stroke="#000000" points="1315.5217,-175.5001 1305.5217,-179 1315.5216,-182.5001 1315.5217,-175.5001"/>
</g>
<!-- ClapButtonComponent -->
<g id="node3" class="node">
<title>ClapButtonComponent</title>
<polygon fill="#ffffb3" stroke="#000000" points="2295.892,-122 2150.108,-122 2150.108,-86 2295.892,-86 2295.892,-122"/>
<text text-anchor="middle" x="2223" y="-99.8" font-family="Times,serif" font-size="14.00" fill="#000000">ClapButtonComponent</text>
</g>
<!-- ClapButtonComponent&#45;&gt;ExperimentsModule -->
<g id="edge3" class="edge">
<title>ClapButtonComponent&#45;&gt;ExperimentsModule</title>
<path fill="none" stroke="#000000" d="M2223,-122.2843C2223,-143.3211 2223,-175 2223,-175 2223,-175 1315.2587,-175 1315.2587,-175"/>
<polygon fill="#000000" stroke="#000000" points="1315.2587,-171.5001 1305.2587,-175 1315.2586,-178.5001 1315.2587,-171.5001"/>
</g>
<!-- ContextMenuComponent -->
<g id="node4" class="node">
<title>ContextMenuComponent</title>
<polygon fill="#ffffb3" stroke="#000000" points="2132.3243,-122 1973.6757,-122 1973.6757,-86 2132.3243,-86 2132.3243,-122"/>
<text text-anchor="middle" x="2053" y="-99.8" font-family="Times,serif" font-size="14.00" fill="#000000">ContextMenuComponent</text>
</g>
<!-- ContextMenuComponent&#45;&gt;ExperimentsModule -->
<g id="edge4" class="edge">
<title>ContextMenuComponent&#45;&gt;ExperimentsModule</title>
<path fill="none" stroke="#000000" d="M2053,-122.308C2053,-142.1455 2053,-171 2053,-171 2053,-171 1315.1569,-171 1315.1569,-171"/>
<polygon fill="#000000" stroke="#000000" points="1315.1569,-167.5001 1305.1569,-171 1315.1569,-174.5001 1315.1569,-167.5001"/>
</g>
<!-- FileUploadComponent -->
<g id="node5" class="node">
<title>FileUploadComponent</title>
<polygon fill="#ffffb3" stroke="#000000" points="1956.323,-122 1811.677,-122 1811.677,-86 1956.323,-86 1956.323,-122"/>
<text text-anchor="middle" x="1884" y="-99.8" font-family="Times,serif" font-size="14.00" fill="#000000">FileUploadComponent</text>
</g>
<!-- FileUploadComponent&#45;&gt;ExperimentsModule -->
<g id="edge5" class="edge">
<title>FileUploadComponent&#45;&gt;ExperimentsModule</title>
<path fill="none" stroke="#000000" d="M1884,-122.2222C1884,-140.8285 1884,-167 1884,-167 1884,-167 1315.2942,-167 1315.2942,-167"/>
<polygon fill="#000000" stroke="#000000" points="1315.2942,-163.5001 1305.2942,-167 1315.2942,-170.5001 1315.2942,-163.5001"/>
</g>
<!-- HammertimeDirective -->
<g id="node6" class="node">
<title>HammertimeDirective</title>
<polygon fill="#ffffb3" stroke="#000000" points="1793.9468,-122 1652.0532,-122 1652.0532,-86 1793.9468,-86 1793.9468,-122"/>
<text text-anchor="middle" x="1723" y="-99.8" font-family="Times,serif" font-size="14.00" fill="#000000">HammertimeDirective</text>
</g>
<!-- HammertimeDirective&#45;&gt;ExperimentsModule -->
<g id="edge6" class="edge">
<title>HammertimeDirective&#45;&gt;ExperimentsModule</title>
<path fill="none" stroke="#000000" d="M1723,-122.0225C1723,-139.3734 1723,-163 1723,-163 1723,-163 1315.3907,-163 1315.3907,-163"/>
<polygon fill="#000000" stroke="#000000" points="1315.3907,-159.5001 1305.3907,-163 1315.3906,-166.5001 1315.3907,-159.5001"/>
</g>
<!-- ImageCompComponent -->
<g id="node7" class="node">
<title>ImageCompComponent</title>
<polygon fill="#ffffb3" stroke="#000000" points="1634.0407,-122 1483.9593,-122 1483.9593,-86 1634.0407,-86 1634.0407,-122"/>
<text text-anchor="middle" x="1559" y="-99.8" font-family="Times,serif" font-size="14.00" fill="#000000">ImageCompComponent</text>
</g>
<!-- ImageCompComponent&#45;&gt;ExperimentsModule -->
<g id="edge7" class="edge">
<title>ImageCompComponent&#45;&gt;ExperimentsModule</title>
<path fill="none" stroke="#000000" d="M1559,-122.0091C1559,-138.0494 1559,-159 1559,-159 1559,-159 1315.3242,-159 1315.3242,-159"/>
<polygon fill="#000000" stroke="#000000" points="1315.3242,-155.5001 1305.3242,-159 1315.3241,-162.5001 1315.3242,-155.5001"/>
</g>
<!-- KnobDemoComponent -->
<g id="node8" class="node">
<title>KnobDemoComponent</title>
<polygon fill="#ffffb3" stroke="#000000" points="1465.1512,-122 1318.8488,-122 1318.8488,-86 1465.1512,-86 1465.1512,-122"/>
<text text-anchor="middle" x="1392" y="-99.8" font-family="Times,serif" font-size="14.00" fill="#000000">KnobDemoComponent</text>
</g>
<!-- KnobDemoComponent&#45;&gt;ExperimentsModule -->
<g id="edge8" class="edge">
<title>KnobDemoComponent&#45;&gt;ExperimentsModule</title>
<path fill="none" stroke="#000000" d="M1392,-122.1243C1392,-136.7832 1392,-155 1392,-155 1392,-155 1315.3438,-155 1315.3438,-155"/>
<polygon fill="#000000" stroke="#000000" points="1315.3438,-151.5001 1305.3438,-155 1315.3438,-158.5001 1315.3438,-151.5001"/>
</g>
<!-- LayoutComponent -->
<g id="node9" class="node">
<title>LayoutComponent</title>
<polygon fill="#ffffb3" stroke="#000000" points="1300.4902,-122 1179.5098,-122 1179.5098,-86 1300.4902,-86 1300.4902,-122"/>
<text text-anchor="middle" x="1240" y="-99.8" font-family="Times,serif" font-size="14.00" fill="#000000">LayoutComponent</text>
</g>
<!-- LayoutComponent&#45;&gt;ExperimentsModule -->
<g id="edge9" class="edge">
<title>LayoutComponent&#45;&gt;ExperimentsModule</title>
<path fill="none" stroke="#000000" d="M1240,-122.1061C1240,-122.1061 1240,-140.991 1240,-140.991"/>
<polygon fill="#000000" stroke="#000000" points="1236.5001,-140.9909 1240,-150.991 1243.5001,-140.991 1236.5001,-140.9909"/>
</g>
<!-- LedDemoComponent -->
<g id="node10" class="node">
<title>LedDemoComponent</title>
<polygon fill="#ffffb3" stroke="#000000" points="1161.8118,-122 1024.1882,-122 1024.1882,-86 1161.8118,-86 1161.8118,-122"/>
<text text-anchor="middle" x="1093" y="-99.8" font-family="Times,serif" font-size="14.00" fill="#000000">LedDemoComponent</text>
</g>
<!-- LedDemoComponent&#45;&gt;ExperimentsModule -->
<g id="edge10" class="edge">
<title>LedDemoComponent&#45;&gt;ExperimentsModule</title>
<path fill="none" stroke="#000000" d="M1093,-122.1243C1093,-136.7832 1093,-155 1093,-155 1093,-155 1164.6676,-155 1164.6676,-155"/>
<polygon fill="#000000" stroke="#000000" points="1164.6676,-158.5001 1174.6676,-155 1164.6676,-151.5001 1164.6676,-158.5001"/>
</g>
<!-- StickyTableComponent -->
<g id="node11" class="node">
<title>StickyTableComponent</title>
<polygon fill="#ffffb3" stroke="#000000" points="1006.4832,-122 857.5168,-122 857.5168,-86 1006.4832,-86 1006.4832,-122"/>
<text text-anchor="middle" x="932" y="-99.8" font-family="Times,serif" font-size="14.00" fill="#000000">StickyTableComponent</text>
</g>
<!-- StickyTableComponent&#45;&gt;ExperimentsModule -->
<g id="edge11" class="edge">
<title>StickyTableComponent&#45;&gt;ExperimentsModule</title>
<path fill="none" stroke="#000000" d="M932,-122.0091C932,-138.0494 932,-159 932,-159 932,-159 1164.6811,-159 1164.6811,-159"/>
<polygon fill="#000000" stroke="#000000" points="1164.6812,-162.5001 1174.6811,-159 1164.6811,-155.5001 1164.6812,-162.5001"/>
</g>
<!-- VirtualScrollComponent -->
<g id="node12" class="node">
<title>VirtualScrollComponent</title>
<polygon fill="#ffffb3" stroke="#000000" points="839.4256,-122 684.5744,-122 684.5744,-86 839.4256,-86 839.4256,-122"/>
<text text-anchor="middle" x="762" y="-99.8" font-family="Times,serif" font-size="14.00" fill="#000000">VirtualScrollComponent</text>
</g>
<!-- VirtualScrollComponent&#45;&gt;ExperimentsModule -->
<g id="edge12" class="edge">
<title>VirtualScrollComponent&#45;&gt;ExperimentsModule</title>
<path fill="none" stroke="#000000" d="M762,-122.0225C762,-139.3734 762,-163 762,-163 762,-163 1164.5384,-163 1164.5384,-163"/>
<polygon fill="#000000" stroke="#000000" points="1164.5384,-166.5001 1174.5384,-163 1164.5384,-159.5001 1164.5384,-166.5001"/>
</g>
<!-- ClapModule -->
<g id="node14" class="node">
<title>ClapModule</title>
<polygon fill="#8dd3c7" stroke="#000000" points="660.9916,-122 657.9916,-126 636.9916,-126 633.9916,-122 575.0084,-122 575.0084,-86 660.9916,-86 660.9916,-122"/>
<text text-anchor="middle" x="618" y="-99.8" font-family="Times,serif" font-size="14.00" fill="#000000">ClapModule</text>
</g>
<!-- ClapModule&#45;&gt;ExperimentsModule -->
<g id="edge13" class="edge">
<title>ClapModule&#45;&gt;ExperimentsModule</title>
<path fill="none" stroke="#000000" d="M618,-122.2222C618,-140.8285 618,-167 618,-167 618,-167 1164.6107,-167 1164.6107,-167"/>
<polygon fill="#000000" stroke="#000000" points="1164.6107,-170.5001 1174.6107,-167 1164.6107,-163.5001 1164.6107,-170.5001"/>
</g>
<!-- ContextMenuModule -->
<g id="node15" class="node">
<title>ContextMenuModule</title>
<polygon fill="#8dd3c7" stroke="#000000" points="557.0422,-122 554.0422,-126 533.0422,-126 530.0422,-122 420.9578,-122 420.9578,-86 557.0422,-86 557.0422,-122"/>
<text text-anchor="middle" x="489" y="-99.8" font-family="Times,serif" font-size="14.00" fill="#000000">ContextMenuModule</text>
</g>
<!-- ContextMenuModule&#45;&gt;ExperimentsModule -->
<g id="edge14" class="edge">
<title>ContextMenuModule&#45;&gt;ExperimentsModule</title>
<path fill="none" stroke="#000000" d="M489,-122.308C489,-142.1455 489,-171 489,-171 489,-171 1164.6674,-171 1164.6674,-171"/>
<polygon fill="#000000" stroke="#000000" points="1164.6675,-174.5001 1174.6674,-171 1164.6674,-167.5001 1164.6675,-174.5001"/>
</g>
<!-- ImageComparisonModule -->
<g id="node16" class="node">
<title>ImageComparisonModule</title>
<polygon fill="#8dd3c7" stroke="#000000" points="402.4678,-122 399.4678,-126 378.4678,-126 375.4678,-122 239.5322,-122 239.5322,-86 402.4678,-86 402.4678,-122"/>
<text text-anchor="middle" x="321" y="-99.8" font-family="Times,serif" font-size="14.00" fill="#000000">ImageComparisonModule</text>
</g>
<!-- ImageComparisonModule&#45;&gt;ExperimentsModule -->
<g id="edge15" class="edge">
<title>ImageComparisonModule&#45;&gt;ExperimentsModule</title>
<path fill="none" stroke="#000000" d="M321,-122.2843C321,-143.3211 321,-175 321,-175 321,-175 1164.6445,-175 1164.6445,-175"/>
<polygon fill="#000000" stroke="#000000" points="1164.6446,-178.5001 1174.6445,-175 1164.6445,-171.5001 1164.6446,-178.5001"/>
</g>
<!-- LedModule -->
<g id="node17" class="node">
<title>LedModule</title>
<polygon fill="#8dd3c7" stroke="#000000" points="221.8176,-122 218.8176,-126 197.8176,-126 194.8176,-122 140.1824,-122 140.1824,-86 221.8176,-86 221.8176,-122"/>
<text text-anchor="middle" x="181" y="-99.8" font-family="Times,serif" font-size="14.00" fill="#000000">LedModule</text>
</g>
<!-- LedModule&#45;&gt;ExperimentsModule -->
<g id="edge16" class="edge">
<title>LedModule&#45;&gt;ExperimentsModule</title>
<path fill="none" stroke="#000000" d="M181,-122.1554C181,-144.3519 181,-179 181,-179 181,-179 1164.554,-179 1164.554,-179"/>
<polygon fill="#000000" stroke="#000000" points="1164.554,-182.5001 1174.554,-179 1164.554,-175.5001 1164.554,-182.5001"/>
</g>
<!-- SharedModule -->
<g id="node18" class="node">
<title>SharedModule</title>
<polygon fill="#8dd3c7" stroke="#000000" points="122.4231,-122 119.4231,-126 98.4231,-126 95.4231,-122 23.5769,-122 23.5769,-86 122.4231,-86 122.4231,-122"/>
<text text-anchor="middle" x="73" y="-99.8" font-family="Times,serif" font-size="14.00" fill="#000000">SharedModule</text>
</g>
<!-- SharedModule&#45;&gt;ExperimentsModule -->
<g id="edge17" class="edge">
<title>SharedModule&#45;&gt;ExperimentsModule</title>
<path fill="none" stroke="#000000" d="M73,-122.3228C73,-145.6602 73,-183 73,-183 73,-183 1164.7564,-183 1164.7564,-183"/>
<polygon fill="#000000" stroke="#000000" points="1164.7564,-186.5001 1174.7564,-183 1164.7564,-179.5001 1164.7564,-186.5001"/>
</g>
</g>
</svg>
