<?xml version="1.0" encoding="UTF-8" standalone="no"?>
<!DOCTYPE svg PUBLIC "-//W3C//DTD SVG 1.1//EN"
 "http://www.w3.org/Graphics/SVG/1.1/DTD/svg11.dtd">
<!-- Generated by graphviz version 2.40.1 (20161225.0304)
 -->
<!-- Title: dependencies Pages: 1 -->
<svg width="765pt" height="211pt"
 viewBox="0.00 0.00 765.00 211.00" xmlns="http://www.w3.org/2000/svg" xmlns:xlink="http://www.w3.org/1999/xlink">
<g id="graph0" class="graph" transform="scale(1 1) rotate(0) translate(4 207)">
<title>dependencies</title>
<polygon fill="#ffffff" stroke="transparent" points="-4,4 -4,-207 761,-207 761,4 -4,4"/>
<text text-anchor="start" x="357.5091" y="-42.4" font-family="sans-serif" font-weight="bold" font-size="14.00" fill="#000000">Legend</text>
<polygon fill="#ffffb3" stroke="transparent" points="144.5,-10 144.5,-30 164.5,-30 164.5,-10 144.5,-10"/>
<text text-anchor="start" x="168.129" y="-15.4" font-family="sans-serif" font-size="14.00" fill="#000000"> &#160;Declarations</text>
<polygon fill="#8dd3c7" stroke="transparent" points="257.5,-10 257.5,-30 277.5,-30 277.5,-10 257.5,-10"/>
<text text-anchor="start" x="281.2251" y="-15.4" font-family="sans-serif" font-size="14.00" fill="#000000"> &#160;Module</text>
<polygon fill="#80b1d3" stroke="transparent" points="343.5,-10 343.5,-30 363.5,-30 363.5,-10 343.5,-10"/>
<text text-anchor="start" x="367.2812" y="-15.4" font-family="sans-serif" font-size="14.00" fill="#000000"> &#160;Bootstrap</text>
<polygon fill="#fdb462" stroke="transparent" points="440.5,-10 440.5,-30 460.5,-30 460.5,-10 440.5,-10"/>
<text text-anchor="start" x="464.1732" y="-15.4" font-family="sans-serif" font-size="14.00" fill="#000000"> &#160;Providers</text>
<polygon fill="#fb8072" stroke="transparent" points="536.5,-10 536.5,-30 556.5,-30 556.5,-10 536.5,-10"/>
<text text-anchor="start" x="560.2258" y="-15.4" font-family="sans-serif" font-size="14.00" fill="#000000"> &#160;Exports</text>
<g id="clust1" class="cluster">
<title>cluster_ExperimentsModule</title>
<polygon fill="none" stroke="#000000" stroke-dasharray="1,5" points="8,-70 8,-195 749,-195 749,-70 8,-70"/>
</g>
<g id="clust2" class="cluster">
<title>cluster_ExperimentsModule_declarations</title>
<polygon fill="none" stroke="#000000" points="257,-78 257,-130 741,-130 741,-78 257,-78"/>
</g>
<g id="clust6" class="cluster">
<title>cluster_ExperimentsModule_imports</title>
<polygon fill="none" stroke="#000000" points="16,-78 16,-130 249,-130 249,-78 16,-78"/>
</g>
<!-- AnimationsComponent -->
<g id="node1" class="node">
<title>AnimationsComponent</title>
<polygon fill="#ffffb3" stroke="#000000" points="733.161,-122 586.839,-122 586.839,-86 733.161,-86 733.161,-122"/>
<text text-anchor="middle" x="660" y="-99.8" font-family="Times,serif" font-size="14.00" fill="#000000">AnimationsComponent</text>
</g>
<!-- ExperimentsModule -->
<g id="node4" class="node">
<title>ExperimentsModule</title>
<polygon fill="#8dd3c7" stroke="#000000" points="401.309,-187 398.309,-191 377.309,-191 374.309,-187 270.691,-187 270.691,-151 401.309,-151 401.309,-187"/>
<text text-anchor="middle" x="336" y="-164.8" font-family="Times,serif" font-size="14.00" fill="#000000">ExperimentsModule</text>
</g>
<!-- AnimationsComponent&#45;&gt;ExperimentsModule -->
<g id="edge1" class="edge">
<title>AnimationsComponent&#45;&gt;ExperimentsModule</title>
<path fill="none" stroke="#000000" d="M660,-122.2843C660,-143.3211 660,-175 660,-175 660,-175 411.1765,-175 411.1765,-175"/>
<polygon fill="#000000" stroke="#000000" points="411.1765,-171.5001 401.1765,-175 411.1765,-178.5001 411.1765,-171.5001"/>
</g>
<!-- FileUploadComponent -->
<g id="node2" class="node">
<title>FileUploadComponent</title>
<polygon fill="#ffffb3" stroke="#000000" points="569.323,-122 424.677,-122 424.677,-86 569.323,-86 569.323,-122"/>
<text text-anchor="middle" x="497" y="-99.8" font-family="Times,serif" font-size="14.00" fill="#000000">FileUploadComponent</text>
</g>
<!-- FileUploadComponent&#45;&gt;ExperimentsModule -->
<g id="edge2" class="edge">
<title>FileUploadComponent&#45;&gt;ExperimentsModule</title>
<path fill="none" stroke="#000000" d="M497,-122.0225C497,-139.3734 497,-163 497,-163 497,-163 411.4849,-163 411.4849,-163"/>
<polygon fill="#000000" stroke="#000000" points="411.4849,-159.5001 401.4849,-163 411.4848,-166.5001 411.4849,-159.5001"/>
</g>
<!-- HammertimeDirective -->
<g id="node3" class="node">
<title>HammertimeDirective</title>
<polygon fill="#ffffb3" stroke="#000000" points="406.9468,-122 265.0532,-122 265.0532,-86 406.9468,-86 406.9468,-122"/>
<text text-anchor="middle" x="336" y="-99.8" font-family="Times,serif" font-size="14.00" fill="#000000">HammertimeDirective</text>
</g>
<!-- HammertimeDirective&#45;&gt;ExperimentsModule -->
<g id="edge3" class="edge">
<title>HammertimeDirective&#45;&gt;ExperimentsModule</title>
<path fill="none" stroke="#000000" d="M336,-122.1061C336,-122.1061 336,-140.991 336,-140.991"/>
<polygon fill="#000000" stroke="#000000" points="332.5001,-140.9909 336,-150.991 339.5001,-140.991 332.5001,-140.9909"/>
</g>
<!-- SharedModule -->
<g id="node5" class="node">
<title>SharedModule</title>
<polygon fill="#8dd3c7" stroke="#000000" points="241.4231,-122 238.4231,-126 217.4231,-126 214.4231,-122 142.5769,-122 142.5769,-86 241.4231,-86 241.4231,-122"/>
<text text-anchor="middle" x="192" y="-99.8" font-family="Times,serif" font-size="14.00" fill="#000000">SharedModule</text>
</g>
<!-- SharedModule&#45;&gt;ExperimentsModule -->
<g id="edge4" class="edge">
<title>SharedModule&#45;&gt;ExperimentsModule</title>
<path fill="none" stroke="#000000" d="M192,-122.0225C192,-139.3734 192,-163 192,-163 192,-163 260.7412,-163 260.7412,-163"/>
<polygon fill="#000000" stroke="#000000" points="260.7412,-166.5001 270.7412,-163 260.7412,-159.5001 260.7412,-166.5001"/>
</g>
<!-- UploadModule -->
<g id="node6" class="node">
<title>UploadModule</title>
<polygon fill="#8dd3c7" stroke="#000000" points="124.2619,-122 121.2619,-126 100.2619,-126 97.2619,-122 23.7381,-122 23.7381,-86 124.2619,-86 124.2619,-122"/>
<text text-anchor="middle" x="74" y="-99.8" font-family="Times,serif" font-size="14.00" fill="#000000">UploadModule</text>
</g>
<!-- UploadModule&#45;&gt;ExperimentsModule -->
<g id="edge5" class="edge">
<title>UploadModule&#45;&gt;ExperimentsModule</title>
<path fill="none" stroke="#000000" d="M74,-122.2843C74,-143.3211 74,-175 74,-175 74,-175 260.5622,-175 260.5622,-175"/>
<polygon fill="#000000" stroke="#000000" points="260.5622,-178.5001 270.5622,-175 260.5621,-171.5001 260.5622,-178.5001"/>
</g>
</g>
</svg>
