<?xml version="1.0" encoding="UTF-8" standalone="no"?>
<!DOCTYPE svg PUBLIC "-//W3C//DTD SVG 1.1//EN"
 "http://www.w3.org/Graphics/SVG/1.1/DTD/svg11.dtd">
<!-- Generated by graphviz version 2.40.1 (20161225.0304)
 -->
<!-- Title: dependencies Pages: 1 -->
<svg width="2003pt" height="211pt"
 viewBox="0.00 0.00 2003.00 211.00" xmlns="http://www.w3.org/2000/svg" xmlns:xlink="http://www.w3.org/1999/xlink">
<g id="graph0" class="graph" transform="scale(1 1) rotate(0) translate(4 207)">
<title>dependencies</title>
<polygon fill="#ffffff" stroke="transparent" points="-4,4 -4,-207 1999,-207 1999,4 -4,4"/>
<text text-anchor="start" x="976.5091" y="-42.4" font-family="sans-serif" font-weight="bold" font-size="14.00" fill="#000000">Legend</text>
<polygon fill="#ffffb3" stroke="transparent" points="763.5,-10 763.5,-30 783.5,-30 783.5,-10 763.5,-10"/>
<text text-anchor="start" x="787.129" y="-15.4" font-family="sans-serif" font-size="14.00" fill="#000000"> &#160;Declarations</text>
<polygon fill="#8dd3c7" stroke="transparent" points="876.5,-10 876.5,-30 896.5,-30 896.5,-10 876.5,-10"/>
<text text-anchor="start" x="900.2251" y="-15.4" font-family="sans-serif" font-size="14.00" fill="#000000"> &#160;Module</text>
<polygon fill="#80b1d3" stroke="transparent" points="962.5,-10 962.5,-30 982.5,-30 982.5,-10 962.5,-10"/>
<text text-anchor="start" x="986.2812" y="-15.4" font-family="sans-serif" font-size="14.00" fill="#000000"> &#160;Bootstrap</text>
<polygon fill="#fdb462" stroke="transparent" points="1059.5,-10 1059.5,-30 1079.5,-30 1079.5,-10 1059.5,-10"/>
<text text-anchor="start" x="1083.1732" y="-15.4" font-family="sans-serif" font-size="14.00" fill="#000000"> &#160;Providers</text>
<polygon fill="#fb8072" stroke="transparent" points="1155.5,-10 1155.5,-30 1175.5,-30 1175.5,-10 1155.5,-10"/>
<text text-anchor="start" x="1179.2258" y="-15.4" font-family="sans-serif" font-size="14.00" fill="#000000"> &#160;Exports</text>
<g id="clust1" class="cluster">
<title>cluster_ExperimentsModule</title>
<polygon fill="none" stroke="#000000" stroke-dasharray="1,5" points="8,-70 8,-195 1987,-195 1987,-70 8,-70"/>
</g>
<g id="clust2" class="cluster">
<title>cluster_ExperimentsModule_declarations</title>
<polygon fill="none" stroke="#000000" points="496,-78 496,-130 1979,-130 1979,-78 496,-78"/>
</g>
<g id="clust12" class="cluster">
<title>cluster_ExperimentsModule_imports</title>
<polygon fill="none" stroke="#000000" points="16,-78 16,-130 488,-130 488,-78 16,-78"/>
</g>
<!-- AnimationsComponent -->
<g id="node1" class="node">
<title>AnimationsComponent</title>
<polygon fill="#ffffb3" stroke="#000000" points="1971.161,-122 1824.839,-122 1824.839,-86 1971.161,-86 1971.161,-122"/>
<text text-anchor="middle" x="1898" y="-99.8" font-family="Times,serif" font-size="14.00" fill="#000000">AnimationsComponent</text>
</g>
<!-- ExperimentsModule -->
<g id="node10" class="node">
<title>ExperimentsModule</title>
<polygon fill="#8dd3c7" stroke="#000000" points="977.309,-187 974.309,-191 953.309,-191 950.309,-187 846.691,-187 846.691,-151 977.309,-151 977.309,-187"/>
<text text-anchor="middle" x="912" y="-164.8" font-family="Times,serif" font-size="14.00" fill="#000000">ExperimentsModule</text>
</g>
<!-- AnimationsComponent&#45;&gt;ExperimentsModule -->
<g id="edge1" class="edge">
<title>AnimationsComponent&#45;&gt;ExperimentsModule</title>
<path fill="none" stroke="#000000" d="M1898,-122.0908C1898,-145.1328 1898,-182 1898,-182 1898,-182 987.4578,-182 987.4578,-182"/>
<polygon fill="#000000" stroke="#000000" points="987.4578,-178.5001 977.4578,-182 987.4578,-185.5001 987.4578,-178.5001"/>
</g>
<!-- ClapButtonComponent -->
<g id="node2" class="node">
<title>ClapButtonComponent</title>
<polygon fill="#ffffb3" stroke="#000000" points="1806.892,-122 1661.108,-122 1661.108,-86 1806.892,-86 1806.892,-122"/>
<text text-anchor="middle" x="1734" y="-99.8" font-family="Times,serif" font-size="14.00" fill="#000000">ClapButtonComponent</text>
</g>
<!-- ClapButtonComponent&#45;&gt;ExperimentsModule -->
<g id="edge2" class="edge">
<title>ClapButtonComponent&#45;&gt;ExperimentsModule</title>
<path fill="none" stroke="#000000" d="M1734,-122.0449C1734,-143.6623 1734,-177 1734,-177 1734,-177 987.188,-177 987.188,-177"/>
<polygon fill="#000000" stroke="#000000" points="987.1881,-173.5001 977.188,-177 987.188,-180.5001 987.1881,-173.5001"/>
</g>
<!-- ContextMenuComponent -->
<g id="node3" class="node">
<title>ContextMenuComponent</title>
<polygon fill="#ffffb3" stroke="#000000" points="1643.3243,-122 1484.6757,-122 1484.6757,-86 1643.3243,-86 1643.3243,-122"/>
<text text-anchor="middle" x="1564" y="-99.8" font-family="Times,serif" font-size="14.00" fill="#000000">ContextMenuComponent</text>
</g>
<!-- ContextMenuComponent&#45;&gt;ExperimentsModule -->
<g id="edge3" class="edge">
<title>ContextMenuComponent&#45;&gt;ExperimentsModule</title>
<path fill="none" stroke="#000000" d="M1564,-122.2228C1564,-142.3652 1564,-172 1564,-172 1564,-172 987.2004,-172 987.2004,-172"/>
<polygon fill="#000000" stroke="#000000" points="987.2005,-168.5001 977.2004,-172 987.2004,-175.5001 987.2005,-168.5001"/>
</g>
<!-- FileUploadComponent -->
<g id="node4" class="node">
<title>FileUploadComponent</title>
<polygon fill="#ffffb3" stroke="#000000" points="1467.323,-122 1322.677,-122 1322.677,-86 1467.323,-86 1467.323,-122"/>
<text text-anchor="middle" x="1395" y="-99.8" font-family="Times,serif" font-size="14.00" fill="#000000">FileUploadComponent</text>
</g>
<!-- FileUploadComponent&#45;&gt;ExperimentsModule -->
<g id="edge4" class="edge">
<title>FileUploadComponent&#45;&gt;ExperimentsModule</title>
<path fill="none" stroke="#000000" d="M1395,-122.2222C1395,-140.8285 1395,-167 1395,-167 1395,-167 987.3907,-167 987.3907,-167"/>
<polygon fill="#000000" stroke="#000000" points="987.3907,-163.5001 977.3907,-167 987.3906,-170.5001 987.3907,-163.5001"/>
</g>
<!-- HammertimeDirective -->
<g id="node5" class="node">
<title>HammertimeDirective</title>
<polygon fill="#ffffb3" stroke="#000000" points="1304.9468,-122 1163.0532,-122 1163.0532,-86 1304.9468,-86 1304.9468,-122"/>
<text text-anchor="middle" x="1234" y="-99.8" font-family="Times,serif" font-size="14.00" fill="#000000">HammertimeDirective</text>
</g>
<!-- HammertimeDirective&#45;&gt;ExperimentsModule -->
<g id="edge5" class="edge">
<title>HammertimeDirective&#45;&gt;ExperimentsModule</title>
<path fill="none" stroke="#000000" d="M1234,-122.0336C1234,-139.0597 1234,-162 1234,-162 1234,-162 987.1615,-162 987.1615,-162"/>
<polygon fill="#000000" stroke="#000000" points="987.1615,-158.5001 977.1615,-162 987.1615,-165.5001 987.1615,-158.5001"/>
</g>
<!-- KnobDemoComponent -->
<g id="node6" class="node">
<title>KnobDemoComponent</title>
<polygon fill="#ffffb3" stroke="#000000" points="1145.1512,-122 998.8488,-122 998.8488,-86 1145.1512,-86 1145.1512,-122"/>
<text text-anchor="middle" x="1072" y="-99.8" font-family="Times,serif" font-size="14.00" fill="#000000">KnobDemoComponent</text>
</g>
<!-- KnobDemoComponent&#45;&gt;ExperimentsModule -->
<g id="edge6" class="edge">
<title>KnobDemoComponent&#45;&gt;ExperimentsModule</title>
<path fill="none" stroke="#000000" d="M1072,-122.2396C1072,-137.5706 1072,-157 1072,-157 1072,-157 987.5398,-157 987.5398,-157"/>
<polygon fill="#000000" stroke="#000000" points="987.5398,-153.5001 977.5398,-157 987.5397,-160.5001 987.5398,-153.5001"/>
</g>
<!-- LedDemoComponent -->
<g id="node7" class="node">
<title>LedDemoComponent</title>
<polygon fill="#ffffb3" stroke="#000000" points="980.8118,-122 843.1882,-122 843.1882,-86 980.8118,-86 980.8118,-122"/>
<text text-anchor="middle" x="912" y="-99.8" font-family="Times,serif" font-size="14.00" fill="#000000">LedDemoComponent</text>
</g>
<!-- LedDemoComponent&#45;&gt;ExperimentsModule -->
<g id="edge7" class="edge">
<title>LedDemoComponent&#45;&gt;ExperimentsModule</title>
<path fill="none" stroke="#000000" d="M912,-122.1061C912,-122.1061 912,-140.991 912,-140.991"/>
<polygon fill="#000000" stroke="#000000" points="908.5001,-140.9909 912,-150.991 915.5001,-140.991 908.5001,-140.9909"/>
</g>
<!-- StickyTableComponent -->
<g id="node8" class="node">
<title>StickyTableComponent</title>
<polygon fill="#ffffb3" stroke="#000000" points="825.4832,-122 676.5168,-122 676.5168,-86 825.4832,-86 825.4832,-122"/>
<text text-anchor="middle" x="751" y="-99.8" font-family="Times,serif" font-size="14.00" fill="#000000">StickyTableComponent</text>
</g>
<!-- StickyTableComponent&#45;&gt;ExperimentsModule -->
<g id="edge8" class="edge">
<title>StickyTableComponent&#45;&gt;ExperimentsModule</title>
<path fill="none" stroke="#000000" d="M751,-122.2396C751,-137.5706 751,-157 751,-157 751,-157 836.5151,-157 836.5151,-157"/>
<polygon fill="#000000" stroke="#000000" points="836.5152,-160.5001 846.5151,-157 836.5151,-153.5001 836.5152,-160.5001"/>
</g>
<!-- VirtualScrollComponent -->
<g id="node9" class="node">
<title>VirtualScrollComponent</title>
<polygon fill="#ffffb3" stroke="#000000" points="658.4256,-122 503.5744,-122 503.5744,-86 658.4256,-86 658.4256,-122"/>
<text text-anchor="middle" x="581" y="-99.8" font-family="Times,serif" font-size="14.00" fill="#000000">VirtualScrollComponent</text>
</g>
<!-- VirtualScrollComponent&#45;&gt;ExperimentsModule -->
<g id="edge9" class="edge">
<title>VirtualScrollComponent&#45;&gt;ExperimentsModule</title>
<path fill="none" stroke="#000000" d="M581,-122.0336C581,-139.0597 581,-162 581,-162 581,-162 836.6051,-162 836.6051,-162"/>
<polygon fill="#000000" stroke="#000000" points="836.6051,-165.5001 846.6051,-162 836.605,-158.5001 836.6051,-165.5001"/>
</g>
<!-- ClapModule -->
<g id="node11" class="node">
<title>ClapModule</title>
<polygon fill="#8dd3c7" stroke="#000000" points="479.9916,-122 476.9916,-126 455.9916,-126 452.9916,-122 394.0084,-122 394.0084,-86 479.9916,-86 479.9916,-122"/>
<text text-anchor="middle" x="437" y="-99.8" font-family="Times,serif" font-size="14.00" fill="#000000">ClapModule</text>
</g>
<!-- ClapModule&#45;&gt;ExperimentsModule -->
<g id="edge10" class="edge">
<title>ClapModule&#45;&gt;ExperimentsModule</title>
<path fill="none" stroke="#000000" d="M437,-122.2222C437,-140.8285 437,-167 437,-167 437,-167 836.452,-167 836.452,-167"/>
<polygon fill="#000000" stroke="#000000" points="836.452,-170.5001 846.452,-167 836.452,-163.5001 836.452,-170.5001"/>
</g>
<!-- ContextMenuModule -->
<g id="node12" class="node">
<title>ContextMenuModule</title>
<polygon fill="#8dd3c7" stroke="#000000" points="376.0422,-122 373.0422,-126 352.0422,-126 349.0422,-122 239.9578,-122 239.9578,-86 376.0422,-86 376.0422,-122"/>
<text text-anchor="middle" x="308" y="-99.8" font-family="Times,serif" font-size="14.00" fill="#000000">ContextMenuModule</text>
</g>
<!-- ContextMenuModule&#45;&gt;ExperimentsModule -->
<g id="edge11" class="edge">
<title>ContextMenuModule&#45;&gt;ExperimentsModule</title>
<path fill="none" stroke="#000000" d="M308,-122.2228C308,-142.3652 308,-172 308,-172 308,-172 836.7875,-172 836.7875,-172"/>
<polygon fill="#000000" stroke="#000000" points="836.7876,-175.5001 846.7875,-172 836.7875,-168.5001 836.7876,-175.5001"/>
</g>
<!-- LedModule -->
<g id="node13" class="node">
<title>LedModule</title>
<polygon fill="#8dd3c7" stroke="#000000" points="221.8176,-122 218.8176,-126 197.8176,-126 194.8176,-122 140.1824,-122 140.1824,-86 221.8176,-86 221.8176,-122"/>
<text text-anchor="middle" x="181" y="-99.8" font-family="Times,serif" font-size="14.00" fill="#000000">LedModule</text>
</g>
<!-- LedModule&#45;&gt;ExperimentsModule -->
<g id="edge12" class="edge">
<title>LedModule&#45;&gt;ExperimentsModule</title>
<path fill="none" stroke="#000000" d="M181,-122.0449C181,-143.6623 181,-177 181,-177 181,-177 836.8073,-177 836.8073,-177"/>
<polygon fill="#000000" stroke="#000000" points="836.8073,-180.5001 846.8073,-177 836.8073,-173.5001 836.8073,-180.5001"/>
</g>
<!-- SharedModule -->
<g id="node14" class="node">
<title>SharedModule</title>
<polygon fill="#8dd3c7" stroke="#000000" points="122.4231,-122 119.4231,-126 98.4231,-126 95.4231,-122 23.5769,-122 23.5769,-86 122.4231,-86 122.4231,-122"/>
<text text-anchor="middle" x="73" y="-99.8" font-family="Times,serif" font-size="14.00" fill="#000000">SharedModule</text>
</g>
<!-- SharedModule&#45;&gt;ExperimentsModule -->
<g id="edge13" class="edge">
<title>SharedModule&#45;&gt;ExperimentsModule</title>
<path fill="none" stroke="#000000" d="M73,-122.0908C73,-145.1328 73,-182 73,-182 73,-182 836.5145,-182 836.5145,-182"/>
<polygon fill="#000000" stroke="#000000" points="836.5146,-185.5001 846.5145,-182 836.5145,-178.5001 836.5146,-185.5001"/>
</g>
</g>
</svg>
