<?xml version="1.0" encoding="UTF-8" standalone="no"?>
<!DOCTYPE svg PUBLIC "-//W3C//DTD SVG 1.1//EN"
 "http://www.w3.org/Graphics/SVG/1.1/DTD/svg11.dtd">
<!-- Generated by graphviz version 2.40.1 (20161225.0304)
 -->
<!-- Title: dependencies Pages: 1 -->
<svg width="976pt" height="211pt"
 viewBox="0.00 0.00 976.00 211.00" xmlns="http://www.w3.org/2000/svg" xmlns:xlink="http://www.w3.org/1999/xlink">
<g id="graph0" class="graph" transform="scale(1 1) rotate(0) translate(4 207)">
<title>dependencies</title>
<polygon fill="#ffffff" stroke="transparent" points="-4,4 -4,-207 972,-207 972,4 -4,4"/>
<text text-anchor="start" x="463.0091" y="-42.4" font-family="sans-serif" font-weight="bold" font-size="14.00" fill="#000000">Legend</text>
<polygon fill="#ffffb3" stroke="transparent" points="250,-10 250,-30 270,-30 270,-10 250,-10"/>
<text text-anchor="start" x="273.629" y="-15.4" font-family="sans-serif" font-size="14.00" fill="#000000"> &#160;Declarations</text>
<polygon fill="#8dd3c7" stroke="transparent" points="363,-10 363,-30 383,-30 383,-10 363,-10"/>
<text text-anchor="start" x="386.7251" y="-15.4" font-family="sans-serif" font-size="14.00" fill="#000000"> &#160;Module</text>
<polygon fill="#80b1d3" stroke="transparent" points="449,-10 449,-30 469,-30 469,-10 449,-10"/>
<text text-anchor="start" x="472.7812" y="-15.4" font-family="sans-serif" font-size="14.00" fill="#000000"> &#160;Bootstrap</text>
<polygon fill="#fdb462" stroke="transparent" points="546,-10 546,-30 566,-30 566,-10 546,-10"/>
<text text-anchor="start" x="569.6732" y="-15.4" font-family="sans-serif" font-size="14.00" fill="#000000"> &#160;Providers</text>
<polygon fill="#fb8072" stroke="transparent" points="642,-10 642,-30 662,-30 662,-10 642,-10"/>
<text text-anchor="start" x="665.7258" y="-15.4" font-family="sans-serif" font-size="14.00" fill="#000000"> &#160;Exports</text>
<g id="clust1" class="cluster">
<title>cluster_ExperimentsModule</title>
<polygon fill="none" stroke="#000000" stroke-dasharray="1,5" points="8,-70 8,-195 960,-195 960,-70 8,-70"/>
</g>
<g id="clust2" class="cluster">
<title>cluster_ExperimentsModule_declarations</title>
<polygon fill="none" stroke="#000000" points="292,-78 292,-130 952,-130 952,-78 292,-78"/>
</g>
<g id="clust7" class="cluster">
<title>cluster_ExperimentsModule_imports</title>
<polygon fill="none" stroke="#000000" points="16,-78 16,-130 284,-130 284,-78 16,-78"/>
</g>
<!-- AnimationsComponent -->
<g id="node1" class="node">
<title>AnimationsComponent</title>
<polygon fill="#ffffb3" stroke="#000000" points="944.161,-122 797.839,-122 797.839,-86 944.161,-86 944.161,-122"/>
<text text-anchor="middle" x="871" y="-99.8" font-family="Times,serif" font-size="14.00" fill="#000000">AnimationsComponent</text>
</g>
<!-- ExperimentsModule -->
<g id="node5" class="node">
<title>ExperimentsModule</title>
<polygon fill="#8dd3c7" stroke="#000000" points="516.309,-187 513.309,-191 492.309,-191 489.309,-187 385.691,-187 385.691,-151 516.309,-151 516.309,-187"/>
<text text-anchor="middle" x="451" y="-164.8" font-family="Times,serif" font-size="14.00" fill="#000000">ExperimentsModule</text>
</g>
<!-- AnimationsComponent&#45;&gt;ExperimentsModule -->
<g id="edge1" class="edge">
<title>AnimationsComponent&#45;&gt;ExperimentsModule</title>
<path fill="none" stroke="#000000" d="M871,-122.2843C871,-143.3211 871,-175 871,-175 871,-175 526.1642,-175 526.1642,-175"/>
<polygon fill="#000000" stroke="#000000" points="526.1642,-171.5001 516.1642,-175 526.1641,-178.5001 526.1642,-171.5001"/>
</g>
<!-- ContextMenuComponent -->
<g id="node2" class="node">
<title>ContextMenuComponent</title>
<polygon fill="#ffffb3" stroke="#000000" points="780.3243,-122 621.6757,-122 621.6757,-86 780.3243,-86 780.3243,-122"/>
<text text-anchor="middle" x="701" y="-99.8" font-family="Times,serif" font-size="14.00" fill="#000000">ContextMenuComponent</text>
</g>
<!-- ContextMenuComponent&#45;&gt;ExperimentsModule -->
<g id="edge2" class="edge">
<title>ContextMenuComponent&#45;&gt;ExperimentsModule</title>
<path fill="none" stroke="#000000" d="M701,-122.0225C701,-139.3734 701,-163 701,-163 701,-163 526.358,-163 526.358,-163"/>
<polygon fill="#000000" stroke="#000000" points="526.358,-159.5001 516.358,-163 526.358,-166.5001 526.358,-159.5001"/>
</g>
<!-- FileUploadComponent -->
<g id="node3" class="node">
<title>FileUploadComponent</title>
<polygon fill="#ffffb3" stroke="#000000" points="604.323,-122 459.677,-122 459.677,-86 604.323,-86 604.323,-122"/>
<text text-anchor="middle" x="532" y="-99.8" font-family="Times,serif" font-size="14.00" fill="#000000">FileUploadComponent</text>
</g>
<!-- FileUploadComponent&#45;&gt;ExperimentsModule -->
<g id="edge3" class="edge">
<title>FileUploadComponent&#45;&gt;ExperimentsModule</title>
<path fill="none" stroke="#000000" d="M487.9965,-122.1061C487.9965,-122.1061 487.9965,-140.991 487.9965,-140.991"/>
<polygon fill="#000000" stroke="#000000" points="484.4966,-140.9909 487.9965,-150.991 491.4966,-140.991 484.4966,-140.9909"/>
</g>
<!-- HammertimeDirective -->
<g id="node4" class="node">
<title>HammertimeDirective</title>
<polygon fill="#ffffb3" stroke="#000000" points="441.9468,-122 300.0532,-122 300.0532,-86 441.9468,-86 441.9468,-122"/>
<text text-anchor="middle" x="371" y="-99.8" font-family="Times,serif" font-size="14.00" fill="#000000">HammertimeDirective</text>
</g>
<!-- HammertimeDirective&#45;&gt;ExperimentsModule -->
<g id="edge4" class="edge">
<title>HammertimeDirective&#45;&gt;ExperimentsModule</title>
<path fill="none" stroke="#000000" d="M413.9095,-122.1061C413.9095,-122.1061 413.9095,-140.991 413.9095,-140.991"/>
<polygon fill="#000000" stroke="#000000" points="410.4096,-140.9909 413.9095,-150.991 417.4096,-140.991 410.4096,-140.9909"/>
</g>
<!-- ContextMenuModule -->
<g id="node6" class="node">
<title>ContextMenuModule</title>
<polygon fill="#8dd3c7" stroke="#000000" points="276.0422,-122 273.0422,-126 252.0422,-126 249.0422,-122 139.9578,-122 139.9578,-86 276.0422,-86 276.0422,-122"/>
<text text-anchor="middle" x="208" y="-99.8" font-family="Times,serif" font-size="14.00" fill="#000000">ContextMenuModule</text>
</g>
<!-- ContextMenuModule&#45;&gt;ExperimentsModule -->
<g id="edge5" class="edge">
<title>ContextMenuModule&#45;&gt;ExperimentsModule</title>
<path fill="none" stroke="#000000" d="M208,-122.0225C208,-139.3734 208,-163 208,-163 208,-163 375.5608,-163 375.5608,-163"/>
<polygon fill="#000000" stroke="#000000" points="375.5608,-166.5001 385.5608,-163 375.5608,-159.5001 375.5608,-166.5001"/>
</g>
<!-- SharedModule -->
<g id="node7" class="node">
<title>SharedModule</title>
<polygon fill="#8dd3c7" stroke="#000000" points="122.4231,-122 119.4231,-126 98.4231,-126 95.4231,-122 23.5769,-122 23.5769,-86 122.4231,-86 122.4231,-122"/>
<text text-anchor="middle" x="73" y="-99.8" font-family="Times,serif" font-size="14.00" fill="#000000">SharedModule</text>
</g>
<!-- SharedModule&#45;&gt;ExperimentsModule -->
<g id="edge6" class="edge">
<title>SharedModule&#45;&gt;ExperimentsModule</title>
<path fill="none" stroke="#000000" d="M73,-122.2843C73,-143.3211 73,-175 73,-175 73,-175 375.589,-175 375.589,-175"/>
<polygon fill="#000000" stroke="#000000" points="375.589,-178.5001 385.589,-175 375.5889,-171.5001 375.589,-178.5001"/>
</g>
</g>
</svg>
