<?xml version="1.0" encoding="UTF-8" standalone="no"?>
<!DOCTYPE svg PUBLIC "-//W3C//DTD SVG 1.1//EN"
 "http://www.w3.org/Graphics/SVG/1.1/DTD/svg11.dtd">
<!-- Generated by graphviz version 2.40.1 (20161225.0304)
 -->
<!-- Title: dependencies Pages: 1 -->
<svg width="1148pt" height="211pt"
 viewBox="0.00 0.00 1148.00 211.00" xmlns="http://www.w3.org/2000/svg" xmlns:xlink="http://www.w3.org/1999/xlink">
<g id="graph0" class="graph" transform="scale(1 1) rotate(0) translate(4 207)">
<title>dependencies</title>
<polygon fill="#ffffff" stroke="transparent" points="-4,4 -4,-207 1144,-207 1144,4 -4,4"/>
<text text-anchor="start" x="549.0091" y="-42.4" font-family="sans-serif" font-weight="bold" font-size="14.00" fill="#000000">Legend</text>
<polygon fill="#ffffb3" stroke="transparent" points="336,-10 336,-30 356,-30 356,-10 336,-10"/>
<text text-anchor="start" x="359.629" y="-15.4" font-family="sans-serif" font-size="14.00" fill="#000000"> &#160;Declarations</text>
<polygon fill="#8dd3c7" stroke="transparent" points="449,-10 449,-30 469,-30 469,-10 449,-10"/>
<text text-anchor="start" x="472.7251" y="-15.4" font-family="sans-serif" font-size="14.00" fill="#000000"> &#160;Module</text>
<polygon fill="#80b1d3" stroke="transparent" points="535,-10 535,-30 555,-30 555,-10 535,-10"/>
<text text-anchor="start" x="558.7812" y="-15.4" font-family="sans-serif" font-size="14.00" fill="#000000"> &#160;Bootstrap</text>
<polygon fill="#fdb462" stroke="transparent" points="632,-10 632,-30 652,-30 652,-10 632,-10"/>
<text text-anchor="start" x="655.6732" y="-15.4" font-family="sans-serif" font-size="14.00" fill="#000000"> &#160;Providers</text>
<polygon fill="#fb8072" stroke="transparent" points="728,-10 728,-30 748,-30 748,-10 728,-10"/>
<text text-anchor="start" x="751.7258" y="-15.4" font-family="sans-serif" font-size="14.00" fill="#000000"> &#160;Exports</text>
<g id="clust1" class="cluster">
<title>cluster_ExperimentsModule</title>
<polygon fill="none" stroke="#000000" stroke-dasharray="1,5" points="8,-70 8,-195 1132,-195 1132,-70 8,-70"/>
</g>
<g id="clust2" class="cluster">
<title>cluster_ExperimentsModule_declarations</title>
<polygon fill="none" stroke="#000000" points="292,-78 292,-130 1124,-130 1124,-78 292,-78"/>
</g>
<g id="clust8" class="cluster">
<title>cluster_ExperimentsModule_imports</title>
<polygon fill="none" stroke="#000000" points="16,-78 16,-130 284,-130 284,-78 16,-78"/>
</g>
<!-- AnimationsComponent -->
<g id="node1" class="node">
<title>AnimationsComponent</title>
<polygon fill="#ffffb3" stroke="#000000" points="1116.161,-122 969.839,-122 969.839,-86 1116.161,-86 1116.161,-122"/>
<text text-anchor="middle" x="1043" y="-99.8" font-family="Times,serif" font-size="14.00" fill="#000000">AnimationsComponent</text>
</g>
<!-- ExperimentsModule -->
<g id="node6" class="node">
<title>ExperimentsModule</title>
<polygon fill="#8dd3c7" stroke="#000000" points="608.309,-187 605.309,-191 584.309,-191 581.309,-187 477.691,-187 477.691,-151 608.309,-151 608.309,-187"/>
<text text-anchor="middle" x="543" y="-164.8" font-family="Times,serif" font-size="14.00" fill="#000000">ExperimentsModule</text>
</g>
<!-- AnimationsComponent&#45;&gt;ExperimentsModule -->
<g id="edge1" class="edge">
<title>AnimationsComponent&#45;&gt;ExperimentsModule</title>
<path fill="none" stroke="#000000" d="M1043,-122.2921C1043,-144.2057 1043,-178 1043,-178 1043,-178 618.3663,-178 618.3663,-178"/>
<polygon fill="#000000" stroke="#000000" points="618.3663,-174.5001 608.3663,-178 618.3662,-181.5001 618.3663,-174.5001"/>
</g>
<!-- ContextMenuComponent -->
<g id="node2" class="node">
<title>ContextMenuComponent</title>
<polygon fill="#ffffb3" stroke="#000000" points="952.3243,-122 793.6757,-122 793.6757,-86 952.3243,-86 952.3243,-122"/>
<text text-anchor="middle" x="873" y="-99.8" font-family="Times,serif" font-size="14.00" fill="#000000">ContextMenuComponent</text>
</g>
<!-- ContextMenuComponent&#45;&gt;ExperimentsModule -->
<g id="edge2" class="edge">
<title>ContextMenuComponent&#45;&gt;ExperimentsModule</title>
<path fill="none" stroke="#000000" d="M873,-122.1061C873,-141.3391 873,-169 873,-169 873,-169 618.1974,-169 618.1974,-169"/>
<polygon fill="#000000" stroke="#000000" points="618.1974,-165.5001 608.1974,-169 618.1973,-172.5001 618.1974,-165.5001"/>
</g>
<!-- FileUploadComponent -->
<g id="node3" class="node">
<title>FileUploadComponent</title>
<polygon fill="#ffffb3" stroke="#000000" points="776.323,-122 631.677,-122 631.677,-86 776.323,-86 776.323,-122"/>
<text text-anchor="middle" x="704" y="-99.8" font-family="Times,serif" font-size="14.00" fill="#000000">FileUploadComponent</text>
</g>
<!-- FileUploadComponent&#45;&gt;ExperimentsModule -->
<g id="edge3" class="edge">
<title>FileUploadComponent&#45;&gt;ExperimentsModule</title>
<path fill="none" stroke="#000000" d="M704,-122.027C704,-138.3976 704,-160 704,-160 704,-160 618.4849,-160 618.4849,-160"/>
<polygon fill="#000000" stroke="#000000" points="618.4849,-156.5001 608.4849,-160 618.4848,-163.5001 618.4849,-156.5001"/>
</g>
<!-- HammertimeDirective -->
<g id="node4" class="node">
<title>HammertimeDirective</title>
<polygon fill="#ffffb3" stroke="#000000" points="613.9468,-122 472.0532,-122 472.0532,-86 613.9468,-86 613.9468,-122"/>
<text text-anchor="middle" x="543" y="-99.8" font-family="Times,serif" font-size="14.00" fill="#000000">HammertimeDirective</text>
</g>
<!-- HammertimeDirective&#45;&gt;ExperimentsModule -->
<g id="edge4" class="edge">
<title>HammertimeDirective&#45;&gt;ExperimentsModule</title>
<path fill="none" stroke="#000000" d="M543,-122.1061C543,-122.1061 543,-140.991 543,-140.991"/>
<polygon fill="#000000" stroke="#000000" points="539.5001,-140.9909 543,-150.991 546.5001,-140.991 539.5001,-140.9909"/>
</g>
<!-- VirtualScrollComponent -->
<g id="node5" class="node">
<title>VirtualScrollComponent</title>
<polygon fill="#ffffb3" stroke="#000000" points="454.4256,-122 299.5744,-122 299.5744,-86 454.4256,-86 454.4256,-122"/>
<text text-anchor="middle" x="377" y="-99.8" font-family="Times,serif" font-size="14.00" fill="#000000">VirtualScrollComponent</text>
</g>
<!-- VirtualScrollComponent&#45;&gt;ExperimentsModule -->
<g id="edge5" class="edge">
<title>VirtualScrollComponent&#45;&gt;ExperimentsModule</title>
<path fill="none" stroke="#000000" d="M377,-122.027C377,-138.3976 377,-160 377,-160 377,-160 467.3924,-160 467.3924,-160"/>
<polygon fill="#000000" stroke="#000000" points="467.3924,-163.5001 477.3924,-160 467.3924,-156.5001 467.3924,-163.5001"/>
</g>
<!-- ContextMenuModule -->
<g id="node7" class="node">
<title>ContextMenuModule</title>
<polygon fill="#8dd3c7" stroke="#000000" points="276.0422,-122 273.0422,-126 252.0422,-126 249.0422,-122 139.9578,-122 139.9578,-86 276.0422,-86 276.0422,-122"/>
<text text-anchor="middle" x="208" y="-99.8" font-family="Times,serif" font-size="14.00" fill="#000000">ContextMenuModule</text>
</g>
<!-- ContextMenuModule&#45;&gt;ExperimentsModule -->
<g id="edge6" class="edge">
<title>ContextMenuModule&#45;&gt;ExperimentsModule</title>
<path fill="none" stroke="#000000" d="M208,-122.1061C208,-141.3391 208,-169 208,-169 208,-169 467.6134,-169 467.6134,-169"/>
<polygon fill="#000000" stroke="#000000" points="467.6134,-172.5001 477.6134,-169 467.6133,-165.5001 467.6134,-172.5001"/>
</g>
<!-- SharedModule -->
<g id="node8" class="node">
<title>SharedModule</title>
<polygon fill="#8dd3c7" stroke="#000000" points="122.4231,-122 119.4231,-126 98.4231,-126 95.4231,-122 23.5769,-122 23.5769,-86 122.4231,-86 122.4231,-122"/>
<text text-anchor="middle" x="73" y="-99.8" font-family="Times,serif" font-size="14.00" fill="#000000">SharedModule</text>
</g>
<!-- SharedModule&#45;&gt;ExperimentsModule -->
<g id="edge7" class="edge">
<title>SharedModule&#45;&gt;ExperimentsModule</title>
<path fill="none" stroke="#000000" d="M73,-122.2921C73,-144.2057 73,-178 73,-178 73,-178 467.6485,-178 467.6485,-178"/>
<polygon fill="#000000" stroke="#000000" points="467.6485,-181.5001 477.6485,-178 467.6485,-174.5001 467.6485,-181.5001"/>
</g>
</g>
</svg>
