<?xml version="1.0" encoding="UTF-8" standalone="no"?>
<!DOCTYPE svg PUBLIC "-//W3C//DTD SVG 1.1//EN"
 "http://www.w3.org/Graphics/SVG/1.1/DTD/svg11.dtd">
<!-- Generated by graphviz version 2.40.1 (20161225.0304)
 -->
<!-- Title: dependencies Pages: 1 -->
<svg width="1262pt" height="284pt"
 viewBox="0.00 0.00 1262.00 284.00" xmlns="http://www.w3.org/2000/svg" xmlns:xlink="http://www.w3.org/1999/xlink">
<g id="graph0" class="graph" transform="scale(1 1) rotate(0) translate(4 280)">
<title>dependencies</title>
<polygon fill="#ffffff" stroke="transparent" points="-4,4 -4,-280 1258,-280 1258,4 -4,4"/>
<text text-anchor="start" x="606.0091" y="-42.4" font-family="sans-serif" font-weight="bold" font-size="14.00" fill="#000000">Legend</text>
<polygon fill="#ffffb3" stroke="transparent" points="393,-10 393,-30 413,-30 413,-10 393,-10"/>
<text text-anchor="start" x="416.629" y="-15.4" font-family="sans-serif" font-size="14.00" fill="#000000"> &#160;Declarations</text>
<polygon fill="#8dd3c7" stroke="transparent" points="506,-10 506,-30 526,-30 526,-10 506,-10"/>
<text text-anchor="start" x="529.7251" y="-15.4" font-family="sans-serif" font-size="14.00" fill="#000000"> &#160;Module</text>
<polygon fill="#80b1d3" stroke="transparent" points="592,-10 592,-30 612,-30 612,-10 592,-10"/>
<text text-anchor="start" x="615.7812" y="-15.4" font-family="sans-serif" font-size="14.00" fill="#000000"> &#160;Bootstrap</text>
<polygon fill="#fdb462" stroke="transparent" points="689,-10 689,-30 709,-30 709,-10 689,-10"/>
<text text-anchor="start" x="712.6732" y="-15.4" font-family="sans-serif" font-size="14.00" fill="#000000"> &#160;Providers</text>
<polygon fill="#fb8072" stroke="transparent" points="785,-10 785,-30 805,-30 805,-10 785,-10"/>
<text text-anchor="start" x="808.7258" y="-15.4" font-family="sans-serif" font-size="14.00" fill="#000000"> &#160;Exports</text>
<g id="clust1" class="cluster">
<title>cluster_ToolbarModule</title>
<polygon fill="none" stroke="#000000" stroke-dasharray="1,5" points="8,-70 8,-268 1246,-268 1246,-70 8,-70"/>
</g>
<g id="clust2" class="cluster">
<title>cluster_ToolbarModule_declarations</title>
<polygon fill="none" stroke="#000000" points="310,-78 310,-130 1238,-130 1238,-78 310,-78"/>
</g>
<g id="clust9" class="cluster">
<title>cluster_ToolbarModule_imports</title>
<polygon fill="none" stroke="#000000" points="16,-78 16,-130 302,-130 302,-78 16,-78"/>
</g>
<g id="clust10" class="cluster">
<title>cluster_ToolbarModule_exports</title>
<polygon fill="none" stroke="#000000" points="557,-208 557,-260 703,-260 703,-208 557,-208"/>
</g>
<!-- ToolbarComponent -->
<g id="node1" class="node">
<title>ToolbarComponent</title>
<polygon fill="#ffffb3" stroke="#000000" points="1229.6513,-122 1104.3487,-122 1104.3487,-86 1229.6513,-86 1229.6513,-122"/>
<text text-anchor="middle" x="1167" y="-99.8" font-family="Times,serif" font-size="14.00" fill="#000000">ToolbarComponent</text>
</g>
<!-- ToolbarModule -->
<g id="node7" class="node">
<title>ToolbarModule</title>
<polygon fill="#8dd3c7" stroke="#000000" points="681.8683,-187 678.8683,-191 657.8683,-191 654.8683,-187 578.1317,-187 578.1317,-151 681.8683,-151 681.8683,-187"/>
<text text-anchor="middle" x="630" y="-164.8" font-family="Times,serif" font-size="14.00" fill="#000000">ToolbarModule</text>
</g>
<!-- ToolbarComponent&#45;&gt;ToolbarModule -->
<g id="edge1" class="edge">
<title>ToolbarComponent&#45;&gt;ToolbarModule</title>
<path fill="none" stroke="#000000" d="M1167,-122.2921C1167,-144.2057 1167,-178 1167,-178 1167,-178 691.9777,-178 691.9777,-178"/>
<polygon fill="#000000" stroke="#000000" points="691.9778,-174.5001 681.9777,-178 691.9777,-181.5001 691.9778,-174.5001"/>
</g>
<!-- SearchComponent -->
<g id="node2" class="node">
<title>SearchComponent</title>
<polygon fill="#ffffb3" stroke="#000000" points="1085.9201,-122 966.0799,-122 966.0799,-86 1085.9201,-86 1085.9201,-122"/>
<text text-anchor="middle" x="1026" y="-99.8" font-family="Times,serif" font-size="14.00" fill="#000000">SearchComponent</text>
</g>
<!-- SearchComponent&#45;&gt;ToolbarModule -->
<g id="edge2" class="edge">
<title>SearchComponent&#45;&gt;ToolbarModule</title>
<path fill="none" stroke="#000000" d="M1026,-122.1061C1026,-141.3391 1026,-169 1026,-169 1026,-169 692.1773,-169 692.1773,-169"/>
<polygon fill="#000000" stroke="#000000" points="692.1773,-165.5001 682.1773,-169 692.1773,-172.5001 692.1773,-165.5001"/>
</g>
<!-- SearchBarComponent -->
<g id="node3" class="node">
<title>SearchBarComponent</title>
<polygon fill="#ffffb3" stroke="#000000" points="947.6317,-122 808.3683,-122 808.3683,-86 947.6317,-86 947.6317,-122"/>
<text text-anchor="middle" x="878" y="-99.8" font-family="Times,serif" font-size="14.00" fill="#000000">SearchBarComponent</text>
</g>
<!-- SearchBarComponent&#45;&gt;ToolbarModule -->
<g id="edge3" class="edge">
<title>SearchBarComponent&#45;&gt;ToolbarModule</title>
<path fill="none" stroke="#000000" d="M878,-122.027C878,-138.3976 878,-160 878,-160 878,-160 691.9889,-160 691.9889,-160"/>
<polygon fill="#000000" stroke="#000000" points="691.989,-156.5001 681.9889,-160 691.9889,-163.5001 691.989,-156.5001"/>
</g>
<!-- NotificationsComponent -->
<g id="node4" class="node">
<title>NotificationsComponent</title>
<polygon fill="#ffffb3" stroke="#000000" points="790.427,-122 635.573,-122 635.573,-86 790.427,-86 790.427,-122"/>
<text text-anchor="middle" x="713" y="-99.8" font-family="Times,serif" font-size="14.00" fill="#000000">NotificationsComponent</text>
</g>
<!-- NotificationsComponent&#45;&gt;ToolbarModule -->
<g id="edge4" class="edge">
<title>NotificationsComponent&#45;&gt;ToolbarModule</title>
<path fill="none" stroke="#000000" d="M658.8604,-122.1061C658.8604,-122.1061 658.8604,-140.991 658.8604,-140.991"/>
<polygon fill="#000000" stroke="#000000" points="655.3605,-140.9909 658.8604,-150.991 662.3605,-140.991 655.3605,-140.9909"/>
</g>
<!-- UserMenuComponent -->
<g id="node5" class="node">
<title>UserMenuComponent</title>
<polygon fill="#ffffb3" stroke="#000000" points="618.4186,-122 477.5814,-122 477.5814,-86 618.4186,-86 618.4186,-122"/>
<text text-anchor="middle" x="548" y="-99.8" font-family="Times,serif" font-size="14.00" fill="#000000">UserMenuComponent</text>
</g>
<!-- UserMenuComponent&#45;&gt;ToolbarModule -->
<g id="edge5" class="edge">
<title>UserMenuComponent&#45;&gt;ToolbarModule</title>
<path fill="none" stroke="#000000" d="M598.1375,-122.1061C598.1375,-122.1061 598.1375,-140.991 598.1375,-140.991"/>
<polygon fill="#000000" stroke="#000000" points="594.6375,-140.9909 598.1375,-150.991 601.6375,-140.991 594.6375,-140.9909"/>
</g>
<!-- ClickOutsideDirective -->
<g id="node6" class="node">
<title>ClickOutsideDirective</title>
<polygon fill="#ffffb3" stroke="#000000" points="459.9622,-122 318.0378,-122 318.0378,-86 459.9622,-86 459.9622,-122"/>
<text text-anchor="middle" x="389" y="-99.8" font-family="Times,serif" font-size="14.00" fill="#000000">ClickOutsideDirective</text>
</g>
<!-- ClickOutsideDirective&#45;&gt;ToolbarModule -->
<g id="edge6" class="edge">
<title>ClickOutsideDirective&#45;&gt;ToolbarModule</title>
<path fill="none" stroke="#000000" d="M389,-122.027C389,-138.3976 389,-160 389,-160 389,-160 568.0033,-160 568.0033,-160"/>
<polygon fill="#000000" stroke="#000000" points="568.0033,-163.5001 578.0033,-160 568.0033,-156.5001 568.0033,-163.5001"/>
</g>
<!-- ToolbarComponent  -->
<g id="node10" class="node">
<title>ToolbarComponent </title>
<polygon fill="#fb8072" stroke="#000000" points="694.6509,-252 565.3491,-252 565.3491,-216 694.6509,-216 694.6509,-252"/>
<text text-anchor="middle" x="630" y="-229.8" font-family="Times,serif" font-size="14.00" fill="#000000">ToolbarComponent </text>
</g>
<!-- ToolbarModule&#45;&gt;ToolbarComponent  -->
<g id="edge9" class="edge">
<title>ToolbarModule&#45;&gt;ToolbarComponent </title>
<path fill="none" stroke="#000000" stroke-dasharray="5,2" d="M630,-187.1061C630,-187.1061 630,-205.991 630,-205.991"/>
<polygon fill="#000000" stroke="#000000" points="626.5001,-205.9909 630,-215.991 633.5001,-205.991 626.5001,-205.9909"/>
</g>
<!-- FullscreenModule -->
<g id="node8" class="node">
<title>FullscreenModule</title>
<polygon fill="#8dd3c7" stroke="#000000" points="293.8627,-122 290.8627,-126 269.8627,-126 266.8627,-122 176.1373,-122 176.1373,-86 293.8627,-86 293.8627,-122"/>
<text text-anchor="middle" x="235" y="-99.8" font-family="Times,serif" font-size="14.00" fill="#000000">FullscreenModule</text>
</g>
<!-- FullscreenModule&#45;&gt;ToolbarModule -->
<g id="edge7" class="edge">
<title>FullscreenModule&#45;&gt;ToolbarModule</title>
<path fill="none" stroke="#000000" d="M235,-122.1061C235,-141.3391 235,-169 235,-169 235,-169 567.9545,-169 567.9545,-169"/>
<polygon fill="#000000" stroke="#000000" points="567.9545,-172.5001 577.9545,-169 567.9544,-165.5001 567.9545,-172.5001"/>
</g>
<!-- BreadcrumbsModule -->
<g id="node9" class="node">
<title>BreadcrumbsModule</title>
<polygon fill="#8dd3c7" stroke="#000000" points="158.1867,-122 155.1867,-126 134.1867,-126 131.1867,-122 23.8133,-122 23.8133,-86 158.1867,-86 158.1867,-122"/>
<text text-anchor="middle" x="91" y="-99.8" font-family="Times,serif" font-size="14.00" fill="#000000">BreadcrumbsModule</text>
</g>
<!-- BreadcrumbsModule&#45;&gt;ToolbarModule -->
<g id="edge8" class="edge">
<title>BreadcrumbsModule&#45;&gt;ToolbarModule</title>
<path fill="none" stroke="#000000" d="M91,-122.2921C91,-144.2057 91,-178 91,-178 91,-178 567.8287,-178 567.8287,-178"/>
<polygon fill="#000000" stroke="#000000" points="567.8287,-181.5001 577.8287,-178 567.8286,-174.5001 567.8287,-181.5001"/>
</g>
</g>
</svg>
