<?xml version="1.0" encoding="UTF-8" standalone="no"?>
<!DOCTYPE svg PUBLIC "-//W3C//DTD SVG 1.1//EN"
 "http://www.w3.org/Graphics/SVG/1.1/DTD/svg11.dtd">
<!-- Generated by graphviz version 2.40.1 (20161225.0304)
 -->
<!-- Title: dependencies Pages: 1 -->
<svg width="1646pt" height="284pt"
 viewBox="0.00 0.00 1646.00 284.00" xmlns="http://www.w3.org/2000/svg" xmlns:xlink="http://www.w3.org/1999/xlink">
<g id="graph0" class="graph" transform="scale(1 1) rotate(0) translate(4 280)">
<title>dependencies</title>
<polygon fill="#ffffff" stroke="transparent" points="-4,4 -4,-280 1642,-280 1642,4 -4,4"/>
<text text-anchor="start" x="798.0091" y="-42.4" font-family="sans-serif" font-weight="bold" font-size="14.00" fill="#000000">Legend</text>
<polygon fill="#ffffb3" stroke="transparent" points="585,-10 585,-30 605,-30 605,-10 585,-10"/>
<text text-anchor="start" x="608.629" y="-15.4" font-family="sans-serif" font-size="14.00" fill="#000000"> &#160;Declarations</text>
<polygon fill="#8dd3c7" stroke="transparent" points="698,-10 698,-30 718,-30 718,-10 698,-10"/>
<text text-anchor="start" x="721.7251" y="-15.4" font-family="sans-serif" font-size="14.00" fill="#000000"> &#160;Module</text>
<polygon fill="#80b1d3" stroke="transparent" points="784,-10 784,-30 804,-30 804,-10 784,-10"/>
<text text-anchor="start" x="807.7812" y="-15.4" font-family="sans-serif" font-size="14.00" fill="#000000"> &#160;Bootstrap</text>
<polygon fill="#fdb462" stroke="transparent" points="881,-10 881,-30 901,-30 901,-10 881,-10"/>
<text text-anchor="start" x="904.6732" y="-15.4" font-family="sans-serif" font-size="14.00" fill="#000000"> &#160;Providers</text>
<polygon fill="#fb8072" stroke="transparent" points="977,-10 977,-30 997,-30 997,-10 977,-10"/>
<text text-anchor="start" x="1000.7258" y="-15.4" font-family="sans-serif" font-size="14.00" fill="#000000"> &#160;Exports</text>
<g id="clust1" class="cluster">
<title>cluster_ToolbarModule</title>
<polygon fill="none" stroke="#000000" stroke-dasharray="1,5" points="8,-70 8,-268 1630,-268 1630,-70 8,-70"/>
</g>
<g id="clust2" class="cluster">
<title>cluster_ToolbarModule_declarations</title>
<polygon fill="none" stroke="#000000" points="441,-78 441,-130 1622,-130 1622,-78 441,-78"/>
</g>
<g id="clust10" class="cluster">
<title>cluster_ToolbarModule_imports</title>
<polygon fill="none" stroke="#000000" points="16,-78 16,-130 433,-130 433,-78 16,-78"/>
</g>
<g id="clust11" class="cluster">
<title>cluster_ToolbarModule_exports</title>
<polygon fill="none" stroke="#000000" points="679,-208 679,-260 825,-260 825,-208 679,-208"/>
</g>
<!-- FullscreenToggleComponent -->
<g id="node1" class="node">
<title>FullscreenToggleComponent</title>
<polygon fill="#ffffb3" stroke="#000000" points="1613.8033,-122 1434.1967,-122 1434.1967,-86 1613.8033,-86 1613.8033,-122"/>
<text text-anchor="middle" x="1524" y="-99.8" font-family="Times,serif" font-size="14.00" fill="#000000">FullscreenToggleComponent</text>
</g>
<!-- ToolbarModule -->
<g id="node8" class="node">
<title>ToolbarModule</title>
<polygon fill="#8dd3c7" stroke="#000000" points="803.8683,-187 800.8683,-191 779.8683,-191 776.8683,-187 700.1317,-187 700.1317,-151 803.8683,-151 803.8683,-187"/>
<text text-anchor="middle" x="752" y="-164.8" font-family="Times,serif" font-size="14.00" fill="#000000">ToolbarModule</text>
</g>
<!-- FullscreenToggleComponent&#45;&gt;ToolbarModule -->
<g id="edge1" class="edge">
<title>FullscreenToggleComponent&#45;&gt;ToolbarModule</title>
<path fill="none" stroke="#000000" d="M1524,-122.0109C1524,-144.4852 1524,-180 1524,-180 1524,-180 814.1534,-180 814.1534,-180"/>
<polygon fill="#000000" stroke="#000000" points="814.1535,-176.5001 804.1534,-180 814.1534,-183.5001 814.1535,-176.5001"/>
</g>
<!-- QuickpanelToggleComponent -->
<g id="node2" class="node">
<title>QuickpanelToggleComponent</title>
<polygon fill="#ffffb3" stroke="#000000" points="1416.5224,-122 1231.4776,-122 1231.4776,-86 1416.5224,-86 1416.5224,-122"/>
<text text-anchor="middle" x="1324" y="-99.8" font-family="Times,serif" font-size="14.00" fill="#000000">QuickpanelToggleComponent</text>
</g>
<!-- QuickpanelToggleComponent&#45;&gt;ToolbarModule -->
<g id="edge2" class="edge">
<title>QuickpanelToggleComponent&#45;&gt;ToolbarModule</title>
<path fill="none" stroke="#000000" d="M1324,-122.1289C1324,-142.5724 1324,-173 1324,-173 1324,-173 814.0235,-173 814.0235,-173"/>
<polygon fill="#000000" stroke="#000000" points="814.0236,-169.5001 804.0235,-173 814.0235,-176.5001 814.0236,-169.5001"/>
</g>
<!-- SearchBarComponent -->
<g id="node3" class="node">
<title>SearchBarComponent</title>
<polygon fill="#ffffb3" stroke="#000000" points="1212.6317,-122 1073.3683,-122 1073.3683,-86 1212.6317,-86 1212.6317,-122"/>
<text text-anchor="middle" x="1143" y="-99.8" font-family="Times,serif" font-size="14.00" fill="#000000">SearchBarComponent</text>
</g>
<!-- SearchBarComponent&#45;&gt;ToolbarModule -->
<g id="edge3" class="edge">
<title>SearchBarComponent&#45;&gt;ToolbarModule</title>
<path fill="none" stroke="#000000" d="M1143,-122.2667C1143,-140.5552 1143,-166 1143,-166 1143,-166 813.9218,-166 813.9218,-166"/>
<polygon fill="#000000" stroke="#000000" points="813.9218,-162.5001 803.9218,-166 813.9217,-169.5001 813.9218,-162.5001"/>
</g>
<!-- SearchComponent -->
<g id="node4" class="node">
<title>SearchComponent</title>
<polygon fill="#ffffb3" stroke="#000000" points="1054.9201,-122 935.0799,-122 935.0799,-86 1054.9201,-86 1054.9201,-122"/>
<text text-anchor="middle" x="995" y="-99.8" font-family="Times,serif" font-size="14.00" fill="#000000">SearchComponent</text>
</g>
<!-- SearchComponent&#45;&gt;ToolbarModule -->
<g id="edge4" class="edge">
<title>SearchComponent&#45;&gt;ToolbarModule</title>
<path fill="none" stroke="#000000" d="M995,-122.0091C995,-138.0494 995,-159 995,-159 995,-159 814.1296,-159 814.1296,-159"/>
<polygon fill="#000000" stroke="#000000" points="814.1296,-155.5001 804.1296,-159 814.1296,-162.5001 814.1296,-155.5001"/>
</g>
<!-- SidenavToggleComponent -->
<g id="node5" class="node">
<title>SidenavToggleComponent</title>
<polygon fill="#ffffb3" stroke="#000000" points="917.0926,-122 750.9074,-122 750.9074,-86 917.0926,-86 917.0926,-122"/>
<text text-anchor="middle" x="834" y="-99.8" font-family="Times,serif" font-size="14.00" fill="#000000">SidenavToggleComponent</text>
</g>
<!-- SidenavToggleComponent&#45;&gt;ToolbarModule -->
<g id="edge5" class="edge">
<title>SidenavToggleComponent&#45;&gt;ToolbarModule</title>
<path fill="none" stroke="#000000" d="M777.4439,-122.1061C777.4439,-122.1061 777.4439,-140.991 777.4439,-140.991"/>
<polygon fill="#000000" stroke="#000000" points="773.944,-140.9909 777.4439,-150.991 780.944,-140.991 773.944,-140.9909"/>
</g>
<!-- ToolbarComponent -->
<g id="node6" class="node">
<title>ToolbarComponent</title>
<polygon fill="#ffffb3" stroke="#000000" points="732.6513,-122 607.3487,-122 607.3487,-86 732.6513,-86 732.6513,-122"/>
<text text-anchor="middle" x="670" y="-99.8" font-family="Times,serif" font-size="14.00" fill="#000000">ToolbarComponent</text>
</g>
<!-- ToolbarComponent&#45;&gt;ToolbarModule -->
<g id="edge6" class="edge">
<title>ToolbarComponent&#45;&gt;ToolbarModule</title>
<path fill="none" stroke="#000000" d="M716.4457,-122.1061C716.4457,-122.1061 716.4457,-140.991 716.4457,-140.991"/>
<polygon fill="#000000" stroke="#000000" points="712.9457,-140.9909 716.4457,-150.991 719.9457,-140.991 712.9457,-140.9909"/>
</g>
<!-- UserMenuComponent -->
<g id="node7" class="node">
<title>UserMenuComponent</title>
<polygon fill="#ffffb3" stroke="#000000" points="589.4186,-122 448.5814,-122 448.5814,-86 589.4186,-86 589.4186,-122"/>
<text text-anchor="middle" x="519" y="-99.8" font-family="Times,serif" font-size="14.00" fill="#000000">UserMenuComponent</text>
</g>
<!-- UserMenuComponent&#45;&gt;ToolbarModule -->
<g id="edge7" class="edge">
<title>UserMenuComponent&#45;&gt;ToolbarModule</title>
<path fill="none" stroke="#000000" d="M519,-122.0091C519,-138.0494 519,-159 519,-159 519,-159 690.0003,-159 690.0003,-159"/>
<polygon fill="#000000" stroke="#000000" points="690.0003,-162.5001 700.0003,-159 690.0002,-155.5001 690.0003,-162.5001"/>
</g>
<!-- ToolbarComponent  -->
<g id="node12" class="node">
<title>ToolbarComponent </title>
<polygon fill="#fb8072" stroke="#000000" points="816.6509,-252 687.3491,-252 687.3491,-216 816.6509,-216 816.6509,-252"/>
<text text-anchor="middle" x="752" y="-229.8" font-family="Times,serif" font-size="14.00" fill="#000000">ToolbarComponent </text>
</g>
<!-- ToolbarModule&#45;&gt;ToolbarComponent  -->
<g id="edge11" class="edge">
<title>ToolbarModule&#45;&gt;ToolbarComponent </title>
<path fill="none" stroke="#000000" stroke-dasharray="5,2" d="M752,-187.1061C752,-187.1061 752,-205.991 752,-205.991"/>
<polygon fill="#000000" stroke="#000000" points="748.5001,-205.9909 752,-215.991 755.5001,-205.991 748.5001,-205.9909"/>
</g>
<!-- NotificationsModule -->
<g id="node9" class="node">
<title>NotificationsModule</title>
<polygon fill="#8dd3c7" stroke="#000000" points="425.1443,-122 422.1443,-126 401.1443,-126 398.1443,-122 292.8557,-122 292.8557,-86 425.1443,-86 425.1443,-122"/>
<text text-anchor="middle" x="359" y="-99.8" font-family="Times,serif" font-size="14.00" fill="#000000">NotificationsModule</text>
</g>
<!-- NotificationsModule&#45;&gt;ToolbarModule -->
<g id="edge8" class="edge">
<title>NotificationsModule&#45;&gt;ToolbarModule</title>
<path fill="none" stroke="#000000" d="M359,-122.2667C359,-140.5552 359,-166 359,-166 359,-166 689.8126,-166 689.8126,-166"/>
<polygon fill="#000000" stroke="#000000" points="689.8127,-169.5001 699.8126,-166 689.8126,-162.5001 689.8127,-169.5001"/>
</g>
<!-- SharedModule -->
<g id="node10" class="node">
<title>SharedModule</title>
<polygon fill="#8dd3c7" stroke="#000000" points="274.4231,-122 271.4231,-126 250.4231,-126 247.4231,-122 175.5769,-122 175.5769,-86 274.4231,-86 274.4231,-122"/>
<text text-anchor="middle" x="225" y="-99.8" font-family="Times,serif" font-size="14.00" fill="#000000">SharedModule</text>
</g>
<!-- SharedModule&#45;&gt;ToolbarModule -->
<g id="edge9" class="edge">
<title>SharedModule&#45;&gt;ToolbarModule</title>
<path fill="none" stroke="#000000" d="M225,-122.1289C225,-142.5724 225,-173 225,-173 225,-173 690.0269,-173 690.0269,-173"/>
<polygon fill="#000000" stroke="#000000" points="690.027,-176.5001 700.0269,-173 690.0269,-169.5001 690.027,-176.5001"/>
</g>
<!-- ThemePickerModule -->
<g id="node11" class="node">
<title>ThemePickerModule</title>
<polygon fill="#8dd3c7" stroke="#000000" points="158.1853,-122 155.1853,-126 134.1853,-126 131.1853,-122 23.8147,-122 23.8147,-86 158.1853,-86 158.1853,-122"/>
<text text-anchor="middle" x="91" y="-99.8" font-family="Times,serif" font-size="14.00" fill="#000000">ThemePickerModule</text>
</g>
<!-- ThemePickerModule&#45;&gt;ToolbarModule -->
<g id="edge10" class="edge">
<title>ThemePickerModule&#45;&gt;ToolbarModule</title>
<path fill="none" stroke="#000000" d="M91,-122.0109C91,-144.4852 91,-180 91,-180 91,-180 689.8565,-180 689.8565,-180"/>
<polygon fill="#000000" stroke="#000000" points="689.8565,-183.5001 699.8565,-180 689.8565,-176.5001 689.8565,-183.5001"/>
</g>
</g>
</svg>
