<?xml version="1.0" encoding="UTF-8" standalone="no"?>
<!DOCTYPE svg PUBLIC "-//W3C//DTD SVG 1.1//EN"
 "http://www.w3.org/Graphics/SVG/1.1/DTD/svg11.dtd">
<!-- Generated by graphviz version 2.40.1 (20161225.0304)
 -->
<!-- Title: dependencies Pages: 1 -->
<svg width="1828pt" height="284pt"
 viewBox="0.00 0.00 1828.00 284.00" xmlns="http://www.w3.org/2000/svg" xmlns:xlink="http://www.w3.org/1999/xlink">
<g id="graph0" class="graph" transform="scale(1 1) rotate(0) translate(4 280)">
<title>dependencies</title>
<polygon fill="#ffffff" stroke="transparent" points="-4,4 -4,-280 1824,-280 1824,4 -4,4"/>
<text text-anchor="start" x="889.0091" y="-42.4" font-family="sans-serif" font-weight="bold" font-size="14.00" fill="#000000">Legend</text>
<polygon fill="#ffffb3" stroke="transparent" points="676,-10 676,-30 696,-30 696,-10 676,-10"/>
<text text-anchor="start" x="699.629" y="-15.4" font-family="sans-serif" font-size="14.00" fill="#000000"> &#160;Declarations</text>
<polygon fill="#8dd3c7" stroke="transparent" points="789,-10 789,-30 809,-30 809,-10 789,-10"/>
<text text-anchor="start" x="812.7251" y="-15.4" font-family="sans-serif" font-size="14.00" fill="#000000"> &#160;Module</text>
<polygon fill="#80b1d3" stroke="transparent" points="875,-10 875,-30 895,-30 895,-10 875,-10"/>
<text text-anchor="start" x="898.7812" y="-15.4" font-family="sans-serif" font-size="14.00" fill="#000000"> &#160;Bootstrap</text>
<polygon fill="#fdb462" stroke="transparent" points="972,-10 972,-30 992,-30 992,-10 972,-10"/>
<text text-anchor="start" x="995.6732" y="-15.4" font-family="sans-serif" font-size="14.00" fill="#000000"> &#160;Providers</text>
<polygon fill="#fb8072" stroke="transparent" points="1068,-10 1068,-30 1088,-30 1088,-10 1068,-10"/>
<text text-anchor="start" x="1091.7258" y="-15.4" font-family="sans-serif" font-size="14.00" fill="#000000"> &#160;Exports</text>
<g id="clust1" class="cluster">
<title>cluster_ToolbarModule</title>
<polygon fill="none" stroke="#000000" stroke-dasharray="1,5" points="8,-70 8,-268 1812,-268 1812,-70 8,-70"/>
</g>
<g id="clust2" class="cluster">
<title>cluster_ToolbarModule_declarations</title>
<polygon fill="none" stroke="#000000" points="290,-78 290,-130 1804,-130 1804,-78 290,-78"/>
</g>
<g id="clust12" class="cluster">
<title>cluster_ToolbarModule_imports</title>
<polygon fill="none" stroke="#000000" points="16,-78 16,-130 282,-130 282,-78 16,-78"/>
</g>
<g id="clust13" class="cluster">
<title>cluster_ToolbarModule_exports</title>
<polygon fill="none" stroke="#000000" points="771,-208 771,-260 917,-260 917,-208 771,-208"/>
</g>
<!-- ClickOutsideDirective -->
<g id="node1" class="node">
<title>ClickOutsideDirective</title>
<polygon fill="#ffffb3" stroke="#000000" points="1795.9622,-122 1654.0378,-122 1654.0378,-86 1795.9622,-86 1795.9622,-122"/>
<text text-anchor="middle" x="1725" y="-99.8" font-family="Times,serif" font-size="14.00" fill="#000000">ClickOutsideDirective</text>
</g>
<!-- ToolbarModule -->
<g id="node10" class="node">
<title>ToolbarModule</title>
<polygon fill="#8dd3c7" stroke="#000000" points="895.8683,-187 892.8683,-191 871.8683,-191 868.8683,-187 792.1317,-187 792.1317,-151 895.8683,-151 895.8683,-187"/>
<text text-anchor="middle" x="844" y="-164.8" font-family="Times,serif" font-size="14.00" fill="#000000">ToolbarModule</text>
</g>
<!-- ClickOutsideDirective&#45;&gt;ToolbarModule -->
<g id="edge1" class="edge">
<title>ClickOutsideDirective&#45;&gt;ToolbarModule</title>
<path fill="none" stroke="#000000" d="M1725,-122.2479C1725,-145.0179 1725,-181 1725,-181 1725,-181 906.1464,-181 906.1464,-181"/>
<polygon fill="#000000" stroke="#000000" points="906.1464,-177.5001 896.1464,-181 906.1464,-184.5001 906.1464,-177.5001"/>
</g>
<!-- FullscreenToggleComponent -->
<g id="node2" class="node">
<title>FullscreenToggleComponent</title>
<polygon fill="#ffffb3" stroke="#000000" points="1635.8033,-122 1456.1967,-122 1456.1967,-86 1635.8033,-86 1635.8033,-122"/>
<text text-anchor="middle" x="1546" y="-99.8" font-family="Times,serif" font-size="14.00" fill="#000000">FullscreenToggleComponent</text>
</g>
<!-- FullscreenToggleComponent&#45;&gt;ToolbarModule -->
<g id="edge2" class="edge">
<title>FullscreenToggleComponent&#45;&gt;ToolbarModule</title>
<path fill="none" stroke="#000000" d="M1546,-122.2843C1546,-143.3211 1546,-175 1546,-175 1546,-175 905.9048,-175 905.9048,-175"/>
<polygon fill="#000000" stroke="#000000" points="905.9049,-171.5001 895.9048,-175 905.9048,-178.5001 905.9049,-171.5001"/>
</g>
<!-- NotificationsComponent -->
<g id="node3" class="node">
<title>NotificationsComponent</title>
<polygon fill="#ffffb3" stroke="#000000" points="1438.427,-122 1283.573,-122 1283.573,-86 1438.427,-86 1438.427,-122"/>
<text text-anchor="middle" x="1361" y="-99.8" font-family="Times,serif" font-size="14.00" fill="#000000">NotificationsComponent</text>
</g>
<!-- NotificationsComponent&#45;&gt;ToolbarModule -->
<g id="edge3" class="edge">
<title>NotificationsComponent&#45;&gt;ToolbarModule</title>
<path fill="none" stroke="#000000" d="M1361,-122.1061C1361,-141.3391 1361,-169 1361,-169 1361,-169 905.9391,-169 905.9391,-169"/>
<polygon fill="#000000" stroke="#000000" points="905.9391,-165.5001 895.9391,-169 905.939,-172.5001 905.9391,-165.5001"/>
</g>
<!-- QuickpanelToggleComponent -->
<g id="node4" class="node">
<title>QuickpanelToggleComponent</title>
<polygon fill="#ffffb3" stroke="#000000" points="1265.5224,-122 1080.4776,-122 1080.4776,-86 1265.5224,-86 1265.5224,-122"/>
<text text-anchor="middle" x="1173" y="-99.8" font-family="Times,serif" font-size="14.00" fill="#000000">QuickpanelToggleComponent</text>
</g>
<!-- QuickpanelToggleComponent&#45;&gt;ToolbarModule -->
<g id="edge4" class="edge">
<title>QuickpanelToggleComponent&#45;&gt;ToolbarModule</title>
<path fill="none" stroke="#000000" d="M1173,-122.0225C1173,-139.3734 1173,-163 1173,-163 1173,-163 906.131,-163 906.131,-163"/>
<polygon fill="#000000" stroke="#000000" points="906.1311,-159.5001 896.131,-163 906.131,-166.5001 906.1311,-159.5001"/>
</g>
<!-- SearchBarComponent -->
<g id="node5" class="node">
<title>SearchBarComponent</title>
<polygon fill="#ffffb3" stroke="#000000" points="1061.6317,-122 922.3683,-122 922.3683,-86 1061.6317,-86 1061.6317,-122"/>
<text text-anchor="middle" x="992" y="-99.8" font-family="Times,serif" font-size="14.00" fill="#000000">SearchBarComponent</text>
</g>
<!-- SearchBarComponent&#45;&gt;ToolbarModule -->
<g id="edge5" class="edge">
<title>SearchBarComponent&#45;&gt;ToolbarModule</title>
<path fill="none" stroke="#000000" d="M992,-122.2396C992,-137.5706 992,-157 992,-157 992,-157 906.1793,-157 906.1793,-157"/>
<polygon fill="#000000" stroke="#000000" points="906.1793,-153.5001 896.1793,-157 906.1792,-160.5001 906.1793,-153.5001"/>
</g>
<!-- SearchComponent -->
<g id="node6" class="node">
<title>SearchComponent</title>
<polygon fill="#ffffb3" stroke="#000000" points="903.9201,-122 784.0799,-122 784.0799,-86 903.9201,-86 903.9201,-122"/>
<text text-anchor="middle" x="844" y="-99.8" font-family="Times,serif" font-size="14.00" fill="#000000">SearchComponent</text>
</g>
<!-- SearchComponent&#45;&gt;ToolbarModule -->
<g id="edge6" class="edge">
<title>SearchComponent&#45;&gt;ToolbarModule</title>
<path fill="none" stroke="#000000" d="M844,-122.1061C844,-122.1061 844,-140.991 844,-140.991"/>
<polygon fill="#000000" stroke="#000000" points="840.5001,-140.9909 844,-150.991 847.5001,-140.991 840.5001,-140.9909"/>
</g>
<!-- SidenavToggleComponent -->
<g id="node7" class="node">
<title>SidenavToggleComponent</title>
<polygon fill="#ffffb3" stroke="#000000" points="766.0926,-122 599.9074,-122 599.9074,-86 766.0926,-86 766.0926,-122"/>
<text text-anchor="middle" x="683" y="-99.8" font-family="Times,serif" font-size="14.00" fill="#000000">SidenavToggleComponent</text>
</g>
<!-- SidenavToggleComponent&#45;&gt;ToolbarModule -->
<g id="edge7" class="edge">
<title>SidenavToggleComponent&#45;&gt;ToolbarModule</title>
<path fill="none" stroke="#000000" d="M683,-122.2396C683,-137.5706 683,-157 683,-157 683,-157 781.7279,-157 781.7279,-157"/>
<polygon fill="#000000" stroke="#000000" points="781.7279,-160.5001 791.7279,-157 781.7279,-153.5001 781.7279,-160.5001"/>
</g>
<!-- ToolbarComponent -->
<g id="node8" class="node">
<title>ToolbarComponent</title>
<polygon fill="#ffffb3" stroke="#000000" points="581.6513,-122 456.3487,-122 456.3487,-86 581.6513,-86 581.6513,-122"/>
<text text-anchor="middle" x="519" y="-99.8" font-family="Times,serif" font-size="14.00" fill="#000000">ToolbarComponent</text>
</g>
<!-- ToolbarComponent&#45;&gt;ToolbarModule -->
<g id="edge8" class="edge">
<title>ToolbarComponent&#45;&gt;ToolbarModule</title>
<path fill="none" stroke="#000000" d="M519,-122.0225C519,-139.3734 519,-163 519,-163 519,-163 781.7831,-163 781.7831,-163"/>
<polygon fill="#000000" stroke="#000000" points="781.7832,-166.5001 791.7831,-163 781.7831,-159.5001 781.7832,-166.5001"/>
</g>
<!-- UserMenuComponent -->
<g id="node9" class="node">
<title>UserMenuComponent</title>
<polygon fill="#ffffb3" stroke="#000000" points="438.4186,-122 297.5814,-122 297.5814,-86 438.4186,-86 438.4186,-122"/>
<text text-anchor="middle" x="368" y="-99.8" font-family="Times,serif" font-size="14.00" fill="#000000">UserMenuComponent</text>
</g>
<!-- UserMenuComponent&#45;&gt;ToolbarModule -->
<g id="edge9" class="edge">
<title>UserMenuComponent&#45;&gt;ToolbarModule</title>
<path fill="none" stroke="#000000" d="M368,-122.1061C368,-141.3391 368,-169 368,-169 368,-169 781.6981,-169 781.6981,-169"/>
<polygon fill="#000000" stroke="#000000" points="781.6981,-172.5001 791.6981,-169 781.698,-165.5001 781.6981,-172.5001"/>
</g>
<!-- ToolbarComponent  -->
<g id="node13" class="node">
<title>ToolbarComponent </title>
<polygon fill="#fb8072" stroke="#000000" points="908.6509,-252 779.3491,-252 779.3491,-216 908.6509,-216 908.6509,-252"/>
<text text-anchor="middle" x="844" y="-229.8" font-family="Times,serif" font-size="14.00" fill="#000000">ToolbarComponent </text>
</g>
<!-- ToolbarModule&#45;&gt;ToolbarComponent  -->
<g id="edge12" class="edge">
<title>ToolbarModule&#45;&gt;ToolbarComponent </title>
<path fill="none" stroke="#000000" stroke-dasharray="5,2" d="M844,-187.1061C844,-187.1061 844,-205.991 844,-205.991"/>
<polygon fill="#000000" stroke="#000000" points="840.5001,-205.9909 844,-215.991 847.5001,-205.991 840.5001,-205.9909"/>
</g>
<!-- SharedModule -->
<g id="node11" class="node">
<title>SharedModule</title>
<polygon fill="#8dd3c7" stroke="#000000" points="274.4231,-122 271.4231,-126 250.4231,-126 247.4231,-122 175.5769,-122 175.5769,-86 274.4231,-86 274.4231,-122"/>
<text text-anchor="middle" x="225" y="-99.8" font-family="Times,serif" font-size="14.00" fill="#000000">SharedModule</text>
</g>
<!-- SharedModule&#45;&gt;ToolbarModule -->
<g id="edge10" class="edge">
<title>SharedModule&#45;&gt;ToolbarModule</title>
<path fill="none" stroke="#000000" d="M225,-122.2843C225,-143.3211 225,-175 225,-175 225,-175 782.0238,-175 782.0238,-175"/>
<polygon fill="#000000" stroke="#000000" points="782.0238,-178.5001 792.0238,-175 782.0237,-171.5001 782.0238,-178.5001"/>
</g>
<!-- ThemePickerModule -->
<g id="node12" class="node">
<title>ThemePickerModule</title>
<polygon fill="#8dd3c7" stroke="#000000" points="158.1853,-122 155.1853,-126 134.1853,-126 131.1853,-122 23.8147,-122 23.8147,-86 158.1853,-86 158.1853,-122"/>
<text text-anchor="middle" x="91" y="-99.8" font-family="Times,serif" font-size="14.00" fill="#000000">ThemePickerModule</text>
</g>
<!-- ThemePickerModule&#45;&gt;ToolbarModule -->
<g id="edge11" class="edge">
<title>ThemePickerModule&#45;&gt;ToolbarModule</title>
<path fill="none" stroke="#000000" d="M91,-122.2479C91,-145.0179 91,-181 91,-181 91,-181 781.9462,-181 781.9462,-181"/>
<polygon fill="#000000" stroke="#000000" points="781.9462,-184.5001 791.9462,-181 781.9461,-177.5001 781.9462,-184.5001"/>
</g>
</g>
</svg>
