<?xml version="1.0" encoding="UTF-8" standalone="no"?>
<!DOCTYPE svg PUBLIC "-//W3C//DTD SVG 1.1//EN"
 "http://www.w3.org/Graphics/SVG/1.1/DTD/svg11.dtd">
<!-- Generated by graphviz version 2.40.1 (20161225.0304)
 -->
<!-- Title: dependencies Pages: 1 -->
<svg width="504pt" height="284pt"
 viewBox="0.00 0.00 504.00 284.00" xmlns="http://www.w3.org/2000/svg" xmlns:xlink="http://www.w3.org/1999/xlink">
<g id="graph0" class="graph" transform="scale(1 1) rotate(0) translate(4 280)">
<title>dependencies</title>
<polygon fill="#ffffff" stroke="transparent" points="-4,4 -4,-280 500,-280 500,4 -4,4"/>
<text text-anchor="start" x="227.0091" y="-42.4" font-family="sans-serif" font-weight="bold" font-size="14.00" fill="#000000">Legend</text>
<polygon fill="#ffffb3" stroke="transparent" points="14,-10 14,-30 34,-30 34,-10 14,-10"/>
<text text-anchor="start" x="37.629" y="-15.4" font-family="sans-serif" font-size="14.00" fill="#000000"> &#160;Declarations</text>
<polygon fill="#8dd3c7" stroke="transparent" points="127,-10 127,-30 147,-30 147,-10 127,-10"/>
<text text-anchor="start" x="150.7251" y="-15.4" font-family="sans-serif" font-size="14.00" fill="#000000"> &#160;Module</text>
<polygon fill="#80b1d3" stroke="transparent" points="213,-10 213,-30 233,-30 233,-10 213,-10"/>
<text text-anchor="start" x="236.7812" y="-15.4" font-family="sans-serif" font-size="14.00" fill="#000000"> &#160;Bootstrap</text>
<polygon fill="#fdb462" stroke="transparent" points="310,-10 310,-30 330,-30 330,-10 310,-10"/>
<text text-anchor="start" x="333.6732" y="-15.4" font-family="sans-serif" font-size="14.00" fill="#000000"> &#160;Providers</text>
<polygon fill="#fb8072" stroke="transparent" points="406,-10 406,-30 426,-30 426,-10 406,-10"/>
<text text-anchor="start" x="429.7258" y="-15.4" font-family="sans-serif" font-size="14.00" fill="#000000"> &#160;Exports</text>
<g id="clust1" class="cluster">
<title>cluster_ScrollbarModule</title>
<polygon fill="none" stroke="#000000" stroke-dasharray="1,5" points="93.5,-70 93.5,-268 402.5,-268 402.5,-70 93.5,-70"/>
</g>
<g id="clust2" class="cluster">
<title>cluster_ScrollbarModule_declarations</title>
<polygon fill="none" stroke="#000000" points="105.5,-78 105.5,-130 391.5,-130 391.5,-78 105.5,-78"/>
</g>
<g id="clust6" class="cluster">
<title>cluster_ScrollbarModule_exports</title>
<polygon fill="none" stroke="#000000" points="101.5,-208 101.5,-260 394.5,-260 394.5,-208 101.5,-208"/>
</g>
<!-- ScrollbarComponent -->
<g id="node1" class="node">
<title>ScrollbarComponent</title>
<polygon fill="#ffffb3" stroke="#000000" points="383.6471,-122 251.3529,-122 251.3529,-86 383.6471,-86 383.6471,-122"/>
<text text-anchor="middle" x="317.5" y="-99.8" font-family="Times,serif" font-size="14.00" fill="#000000">ScrollbarComponent</text>
</g>
<!-- ScrollbarModule -->
<g id="node3" class="node">
<title>ScrollbarModule</title>
<polygon fill="#8dd3c7" stroke="#000000" points="228.8641,-187 225.8641,-191 204.8641,-191 201.8641,-187 118.1359,-187 118.1359,-151 228.8641,-151 228.8641,-187"/>
<text text-anchor="middle" x="173.5" y="-164.8" font-family="Times,serif" font-size="14.00" fill="#000000">ScrollbarModule</text>
</g>
<!-- ScrollbarComponent&#45;&gt;ScrollbarModule -->
<g id="edge1" class="edge">
<title>ScrollbarComponent&#45;&gt;ScrollbarModule</title>
<path fill="none" stroke="#000000" d="M339.6078,-122.0225C339.6078,-139.3734 339.6078,-163 339.6078,-163 339.6078,-163 239.2736,-163 239.2736,-163"/>
<polygon fill="#000000" stroke="#000000" points="239.2736,-159.5001 229.2736,-163 239.2735,-166.5001 239.2736,-159.5001"/>
</g>
<!-- ScrollbarDirective -->
<g id="node2" class="node">
<title>ScrollbarDirective</title>
<polygon fill="#ffffb3" stroke="#000000" points="233.3977,-122 113.6023,-122 113.6023,-86 233.3977,-86 233.3977,-122"/>
<text text-anchor="middle" x="173.5" y="-99.8" font-family="Times,serif" font-size="14.00" fill="#000000">ScrollbarDirective</text>
</g>
<!-- ScrollbarDirective&#45;&gt;ScrollbarModule -->
<g id="edge2" class="edge">
<title>ScrollbarDirective&#45;&gt;ScrollbarModule</title>
<path fill="none" stroke="#000000" d="M173.5,-122.1061C173.5,-122.1061 173.5,-140.991 173.5,-140.991"/>
<polygon fill="#000000" stroke="#000000" points="170.0001,-140.9909 173.5,-150.991 177.0001,-140.991 170.0001,-140.9909"/>
</g>
<!-- ScrollbarComponent  -->
<g id="node4" class="node">
<title>ScrollbarComponent </title>
<polygon fill="#fb8072" stroke="#000000" points="386.6467,-252 250.3533,-252 250.3533,-216 386.6467,-216 386.6467,-252"/>
<text text-anchor="middle" x="318.5" y="-229.8" font-family="Times,serif" font-size="14.00" fill="#000000">ScrollbarComponent </text>
</g>
<!-- ScrollbarModule&#45;&gt;ScrollbarComponent  -->
<g id="edge3" class="edge">
<title>ScrollbarModule&#45;&gt;ScrollbarComponent </title>
<path fill="none" stroke="#000000" stroke-dasharray="5,2" d="M229.0957,-175C261.2435,-175 295.3922,-175 295.3922,-175 295.3922,-175 295.3922,-205.9775 295.3922,-205.9775"/>
<polygon fill="#000000" stroke="#000000" points="291.8923,-205.9774 295.3922,-215.9775 298.8923,-205.9775 291.8923,-205.9774"/>
</g>
<!-- ScrollbarDirective  -->
<g id="node5" class="node">
<title>ScrollbarDirective </title>
<polygon fill="#fb8072" stroke="#000000" points="231.897,-252 109.103,-252 109.103,-216 231.897,-216 231.897,-252"/>
<text text-anchor="middle" x="170.5" y="-229.8" font-family="Times,serif" font-size="14.00" fill="#000000">ScrollbarDirective </text>
</g>
<!-- ScrollbarModule&#45;&gt;ScrollbarDirective  -->
<g id="edge4" class="edge">
<title>ScrollbarModule&#45;&gt;ScrollbarDirective </title>
<path fill="none" stroke="#000000" stroke-dasharray="5,2" d="M173.5,-187.1061C173.5,-187.1061 173.5,-205.991 173.5,-205.991"/>
<polygon fill="#000000" stroke="#000000" points="170.0001,-205.9909 173.5,-215.991 177.0001,-205.991 170.0001,-205.9909"/>
</g>
</g>
</svg>
